<svg xmlns="http://www.w3.org/2000/svg" viewBox="0 0 24.51 61.76"><title>Asset 3</title><g id="Layer_2" data-name="Layer 2"><g id="Layer_1-2" data-name="Layer 1"><line x1="6.86" y1="30.98" x2="3.21" y2="61.71" fill="none" stroke="#231f20" stroke-miterlimit="10" stroke-width="0.24"/><path d="M6.4,31.22l-.7,1.57L7.14,32l1.2,1.16L8,31.42l1.43-.85-1.63-.19-.31-1.69-.69,1.57-1.64-.19Z" transform="translate(-0.31 -0.75)" fill="#231f20"/><path d="M4.69,23.23,7,23.5l0,.34-1-.11-.45,3.81-.37,0,.45-3.81-1-.11Z" transform="translate(-0.31 -0.75)" fill="#231f20"/><path d="M7.58,23.57l.48.06,1.31,3.9h0l.44-3.69.34,0L9.67,28,9.19,28,7.88,24.1h0l-.44,3.67-.35,0Z" transform="translate(-0.31 -0.75)" fill="#231f20"/><line x1="3.21" y1="61.71" x2="3.21" y2="5.88" fill="none" stroke="#231f20" stroke-miterlimit="10" stroke-width="0.24"/><circle cx="3.21" cy="5.92" r="0.9" fill="#231f20"/><path d="M2,2.73H3.1V4.79a2,2,0,0,1-1,.23A1.94,1.94,0,0,1,.31,2.85,1.91,1.91,0,0,1,2.12.75,2.25,2.25,0,0,1,3,1l0,.41A1.72,1.72,0,0,0,2.1,1.1C1.5,1.1.7,1.56.7,2.88c0,.77.35,1.79,1.45,1.79a1.13,1.13,0,0,0,.58-.13V3.08H2Z" transform="translate(-0.31 -0.75)" fill="#231f20"/><path d="M4,.79h.48L6.27,4.51h0V.79h.35V5H6.15L4.4,1.29h0V5H4Z" transform="translate(-0.31 -0.75)" fill="#231f20"/><line x1="3.21" y1="61.71" x2="18.57" y2="21.65" fill="none" stroke="#231f20" stroke-miterlimit="10" stroke-width="0.24"/><path d="M18.69,22.91l-1.24.23v0l1.28-1.39,1-1.57L19.47,22l0,1.9,0,0Z" transform="translate(-0.31 -0.75)" fill="#231f20"/><path d="M18.25,14.23l.53.21-.21,3.81h0l2.39-3,.53.2L20,19.39l-.33-.12L21,15.68h0L18.5,18.82l-.26-.1.22-4h0l-1.37,3.58-.32-.12Z" transform="translate(-0.31 -0.75)" fill="#231f20"/><path d="M22.39,15.82l.45.17.31,4.1h0l1.33-3.47.32.13-1.5,3.91-.45-.17-.32-4.08h0l-1.32,3.45-.33-.12Z" transform="translate(-0.31 -0.75)" fill="#231f20"/><path d="M7.54,28.52a37,37,0,0,0-4-.22" transform="translate(-0.31 -0.75)" fill="none" stroke="#231f20" stroke-miterlimit="10" stroke-width="0.24" stroke-dasharray="0.2 0.4"/><path d="M19.78,20.06a48.2,48.2,0,0,0-16.26-2.8" transform="translate(-0.31 -0.75)" fill="none" stroke="#231f20" stroke-miterlimit="10" stroke-width="0.24" stroke-dasharray="0.2 0.4"/></g></g></svg>