<svg id="Layer_1" data-name="Layer 1" xmlns="http://www.w3.org/2000/svg" viewBox="0 0 38.673 62.516"><title>declination_diagram</title><line x1="20.658" y1="28.84" x2="25.797" y2="62.466" style="fill:none;stroke:#231f20;stroke-miterlimit:10;stroke-width:0.23999999463558197px"/><circle cx="20.658" cy="28.84" r="0.541" transform="translate(-4.12 3.452) rotate(-8.689)" style="fill:#231f20"/><path d="M18.624,25.983l1.109-.17.312,2.039a1.986,1.986,0,0,1-.92.372,1.944,1.944,0,0,1-2.137-1.876,1.906,1.906,0,0,1,1.48-2.343,2.239,2.239,0,0,1,.9.069l.045.405a1.725,1.725,0,0,0-.912-.128c-.593.091-1.313.662-1.112,1.972.115.759.615,1.721,1.705,1.554a1.129,1.129,0,0,0,.551-.212l-.222-1.452-.742.113Z" style="fill:#231f20"/><path d="M20.367,23.757l.475-.072,2.3,3.41.012,0-.562-3.676.344-.052.632,4.138-.475.072L20.8,24.189l-.013,0,.558,3.651L21,27.895Z" style="fill:#231f20"/><line x1="25.797" y1="62.466" x2="25.797" y2="9.458" style="fill:none;stroke:#231f20;stroke-miterlimit:10;stroke-width:0.23999999463558197px"/><path d="M26.783,8.956l.613,1.972-1.6-1.211-1.6,1.211L24.8,8.956,23.216,7.745h1.972l.606-1.972L26.4,7.745h1.98Z" style="fill:#231f20"/><path d="M22.861.795h2.314v.348H24.2V4.98h-.371V1.143h-.972Z" style="fill:#231f20"/><path d="M25.776.795h.48l1.757,3.718h.012V.795h.348V4.98h-.479L26.136,1.286h-.013V4.98h-.348Z" style="fill:#231f20"/><line x1="25.798" y1="62.466" x2="8.39" y2="24.858" style="fill:none;stroke:#231f20;stroke-miterlimit:10;stroke-width:0.23999999463558197px"/><path d="M8.751,25.64,7.624,27.321l-.06-.037L7.4,24.254l-.65-2.947,1.827,2.4,2.2,2.089,0,.066Z" style="fill:#231f20"/><path d="M1.46,18.269l.518-.24,2.582,2.81.011,0L4.1,17.047l.518-.239,1.758,3.8-.314.146L4.448,17.269l-.012.006.491,4-.256.117L1.933,18.433l-.012,0,1.612,3.483-.315.146Z" style="fill:#231f20"/><path d="M5.489,16.4l.435-.2,3.157,2.636.011,0L7.53,15.459l.315-.146,1.758,3.8-.435.2L6.023,16.7l-.012,0,1.551,3.353-.314.146Z" style="fill:#231f20"/><path d="M25.8,28.6a37.13,37.13,0,0,0-5.136.355" style="fill:none;stroke:#231f20;stroke-miterlimit:10;stroke-width:0.23999999463558197px;stroke-dasharray:0.25,0.4000000059604645"/><path d="M25.8,17.452a47.84,47.84,0,0,0-19.028,3.91" style="fill:none;stroke:#231f20;stroke-miterlimit:10;stroke-width:0.23999999463558197px;stroke-dasharray:0.25,0.4000000059604645"/><line x1="24.499" y1="34.119" x2="38.673" y2="34.119" style="fill:none;stroke:#231f20;stroke-miterlimit:10;stroke-width:0.23999999463558197px"/><line y1="39.548" x2="17.008" y2="39.548" style="fill:none;stroke:#231f20;stroke-miterlimit:10;stroke-width:0.23999999463558197px"/></svg>