<svg xmlns="http://www.w3.org/2000/svg" viewBox="0 0 10.93 11.2"><title>amusement_park</title><g id="Layer_2" data-name="Layer 2"><g id="Layer_1-2" data-name="Layer 1"><path d="M1.72,4.62a.21.21,0,0,1-.21.21.21.21,0,0,1-.22-.21.22.22,0,0,1,.22-.21A.22.22,0,0,1,1.72,4.62Zm9.21-3.18H7.62L5.46,0,3.3,1.44H0L.29,2.59H4.89V4.9c-.32,0-.59,0-.85,0-.42-.07-.83-.76-1.44-1.15s-2,0-2,0A.51.51,0,0,0,.52,4c0,.13-.38.36-.38.36a3,3,0,0,1,.57,0,.15.15,0,0,1,.14.21s0,.34,0,.5A2.13,2.13,0,0,0,1,5.6s-.41.6-.2.71.57.07.57-.11.1-.46.36-.46.46-.31.7-.31.18.39.18.39,0,.53,0,1-.87.38-1.18.36-.34.48-.34.48,0,.69,0,1a.51.51,0,0,0,.28.49h.92V8.61s-.38,0-.45-.14A.6.6,0,0,1,2,7.78s1.09,0,1.25,0,.2-.6.2-.6l.77,0a1.15,1.15,0,0,0,.62.31h0v2.58H.29V11.2H10.63V10.05H6V7.2H6.9A1,1,0,0,0,7,7.59c.1.18.5.2.5.2H8.55v.77c0,.27.38.52.38.52h.83V8.61a1,1,0,0,1-.46-.14c-.25-.14.15-.69.14-1s-.53-.24-.83-.27-.21-.55-.07-.7,0-.56.06-1,1-.42,1.16-.36-.08.76-.08.76a1.14,1.14,0,0,0,.56-.43c.31-.53.14-.94-.24-1.09a.38.38,0,0,0-.53.2l-1.15.57a1.57,1.57,0,0,0-.85-.32A2.45,2.45,0,0,0,6,5.17V2.59h4.59Z" fill="#00aeef" fill-rule="evenodd"/></g></g></svg>