<?xml version="1.0" encoding="utf-8"?>
<!-- Generator: Adobe Illustrator 19.0.0, SVG Export Plug-In . SVG Version: 6.00 Build 0)  -->
<svg version="1.0" id="Layer_1" xmlns="http://www.w3.org/2000/svg" xmlns:xlink="http://www.w3.org/1999/xlink" x="0px" y="0px"
	 viewBox="0 0 5.2397461 5.0595703" enable-background="new 0 0 5.2397461 5.0595703" xml:space="preserve">
<path id="XMLID_4369_" d="M5.2397461,5.0595703V4.8164062C3.9970703,4.4384766,3.2138672,2.7368164,3.1508789,1.2875977
	c0.144043-0.1352539,0.2250977-0.3242188,0.2250977-0.53125C3.3759766,0.3422852,3.0336914,0,2.6196289,0
	S1.8637695,0.3422852,1.8637695,0.7563477c0,0.2070312,0.0805664,0.3959961,0.2250977,0.53125
	C2.0253906,2.7368164,1.2421875,4.4384766,0,4.8164062v0.2431641H5.2397461z M2.2958984,1.4404297
	c0.0986328,0.0449219,0.2070312,0.0722656,0.3237305,0.0722656c0.1083984,0,0.2163086-0.0273438,0.3242188-0.0722656
	c0.0810547,0.828125,0.3149414,1.6113281,0.7290039,2.2866211C3.9521484,4.1772461,4.3125,4.5913086,4.762207,4.8525391H0.4589844
	c0.3242188-0.1621094,0.6303711-0.4414062,0.9272461-0.8374023C1.8637695,3.3671875,2.2236328,2.5029297,2.2958984,1.4404297z"/>
<g id="XMLID_66_">
</g>
<g id="XMLID_67_">
</g>
<g id="XMLID_68_">
</g>
<g id="XMLID_69_">
</g>
<g id="XMLID_70_">
</g>
<g id="XMLID_71_">
</g>
</svg>
