<svg xmlns="http://www.w3.org/2000/svg" viewBox="0 0 15.23 8.92"><title>camp_caravan</title><g id="Layer_2" data-name="Layer 2"><g id="Layer_1-2" data-name="Layer 1"><path d="M7,7.48a.77.77,0,1,1-.77-.77A.74.74,0,0,1,7,7.48Zm-.15-3a.13.13,0,0,1-.13.11H3.5a.12.12,0,0,1-.13-.11V2.41a.14.14,0,0,1,.13-.13H6.75a.15.15,0,0,1,.13.13ZM13.23,8.4h-4l2-3.53Zm-3-5.87L9.42,1a19.77,19.77,0,0,0-5,0A2.62,2.62,0,0,0,1.92,3.25a4,4,0,0,0,.84,3.49H0v.62H.73V8.9h.55V7.35H4.75a1.41,1.41,0,0,0,1.5,1.57h.36Zm5,6.36L11.68,2.58,13.13,0h-.74L11.28,1.93,10.16,0H9.42l1.5,2.58L7.32,8.89Z" fill="#00aeef" fill-rule="evenodd"/></g></g></svg>