<?xml version="1.0" encoding="utf-8"?>
<!-- Generator: Adobe Illustrator 19.0.0, SVG Export Plug-In . SVG Version: 6.00 Build 0)  -->
<svg version="1.0" id="Layer_1" xmlns="http://www.w3.org/2000/svg" xmlns:xlink="http://www.w3.org/1999/xlink" x="0px" y="0px"
	 viewBox="0 0 15.2319336 8.9179688" enable-background="new 0 0 15.2319336 8.9179688" xml:space="preserve">
<path id="XMLID_6772_" fill-rule="evenodd" clip-rule="evenodd" fill="#00AEEF" d="M7.0283208,7.4760747
	c0,0.4477539-0.3222656,0.7700191-0.7700195,0.7700191c-0.4482422,0-0.7700195-0.3222651-0.7700195-0.7700191
	c0-0.4482422,0.3217773-0.7700195,0.7700195-0.7700195C6.7060552,6.7060552,7.0283208,7.0278325,7.0283208,7.4760747z
	 M6.8740239,4.507813L6.7485356,4.6201177H3.5000005L3.3740239,4.507813V2.4077151l0.1259766-0.1259766h3.2485352
	l0.1254883,0.1259766V4.507813z M13.2304688,8.3999023H9.2402344l2.0439453-3.5278316L13.2304688,8.3999023z M10.262207,2.5341799
	L9.4223633,1.049805C7.6723638,0.8540042,6.02002,0.839844,4.4379888,1.0639652
	c-0.6855469,0.0981445-2.3095703,0.434082-2.5195312,2.184082c-0.168457,1.4277346,0,2.6738284,0.8398439,3.4858401H0.0000004
	v0.6162109h0.7280273v1.5537105h0.5463867V7.3500981h3.4716797c0,0.9516597,0.5322266,1.5678706,1.4980469,1.5678706
	l0.3637695-0.0141602L10.262207,2.5341799z M15.2319336,8.8896484l-3.5556641-6.3134766l1.4560547-2.5761719h-0.7421875
	l-1.105957,1.9321289l-1.1201172-1.9321289H9.4223633l1.4975586,2.5761719L7.3222661,8.8896484H15.2319336z"/>
<g id="XMLID_53_">
</g>
<g id="XMLID_54_">
</g>
<g id="XMLID_55_">
</g>
<g id="XMLID_56_">
</g>
<g id="XMLID_57_">
</g>
<g id="XMLID_58_">
</g>
</svg>
