<?xml version="1.0" encoding="utf-8"?>
<!-- Generator: Adobe Illustrator 19.0.0, SVG Export Plug-In . SVG Version: 6.00 Build 0)  -->
<svg version="1.0" id="Layer_1" xmlns="http://www.w3.org/2000/svg" xmlns:xlink="http://www.w3.org/1999/xlink" x="0px" y="0px"
	 viewBox="0 0 11.760417 8.0526476" enable-background="new 0 0 11.760417 8.0526476" xml:space="preserve">
<path id="XMLID_7502_" fill-rule="evenodd" clip-rule="evenodd" fill="#00AEEF" d="M2.7583013,5.8685651H0.0000004V6.484776
	h0.7280273v1.5537114h0.5463867V6.484776h3.4716797c0,0.9521484,0.5322266,1.5678716,1.4980469,1.5678716
	c0.9521484,0,1.4838867-0.6157231,1.4838867-1.5678716h2.058105l0.7978516,1.5537114h0.6582031L10.4443359,6.484776
	c1.1616211-0.3081055,1.3017578-2.2260742,1.315918-3.7099609c0.0141602-1.2041014-0.8959961-2.3520508-2.1982422-2.5620117
	C7.532227-0.1094622,6.02002-0.0254778,4.438477,0.1986433c-0.6860352,0.0981445-2.3105469,0.4340821-2.5205078,2.184082
	C1.7500004,3.8104596,1.9179691,5.0565534,2.7583013,5.8685651z M6.8740239,3.7826276L6.7480474,3.656651V1.5565535
	l0.1259766-0.1259766h3.1918941l0.1264648,0.1259766V3.656651L10.065918,3.7826276H6.8740239z M3.5000005,3.7547956
	L3.3740239,3.6429791V1.5423933l0.1259766-0.1259766h1.7080078l0.1259766,0.1259766v2.1005859L5.2080083,3.7547956H3.5000005z
	 M6.2583013,5.8407331c0.4477539,0,0.7700195,0.3217773,0.7700195,0.7700195c0,0.4477539-0.3222656,0.7700195-0.7700195,0.7700195
	c-0.4482422,0-0.7700195-0.3222656-0.7700195-0.7700195C5.4882817,6.1625104,5.8100591,5.8407331,6.2583013,5.8407331z"/>
<g id="XMLID_79_">
</g>
<g id="XMLID_80_">
</g>
<g id="XMLID_81_">
</g>
<g id="XMLID_82_">
</g>
<g id="XMLID_83_">
</g>
<g id="XMLID_84_">
</g>
</svg>
