<svg xmlns="http://www.w3.org/2000/svg" viewBox="0 0 11.76 8.05"><title>caravan</title><g id="Layer_2" data-name="Layer 2"><g id="Layer_1-2" data-name="Layer 1"><path d="M2.76,5.87H0v.62H.73V8h.55V6.48H4.75a1.41,1.41,0,0,0,1.5,1.57A1.41,1.41,0,0,0,7.73,6.48H9.79L10.58,8h.66l-.8-1.55c1.16-.31,1.3-2.23,1.32-3.71A2.62,2.62,0,0,0,9.56.21,16.08,16.08,0,0,0,4.44.2,2.62,2.62,0,0,0,1.92,2.38,4,4,0,0,0,2.76,5.87ZM6.87,3.78a.14.14,0,0,1-.13-.13V1.56a.14.14,0,0,1,.13-.13h3.19a.14.14,0,0,1,.13.13v2.1a.14.14,0,0,1-.13.13Zm-3.37,0a.12.12,0,0,1-.13-.11V1.54a.14.14,0,0,1,.13-.13H5.21a.15.15,0,0,1,.13.13v2.1a.13.13,0,0,1-.13.11ZM6.26,5.84a.77.77,0,1,1-.77.77A.74.74,0,0,1,6.26,5.84Z" fill="#00aeef" fill-rule="evenodd"/></g></g></svg>