<svg xmlns="http://www.w3.org/2000/svg" viewBox="0 0 8.22 11.14"><title>cathedral_abbey</title><g id="Layer_2" data-name="Layer 2"><g id="Layer_1-2" data-name="Layer 1"><path d="M4.59,4.56H6a1.11,1.11,0,0,0,1,.67,1.15,1.15,0,1,0,0-2.3A1.13,1.13,0,0,0,6,3.6H4.59V2.17a1.1,1.1,0,0,0,.67-1A1.14,1.14,0,0,0,4.12,0,1.16,1.16,0,0,0,3,1.15a1.13,1.13,0,0,0,.69,1V3.6H2.2a1.15,1.15,0,0,0-1-.66,1.15,1.15,0,1,0,0,2.3,1.15,1.15,0,0,0,1-.67H3.64V8.95A1.14,1.14,0,0,0,3,10a1.17,1.17,0,0,0,1.16,1.16,1.15,1.15,0,0,0,.48-2.2Z" fill="#00aeef" fill-rule="evenodd"/></g></g></svg>