<svg xmlns="http://www.w3.org/2000/svg" viewBox="0 0 5.34 8.69"><title>coniferous</title><g id="Layer_2" data-name="Layer 2"><g id="Layer_1-2" data-name="Layer 1"><path d="M.84,3.15V.05s-.4,1.1-.8,1.2" fill="none" stroke="#00a651" stroke-miterlimit="3.86" stroke-width="0.3"/><path d="M.84,1.65s-.3.8-.8.9" fill="none" stroke="#00a651" stroke-miterlimit="3.86" stroke-width="0.3"/><path d="M.84.05s.4,1.1.8,1.2" fill="none" stroke="#00a651" stroke-miterlimit="3.86" stroke-width="0.3"/><path d="M.84,1.65s.4.8.9.9" fill="none" stroke="#00a651" stroke-miterlimit="3.86" stroke-width="0.3"/><path d="M3.11,8.69V5.09s-.5,1.2-1,1.4" fill="none" stroke="#00a651" stroke-miterlimit="3.86" stroke-width="0.3"/><path d="M3.11,6.89s-.5,1-1,1.2" fill="none" stroke="#00a651" stroke-miterlimit="3.86" stroke-width="0.3"/><path d="M3.11,5.09s.5,1.2.9,1.4" fill="none" stroke="#00a651" stroke-miterlimit="3.86" stroke-width="0.3"/><path d="M3.11,6.89s.4,1,1,1.2" fill="none" stroke="#00a651" stroke-miterlimit="3.86" stroke-width="0.3"/><path d="M4.21,4.08V.48s-.4,1.3-.9,1.5" fill="none" stroke="#00a651" stroke-miterlimit="3.86" stroke-width="0.3"/><path d="M4.21,2.28s-.4,1.1-1,1.2" fill="none" stroke="#00a651" stroke-miterlimit="3.86" stroke-width="0.3"/><path d="M4.21.48s.5,1.3,1,1.5" fill="none" stroke="#00a651" stroke-miterlimit="3.86" stroke-width="0.3"/><path d="M4.21,2.28s.5,1.1,1.1,1.2" fill="none" stroke="#00a651" stroke-miterlimit="3.86" stroke-width="0.3"/></g></g></svg>