<svg xmlns="http://www.w3.org/2000/svg" viewBox="0 0 10.42 8.64"><title>country_park</title><g id="Layer_2" data-name="Layer 2"><g id="Layer_1-2" data-name="Layer 1"><path d="M4.56,2.65a.64.64,0,0,0,.64.64.63.63,0,0,0,.64-.64A.64.64,0,0,0,5.21,2,.65.65,0,0,0,4.56,2.65Zm2.2-2a.64.64,0,0,0,.64.64A.65.65,0,0,0,8,.64.65.65,0,0,0,7.41,0,.64.64,0,0,0,6.76.64ZM2.48.64a.65.65,0,0,0,.64.64A.64.64,0,1,0,3.12,0,.65.65,0,0,0,2.48.64ZM.92.07H0L2.73,2.8V8.64h1V3.85l.88.88V8.64H5.75V4.73l.92-.92V8.64h1V2.8L10.42.07H9.49L7.35,2.21,5.21.07,3.07,2.21Zm6,2.6L5.21,4.35,3.53,2.67,5.21,1Z" fill="#00aeef" fill-rule="evenodd"/></g></g></svg>