<svg xmlns="http://www.w3.org/2000/svg" viewBox="0 0 11.99 11.2"><title>fishing</title><g id="Layer_2" data-name="Layer 2"><g id="Layer_1-2" data-name="Layer 1"><path d="M2.43,8.07a.28.28,0,0,1-.28.29.29.29,0,0,1-.29-.29.3.3,0,0,1,.29-.29A.29.29,0,0,1,2.43,8.07ZM12,.3A2.54,2.54,0,0,0,10.72,0C10,0,9,1.18,9,1.18A2.07,2.07,0,0,0,8.35.66a8.46,8.46,0,0,0-1.9,0s.73.32.77.66.55.48.8.69.22.77-.11,1.47-1.23,1.78-2,1.75a1.81,1.81,0,0,0-1.2.32V4s-.29.25-1,.8a1.55,1.55,0,0,0-.59,1.36s-.13.22-.66.39a4.34,4.34,0,0,0-1.55,1A4.78,4.78,0,0,0,0,9.49c-.1.39.11.5.52.5s.48.22,1.53.48a4.2,4.2,0,0,0,2.23-.22s.34.29.52.48a6.88,6.88,0,0,0,1.5.48s0-.32-.41-.48S5.29,10,5.29,10a8.43,8.43,0,0,0,1.27-.5A11.32,11.32,0,0,0,9.29,6.2a2.74,2.74,0,0,0,.34-1.68,11.6,11.6,0,0,1,.57-3.14C10.5.37,12,.3,12,.3Z" fill="#00aeef" fill-rule="evenodd"/></g></g></svg>