<svg xmlns="http://www.w3.org/2000/svg" viewBox="0 0 8.96 9.83"><title>garden</title><g id="Layer_2" data-name="Layer 2"><g id="Layer_1-2" data-name="Layer 1"><path d="M3.57,5.74l-.29-.45a4.23,4.23,0,0,0-2.73.15A1.36,1.36,0,0,0,.25,7.34c.29.6,1.15,1.15,1.81.76A4.37,4.37,0,0,0,3.57,5.74Zm-.29-1.2.29-.45A4.37,4.37,0,0,0,2.06,1.74C1.4,1.34.56,1.9.25,2.42a1.45,1.45,0,0,0,.29,2A4.23,4.23,0,0,0,3.27,4.54Zm.9-.83h.62A4.67,4.67,0,0,0,6,1.2C6,.45,5.16,0,4.48,0S3,.45,3,1.2A4.67,4.67,0,0,0,4.17,3.71Zm1.22.38.29.45a4.23,4.23,0,0,0,2.73-.15,1.36,1.36,0,0,0,.29-1.89c-.29-.6-1.15-1.15-1.81-.76A4.37,4.37,0,0,0,5.39,4.09Zm.29,1.2-.29.45A4.37,4.37,0,0,0,6.9,8.09c.66.39,1.5-.17,1.81-.69a1.45,1.45,0,0,0-.29-2A4.23,4.23,0,0,0,5.68,5.29Zm-.9.83H4.17A4.68,4.68,0,0,0,3,8.62c0,.76.83,1.2,1.51,1.2S6,9.38,6,8.62A4.67,4.67,0,0,0,4.79,6.12Z" fill="#00aeef" fill-rule="evenodd"/></g></g></svg>