<svg xmlns="http://www.w3.org/2000/svg" viewBox="0 0 14.52 11.2"><title>heritage_railway</title><g id="Layer_2" data-name="Layer 2"><g id="Layer_1-2" data-name="Layer 1"><path d="M2.37,5.5H4V7.1H2.37ZM11,2.43a1.22,1.22,0,0,0-.13-.63c-.13-.27-.7-.41-1.43-.35a21.14,21.14,0,0,0-3.21,1A11.45,11.45,0,0,1,3,2.8C2,2.77.53,2.53.29,1.64S.92.29,2.17.05a7.23,7.23,0,0,1,3.56.7C6.44,1,8.16.4,8.81.19a3.67,3.67,0,0,1,2.67.24c1,.49.87,2,.87,2ZM5.4,4H0V5.5H1V7.1H.25V9.77H1a1.65,1.65,0,0,0,3.26,0h.48A1.65,1.65,0,0,0,8,9.77h.62a.91.91,0,0,0,0,.28,1.15,1.15,0,0,0,2.3,0,1.7,1.7,0,0,0,0-.28h.48a.62.62,0,0,0,0,.28,1.15,1.15,0,1,0,2.3,0,1.7,1.7,0,0,0,0-.28h.92v-1h-.7V5.84H12.39V4.07l.53-.55V3.36H10.57v.17l.53.55V5.84H9.79c-.21,0-.25-.25-.25-.25v-.7a.82.82,0,0,0-.81-.83H8.32a.83.83,0,0,0-.83.83v.7s0,.25-.24.25H5.4Z" fill="#00aeef" fill-rule="evenodd"/></g></g></svg>