<svg xmlns="http://www.w3.org/2000/svg" viewBox="0 0 10.81 9.71"><title>horse</title><g id="Layer_2" data-name="Layer 2"><g id="Layer_1-2" data-name="Layer 1"><path d="M5.4,9.7a4,4,0,0,0,2.79-.77A4.39,4.39,0,0,0,9.74,7.07c.8-1.5.49-4.31.49-4.31L9.69,1.11h.83s.29-.06.29-.5-.29-.6-.29-.6H8.32V.78s.53,0,.56,1,.34,2.55,0,3.43A3.65,3.65,0,0,1,6.93,7.15a3.38,3.38,0,0,1-1.53.29,3.38,3.38,0,0,1-1.53-.29A3.3,3.3,0,0,1,1.93,5.24a14,14,0,0,1,0-3.43c0-1,.56-1,.56-1V0H.29S0,0,0,.6s.29.5.29.5h.83L.57,2.76s-.29,2.81.49,4.31A4.49,4.49,0,0,0,2.62,8.93,4,4,0,0,0,5.4,9.7Z" fill="#00aeef" fill-rule="evenodd"/></g></g></svg>