<svg xmlns="http://www.w3.org/2000/svg" viewBox="0 0 11.2 11.2"><title>leisure</title><g id="Layer_2" data-name="Layer 2"><g id="Layer_1-2" data-name="Layer 1"><path d="M9.28,8.19,7.38,7.1a4.73,4.73,0,0,1-.83-.83,1.52,1.52,0,0,1-.27-.55c-.11-.38-.11-.88,0-1a.51.51,0,0,1,.24-.08L9,2.45,8.47,1.9,6.55,3.54,6,3.82a2.77,2.77,0,0,1-.57.1,2.19,2.19,0,0,1-.52-.1l-.27-.28L3.28,1.9l-.55.55L4.37,4.63a2.42,2.42,0,0,1,.28.28,1.46,1.46,0,0,1,.2.81,4.19,4.19,0,0,1-.2,1.09l-.28,3.29h.83l.27-2.74s.14-.22.28-.27A.35.35,0,0,1,6,7.1a1.07,1.07,0,0,1,.39.25L9,8.74ZM6.37,2a.9.9,0,1,0-.91.91A.91.91,0,0,0,6.37,2ZM10.65,5.6A5.05,5.05,0,1,1,5.6.55,5.06,5.06,0,0,1,10.65,5.6Zm.55,0a5.6,5.6,0,1,0-5.6,5.6A5.6,5.6,0,0,0,11.2,5.6Z" fill="#00aeef" fill-rule="evenodd"/></g></g></svg>