<?xml version="1.0" encoding="utf-8"?>
<!-- Generator: Adobe Illustrator 19.0.0, SVG Export Plug-In . SVG Version: 6.00 Build 0)  -->
<svg version="1.1" id="Layer_1" xmlns="http://www.w3.org/2000/svg" xmlns:xlink="http://www.w3.org/1999/xlink" x="0px" y="0px"
	 viewBox="0 0 5.4199219 5.4287109" enable-background="new 0 0 5.4199219 5.4287109" xml:space="preserve">
<path id="XMLID_4384_" fill-rule="evenodd" clip-rule="evenodd" d="M0,5.1767578v0.2519531h5.4199219V5.1767578h-0.918457
	C3.5742188,4.3125,3.3579102,3.1420898,3.3579102,1.7915039h0.5854492V0.9907227H3.637207V0.9272461
	C3.637207,0.4052734,3.2319336,0,2.7099609,0S1.7827148,0.4052734,1.7827148,0.9272461v0.0634766H1.4765625v0.8007812h0.5849609
	c0,1.3505859-0.2158203,2.5209961-1.1430664,3.3852539H0z M1.7285156,1.5395508V1.2333984h1.9628906v0.3061523H1.7285156z
	 M3.4121094,4.0063477c0.1621094,0.4233398,0.4052734,0.8012695,0.7470703,1.1704102H1.2607422
	C2.125,4.2495117,2.3046875,3.2319336,2.3046875,1.7915039h0.8105469c0,0.7382812,0.0356445,1.3505859,0.1889648,1.890625
	L3.1870117,3.8354492L2.9169922,3.5742188C2.7910156,3.6640625,2.9619141,3.9165039,2.9619141,4.0512695
	c0,0.1171875-0.3242188-0.0717773-0.2788086,0.0722656c0.0537109,0.1708984,0.144043,0.2158203,0.1708984,0.2788086
	l0.152832,0.234375c0.1352539,0.0087891,0.0361328-0.090332,0.1171875-0.2524414
	c0.0541992-0.1259766,0.1708984,0.3515625,0.3242188,0.1801758C3.5200195,4.4746094,3.1962891,4.168457,3.3222656,4.0693359
	L3.4121094,4.0063477z M2.034668,0.9907227V0.9272461c0-0.4047852,0.2163086-0.6748047,0.675293-0.6748047
	c0.4052734,0,0.675293,0.2158203,0.675293,0.6748047v0.0634766H2.034668z"/>
<g id="XMLID_66_">
</g>
<g id="XMLID_67_">
</g>
<g id="XMLID_68_">
</g>
<g id="XMLID_69_">
</g>
<g id="XMLID_70_">
</g>
<g id="XMLID_71_">
</g>
</svg>
