<?xml version="1.0" encoding="utf-8"?>
<!-- Generator: Adobe Illustrator 19.0.0, SVG Export Plug-In . SVG Version: 6.00 Build 0)  -->
<svg version="1.0"
	 id="Layer_1" xmlns:cc="http://creativecommons.org/ns#" xmlns:sodipodi="http://sodipodi.sourceforge.net/DTD/sodipodi-0.dtd" xmlns:svg="http://www.w3.org/2000/svg" xmlns:inkscape="http://www.inkscape.org/namespaces/inkscape" xmlns:rdf="http://www.w3.org/1999/02/22-rdf-syntax-ns#" xmlns:dc="http://purl.org/dc/elements/1.1/" sodipodi:docname="lighthouse.svg" inkscape:version="0.91 r13725"
	 xmlns="http://www.w3.org/2000/svg" xmlns:xlink="http://www.w3.org/1999/xlink" x="0px" y="0px"
	 viewBox="-294 417.9217529 5.4194336 6.9682617" enable-background="new -294 417.9217529 5.4194336 6.9682617"
	 xml:space="preserve">
<sodipodi:namedview  id="namedview3410" gridtolerance="10" pagecolor="#ffffff" borderopacity="1" bordercolor="#666666" guidetolerance="10" fit-margin-left="0" objecttolerance="10" showgrid="false" inkscape:cx="1.8148659" inkscape:zoom="26.060861" fit-margin-top="0" inkscape:cy="2.9774776" fit-margin-bottom="0" fit-margin-right="0" inkscape:pageshadow="2" inkscape:window-maximized="0" inkscape:window-x="0" inkscape:window-height="480" inkscape:pageopacity="0" inkscape:window-width="640" inkscape:current-layer="Layer_1" inkscape:window-y="0">
	</sodipodi:namedview>
<path id="XMLID_4379_" inkscape:connector-curvature="0" d="M-289.7509766,420.3885193
	c0.1894531,0.0903015,0.6123047,0.1889954,0.8642578,0.1889954l0.0635071-0.1889954l-0.0635071-0.1801453
	C-289.1386719,420.208374-289.5615234,420.2894592-289.7509766,420.3885193z M-290.2099609,419.3084412
	c0.2070312-0.0541992,0.5761719-0.3061218,0.7294922-0.4863281l-0.0541992-0.1889343l-0.1801758-0.0542297
	C-289.9038086,418.7322693-290.1557617,419.1014099-290.2099609,419.3084412z M-292.8295898,420.3885193
	c-0.1889648-0.0990906-0.6123047-0.1801453-0.8642578-0.1801453l-0.0629883,0.1801453l0.0629883,0.1889954
	C-293.4418945,420.5775146-293.0185547,420.4789124-292.8295898,420.3885193z M-292.3706055,419.3084412
	c-0.0537109-0.2070312-0.3061523-0.5761719-0.4951172-0.7294922l-0.1801758,0.0542297l-0.0537109,0.1889343
	C-292.9467773,419.0023193-292.5776367,419.2542419-292.3706055,419.3084412z M-291.2900391,418.848999
	c0.0898132-0.179718,0.1889648-0.6118469,0.1889648-0.8642883l-0.1889648-0.0629883l-0.1894531,0.0629883
	C-291.4794922,418.2371521-291.3804016,418.669281-291.2900391,418.848999z M-294,424.638031v0.2519836h5.4194336v-0.2519836
	h-0.9179688c-0.9272461-0.8642578-1.1435547-2.034668-1.1435547-3.3852234h0.5854492v-0.8012695h-0.3061523v-0.0630188
	c0-0.5219727-0.4052734-0.9272461-0.9272461-0.9272461c-0.5224609,0-0.9272461,0.4052734-0.9272461,0.9272461v0.0630188h-0.3061523
	v0.8012695h0.5849609c0,1.3505554-0.2158203,2.5209656-1.1430664,3.3852234C-293.081543,424.638031-294,424.638031-294,424.638031z
	 M-292.2714844,421.0008545v-0.3061829h1.9624023v0.3061829H-292.2714844z M-290.5878906,423.4676208
	c0.1621094,0.4228516,0.4052734,0.8012695,0.7470703,1.1704102h-2.8989258
	c0.8642578-0.9272156,1.0444336-1.9447937,1.0444336-3.3852234h0.8100586c0,0.7382812,0.0361023,1.3505554,0.1894531,1.8905945
	l-0.1171875,0.1533203l-0.2700195-0.2612305c-0.1259766,0.0899048,0.0448914,0.3418274,0.0448914,0.4770508
	c0,0.1171875-0.3242188-0.0717773-0.2792969,0.0722961c0.0541992,0.170929,0.144043,0.2158203,0.1713867,0.2788391
	l0.152832,0.2343445c0.1352539,0.0090027,0.0361023-0.0903015,0.1171875-0.2524414
	c0.0537109-0.125946,0.1708984,0.3511047,0.3242188,0.1802063c0.0718079-0.0899048-0.2524414-0.3960266-0.1264648-0.4951477
	l0.0903015-0.0629883L-290.5878906,423.4676208z M-291.965332,420.4515381v-0.0630188
	c0-0.4047852,0.2158203-0.675293,0.675293-0.675293c0.4047852,0,0.6748047,0.2163086,0.6748047,0.675293v0.0630188H-291.965332z"/>
<g id="XMLID_1_" transform="translate(-294.13379,-417.71191)">
</g>
<g id="XMLID_2_" transform="translate(-294.13379,-417.71191)">
</g>
<g id="XMLID_3_" transform="translate(-294.13379,-417.71191)">
</g>
<g id="XMLID_4_" transform="translate(-294.13379,-417.71191)">
</g>
<g id="XMLID_5_" transform="translate(-294.13379,-417.71191)">
</g>
<g id="XMLID_6_" transform="translate(-294.13379,-417.71191)">
</g>
</svg>
