<svg xmlns="http://www.w3.org/2000/svg" viewBox="0 0 12.03 11.2"><title>museum</title><g id="Layer_2" data-name="Layer 2"><g id="Layer_1-2" data-name="Layer 1"><path d="M6.12,6.55,7.87,4.86H9.09l-.49.49V8.53c0,.18,0,.41.1.48s.1.11.07.2a.15.15,0,0,1-.2.11h-1a.17.17,0,0,1-.21-.11c0-.08,0-.13.08-.2a.86.86,0,0,0,.1-.48V6.4L6.12,7.85,4.65,6.4V8.53a.86.86,0,0,0,.1.48c.07.07.1.11.08.2a.17.17,0,0,1-.21.11h-1a.15.15,0,0,1-.2-.11c0-.08,0-.13.07-.2s.1-.29.1-.48V5.35l-.49-.49H4.37Zm-6-3.14h11.8L6,0ZM9,2.63H3.05L6,.91ZM12,11.2H0V10H.41c.38,0,.43-.15.46-.35L1,5.33l-.6-.9H2.73l-.59.9.13,4.3c0,.2.08.35.46.35H9.3c.38,0,.43-.15.46-.35l.13-4.3-.59-.9h2.34l-.6.9.13,4.3c0,.2.08.35.46.35H12Z" fill="#00aeef" fill-rule="evenodd"/></g></g></svg>