<svg xmlns="http://www.w3.org/2000/svg" viewBox="0 0 11.55 16.13"><title>nat_park_info</title><g id="Layer_2" data-name="Layer 2"><g id="Layer_1-2" data-name="Layer 1"><rect x="0.28" y="0.28" width="10.98" height="15.56" fill="none" stroke="#00aeef" stroke-miterlimit="3.86" stroke-width="0.57"/><path d="M7.81,13.56c-.38-.09-.34.25-.23.61a2.45,2.45,0,0,1-.28,1.16s.15-.15-.43-.38-.89.5-.88.25-.33-.33-.33-.33a2.19,2.19,0,0,1,.26-.69,4,4,0,0,1,1.28-.81,6.13,6.13,0,0,0-.89.13,11.43,11.43,0,0,1-1.22.17,2.88,2.88,0,0,1,.06.53,3.68,3.68,0,0,1-.25,1s-.07.14-.32-.22-.92.38-1,0-.28,0-.21-.23a2.71,2.71,0,0,1,1-1.2A3.75,3.75,0,0,1,6,13.11Z" fill="#00aeef" fill-rule="evenodd"/><path d="M3.47,5.57,4,4.5c.45-1-.45-1.84-.56-2.11s-.53-.25-.86-.24a5.52,5.52,0,0,1-1.25-.33s.61-.6.89-.48A2.07,2.07,0,0,0,3.3,1.4,4.26,4.26,0,0,1,5.11,1a1.72,1.72,0,0,1,1.5,1.63,17.91,17.91,0,0,1,0,2A10.69,10.69,0,0,1,7.89,7a3.33,3.33,0,0,0,.39,1.07,9.79,9.79,0,0,1,1.07,2,5.93,5.93,0,0,0,.83,1.57,1.12,1.12,0,0,1,.29.8.73.73,0,0,1-.23.46,1.21,1.21,0,0,1-.94-.36,2.53,2.53,0,0,1-.64-1.19,2.63,2.63,0,0,1-1.55-.63A3.79,3.79,0,0,1,5.52,7.77C5.46,6.51,7,6.51,7,6.51A4.26,4.26,0,0,0,5.36,5c-.9-.37-1.94.71-1.94.71Z" fill="#00aeef" fill-rule="evenodd"/><circle cx="4.7" cy="1.57" r="0.23" fill="#fff"/><path d="M10.22,12.34a.9.9,0,0,1-.21.78,1.42,1.42,0,0,1-.69.45,3,3,0,0,1-1.52,0A9.62,9.62,0,0,1,6,13.11s-.27-.15-.76-.49A11.82,11.82,0,0,1,3.16,10a3.18,3.18,0,0,1-.59-3c.16-.53.46-.53.46-.53s.16-.4.44-.94l.82-1" fill="none" stroke="#00aeef" stroke-width="0.43"/><path d="M3.16,10a3.19,3.19,0,0,1-.59-3,1,1,0,0,1,.52-.66c.11.27-.25.63-.27,1.06A6.1,6.1,0,0,0,3.09,10C3.22,10.25,3.16,10,3.16,10Z" fill="#00aeef" fill-rule="evenodd"/><path d="M.24,14c1.36-1.14,3.42-.91,5.22-.6" fill="none" stroke="#00aeef" stroke-width="0.43"/><path d="M7.26,13.69a5.29,5.29,0,0,1,3.92,1.37" fill="none" stroke="#00aeef" stroke-width="0.43"/></g></g></svg>