<svg xmlns="http://www.w3.org/2000/svg" viewBox="0 0 10.78 10.78"><title>national_trust</title><g id="Layer_2" data-name="Layer 2"><g id="Layer_1-2" data-name="Layer 1"><path d="M9.79,6.94s0,.15-.1.2-.22.07-.2.13a1,1,0,0,1,.06.35c0,.13,0,.18-.21.21s-.45.08-.53.08-.13,0-.07.1a.63.63,0,0,1,.13.22s0,.2-.27.24a4.55,4.55,0,0,1-1-.08c-.14,0-.22,0-.17.1s.1.24,0,.29a.38.38,0,0,1-.41,0,1.61,1.61,0,0,0-.57-.24,3.29,3.29,0,0,0-.52,0,.27.27,0,0,1-.2,0c-.06,0-.13-.06-.14,0a.68.68,0,0,0,.07.5.69.69,0,0,1,.06.46v.28H5.42A2.58,2.58,0,0,0,5.25,9a1.27,1.27,0,0,0-.62-.56c-.28-.11-.5-.24-.56,0a.47.47,0,0,1-.31.35A.86.86,0,0,1,3.23,8a.54.54,0,0,1,.5-.18c.1,0,.17,0,.15-.06a.83.83,0,0,1,0-.27,1.28,1.28,0,0,1,.94,0c.21.11.28.13.18.29a1.54,1.54,0,0,1-.29.39c-.06,0-.1.08,0,.14a1.51,1.51,0,0,1,.31.17c.07,0,.14,0,.21-.14a1.18,1.18,0,0,0,.15-.5c0-.18,0-.43,0-.5s0-.17.06-.18a.2.2,0,0,0,.15-.2.27.27,0,0,0-.15-.32c-.13,0-.14,0-.21,0a2.51,2.51,0,0,1-.27,0,.52.52,0,0,0-.34.1.2.2,0,0,1-.25.07c-.13-.06-.14-.11-.2.06s-.31.52-.62.28c-.18.48-.45.9-.83.62-.1.21-.21.28-.34.27s-.18,0-.22-.08-.08-.13-.13,0-.29.21-.41.11S1.5,7.8,1.41,7.8s-.2-.14-.15-.29a.47.47,0,0,0,0-.35c0-.07,0-.25.07-.32s.18-.2.1-.31-.25-.39.42-.52C2,6,2,5.92,1.9,5.77s-.06-.36.34-.36.49,0,.57.06.24.06.17-.06a.26.26,0,0,1,.14-.35.48.48,0,0,1,.45.06c.15.08.28.18.35.21s.15,0,.17-.07.24-.25.43-.07.64.67.73.77.11.11.17.11.06,0,.06-.1a1.31,1.31,0,0,0-.11-.45.86.86,0,0,0-.24-.36A.94.94,0,0,0,4.72,5a.54.54,0,0,1-.41-.17.57.57,0,0,0-.48-.14,1.07,1.07,0,0,1-.52-.17c-.1,0-.15-.18-.06-.22s.13-.17.07-.21A.93.93,0,0,0,3,4a.93.93,0,0,1-.48-.17.23.23,0,0,1-.06-.34c.1-.1.29-.25,0-.29s-.52-.07-.59-.18-.14-.25,0-.31.25-.21.13-.24-.22-.14-.28-.2-.13-.22,0-.22A.19.19,0,0,0,1.88,2c0-.06,0-.1-.08-.14s-.07-.24,0-.31.17-.06.24-.08.17-.11.27,0,.15.11.24,0a.24.24,0,0,1,.36,0c.1.13.15.24.27.13s.25-.24.35-.2a.34.34,0,0,1,.25.32c.06.27.08.39.1.45s0,.18.13.08.27-.17.36,0a.62.62,0,0,1,.1.48c0,.21-.11.43,0,.38s.36,0,.38.15a5.55,5.55,0,0,0,0,.69c0,.18.06.42.07.49s0,.13.07,0,.08-.15.24-.08.18.13.18-.14,0-.48,0-.66A2.34,2.34,0,0,0,5.38,3c0-.13,0-.29.08-.35a.27.27,0,0,1,.28-.06c.08,0,.18.1.2-.08s0-.87.29-1,.35-.06.41,0,.11.27.22.06a.61.61,0,0,1,.42-.36.27.27,0,0,1,.29.14c.06.1.14.15.24,0a.28.28,0,0,1,.32-.13c.11,0,.2.06.21.15s.1,0,.22.06a.37.37,0,0,1,.25.2c0,.08,0,.15,0,.22s0,.13,0,.2a.17.17,0,0,1,0,.2.31.31,0,0,1-.18.08c-.06,0-.14.15,0,.2s.2.21,0,.28A2.3,2.3,0,0,1,8,2.93c-.15,0-.27.08-.18.17s.2.25,0,.36a1.24,1.24,0,0,1-.63.15c-.22,0-.39.06-.25.15s.34.31-.11.48a2.09,2.09,0,0,0-.69.35,1.37,1.37,0,0,1-.41.29c-.11,0-.24.15-.15.5A1.43,1.43,0,0,0,5.81,6c.08.1.15.18.38,0s.66-.52.88-.64.39-.17.34-.31a.83.83,0,0,1,.08-1c.38-.38.64-.63.87-.62a.91.91,0,0,1,.29,0,.07.07,0,0,0,.1,0s.06,0,0,0a.34.34,0,0,0,.06.22.62.62,0,0,1,0,.55,2.59,2.59,0,0,1-.36.53c-.07.07-.15.14-.13.17s.06.08.21.08a.59.59,0,0,1,.53.38,1.44,1.44,0,0,1-1.16.32c-.06-.21-.07-.25,0-.35s.11-.14,0-.11A2.22,2.22,0,0,0,7,5.61a3.23,3.23,0,0,0-1,1,3.93,3.93,0,0,0-.21,1.11c0,.1-.06.22.14.07s.17-.27.28-.31a.44.44,0,0,0,.21-.29,1.45,1.45,0,0,1,.2-.5c.1-.1.28-.14.35,0s.08.14.17.06a2.35,2.35,0,0,0,.28-.41A.6.6,0,0,1,7.69,6c.14,0,.34-.13.42.13s.1.17.17.11A2.28,2.28,0,0,1,8.65,6c.13,0,.27,0,.31.08s.11.15.18.07A.27.27,0,0,1,9.38,6a.14.14,0,0,1,.15.14c0,.11,0,.08.11.14s.14.08.11.21-.1.2-.06.29S9.74,6.9,9.79,6.94Zm1,3.84V0H0V10.78Z" fill="#00aeef" fill-rule="evenodd"/></g></g></svg>