<svg xmlns="http://www.w3.org/2000/svg" viewBox="0 0 10.49 10.05"><title>nature_reserve</title><g id="Layer_2" data-name="Layer 2"><g id="Layer_1-2" data-name="Layer 1"><path d="M6.65,7.56a5.51,5.51,0,0,0,1.64-.78c.46-.31,2-1.41,2.2-2.53-1.18,0-1.53.36-1.86.2a8.84,8.84,0,0,0-1.78-1.2c-.46-.2-1.6-.08-2-.28s-.43-.85-.31-1.44A1.32,1.32,0,0,0,4.27.28,1.5,1.5,0,0,0,3.43,0,1.56,1.56,0,0,0,2.37.67a1.9,1.9,0,0,0-.1.76L.21,2.35a.4.4,0,0,0-.18.5l2.3-.53c.31,0,.76.32.73.6-.24,1.16-.62,2.88.11,3.67a3.69,3.69,0,0,0,1.22.88v2.58H5V7.66a3.31,3.31,0,0,0,1,0v2.35h.64Z" fill="#00aeef" fill-rule="evenodd"/></g></g></svg>