<svg xmlns="http://www.w3.org/2000/svg" viewBox="0 0 6.43 7.86"><title>non-coniferous</title><g id="Layer_2" data-name="Layer 2"><g id="Layer_1-2" data-name="Layer 1"><line x1="3.2" y1="3.15" x2="3.2" y2="2.35" fill="none" stroke="#00a651" stroke-miterlimit="3.86" stroke-width="0.3"/><path d="M3.2.15c.2,0,.5.1.7.7.3-.3.8.4.4.7.9.6-.4,1.5-.7.8" fill="none" stroke="#00a651" stroke-miterlimit="3.86" stroke-width="0.3"/><path d="M3.2.15c-.2,0-.5.1-.7.7-.3-.3-.8.4-.4.7-.9.6.4,1.5.7.8" fill="none" stroke="#00a651" stroke-miterlimit="3.86" stroke-width="0.3"/><line x1="4.91" y1="6.08" x2="4.91" y2="5.38" fill="none" stroke="#00a651" stroke-miterlimit="3.86" stroke-width="0.3"/><path d="M5,3.38c.2-.1.4,0,.6.6.3-.2.7.3.4.7.8.5-.4,1.3-.7.7" fill="none" stroke="#00a651" stroke-miterlimit="3.86" stroke-width="0.3"/><path d="M5,3.38c-.2-.1-.5,0-.7.6-.2-.2-.7.3-.3.7-.8.5.3,1.3.6.7" fill="none" stroke="#00a651" stroke-miterlimit="3.86" stroke-width="0.3"/><line x1="1.56" y1="7.86" x2="1.56" y2="7.06" fill="none" stroke="#00a651" stroke-miterlimit="3.86" stroke-width="0.3"/><path d="M1.56,4.86c.2,0,.5.1.7.7.3-.3.8.4.4.7.9.6-.4,1.5-.7.8" fill="none" stroke="#00a651" stroke-miterlimit="3.86" stroke-width="0.3"/><path d="M1.56,4.86c-.2,0-.5.1-.7.7-.3-.3-.8.4-.4.7-.9.6.4,1.5.7.8" fill="none" stroke="#00a651" stroke-miterlimit="3.86" stroke-width="0.3"/></g></g></svg>