<svg xmlns="http://www.w3.org/2000/svg" viewBox="0 0 22.21 5.89"><title>orchard</title><g id="Layer_2" data-name="Layer 2"><g id="Layer_1-2" data-name="Layer 1"><line x1="17.64" y1="5.89" x2="17.64" y2="5.19" fill="none" stroke="#00a651" stroke-miterlimit="3.86" stroke-width="0.3"/><path d="M17.44,5.29c-.9.4-1-.7-.4-.9a.72.72,0,0,1,.7-.8.63.63,0,0,1,.6.8c.7.2.5,1.3-.3.9" fill="none" stroke="#00a651" stroke-miterlimit="3.86" stroke-width="0.3"/><line x1="11.07" y1="5.79" x2="11.07" y2="5.09" fill="none" stroke="#00a651" stroke-miterlimit="3.86" stroke-width="0.3"/><path d="M10.87,5.19c-.9.4-1-.7-.4-.9a.72.72,0,0,1,.7-.8.63.63,0,0,1,.6.8c.7.2.5,1.3-.3.9" fill="none" stroke="#00a651" stroke-miterlimit="3.86" stroke-width="0.3"/><line x1="4.87" y1="5.69" x2="4.87" y2="4.99" fill="none" stroke="#00a651" stroke-miterlimit="3.86" stroke-width="0.3"/><path d="M4.67,5.09c-.9.4-1-.7-.4-.9a.72.72,0,0,1,.7-.8.63.63,0,0,1,.6.8c.7.2.5,1.3-.3.9" fill="none" stroke="#00a651" stroke-miterlimit="3.86" stroke-width="0.3"/><line x1="14.28" y1="2.65" x2="14.28" y2="1.95" fill="none" stroke="#00a651" stroke-miterlimit="3.86" stroke-width="0.3"/><path d="M14.08,2.05c-.9.4-1-.7-.4-.9a.72.72,0,0,1,.7-.8.63.63,0,0,1,.6.8c.7.2.5,1.3-.3.9" fill="none" stroke="#00a651" stroke-miterlimit="3.86" stroke-width="0.3"/><line x1="8.02" y1="2.55" x2="8.02" y2="1.85" fill="none" stroke="#00a651" stroke-miterlimit="3.86" stroke-width="0.3"/><path d="M7.82,2c-.9.4-1-.7-.4-.9a.72.72,0,0,1,.7-.8.63.63,0,0,1,.6.8c.7.2.5,1.3-.3.9" fill="none" stroke="#00a651" stroke-miterlimit="3.86" stroke-width="0.3"/><line x1="1.13" y1="2.45" x2="1.13" y2="1.75" fill="none" stroke="#00a651" stroke-miterlimit="3.86" stroke-width="0.3"/><path d="M.93,1.85c-.9.4-1-.7-.4-.9a.72.72,0,0,1,.7-.8.63.63,0,0,1,.6.8c.7.2.5,1.3-.3.9" fill="none" stroke="#00a651" stroke-miterlimit="3.86" stroke-width="0.3"/><line x1="20.93" y1="2.75" x2="20.93" y2="2.05" fill="none" stroke="#00a651" stroke-miterlimit="3.86" stroke-width="0.3"/><path d="M20.73,2.15c-.9.4-1-.7-.4-.9a.72.72,0,0,1,.7-.8.63.63,0,0,1,.6.8c.7.2.5,1.3-.3.9" fill="none" stroke="#00a651" stroke-miterlimit="3.86" stroke-width="0.3"/></g></g></svg>