<svg xmlns="http://www.w3.org/2000/svg" viewBox="0 0 18.43 8.5"><title>park_n_ride</title><g id="Layer_2" data-name="Layer 2"><g id="Layer_1-2" data-name="Layer 1"><rect width="18.43" height="8.5" fill="#00aeef"/><path d="M5.11,4.58A2.27,2.27,0,0,1,3.64,5H2.42V7.08H1.22V1.32H3.73a2,2,0,0,1,1.38.45,1.73,1.73,0,0,1,.52,1.38A1.77,1.77,0,0,1,5.11,4.58ZM4.2,2.51a1,1,0,0,0-.66-.19H2.42V4H3.54a1,1,0,0,0,.66-.21.82.82,0,0,0,.24-.66A.77.77,0,0,0,4.2,2.51Z" fill="#fff" fill-rule="evenodd"/><path d="M7.69,6a.8.8,0,0,0,.6.24,1.11,1.11,0,0,0,.52-.12,1.57,1.57,0,0,0,.4-.29L8.15,4.57a2,2,0,0,0-.55.49.86.86,0,0,0-.13.46A.74.74,0,0,0,7.69,6ZM8.19,3a5,5,0,0,0,.3.4,2,2,0,0,0,.34-.28A.66.66,0,0,0,9,2.63a.49.49,0,0,0-.12-.32.44.44,0,0,0-.36-.14.51.51,0,0,0-.28.08.42.42,0,0,0-.2.38A.62.62,0,0,0,8.19,3ZM6.61,4.67a2.82,2.82,0,0,1,.84-.73l.12-.07a2.4,2.4,0,0,1-.39-.57,1.43,1.43,0,0,1-.14-.61,1.21,1.21,0,0,1,.42-1,1.64,1.64,0,0,1,1.09-.36,1.44,1.44,0,0,1,1,.36,1.18,1.18,0,0,1,.4.92,1.32,1.32,0,0,1-.24.82A2.32,2.32,0,0,1,9,4l.82,1a1.62,1.62,0,0,0,.21-.44,1.68,1.68,0,0,0,.08-.5h1a3.05,3.05,0,0,1-.25,1.06,3,3,0,0,1-.41.66l1,1.26H10.18l-.4-.49a2.48,2.48,0,0,1-.54.4,2.21,2.21,0,0,1-1,.23A1.8,1.8,0,0,1,6.85,6.7a1.62,1.62,0,0,1-.49-1.14A1.52,1.52,0,0,1,6.61,4.67Z" fill="#fff" fill-rule="evenodd"/><path d="M16.09,1.47a1.45,1.45,0,0,1,.55.4,1.77,1.77,0,0,1,.3.48A1.57,1.57,0,0,1,17,3a1.73,1.73,0,0,1-.21.81,1.16,1.16,0,0,1-.68.56,1.06,1.06,0,0,1,.56.46,1.86,1.86,0,0,1,.17.9v.39a3,3,0,0,0,0,.54.48.48,0,0,0,.22.33v.14H15.81c0-.13-.06-.23-.08-.31a2.87,2.87,0,0,1-.05-.5V5.74a1,1,0,0,0-.2-.73,1.06,1.06,0,0,0-.72-.18H13.51V7.08H12.33V1.32h2.82A2.61,2.61,0,0,1,16.09,1.47Zm-2.58.85V3.87h1.36a1.52,1.52,0,0,0,.61-.09.64.64,0,0,0,.36-.65.72.72,0,0,0-.35-.7,1.31,1.31,0,0,0-.59-.1Z" fill="#fff" fill-rule="evenodd"/></g></g></svg>