<svg xmlns="http://www.w3.org/2000/svg" viewBox="0 0 9.2 7.48"><title>public_house</title><g id="Layer_2" data-name="Layer 2"><g id="Layer_1-2" data-name="Layer 1"><path d="M6.13,2.35H.68A5.78,5.78,0,0,1,1.24.49H5.73A6.41,6.41,0,0,1,6.13,2.35ZM8.25,2.2a5.4,5.4,0,0,1-.11,1.92c-.08.15-.2.2-.5.32a2.22,2.22,0,0,1-.74.18,8.34,8.34,0,0,0,0-2.7c.52-.39.94-.43,1-.35A.9.9,0,0,1,8.25,2.2Zm.62,2.42c.21-.31.83-3-.49-3.82A1.71,1.71,0,0,0,6.64,1a5.85,5.85,0,0,0-.48-1H.82a7.44,7.44,0,0,0,.41,7.48H5.76a6.52,6.52,0,0,0,.91-1.95A2.89,2.89,0,0,0,8.87,4.62Z" fill="#00aeef" fill-rule="evenodd"/></g></g></svg>