<svg xmlns="http://www.w3.org/2000/svg" viewBox="0 0 10.18 5.92"><title>public_convenience</title><g id="Layer_2" data-name="Layer 2"><g id="Layer_1-2" data-name="Layer 1"><path d="M.76.78H2.22A1.43,1.43,0,0,1,3.27,1a1,1,0,0,1,.31.76c0,1-.94,1-1.35,1H.76ZM0,5.82H.76V3.5H2.22a3.12,3.12,0,0,0,1.25-.22,1.6,1.6,0,0,0,.9-1.53A1.64,1.64,0,0,0,3.82.48,2.58,2.58,0,0,0,2.16.1H0Z" fill="#00aeef" fill-rule="evenodd"/><path d="M9.43,3.82A1.65,1.65,0,0,1,7.75,5.27a1.74,1.74,0,0,1-1.34-.59,3,3,0,0,1-.5-1.77C5.91,2,6.24.65,7.82.65a1.51,1.51,0,0,1,1.53,1.2l.74-.18A2.2,2.2,0,0,0,7.82,0a2.63,2.63,0,0,0-2.7,2.92,3.52,3.52,0,0,0,.74,2.25,2.41,2.41,0,0,0,1.94.75A2.31,2.31,0,0,0,10.18,4Z" fill="#00aeef" fill-rule="evenodd"/></g></g></svg>