<svg xmlns="http://www.w3.org/2000/svg" viewBox="0 0 20.58 5.1"><title>scrub</title><g id="Layer_2" data-name="Layer 2"><g id="Layer_1-2" data-name="Layer 1"><path d="M20.51,4.87a1.71,1.71,0,0,0-1.4,0" fill="none" stroke="#00a651" stroke-miterlimit="3.86" stroke-width="0.3"/><path d="M18.11,5c.2-.1.3-.5,0-.6,0-.3-.2-.4-.5-.3-.1.1-.2.8,0,.9" fill="none" stroke="#00a651" stroke-miterlimit="3.86" stroke-width="0.3"/><path d="M16.31,5c.2-.2.5-1.4-.1-1.8-.4-.3-.7-.1-.7.7a6.53,6.53,0,0,0,.2,1.1" fill="none" stroke="#00a651" stroke-miterlimit="3.86" stroke-width="0.3"/><path d="M13.15,2a1.71,1.71,0,0,0-1.4,0" fill="none" stroke="#00a651" stroke-miterlimit="3.86" stroke-width="0.3"/><path d="M10.75,2.08c.2-.1.3-.5,0-.6,0-.3-.2-.4-.5-.3-.1.1-.2.8,0,.9" fill="none" stroke="#00a651" stroke-miterlimit="3.86" stroke-width="0.3"/><path d="M8.95,2.08c.2-.2.5-1.4-.1-1.8-.4-.3-.7-.1-.7.7a6.52,6.52,0,0,0,.2,1.1" fill="none" stroke="#00a651" stroke-miterlimit="3.86" stroke-width="0.3"/><path d="M5.15,4.28a1.71,1.71,0,0,0-1.4,0" fill="none" stroke="#00a651" stroke-miterlimit="3.86" stroke-width="0.3"/><path d="M2.75,4.38c.2-.1.3-.5,0-.6,0-.3-.2-.4-.5-.3-.1.1-.2.8,0,.9" fill="none" stroke="#00a651" stroke-miterlimit="3.86" stroke-width="0.3"/><path d="M.95,4.38c.2-.2.5-1.4-.1-1.8-.4-.3-.7-.1-.7.7a6.5,6.5,0,0,0,.2,1.1" fill="none" stroke="#00a651" stroke-miterlimit="3.86" stroke-width="0.3"/></g></g></svg>