<svg xmlns="http://www.w3.org/2000/svg" viewBox="0 0 10.75 10.74"><title>tourist_info_seasonal</title><g id="Layer_2" data-name="Layer 2"><g id="Layer_1-2" data-name="Layer 1"><path d="M10.11,10.09H.64V.64h9.46ZM0,0V10.74H10.75V0ZM6.41,4.63h-2L3.14,7.51A1.22,1.22,0,0,0,4.26,9.27a2.84,2.84,0,0,0,2-1.17c.35-.41,0-.6-.21-.42-.5.42-.87.08-.74-.35ZM5.6,1.75c-.78.21-1.34.82-1.16,1.43a1.38,1.38,0,0,0,1.72.64C7,3.59,7.48,3,7.32,2.39S6.38,1.54,5.6,1.75Z" fill="#00aeef" fill-rule="evenodd"/></g></g></svg>