<svg xmlns="http://www.w3.org/2000/svg" viewBox="0 0 4.77 11.2"><title>trail</title><g id="Layer_2" data-name="Layer 2"><g id="Layer_1-2" data-name="Layer 1"><path d="M1.19,7.81H3.57A3.19,3.19,0,0,0,3.78,9a1.31,1.31,0,0,1-.21,1.61,1.76,1.76,0,0,1-1.33.56h.28a1.76,1.76,0,0,1-1.33-.56A1.31,1.31,0,0,1,1,9,3.19,3.19,0,0,0,1.19,7.81Zm0-.76H3.57a18.12,18.12,0,0,1,.8-2c.39-.74.63-2.9.07-3.67S3.34,0,2.38,0,.89.66.33,1.43,0,4.35.4,5.1A18.12,18.12,0,0,1,1.19,7.06Z" fill="#00aeef" fill-rule="evenodd"/></g></g></svg>