<svg xmlns="http://www.w3.org/2000/svg" viewBox="0 0 13.97 7.07"><title>viewpoint</title><g id="Layer_2" data-name="Layer 2"><g id="Layer_1-2" data-name="Layer 1"><path d="M12.38,2.56a5.15,5.15,0,0,0-.9-.92A5.28,5.28,0,0,0,10.4.91L7.73,6.09ZM14,7.07a5.06,5.06,0,0,0-.11-1.3,5.81,5.81,0,0,0-.34-1.25L8.13,6.79ZM.45,4.52A6,6,0,0,0,.11,5.77,5.69,5.69,0,0,0,0,7.07l5.84-.28ZM3.57.91a4.8,4.8,0,0,0-1.08.73,5.69,5.69,0,0,0-.9.92L6.24,6.09ZM8.27.13A5.61,5.61,0,0,0,7,0,5.8,5.8,0,0,0,5.7.13L7,5.82Z" fill="#00aeef" fill-rule="evenodd"/></g></g></svg>