<svg xmlns="http://www.w3.org/2000/svg" viewBox="0 0 10.78 10.78"><title>visitor_centre</title><g id="Layer_2" data-name="Layer 2"><g id="Layer_1-2" data-name="Layer 1"><path d="M9.6,2A1.89,1.89,0,0,0,9,2.11,6.34,6.34,0,0,0,8.32,3.4l-.39,1L7.15,6.17C6.5,7.73,6.06,8.83,5.82,9.48H5L4,7.22,3.23,5.29c-.63-1.5-1-2.41-1.16-2.69s-.25-.46-.34-.5A1.8,1.8,0,0,0,1,2V1.51c.91,0,1.46,0,1.65,0l2,0V2a2.9,2.9,0,0,0-.7.06.24.24,0,0,0-.17.08.21.21,0,0,0,0,.14,5.85,5.85,0,0,0,.36,1.08c.15.35.22.53.24.56a.44.44,0,0,0,0,.11l1.44,3.5L7.15,4.41c0-.07.17-.43.41-1.08.17-.45.27-.76.31-.91a.47.47,0,0,0,0-.14.21.21,0,0,0,0-.14.17.17,0,0,0-.07-.07.55.55,0,0,0-.21,0,5.37,5.37,0,0,0-.62,0V1.51l1.43,0,1.23,0Zm1.18,8.78V0H0V10.78Z" fill="#00aeef" fill-rule="evenodd"/></g></g></svg>