<svg xmlns="http://www.w3.org/2000/svg" viewBox="0 0 10.78 10.78"><title>welsh_culture</title><g id="Layer_2" data-name="Layer 2"><g id="Layer_1-2" data-name="Layer 1"><path d="M4.3,6.71c-.17-.18-.64-.6-1.08-.24a.29.29,0,0,0,0,.39,1.45,1.45,0,0,0,.34.35c.11.13.28.27.36.35s.27.14.36-.06S4.47,6.87,4.3,6.71Zm0-2.63c.17-.17.08-.6,0-.8S4,3.15,3.92,3.22l-.36.34a1.77,1.77,0,0,0-.34.36.29.29,0,0,0,0,.39C3.65,4.68,4.13,4.26,4.3,4.07ZM9.59,5.39A4.63,4.63,0,0,1,9.3,6.93c-.25.67-.71.42-.85.31S8,6.83,7.56,6.47s-.91.06-1.08.24-.08.6,0,.8.27.13.36.06l.27-.25a.26.26,0,0,1,.38,0A4.2,4.2,0,0,1,8,7.7c.13.15,0,.2,0,.2a1.92,1.92,0,0,1-.48.48c-.11.08-.21.14-.14.43a.34.34,0,0,1-.24.39,4.28,4.28,0,0,1-3.21.13s-.36-.08-.34-.41a.48.48,0,0,0-.27-.5,3.72,3.72,0,0,1-1-1c-.08-.11-.2-.14-.45-.13a.44.44,0,0,1-.38-.25,4.24,4.24,0,0,1-.35-1.68,4.19,4.19,0,0,1,.35-1.68.44.44,0,0,1,.38-.25c.25,0,.36,0,.45-.13a3.52,3.52,0,0,1,1-1,.48.48,0,0,0,.27-.5c0-.32.34-.41.34-.41a4.28,4.28,0,0,1,3.21.13A.34.34,0,0,1,7.38,2c-.07.29,0,.35.14.43s.22.22.42.45c0,0,.1.06,0,.21a3.16,3.16,0,0,1-.43.43.27.27,0,0,1-.38,0l-.22-.24c-.1-.07-.27-.14-.36.06s-.18.63,0,.8.64.6,1.08.24.74-.66.88-.77.6-.36.85.31A4.63,4.63,0,0,1,9.59,5.39Zm1.19,5.39V0H0V10.78Z" fill="#00aeef" fill-rule="evenodd"/></g></g></svg>