<svg xmlns="http://www.w3.org/2000/svg" width="2.762" height="2.957" viewBox="0 0 2.762 2.957">
  <title>hard_tree</title>
  <g style="isolation: isolate">
    <path d="M649.365,864.028a.581.581,0,0,1-.577.579.5.5,0,0,1-.3-.1.576.576,0,0,1-.356.27c0,.036.013.138.036.425v0a.105.105,0,0,1-.059.088.259.259,0,0,1-.11.026.228.228,0,0,1-.1-.025.108.108,0,0,1-.051-.088s0,0,.016-.432a.681.681,0,0,1-.309-.2.543.543,0,0,1-.4.17.578.578,0,0,1-.562-.577.559.559,0,0,1,.264-.476.752.752,0,0,1-.016-.167.559.559,0,0,1,.4-.534v-.072a.544.544,0,0,1,.562-.561.552.552,0,0,1,.557.479h.064a.578.578,0,0,1,.58.561c0,.042-.013.072-.016.111A.557.557,0,0,1,649.365,864.028Zm-.2,0a.389.389,0,0,0-.316-.365l-.072-.021-.025-.007.006-.026.016-.071a.346.346,0,0,0-.348-.5.3.3,0,0,0-.111.017h-.006l-.1.036-.042.015.006-.045.018-.1v-.033a.373.373,0,0,0-.746,0,.307.307,0,0,0,.013.111l0,0v.006l.018.087.006.033h-.119a.361.361,0,0,0-.315.365.253.253,0,0,0,.032.162v0l.035.071.017.029-.033.006-.067.021a.381.381,0,0,0,.134.73.4.4,0,0,0,.332-.183c0-.007.014-.026.052-.1l.023-.042.021.039.072.108,0,0a.359.359,0,0,0,.683-.03v0l.035-.124.014-.042.033.03.088.091a.4.4,0,0,0,.267.117A.378.378,0,0,0,649.17,864.028Z" transform="translate(-646.604 -862.361)" fill="param(fill) #FFF" stroke="param(outline) #000" stroke-width="param(outline-width) 1"
/>
  </g>
</svg>
