<svg xmlns="http://www.w3.org/2000/svg" width="1.981" height="3.232" viewBox="0 0 1.981 3.232">
  <title>pine_tree</title>
  <g style="isolation: isolate">
    <path d="M648.868,865.637c-.391-.071-.818-.763-.818-.763l.04,1.093c-.047.177-.291.04-.291.04l.024-1.032a1.924,1.924,0,0,1-.784.693c-.143-.013-.037-.094-.037-.094.731-.7.784-.985.784-.985a3.214,3.214,0,0,0,.057-.8c-.361.522-.6.558-.6.558a.135.135,0,0,1-.09,0c-.065-.044.043-.141.043-.141a3.144,3.144,0,0,0,.243-.224l.012-.013-.013.013a1.348,1.348,0,0,0,.4-.617l.084-.507s.021-.065.04,0l.064.533a3.57,3.57,0,0,0,.589.787c.067.064-.025.063-.025.063-.283-.042-.544-.459-.544-.459l.038.843a2.994,2.994,0,0,0,.787.831C649.042,865.537,648.868,865.637,648.868,865.637Zm-1.651-1.453a.142.142,0,0,0-.022.019Zm.08-.075c-.031.028-.062.057-.08.075Zm.068-.065c-.019.02-.044.041-.068.065C647.319,864.088,647.344,864.065,647.365,864.043Zm.053-.047a.41.41,0,0,1-.053.047C647.385,864.024,647.4,864.01,647.418,864Zm0,0,.02-.019Zm.068-.064a.081.081,0,0,1-.019.018A.177.177,0,0,0,647.486,863.932Z" transform="translate(-646.964 -862.825)" fill="param(fill) #FFF" stroke="param(outline) #000" stroke-width="param(outline-width) 1"
/>
  </g>
</svg>
