<svg id="Layer_1" data-name="Layer 1" xmlns="http://www.w3.org/2000/svg" xmlns:xlink="http://www.w3.org/1999/xlink" viewBox="0 0 64.125 65.787"><defs><pattern id="_431-K" data-name="431-K" width="74.561" height="74.55" patternTransform="translate(-651.316 -928.548)" patternUnits="userSpaceOnUse" viewBox="0 0 74.561 74.55"><rect width="74.561" height="74.55" style="fill:none"/><path d="M63.9,11.151C67.4,7.984,71.129,2.145,72.85,0" style="fill:none;stroke:#000;stroke-width:0.43px"/><path d="M70.417,0c-.693,1.064-1.3,2.1-1.445,2.363" style="fill:none;stroke:#000;stroke-width:0.43px"/><path d="M57.6,15.313c4.9-2.494,6.06-8.728,10.435-11.7" style="fill:none;stroke:#000;stroke-width:0.43px"/><path d="M57.4,13.818A106.922,106.922,0,0,1,66.15,2.91" style="fill:none;stroke:#000;stroke-width:0.43px"/><path d="M50.575,19.425c2.844-2.013,7.94-11.288,8.9-12.6a14.36,14.36,0,0,1,3.319-3.4" style="fill:none;stroke:#000;stroke-width:0.43px;fill-rule:evenodd"/><path d="M62.438,0a50.331,50.331,0,0,0-6.11,8.532c-1.356,2.712-4.863,3.8-6.219,6.9" style="fill:none;stroke:#000;stroke-width:0.43px"/><path d="M50.042,13.071c2.7-3.166,3.5-8.931,7.336-12.24" style="fill:none;stroke:#000;stroke-width:0.43px"/><path d="M53.563,2.921c-.973,1.4-1.432,2.419-2.178,3.423" style="fill:none;stroke:#000;stroke-width:0.43px"/><path d="M38.3,12.425c1.05-.656,2.056-2.231,3.369-4.462,1.18-2.006,4.021-5.921,5.41-7.963" style="fill:none;stroke:#000;stroke-width:0.43px"/><path d="M68.1,18.31c1.575-1.837,3.15-6.5,4-8.072a33.2,33.2,0,0,1,2.461-3.194" style="fill:none;stroke:#000;stroke-width:0.43px"/><path d="M74.561,1.3A5.913,5.913,0,0,1,74,2.035c-1.058,1.175-4.2,4.791-4.856,5.71" style="fill:none;stroke:#000;stroke-width:0.43px"/><path d="M59.566,17.325c2.559-4.134,6.1-4.725,9.581-9.581" style="fill:none;stroke:#000;stroke-width:0.43px"/><path d="M73.478,11.682a15.5,15.5,0,0,1,1.083-1.54" style="fill:none;stroke:#000;stroke-width:0.43px"/><path d="M68.565,0a21.251,21.251,0,0,1-2.414,2.909" style="fill:none;stroke:#000;stroke-width:0.43px"/><path d="M54.053,8.269C55.841,6.66,57.771,2.8,59.982,0" style="fill:none;stroke:#000;stroke-width:0.43px"/><path d="M62.409,2.713A18.7,18.7,0,0,0,65.9,0" style="fill:none;stroke:#000;stroke-width:0.43px"/><path d="M74.561,3.643c-.546.885-.936,1.623-1.479,2.352" style="fill:none;stroke:#000;stroke-width:0.43px"/><path d="M72.56,19.688c-.919,1.05-3.988,4.65-5.075,6.212-1.074,1.542-4.244,6.825-5.95,7.875" style="fill:none;stroke:#000;stroke-width:0.43px"/><path d="M67.872,22.588a34.419,34.419,0,0,0-5.418,7.468c-1.575,3.019-4,4.725-5.315,5.906" style="fill:none;stroke:#000;stroke-width:0.43px"/><path d="M63.109,25.791c2.3-4.266,6.737-6.191,10.938-13.016" style="fill:none;stroke:#000;stroke-width:0.43px"/><path d="M69.759,12.338c-1.05,1.181-2.209,5.862-5.075,8.575" style="fill:none;stroke:#000;stroke-width:0.43px"/><path d="M67.872,28.626c2.625-2.538,4.547-4.847,5.038-6.138a14.934,14.934,0,0,1,1.652-2.9" style="fill:none;stroke:#000;stroke-width:0.43px"/><path d="M57.459,24.951a24.486,24.486,0,0,1-3.6,5.893c-1.378,1.575-1.51,2.625-2.166,4.068" style="fill:none;stroke:#000;stroke-width:0.43px"/><path d="M57.859,23.1c.656-1.312,1.969-4.4,3.872-5.972a32.625,32.625,0,0,0,3.609-3.413" style="fill:none;stroke:#000;stroke-width:0.43px"/><path d="M57.925,20.344c-1.837,1.9-6.037,5.841-7.219,8.072s-3.476,5.568-4.643,7.735" style="fill:none;stroke:#000;stroke-width:0.43px"/><path d="M43.9,38.151c.591-1.575,1.275-4.529,2.588-6.038a30.286,30.286,0,0,0,2.362-2.975" style="fill:none;stroke:#000;stroke-width:0.43px"/><path d="M43.73,34.151a22.129,22.129,0,0,1,1.858-3.766c1.247-1.509,3.413-3.019,4.725-5.053a43.186,43.186,0,0,1,3.544-4.462" style="fill:none;stroke:#000;stroke-width:0.43px"/><path d="M48.8,15.7c-1.05,1.182-1.634,3.859-2.816,6.746s-4.4,5.906-5.775,7.153a17.222,17.222,0,0,0-1.607,2,10.262,10.262,0,0,0-1.116,2.658" style="fill:none;stroke:#000;stroke-width:0.43px"/><path d="M59.959,28.788c.328-.459,1.247-2.668,1.772-3.456,1.143-1.714,2.69-6.5,3.478-8.531S69.8,10.369,71.05,8.794" style="fill:none;stroke:#000;stroke-width:0.43px"/><path d="M53.069,14.438c-1.247,1.509-3.872,3.872-4.4,5.644a14.431,14.431,0,0,1-1.247,3.347" style="fill:none;stroke:#000;stroke-width:0.43px"/><path d="M56.612,14.963a19.369,19.369,0,0,0-3.872,4.594c-.919,1.641-2.369,3.12-4.994,6.357" style="fill:none;stroke:#000;stroke-width:0.43px"/><path d="M54.659,21.713c1.523-1.991,1.459-2.276,1.428-2.223A14.21,14.21,0,0,1,58.6,16.463" style="fill:none;stroke:#000;stroke-width:0.43px"/><path d="M48.862,7.954A24.99,24.99,0,0,0,45.325,14.5c-1.116,2.888-3.762,6.481-4.6,8.981" style="fill:none;stroke:#000;stroke-width:0.43px"/><path d="M50.706,7.285a31.137,31.137,0,0,1-2.887,6.431A30.441,30.441,0,0,0,44.8,20.672c-.394,1.444-3.869,6.4-5.9,7.979" style="fill:none;stroke:#000;stroke-width:0.43px"/><path d="M37.286,1.291A10.378,10.378,0,0,0,37.979,0" style="fill:none;stroke:#000;stroke-width:0.43px"/><path d="M70.9,19.163A25.733,25.733,0,0,1,74.561,16.4" style="fill:none;stroke:#000;stroke-width:0.43px"/><path d="M74.561,24.2c-2.88,2.991-6.792,8.119-6.792,8.119" style="fill:none;stroke:#000;stroke-width:0.43px"/><path d="M53.61,2.876A25.7,25.7,0,0,1,55.98,0" style="fill:none;stroke:#000;stroke-width:0.43px"/><path d="M53.735,0c-.824,1.047-2.194,2.517-3.446,3.868l-.1.082c-1.244,1.343-2.926,2.743-3.234,3.283-.7,1.225-2.188,4.965-4.594,6.891" style="fill:none;stroke:#000;stroke-width:0.43px"/><path d="M51.746,0a19.726,19.726,0,0,0-1.63,2.166" style="fill:none;stroke:#000;stroke-width:0.43px"/><path d="M44.964,6.6a26.084,26.084,0,0,0,2.658-3.424A15.137,15.137,0,0,0,49.474,0" style="fill:none;stroke:#000;stroke-width:0.43px"/><path d="M27.6,9.516C31.678,7.222,33.843,2.145,35.564,0" style="fill:none;stroke:#000;stroke-width:0.43px"/><path d="M33.131,0c-.693,1.064-1.295,2.1-1.445,2.363" style="fill:none;stroke:#000;stroke-width:0.43px"/><path d="M20.311,15.313c4.9-2.494,6.059-8.728,10.434-11.7" style="fill:none;stroke:#000;stroke-width:0.43px"/><path d="M20.7,13.126c1.566-4.156,5.282-7.214,8.16-10.216" style="fill:none;stroke:#000;stroke-width:0.43px"/><path d="M13.228,19.11c2.844-2.013,8-10.973,8.964-12.285a17.253,17.253,0,0,1,3.6-3.778" style="fill:none;stroke:#000;stroke-width:0.43px;fill-rule:evenodd"/><path d="M25.152,0a50.364,50.364,0,0,0-6.11,8.532,15.522,15.522,0,0,1-3.25,4.265" style="fill:none;stroke:#000;stroke-width:0.43px"/><path d="M11.85,14.583c4.025-2.538,3.78-9.9,8.243-13.751" style="fill:none;stroke:#000;stroke-width:0.43px"/><path d="M4.959,14.057C7.365,12.132,8.722,8.72,9.422,7.495A19.321,19.321,0,0,1,11.9,3.318" style="fill:none;stroke:#000;stroke-width:0.43px"/><path d="M1.017,12.425c1.05-.656,2.056-2.231,3.369-4.462C5.566,5.957,8.407,2.042,9.8,0" style="fill:none;stroke:#000;stroke-width:0.43px"/><path d="M31.917,16.047c1.438-2.625,2.044-4.234,2.9-5.809a33.308,33.308,0,0,1,2.461-3.194h.011A33.417,33.417,0,0,0,41.962,0" style="fill:none;stroke:#000;stroke-width:0.43px"/><path d="M22.28,17.325c2.559-4.134,6.1-4.725,9.581-9.581.657-.918,3.8-4.535,4.856-5.709a5.9,5.9,0,0,0,.558-.735" style="fill:none;stroke:#000;stroke-width:0.43px"/><path d="M36.192,11.682c.368-.595,1.094-1.54,1.094-1.54,2.11-2.636,4.029-3.163,6.333-8.5" style="fill:none;stroke:#000;stroke-width:0.43px"/><path d="M0,7.044A33.4,33.4,0,0,0,4.676,0" style="fill:none;stroke:#000;stroke-width:0.43px"/><path d="M0,10.142c2.11-2.636,4.029-3.163,6.333-8.5" style="fill:none;stroke:#000;stroke-width:0.43px"/><path d="M37.275,30.467c-1.251,1.146-1.327,2.243-2.724,3.4a29.371,29.371,0,0,0-3,2.975q-.132.22-.276.438" style="fill:none;stroke:#000;stroke-width:0.43px"/><path d="M31.279,0a21.265,21.265,0,0,1-2.414,2.909" style="fill:none;stroke:#000;stroke-width:0.43px"/><path d="M28.615,37.275c3.009-2.863,5.96-6.8,8.66-9.7h.011A25.29,25.29,0,0,1,39.747,25.2" style="fill:none;stroke:#000;stroke-width:0.43px"/><path d="M17.23,8.422C18.786,6.542,20.821,2.372,22.7,0" style="fill:none;stroke:#000;stroke-width:0.43px"/><path d="M25.124,2.713A18.731,18.731,0,0,0,28.615,0" style="fill:none;stroke:#000;stroke-width:0.43px"/><path d="M0,3.628A23.268,23.268,0,0,1,2.764,0" style="fill:none;stroke:#000;stroke-width:0.43px"/><path d="M35.8,5.994c.542-.729.932-1.466,1.478-2.352l.011-.015A23.232,23.232,0,0,1,40.05,0" style="fill:none;stroke:#000;stroke-width:0.43px"/><path d="M4.036,30.516A16.265,16.265,0,0,0,2.264,33.6C2,34.388,1.8,34.913,1.8,34.913A25.417,25.417,0,0,0,.7,37.275" style="fill:none;stroke:#000;stroke-width:0.43px"/><path d="M36.1,19.547c-.918,1.05-4.687,4.813-5.907,6.354-1.166,1.474-4.244,6.825-5.95,7.875" style="fill:none;stroke:#000;stroke-width:0.43px"/><path d="M31.23,22.359a36.515,36.515,0,0,0-6.063,7.7,16.156,16.156,0,0,1-4.392,5.329" style="fill:none;stroke:#000;stroke-width:0.43px"/><path d="M25.823,25.791c2.3-4.266,6.707-5.857,10.907-12.682" style="fill:none;stroke:#000;stroke-width:0.43px"/><path d="M31.042,15.109c-.735,1.569-1.2,3.49-2.812,5.438" style="fill:none;stroke:#000;stroke-width:0.43px"/><path d="M31.34,27.379a24.3,24.3,0,0,0,3.827-3.77,28.687,28.687,0,0,0,2.063-2.625l.75-1.375c.791-1.139,2.346-3,2.75-3.459" style="fill:none;stroke:#000;stroke-width:0.43px"/><path d="M2.023,16.975A30.991,30.991,0,0,0,0,19.585" style="fill:none;stroke:#000;stroke-width:0.43px"/><path d="M20.447,25.017a25.067,25.067,0,0,1-3.876,5.828c-1.378,1.575-1.509,2.625-2.166,4.068" style="fill:none;stroke:#000;stroke-width:0.43px"/><path d="M20.77,23.56c.656-1.312,1.969-4.4,3.872-5.972a32.567,32.567,0,0,0,3.609-3.413" style="fill:none;stroke:#000;stroke-width:0.43px"/><path d="M20.639,20.344c-1.838,1.9-6.038,5.841-7.219,8.072S9.77,34.571,8.4,37.151" style="fill:none;stroke:#000;stroke-width:0.43px"/><path d="M6.563,37.651c.59-1.575,1.322-4.029,2.635-5.538a30.4,30.4,0,0,0,2.363-2.975" style="fill:none;stroke:#000;stroke-width:0.43px"/><path d="M5.9,35.484c.655-1.3,1.633-4.166,2.4-5.1,1.247-1.509,3.68-2.809,4.992-4.843a43.373,43.373,0,0,1,3.347-4.331" style="fill:none;stroke:#000;stroke-width:0.43px"/><path d="M10.992,16.6c-1.05,1.181-1.116,2.953-2.3,5.84S4.3,28.35,2.92,29.6a17.2,17.2,0,0,0-1.608,2A10.281,10.281,0,0,0,.2,34.256" style="fill:none;stroke:#000;stroke-width:0.43px"/><path d="M22.673,28.788c.328-.459,1.247-2.668,1.772-3.456,1.143-1.714,2.69-6.5,3.478-8.531s4.594-6.431,5.841-8.006" style="fill:none;stroke:#000;stroke-width:0.43px"/><path d="M15,14.451c-1.247,1.509-3.089,3.858-3.614,5.63a14.437,14.437,0,0,1-1.247,3.347" style="fill:none;stroke:#000;stroke-width:0.43px"/><path d="M19.792,14.359a24.652,24.652,0,0,0-4.338,5.2c-.918,1.641-3.058,3.428-5.391,7.428" style="fill:none;stroke:#000;stroke-width:0.43px"/><path d="M18.014,20.541a34.651,34.651,0,0,1,3.9-4.744" style="fill:none;stroke:#000;stroke-width:0.43px"/><path d="M12.572,6.226A38.911,38.911,0,0,0,8.039,14.5c-1.116,2.888-3.281,6.562-5.316,8.2" style="fill:none;stroke:#000;stroke-width:0.43px"/><path d="M13.9,6.984a37.659,37.659,0,0,1-3.364,6.732,30.415,30.415,0,0,0-3.019,6.956c-.394,1.444-2.494,4.266-4.528,5.841" style="fill:none;stroke:#000;stroke-width:0.43px"/><path d="M0,1.291A10.364,10.364,0,0,0,.693,0" style="fill:none;stroke:#000;stroke-width:0.43px"/><path d="M6.431,7.678C6,8.335,4.5,11.747,3.773,12.732A14.433,14.433,0,0,1,.3,16.209s-.11.07-.3.191" style="fill:none;stroke:#000;stroke-width:0.43px"/><path d="M33.042,20.484A46.837,46.837,0,0,1,37.275,16.4h.011c.185-.121.295-.191.295-.191a14.426,14.426,0,0,0,3.478-3.478c.722-.984,2.783-3.858,3.209-4.515" style="fill:none;stroke:#000;stroke-width:0.43px"/><path d="M29.4,34.318A118.878,118.878,0,0,1,37.275,24.2h.011c.477-.5.925-.932,1.323-1.277.965-.837,3.357-5.376,4.954-7.607" style="fill:none;stroke:#000;stroke-width:0.43px"/><path d="M.328,30.188c-.118.093-.227.187-.328.279" style="fill:none;stroke:#000;stroke-width:0.43px"/><path d="M0,27.571A25.336,25.336,0,0,1,2.461,25.2" style="fill:none;stroke:#000;stroke-width:0.43px"/><path d="M4.933,15.881c-1.6,2.231-2.644,6.207-3.609,7.044-.4.345-.847.782-1.323,1.277" style="fill:none;stroke:#000;stroke-width:0.43px"/><path d="M18.694,0a25.684,25.684,0,0,0-2.371,2.876l-.047.046C15.3,4.321,14.845,5.34,14.1,6.344" style="fill:none;stroke:#000;stroke-width:0.43px"/><path d="M16.449,0C15.625,1.047,14.254,2.517,13,3.868l-.628.74" style="fill:none;stroke:#000;stroke-width:0.43px"/><path d="M14.459,0a19.737,19.737,0,0,0-1.63,2.166" style="fill:none;stroke:#000;stroke-width:0.43px"/><path d="M7.678,6.6a26.112,26.112,0,0,0,2.658-3.424A15.164,15.164,0,0,0,12.188,0" style="fill:none;stroke:#000;stroke-width:0.43px"/><path d="M65.422,46.651c3.691-3.115,5.707-7.231,7.428-9.376a4.348,4.348,0,0,1,.628-.656" style="fill:none;stroke:#000;stroke-width:0.43px"/><path d="M73.478,73.894a4.372,4.372,0,0,0-.628.656" style="fill:none;stroke:#000;stroke-width:0.43px"/><path d="M68.972,39.638c.15-.263.752-1.3,1.445-2.362.114-.175.231-.351.349-.525a13.87,13.87,0,0,1,1.925-2.035" style="fill:none;stroke:#000;stroke-width:0.43px"/><path d="M57.6,52.588c4.9-2.494,6.775-8.561,10.435-11.7" style="fill:none;stroke:#000;stroke-width:0.43px"/><path d="M57.991,50.4a68.488,68.488,0,0,1,8.16-10.215" style="fill:none;stroke:#000;stroke-width:0.43px"/><path d="M50.575,56.7c2.844-2.012,7.94-11.288,8.9-12.6a13.8,13.8,0,0,1,3.494-3.137" style="fill:none;stroke:#000;stroke-width:0.43px;fill-rule:evenodd"/><path d="M49.934,53.039c2.013-3.062,5.038-4.52,6.394-7.232a50.327,50.327,0,0,1,6.11-8.531h0c.182-.2,1.757-1.851,1.905-2a53.025,53.025,0,0,0,3-4.375" style="fill:none;stroke:#000;stroke-width:0.43px"/><path d="M63.284,71.663a9.279,9.279,0,0,0-3.3,2.887" style="fill:none;stroke:#000;stroke-width:0.43px"/><path d="M49.847,50.5c3.581-3.53,3.494-7.993,7.263-11.637" style="fill:none;stroke:#000;stroke-width:0.43px"/><path d="M38.063,50.984c1-1.666,3.188-3.935,4.5-6.166,1.18-2.006,5.321-9.183,5.912-10.168" style="fill:none;stroke:#000;stroke-width:0.43px"/><path d="M69.272,53.826c1.575-1.837,1.975-4.738,2.828-6.313a33.264,33.264,0,0,1,2.461-3.194" style="fill:none;stroke:#000;stroke-width:0.43px"/><path d="M74.561,38.575A5.871,5.871,0,0,1,74,39.31c-1.058,1.175-4.2,4.79-4.856,5.709" style="fill:none;stroke:#000;stroke-width:0.43px"/><path d="M59.566,54.6c2.559-4.135,6.1-4.725,9.581-9.581" style="fill:none;stroke:#000;stroke-width:0.43px"/><path d="M73.478,48.957a15.5,15.5,0,0,1,1.083-1.54" style="fill:none;stroke:#000;stroke-width:0.43px"/><path d="M70.417,74.55c.114-.175.231-.351.349-.525a13.848,13.848,0,0,1,1.925-2.034" style="fill:none;stroke:#000;stroke-width:0.43px"/><path d="M74.561,67.742c-1.251,1.145-1.327,2.242-2.724,3.4a29.366,29.366,0,0,0-3,2.975q-.132.22-.276.438" style="fill:none;stroke:#000;stroke-width:0.43px"/><path d="M66.151,40.185a21.281,21.281,0,0,0,2.414-2.909q.144-.218.276-.437a29.366,29.366,0,0,1,3-2.975c1.4-1.153,1.473-2.25,2.724-3.4" style="fill:none;stroke:#000;stroke-width:0.43px"/><path d="M65.9,74.55c3.009-2.863,5.96-6.8,8.661-9.7" style="fill:none;stroke:#000;stroke-width:0.43px"/><path d="M62.438,74.55c.182-.2.348-.376.5-.525a6.934,6.934,0,0,0,1.783-2.034c.558-1.116,3.216-5.513,3.773-6.169" style="fill:none;stroke:#000;stroke-width:0.43px"/><path d="M53.73,46.984C55.305,44.71,58.836,38.6,61.047,35.8" style="fill:none;stroke:#000;stroke-width:0.43px"/><path d="M62.409,39.988A18.692,18.692,0,0,0,65.9,37.275c3.009-2.863,5.96-6.8,8.661-9.7" style="fill:none;stroke:#000;stroke-width:0.43px"/><path d="M55.96,74.55q.317-.338.674-.7" style="fill:none;stroke:#000;stroke-width:0.43px"/><path d="M61.075,66.347c-1.707,2.691-5.447,6.169-6.169,6.891s-.678.613-.678.613c-.129.2-.3.438-.51.7" style="fill:none;stroke:#000;stroke-width:0.43px"/><path d="M63.2,55.563a33.1,33.1,0,0,0-4.288,8.313c-.853,2.559-2.428,4.047-4,5.884a17.225,17.225,0,0,0-2.166,3.478c-.525.722-.481.7-.481.7-.17.191-.35.4-.532.612" style="fill:none;stroke:#000;stroke-width:0.43px"/><path d="M47.082,74.55c.156-.229.294-.435.409-.612a14.55,14.55,0,0,1,.984-2.013" style="fill:none;stroke:#000;stroke-width:0.43px"/><path d="M46.7,62.148c-.328.787-2.822,3.609-3.413,4.725s-1.05,4.266-1.312,5.053a5.577,5.577,0,0,1-.93,1.564c-.368.373-.7.726-1.008,1.061" style="fill:none;stroke:#000;stroke-width:0.43px"/><path d="M74.561,40.918c-.546.885-.936,1.622-1.479,2.351" style="fill:none;stroke:#000;stroke-width:0.43px"/><path d="M42.175,74.025q-.1.262-.213.525" style="fill:none;stroke:#000;stroke-width:0.43px"/><path d="M41.322,67.791a16.253,16.253,0,0,0-1.772,3.084c-.262.788-.459,1.313-.459,1.313a25.589,25.589,0,0,0-1.107,2.362" style="fill:none;stroke:#000;stroke-width:0.43px"/><path d="M72.56,56.963c-.919,1.05-4.288,4.506-5.075,6.212S63.241,70,61.534,71.05" style="fill:none;stroke:#000;stroke-width:0.43px"/><path d="M67.872,60.039a32.777,32.777,0,0,0-5.418,7.293c-1.575,3.019-4,4.725-5.315,5.906" style="fill:none;stroke:#000;stroke-width:0.43px"/><path d="M63.109,63.066c2.3-4.266,6.737-6.19,10.938-13.016" style="fill:none;stroke:#000;stroke-width:0.43px"/><path d="M69.759,49.613c-1.05,1.181-2.15,4.826-4.163,7.8" style="fill:none;stroke:#000;stroke-width:0.43px"/><path d="M67.747,65.275c2.975-2.188,4.671-4.222,5.162-5.513a14.917,14.917,0,0,1,1.652-2.9" style="fill:none;stroke:#000;stroke-width:0.43px"/><path d="M58.072,61.876a28.964,28.964,0,0,1-4.215,6.243c-1.378,1.575-1.51,2.625-2.166,4.069" style="fill:none;stroke:#000;stroke-width:0.43px"/><path d="M57.859,60.376c.656-1.312,1.969-4.4,3.872-5.972a32.632,32.632,0,0,0,3.609-3.412" style="fill:none;stroke:#000;stroke-width:0.43px"/><path d="M57.925,57.619c-1.837,1.9-6.037,5.841-7.219,8.072s-2.69,4.988-4.4,6.234" style="fill:none;stroke:#000;stroke-width:0.43px"/><path d="M44.078,73.96a13.394,13.394,0,0,1,2.406-4.572,30.363,30.363,0,0,0,2.362-2.975" style="fill:none;stroke:#000;stroke-width:0.43px"/><path d="M43.339,71.4a22.169,22.169,0,0,1,2.248-3.743c1.247-1.509,3.413-3.019,4.725-5.053a43.186,43.186,0,0,1,3.544-4.462" style="fill:none;stroke:#000;stroke-width:0.43px"/><path d="M48.278,53.879c-1.05,1.181-1.116,2.953-2.3,5.841s-4.4,5.906-5.775,7.153a17.2,17.2,0,0,0-1.607,2,10.248,10.248,0,0,0-1.116,2.658" style="fill:none;stroke:#000;stroke-width:0.43px"/><path d="M59.959,66.063c.328-.459,1.247-2.669,1.772-3.457,1.143-1.714,2.69-6.5,3.478-8.531s4.594-6.431,5.841-8.006" style="fill:none;stroke:#000;stroke-width:0.43px"/><path d="M53.069,51.713c-1.247,1.509-3.872,3.872-4.4,5.644A14.438,14.438,0,0,1,47.425,60.7" style="fill:none;stroke:#000;stroke-width:0.43px"/><path d="M56.612,52.238a26.789,26.789,0,0,0-4.666,5.351c-.919,1.641-1.663,2.45-4.288,5.688" style="fill:none;stroke:#000;stroke-width:0.43px"/><path d="M54.747,58.726a11.3,11.3,0,0,0,1.341-1.96A11.461,11.461,0,0,1,58.334,54" style="fill:none;stroke:#000;stroke-width:0.43px"/><path d="M50.23,43.151a41.859,41.859,0,0,0-4.9,8.627c-1.116,2.888-2.916,5.285-4.141,8.085" style="fill:none;stroke:#000;stroke-width:0.43px"/><path d="M50.984,45.164a30.869,30.869,0,0,1-3.165,5.828A30.432,30.432,0,0,0,44.8,57.947c-.394,1.444-4.036,6.274-6.07,7.85" style="fill:none;stroke:#000;stroke-width:0.43px"/><path d="M39.085,72.188a25.6,25.6,0,0,0-1.106,2.362" style="fill:none;stroke:#000;stroke-width:0.43px"/><path d="M70.9,56.438a25.776,25.776,0,0,1,3.664-2.763" style="fill:none;stroke:#000;stroke-width:0.43px"/><path d="M74.561,61.478c-2.88,2.99-6.792,8.118-6.792,8.118" style="fill:none;stroke:#000;stroke-width:0.43px"/><path d="M55.957,62.016a48.8,48.8,0,0,0-5.316,7.809c-.457,1.28-.309,2.655-1.175,4.725" style="fill:none;stroke:#000;stroke-width:0.43px"/><path d="M51.384,43.619c.747-1,1.206-2.023,2.178-3.422l.047-.046a25.7,25.7,0,0,1,2.371-2.875H55.96q.317-.338.674-.7" style="fill:none;stroke:#000;stroke-width:0.43px"/><path d="M42.722,51.844c1.788-2.918,4.113-6.3,4.813-7.525a28.5,28.5,0,0,1,2.66-3.094l.1-.082c1.252-1.351,2.622-2.821,3.446-3.868h-.017a13.119,13.119,0,0,1,1.188-1.312c.722-.722,4.462-4.2,6.169-6.891" style="fill:none;stroke:#000;stroke-width:0.43px"/><path d="M50.116,39.441a19.725,19.725,0,0,1,1.63-2.166h-.018c.181-.215.361-.422.532-.613,0,0-.043.022.481-.7a17.211,17.211,0,0,1,2.166-3.478c1.575-1.838,3.15-3.325,4-5.885A33.108,33.108,0,0,1,63.2,18.288" style="fill:none;stroke:#000;stroke-width:0.43px"/><path d="M44.964,43.871a26.091,26.091,0,0,0,2.658-3.423,15.15,15.15,0,0,0,1.852-3.172h-.009c.866-2.07.718-3.445,1.175-4.725.656-1.837,3.675-5.841,5.316-7.809" style="fill:none;stroke:#000;stroke-width:0.43px"/><line x1="37.984" y1="74.55" x2="37.979" y2="74.55" style="fill:none;stroke:#000;stroke-width:0.43px"/><path d="M27.6,46.791c4.083-2.294,7.414-8.162,9.135-10.307" style="fill:none;stroke:#000;stroke-width:0.43px"/><path d="M36.192,73.894a4.358,4.358,0,0,0-.628.656" style="fill:none;stroke:#000;stroke-width:0.43px"/><path d="M31.686,39.638c.15-.263.536-.892,1.23-1.955.114-.176,1.129-1.205,1.247-1.378,0,0,1.214-.788,1.838-1.181" style="fill:none;stroke:#000;stroke-width:0.43px"/><path d="M21.146,52.076c4.417-5.092,5.75-7.425,10.084-10.925" style="fill:none;stroke:#000;stroke-width:0.43px"/><path d="M13.289,56.7c2.844-2.012,7.941-11.288,8.9-12.6a26.627,26.627,0,0,1,4.872-4.116" style="fill:none;stroke:#000;stroke-width:0.43px;fill-rule:evenodd"/><path d="M13.267,52.588c1.356-3.106,4.419-4.069,5.775-6.781a50.359,50.359,0,0,1,6.11-8.531h0c.182-.2.349-.377.5-.525a6.932,6.932,0,0,0,1.783-2.035c.558-1.116,3.216-5.512,3.773-6.168" style="fill:none;stroke:#000;stroke-width:0.43px"/><path d="M26,71.663a9.274,9.274,0,0,0-3.3,2.887" style="fill:none;stroke:#000;stroke-width:0.43px"/><path d="M11.872,51.9c3.33-3.355,4.462-10.15,8.925-14" style="fill:none;stroke:#000;stroke-width:0.43px"/><path d="M3.9,53.151a84.887,84.887,0,0,0,5.525-8.162c.308-.54,2.242-2.421,3.486-3.764" style="fill:none;stroke:#000;stroke-width:0.43px"/><path d="M1.017,49.7c1.05-.656,2.056-2.231,3.369-4.462,1.18-2.006,4.021-5.92,5.41-7.962h0c.156-.229.294-.435.409-.613a14.566,14.566,0,0,1,.984-2.012" style="fill:none;stroke:#000;stroke-width:0.43px"/><path d="M32,53.826c1.575-1.837,1.964-4.738,2.817-6.313a33.372,33.372,0,0,1,2.461-3.194h.011C38.914,42.3,42,39.107,43.063,36.651" style="fill:none;stroke:#000;stroke-width:0.43px"/><path d="M22.28,54.6c2.559-4.135,6.1-4.725,9.581-9.581" style="fill:none;stroke:#000;stroke-width:0.43px"/><path d="M36.192,48.957a15.414,15.414,0,0,1,1.083-1.54h.011c2.11-2.636,4.029-3.163,6.333-8.5" style="fill:none;stroke:#000;stroke-width:0.43px"/><path d="M0,44.319a33.394,33.394,0,0,0,4.676-7.044" style="fill:none;stroke:#000;stroke-width:0.43px"/><path d="M0,47.417c2.11-2.636,4.029-3.163,6.333-8.5" style="fill:none;stroke:#000;stroke-width:0.43px"/><path d="M33.131,74.55c.114-.175.231-.351.349-.525A13.851,13.851,0,0,1,35.4,71.991" style="fill:none;stroke:#000;stroke-width:0.43px"/><path d="M37.275,67.742c-1.251,1.145-1.327,2.242-2.724,3.4a29.371,29.371,0,0,0-3,2.975q-.132.22-.276.438" style="fill:none;stroke:#000;stroke-width:0.43px"/><path d="M31.279,37.275a21.3,21.3,0,0,1-2.414,2.909h0c-2.877,3-6.593,6.06-8.16,10.215" style="fill:none;stroke:#000;stroke-width:0.43px"/><path d="M28.615,74.55c3.009-2.863,5.96-6.8,8.66-9.7h.011c.847-.912,2.59-3.09,3.381-3.736" style="fill:none;stroke:#000;stroke-width:0.43px"/><path d="M25.152,74.55c.182-.2.349-.376.5-.525a6.927,6.927,0,0,0,1.783-2.034c.558-1.116,4.554-6.476,5.111-7.132" style="fill:none;stroke:#000;stroke-width:0.43px"/><path d="M17.3,45.514c1.667-2.218,3.188-5.441,5.4-8.238A9.276,9.276,0,0,1,26,34.388" style="fill:none;stroke:#000;stroke-width:0.43px"/><path d="M25.124,39.988a18.727,18.727,0,0,0,3.491-2.712" style="fill:none;stroke:#000;stroke-width:0.43px"/><path d="M18.674,74.55c.212-.225.436-.458.675-.7" style="fill:none;stroke:#000;stroke-width:0.43px"/><path d="M23.789,66.347c-1.707,2.691-5.447,6.169-6.169,6.891s-.678.613-.678.613c-.129.2-.3.438-.51.7" style="fill:none;stroke:#000;stroke-width:0.43px"/><path d="M25.911,55.563a33.063,33.063,0,0,0-4.288,8.313c-.854,2.559-2.428,4.047-4,5.884a17.225,17.225,0,0,0-2.166,3.478c-.525.722-.481.7-.481.7-.17.191-.35.4-.532.612" style="fill:none;stroke:#000;stroke-width:0.43px"/><path d="M9.8,74.55c.156-.229.294-.435.409-.612a14.556,14.556,0,0,1,.984-2.013" style="fill:none;stroke:#000;stroke-width:0.43px"/><path d="M9.417,62.148C9.089,62.935,6.6,65.757,6,66.872s-1.05,4.266-1.312,5.053a5.577,5.577,0,0,1-.93,1.564c-.368.373-.7.726-1.008,1.061" style="fill:none;stroke:#000;stroke-width:0.43px"/><path d="M0,40.9a23.264,23.264,0,0,1,2.764-3.628h-.01c.306-.335.64-.688,1.008-1.061a5.577,5.577,0,0,0,.93-1.564c.263-.788.722-3.937,1.313-5.053s3.084-3.937,3.413-4.725" style="fill:none;stroke:#000;stroke-width:0.43px"/><path d="M35.8,43.269c.542-.729.932-1.466,1.478-2.351l.011-.015a23.227,23.227,0,0,1,2.764-3.628h-.01c.306-.335.64-.688,1.008-1.061a5.577,5.577,0,0,0,.93-1.564c.263-.788.722-3.937,1.313-5.053s3.084-3.937,3.413-4.725" style="fill:none;stroke:#000;stroke-width:0.43px"/><path d="M4.889,74.025q-.1.262-.213.525" style="fill:none;stroke:#000;stroke-width:0.43px"/><path d="M4.036,67.791a16.253,16.253,0,0,0-1.772,3.084C2,71.663,1.8,72.188,1.8,72.188A25.465,25.465,0,0,0,.7,74.55" style="fill:none;stroke:#000;stroke-width:0.43px"/><path d="M36.063,56.318c-.732.836-4.944,4.862-5.865,6.857-.787,1.707-4.244,6.825-5.95,7.875" style="fill:none;stroke:#000;stroke-width:0.43px"/><path d="M31.917,58.359a49.686,49.686,0,0,0-6.75,8.972c-1.575,3.019-4,4.725-5.315,5.906" style="fill:none;stroke:#000;stroke-width:0.43px"/><path d="M25.823,63.066c2.3-4.266,6.738-6.19,10.938-13.016" style="fill:none;stroke:#000;stroke-width:0.43px"/><path d="M32,50.939c-1.05,1.182-1.7,4.108-4.142,7.3" style="fill:none;stroke:#000;stroke-width:0.43px"/><path d="M30.461,65.275c1.952-1.435,4.479-4.876,5.207-5.6-1.375,1.375.7-.656,1.375-1.625L38.1,56.922c.791-1.139,1.554-2.982,1.959-3.437" style="fill:none;stroke:#000;stroke-width:0.43px"/><path d="M2.023,54.251A30.907,30.907,0,0,0,0,56.86" style="fill:none;stroke:#000;stroke-width:0.43px"/><path d="M20.048,61.622c-.853,1.969-2.1,4.922-3.478,6.5s-1.509,2.625-2.166,4.069" style="fill:none;stroke:#000;stroke-width:0.43px"/><path d="M20.573,60.376c.656-1.312,1.969-4.4,3.872-5.972a32.549,32.549,0,0,0,3.609-3.412" style="fill:none;stroke:#000;stroke-width:0.43px"/><path d="M20.639,57.619c-1.838,1.9-6.038,5.841-7.219,8.072s-2.691,4.988-4.4,6.234" style="fill:none;stroke:#000;stroke-width:0.43px"/><path d="M6.792,73.96A13.4,13.4,0,0,1,9.2,69.388a30.477,30.477,0,0,0,2.363-2.975" style="fill:none;stroke:#000;stroke-width:0.43px"/><path d="M6.054,71.4A22.135,22.135,0,0,1,8.3,67.66c1.247-1.509,3.413-3.019,4.725-5.053a43.183,43.183,0,0,1,3.544-4.462" style="fill:none;stroke:#000;stroke-width:0.43px"/><path d="M10.992,53.879c-1.05,1.181-1.116,2.953-2.3,5.841S4.3,65.626,2.92,66.872a17.18,17.18,0,0,0-1.608,2A10.267,10.267,0,0,0,.2,71.532" style="fill:none;stroke:#000;stroke-width:0.43px"/><path d="M22.673,66.063c.328-.459,1.247-2.669,1.772-3.457,1.143-1.714,2.69-6.5,3.478-8.531s4.594-6.431,5.841-8.006" style="fill:none;stroke:#000;stroke-width:0.43px"/><path d="M15.783,51.713c-1.247,1.509-3.872,3.872-4.4,5.644A14.444,14.444,0,0,1,10.139,60.7" style="fill:none;stroke:#000;stroke-width:0.43px"/><path d="M19.327,52.238a19.373,19.373,0,0,0-3.872,4.594,17.534,17.534,0,0,1-5.709,6.431" style="fill:none;stroke:#000;stroke-width:0.43px"/><path d="M16.767,59.867a29.157,29.157,0,0,0,2.034-3.1,22.541,22.541,0,0,1,3.148-3.852" style="fill:none;stroke:#000;stroke-width:0.43px"/><path d="M12.23,44.318c-.914,1.435-3.526,6.218-4.908,9.158-1.317,2.8-1.9,5.1-3.937,6.738" style="fill:none;stroke:#000;stroke-width:0.43px"/><path d="M13.8,45.076a32.4,32.4,0,0,1-3.264,5.915,30.406,30.406,0,0,0-3.019,6.956c-.394,1.444-2.494,4.266-4.528,5.841" style="fill:none;stroke:#000;stroke-width:0.43px"/><path d="M0,38.566a10.428,10.428,0,0,0,.693-1.291" style="fill:none;stroke:#000;stroke-width:0.43px"/><path d="M1.8,72.188A25.6,25.6,0,0,0,.693,74.55" style="fill:none;stroke:#000;stroke-width:0.43px"/><path d="M6.431,44.954C6,45.61,4.5,49.022,3.773,50.006A14.434,14.434,0,0,1,.3,53.485s-.11.07-.3.19" style="fill:none;stroke:#000;stroke-width:0.43px"/><path d="M33.611,56.438a25.77,25.77,0,0,1,3.664-2.763h.011c.185-.121.295-.19.295-.19a14.426,14.426,0,0,0,3.478-3.479c.722-.984,2.911-3.7,3.337-4.355" style="fill:none;stroke:#000;stroke-width:0.43px"/><path d="M30.483,69.6s3.912-5.128,6.792-8.118h.011c.477-.5.925-.932,1.323-1.277.965-.837,2.013-4.812,3.609-7.043" style="fill:none;stroke:#000;stroke-width:0.43px"/><path d="M.328,67.463C.21,67.556.1,67.65,0,67.742" style="fill:none;stroke:#000;stroke-width:0.43px"/><path d="M0,64.846a25.327,25.327,0,0,1,2.461-2.37" style="fill:none;stroke:#000;stroke-width:0.43px"/><path d="M5.046,53.739C3.45,55.97,2.289,59.363,1.323,60.2c-.4.345-.847.782-1.323,1.277" style="fill:none;stroke:#000;stroke-width:0.43px"/><path d="M18.67,62.016c-1.641,1.969-4.66,5.972-5.316,7.809-.457,1.28-.309,2.655-1.175,4.725" style="fill:none;stroke:#000;stroke-width:0.43px"/><path d="M19.563,36.318A35.179,35.179,0,0,0,16.771,40l-.7.875c-.973,1.4-1.227,1.739-1.973,2.743" style="fill:none;stroke:#000;stroke-width:0.43px"/><path d="M13,41.143c1.251-1.351,3.428-3.868,3.428-3.868.207-.262,5.651-5.513,7.357-8.2" style="fill:none;stroke:#000;stroke-width:0.43px"/><path d="M12.83,39.441a19.736,19.736,0,0,1,1.63-2.166h-.018c.182-.215.361-.422.532-.613,0,0-.043.022.481-.7a17.211,17.211,0,0,1,2.166-3.478c1.575-1.838,3.15-3.325,4-5.885a33.072,33.072,0,0,1,4.288-8.312" style="fill:none;stroke:#000;stroke-width:0.43px"/><path d="M7.678,43.871a26.118,26.118,0,0,0,2.658-3.423,15.176,15.176,0,0,0,1.852-3.172h-.009c.866-2.07.718-3.445,1.175-4.725.656-1.837,3.675-5.841,5.316-7.809" style="fill:none;stroke:#000;stroke-width:0.43px"/><path d="M41.322,30.516A16.264,16.264,0,0,0,39.55,33.6s-.459,1.313-.793,2.376a11.759,11.759,0,0,1-1.481,2.6l.011-.009-.011.009a5.862,5.862,0,0,1-.558.735c-1.058,1.175-4.2,4.79-4.856,5.709" style="fill:none;stroke:#000;stroke-width:0.43px"/></pattern></defs><title>431-k</title><rect width="64.125" height="65.787" style="fill:url(#_431-K)"/></svg>