<svg xmlns="http://www.w3.org/2000/svg" xmlns:xlink="http://www.w3.org/1999/xlink" viewBox="0 0 64.125 65.786"><defs><pattern id="a" width="59.334" height="59.333" patternUnits="userSpaceOnUse" viewBox="0 0 59.334 59.333"><rect width="59.334" height="59.333" style="fill:none"/><rect width="59.333" height="59.333" style="fill:none"/><line x1="23.298" y1="57.77" x2="24.23" y2="59.333" style="fill:none;stroke:#231f20;stroke-width:0.5px"/><line x1="41.581" y1="57.829" x2="42.552" y2="59.333" style="fill:none;stroke:#231f20;stroke-width:0.5px"/><line x1="4.34" y1="58.196" x2="5.744" y2="59.333" style="fill:none;stroke:#231f20;stroke-width:0.5px"/><line x1="33.236" y1="57.672" x2="33.776" y2="59.333" style="fill:none;stroke:#231f20;stroke-width:0.5px"/><line x1="52.347" y1="59.333" x2="51.054" y2="58.205" style="fill:none;stroke:#231f20;stroke-width:0.5px"/><line x1="13.77" y1="58.56" x2="15.298" y2="59.333" style="fill:none;stroke:#231f20;stroke-width:0.5px"/><line x1="25.195" y1="1.698" x2="24.181" style="fill:none;stroke:#231f20;stroke-width:0.5px"/><line x1="43.589" y1="1.689" x2="42.498" style="fill:none;stroke:#231f20;stroke-width:0.5px"/><line x1="7.216" y1="1.275" x2="5.641" style="fill:none;stroke:#231f20;stroke-width:0.5px"/><line x1="34.38" y1="1.94" x2="33.749" style="fill:none;stroke:#231f20;stroke-width:0.5px"/><line x1="53.843" y1="1.388" x2="52.252" style="fill:none;stroke:#231f20;stroke-width:0.5px"/><line x1="17.072" y1="0.981" x2="15.134" style="fill:none;stroke:#231f20;stroke-width:0.5px"/><line x1="24.797" y1="54.368" x2="26.695" y2="51.19" style="fill:none;stroke:#231f20;stroke-width:0.5px"/><line x1="7.237" y1="54.316" x2="9.245" y2="51.207" style="fill:none;stroke:#231f20;stroke-width:0.5px"/><line x1="42.839" y1="53.945" x2="45.714" y2="51.616" style="fill:none;stroke:#231f20;stroke-width:0.5px"/><line x1="16.631" y1="51.091" x2="15.487" y2="54.61" style="fill:none;stroke:#231f20;stroke-width:0.5px"/><line x1="50.61" y1="51.214" x2="52.37" y2="54.47" style="fill:none;stroke:#231f20;stroke-width:0.5px"/><line x1="1.572" y1="51.562" y2="52.348" style="fill:none;stroke:#231f20;stroke-width:0.5px"/><line x1="36.785" y1="51.98" x2="33.482" y2="53.649" style="fill:none;stroke:#231f20;stroke-width:0.5px"/><line x1="25.442" y1="47.552" x2="23.545" y2="44.375" style="fill:none;stroke:#231f20;stroke-width:0.5px"/><line x1="43.836" y1="47.542" x2="41.828" y2="44.434" style="fill:none;stroke:#231f20;stroke-width:0.5px"/><line x1="5.44" y1="45.946" x2="8.996" y2="46.971" style="fill:none;stroke:#231f20;stroke-width:0.5px"/><line x1="32.506" y1="47.419" x2="34.957" y2="44.645" style="fill:none;stroke:#231f20;stroke-width:0.5px"/><line y1="43.611" x2="1.332" y2="42.105" style="fill:none;stroke:#231f20;stroke-width:0.5px"/><line x1="54.09" y1="47.242" x2="51.301" y2="44.81" style="fill:none;stroke:#231f20;stroke-width:0.5px"/><line x1="14.215" y1="47.616" x2="16.42" y2="44.644" style="fill:none;stroke:#231f20;stroke-width:0.5px"/><line x1="33.942" y1="31.823" x2="32.045" y2="28.645" style="fill:none;stroke:#231f20;stroke-width:0.5px"/><line x1="52.333" y1="28.651" x2="50.58" y2="31.91" style="fill:none;stroke:#231f20;stroke-width:0.5px"/><line x1="15.739" y1="28.814" x2="13.166" y2="31.473" style="fill:none;stroke:#231f20;stroke-width:0.5px"/><line x1="43.127" y1="32.065" x2="41.983" y2="28.547" style="fill:none;stroke:#231f20;stroke-width:0.5px"/><line x1="24.361" y1="31.293" x2="21.059" y2="29.622" style="fill:none;stroke:#231f20;stroke-width:0.5px"/><line x1="6.942" y1="33.011" x2="5.045" y2="29.833" style="fill:none;stroke:#231f20;stroke-width:0.5px"/><line x1="25.753" y1="39.659" x2="27.65" y2="36.482" style="fill:none;stroke:#231f20;stroke-width:0.5px"/><line x1="7.042" y1="39.987" x2="9.917" y2="37.657" style="fill:none;stroke:#231f20;stroke-width:0.5px"/><line x1="18.542" y1="39.148" x2="15.499" y2="37.043" style="fill:none;stroke:#231f20;stroke-width:0.5px"/><line x1="43.931" y1="39.231" x2="46.751" y2="36.833" style="fill:none;stroke:#231f20;stroke-width:0.5px"/><line x1="53.268" y1="37.133" x2="52.124" y2="40.652" style="fill:none;stroke:#231f20;stroke-width:0.5px"/><line y1="34.261" x2="0.917" y2="34.833" style="fill:none;stroke:#231f20;stroke-width:0.5px"/><line x1="37.655" y1="39.609" x2="34.661" y2="37.435" style="fill:none;stroke:#231f20;stroke-width:0.5px"/><line x1="25.529" y1="21.753" x2="23.632" y2="24.931" style="fill:none;stroke:#231f20;stroke-width:0.5px"/><line x1="7.885" y1="21.491" x2="5.877" y2="24.6" style="fill:none;stroke:#231f20;stroke-width:0.5px"/><line x1="43.593" y1="24.648" x2="44.712" y2="21.12" style="fill:none;stroke:#231f20;stroke-width:0.5px"/><line x1="17.983" y1="24.136" x2="16.887" y2="20.602" style="fill:none;stroke:#231f20;stroke-width:0.5px"/><line x1="52.833" y1="23.849" x2="51.045" y2="20.609" style="fill:none;stroke:#231f20;stroke-width:0.5px"/><line x1="1.556" y1="22.555" y2="23.128" style="fill:none;stroke:#231f20;stroke-width:0.5px"/><line x1="36.821" y1="22.197" x2="33.519" y2="23.867" style="fill:none;stroke:#231f20;stroke-width:0.5px"/><line x1="24.795" y1="13.966" x2="26.692" y2="17.144" style="fill:none;stroke:#231f20;stroke-width:0.5px"/><line y1="13.201" x2="1.103" y2="11.637" style="fill:none;stroke:#231f20;stroke-width:0.5px"/><line x1="41.828" y1="13.233" x2="43.836" y2="16.342" style="fill:none;stroke:#231f20;stroke-width:0.5px"/><line x1="9.004" y1="16.117" x2="6.129" y2="13.787" style="fill:none;stroke:#231f20;stroke-width:0.5px"/><line x1="35.148" y1="13.479" x2="32.725" y2="16.275" style="fill:none;stroke:#231f20;stroke-width:0.5px"/><line x1="54.09" y1="16.042" x2="51.301" y2="13.609" style="fill:none;stroke:#231f20;stroke-width:0.5px"/><line x1="17.058" y1="13.508" x2="14.528" y2="16.208" style="fill:none;stroke:#231f20;stroke-width:0.5px"/><line x1="27.608" y1="5.753" x2="25.711" y2="8.931" style="fill:none;stroke:#231f20;stroke-width:0.5px"/><line x1="7.042" y1="8.487" x2="9.917" y2="6.157" style="fill:none;stroke:#231f20;stroke-width:0.5px"/><line x1="17.545" y1="5.633" x2="16.401" y2="9.152" style="fill:none;stroke:#231f20;stroke-width:0.5px"/><line x1="45.583" y1="5.633" x2="44.44" y2="9.152" style="fill:none;stroke:#231f20;stroke-width:0.5px"/><line x1="53.268" y1="5.633" x2="52.124" y2="9.152" style="fill:none;stroke:#231f20;stroke-width:0.5px"/><line x1="1.872" y1="2.734" y2="4.367" style="fill:none;stroke:#231f20;stroke-width:0.5px"/><line x1="37.693" y1="8.447" x2="34.454" y2="6.657" style="fill:none;stroke:#231f20;stroke-width:0.5px"/><line x1="57.679" y1="53.218" x2="59.333" y2="52.39" style="fill:none;stroke:#231f20;stroke-width:0.5px"/><line x1="58.298" y1="44.877" x2="59.333" y2="43.705" style="fill:none;stroke:#231f20;stroke-width:0.5px"/><line x1="57.194" y1="32.874" x2="59.333" y2="34.209" style="fill:none;stroke:#231f20;stroke-width:0.5px"/><line x1="57.501" y1="23.833" x2="59.333" y2="23.158" style="fill:none;stroke:#231f20;stroke-width:0.5px"/><line x1="58.388" y1="14.661" x2="59.333" y2="13.319" style="fill:none;stroke:#231f20;stroke-width:0.5px"/><line x1="58.501" y1="5.167" x2="59.333" y2="4.44" style="fill:none;stroke:#231f20;stroke-width:0.5px"/><line x1="0.622" y1="59.333" x2="0.622" style="fill:none;stroke:#231f20;stroke-width:0.30000001192092896px"/><line x1="1.786" y1="59.333" x2="1.786" style="fill:none;stroke:#231f20;stroke-width:0.30000001192092896px"/><line x1="2.95" y1="59.333" x2="2.95" style="fill:none;stroke:#231f20;stroke-width:0.30000001192092896px"/><line x1="4.113" y1="59.333" x2="4.113" style="fill:none;stroke:#231f20;stroke-width:0.30000001192092896px"/><line x1="5.277" y1="59.333" x2="5.277" style="fill:none;stroke:#231f20;stroke-width:0.30000001192092896px"/><line x1="6.44" y1="59.333" x2="6.44" style="fill:none;stroke:#231f20;stroke-width:0.30000001192092896px"/><line x1="7.604" y1="59.333" x2="7.604" style="fill:none;stroke:#231f20;stroke-width:0.30000001192092896px"/><line x1="8.768" y1="59.333" x2="8.768" style="fill:none;stroke:#231f20;stroke-width:0.30000001192092896px"/><line x1="9.931" y1="59.333" x2="9.931" style="fill:none;stroke:#231f20;stroke-width:0.30000001192092896px"/><line x1="11.095" y1="59.333" x2="11.095" style="fill:none;stroke:#231f20;stroke-width:0.30000001192092896px"/><line x1="12.259" y1="59.333" x2="12.259" style="fill:none;stroke:#231f20;stroke-width:0.30000001192092896px"/><line x1="13.422" y1="59.333" x2="13.422" style="fill:none;stroke:#231f20;stroke-width:0.30000001192092896px"/><line x1="14.586" y1="59.333" x2="14.586" style="fill:none;stroke:#231f20;stroke-width:0.30000001192092896px"/><line x1="15.749" y1="59.333" x2="15.749" style="fill:none;stroke:#231f20;stroke-width:0.30000001192092896px"/><line x1="16.913" y1="59.333" x2="16.913" style="fill:none;stroke:#231f20;stroke-width:0.30000001192092896px"/><line x1="18.077" y1="59.333" x2="18.077" style="fill:none;stroke:#231f20;stroke-width:0.30000001192092896px"/><line x1="19.241" y1="59.333" x2="19.241" style="fill:none;stroke:#231f20;stroke-width:0.30000001192092896px"/><line x1="20.404" y1="59.333" x2="20.404" style="fill:none;stroke:#231f20;stroke-width:0.30000001192092896px"/><line x1="21.568" y1="59.333" x2="21.568" style="fill:none;stroke:#231f20;stroke-width:0.30000001192092896px"/><line x1="22.731" y1="59.333" x2="22.731" style="fill:none;stroke:#231f20;stroke-width:0.30000001192092896px"/><line x1="23.895" y1="59.333" x2="23.895" style="fill:none;stroke:#231f20;stroke-width:0.30000001192092896px"/><line x1="25.059" y1="59.333" x2="25.059" style="fill:none;stroke:#231f20;stroke-width:0.30000001192092896px"/><line x1="26.222" y1="59.333" x2="26.222" style="fill:none;stroke:#231f20;stroke-width:0.30000001192092896px"/><line x1="27.386" y1="59.333" x2="27.386" style="fill:none;stroke:#231f20;stroke-width:0.30000001192092896px"/><line x1="28.55" y1="59.333" x2="28.55" style="fill:none;stroke:#231f20;stroke-width:0.30000001192092896px"/><line x1="29.713" y1="59.333" x2="29.713" style="fill:none;stroke:#231f20;stroke-width:0.30000001192092896px"/><line x1="30.878" y1="59.333" x2="30.878" style="fill:none;stroke:#231f20;stroke-width:0.30000001192092896px"/><line x1="32.042" y1="59.333" x2="32.042" style="fill:none;stroke:#231f20;stroke-width:0.30000001192092896px"/><line x1="33.205" y1="59.333" x2="33.205" style="fill:none;stroke:#231f20;stroke-width:0.30000001192092896px"/><line x1="34.369" y1="59.333" x2="34.369" style="fill:none;stroke:#231f20;stroke-width:0.30000001192092896px"/><line x1="35.532" y1="59.333" x2="35.532" style="fill:none;stroke:#231f20;stroke-width:0.30000001192092896px"/><line x1="36.696" y1="59.333" x2="36.696" style="fill:none;stroke:#231f20;stroke-width:0.30000001192092896px"/><line x1="37.86" y1="59.333" x2="37.86" style="fill:none;stroke:#231f20;stroke-width:0.30000001192092896px"/><line x1="39.023" y1="59.333" x2="39.023" style="fill:none;stroke:#231f20;stroke-width:0.30000001192092896px"/><line x1="40.187" y1="59.333" x2="40.187" style="fill:none;stroke:#231f20;stroke-width:0.30000001192092896px"/><line x1="41.351" y1="59.333" x2="41.351" style="fill:none;stroke:#231f20;stroke-width:0.30000001192092896px"/><line x1="42.514" y1="59.333" x2="42.514" style="fill:none;stroke:#231f20;stroke-width:0.30000001192092896px"/><line x1="43.678" y1="59.333" x2="43.678" style="fill:none;stroke:#231f20;stroke-width:0.30000001192092896px"/><line x1="44.841" y1="59.333" x2="44.841" style="fill:none;stroke:#231f20;stroke-width:0.30000001192092896px"/><line x1="46.005" y1="59.333" x2="46.005" style="fill:none;stroke:#231f20;stroke-width:0.30000001192092896px"/><line x1="47.169" y1="59.333" x2="47.169" style="fill:none;stroke:#231f20;stroke-width:0.30000001192092896px"/><line x1="48.333" y1="59.333" x2="48.333" style="fill:none;stroke:#231f20;stroke-width:0.30000001192092896px"/><line x1="49.496" y1="59.333" x2="49.496" style="fill:none;stroke:#231f20;stroke-width:0.30000001192092896px"/><line x1="50.66" y1="59.333" x2="50.66" style="fill:none;stroke:#231f20;stroke-width:0.30000001192092896px"/><line x1="51.823" y1="59.333" x2="51.823" style="fill:none;stroke:#231f20;stroke-width:0.30000001192092896px"/><line x1="52.987" y1="59.333" x2="52.987" style="fill:none;stroke:#231f20;stroke-width:0.30000001192092896px"/><line x1="54.151" y1="59.333" x2="54.151" style="fill:none;stroke:#231f20;stroke-width:0.30000001192092896px"/><line x1="55.315" y1="59.333" x2="55.315" style="fill:none;stroke:#231f20;stroke-width:0.30000001192092896px"/><line x1="56.478" y1="59.333" x2="56.478" style="fill:none;stroke:#231f20;stroke-width:0.30000001192092896px"/><line x1="57.642" y1="59.333" x2="57.642" style="fill:none;stroke:#231f20;stroke-width:0.30000001192092896px"/><line x1="58.805" y1="59.333" x2="58.805" style="fill:none;stroke:#231f20;stroke-width:0.30000001192092896px"/></pattern></defs><title>433-k</title><rect width="64.125" height="65.786" style="fill:url(#a)"/></svg>