<svg xmlns="http://www.w3.org/2000/svg" xmlns:xlink="http://www.w3.org/1999/xlink" viewBox="0 0 68.295 69.811"><defs><clipPath id="a" transform="translate(-1066.633 -612.851)"><rect x="1068.01" y="614.56" width="65.951" height="65.953" style="fill:none"/></clipPath></defs><title>disturbed_surface</title><rect x="1.377" y="1.709" width="65.951" height="65.953" style="fill:none"/><g style="clip-path:url(#a)"><path d="M1071.448,662.749a1.5,1.5,0,0,0-.456-.015,3.03,3.03,0,0,0,.918,1.375c.155-.307.457-.658.381-.891s-.519-.361-.843-.469" transform="translate(-1066.633 -612.851)" style="fill:#edceb7"/><path d="M1081.807,679.6c-.459-.305-.8-2.863-1.262-3.209-.18-.135-.457-.416-.457-.57,0-.309-.168-.27-.166-.575,0-.611-.453-1.412-1.293-1.232-.223.047-.408.6.842,1.312.133.075-.014.559.084.817,1.221,3.228,2.367,5.865,2.711,5.062l-.459-1.605" transform="translate(-1066.633 -612.851)" style="fill:#edceb7"/></g><path d="M1076.727,674.41c-.438.15-1.033.656-.973.808.561,1.422,1.107,2.02,1.68,2.041s-.742-.879-1.039-1.51,1.187-1.509.928-1.888-.284.195-.6.549" transform="translate(-1066.633 -612.851)" style="fill:#edceb7"/><path d="M1075.344,673.751c-.357-1.17-.242-1.287-1.834-1.834.463.143.344-.037.459,1.375.014.18,1.066.307,1.375.459" transform="translate(-1066.633 -612.851)" style="fill:#edceb7"/><path d="M1073.957,668.255c-.125-.322-.275-.808-.457-.824-1.223-.111-1.467-1.049-1.824-1.932.8-.222,1.365-1.015,2.293-.916-.43-.248-.914-.693-1.326-.39-.153.113.013.724-.082.756-1.754.6-1.315,1.916-.356,2.761.1.086.629-.388.8-.293.768.436-.3,2.78.508,2.209.4-.427,1.027-.888,1.73.075.307.414.1,1.146.1,1.757.229.459,1.26.2,1.283-.46.055-1.577-2.117-1.342-2.67-2.743" transform="translate(-1066.633 -612.851)" style="fill:#edceb7"/><path d="M1079.461,669.63c-.138-.175-.3-.414-.451-.414s-.305.254-.459.41c.307.155.807.286.818.465a1.975,1.975,0,0,1-1.275,2.285c1.855.559,2.375-1.486,1.367-2.746" transform="translate(-1066.633 -612.851)" style="fill:#edceb7"/><path d="M1081.408,668.7c.188,2.381-.335,3.675,2.186,2.757.572-.8-1.109-.126-1.293-.5-.092-.187,1.025-.642.949-.875s-1.287-.238-1.435-.492c-.262-.457.156-.916.4-1.342-.307.155-.82.321-.811.452" transform="translate(-1066.633 -612.851)" style="fill:#edceb7"/><path d="M1084.026,668.314c-.077-.033-.278.24-.432.394.488.262.8,1.29,1.271.813.45-.455-.355-1.387-.839-1.207" transform="translate(-1066.633 -612.851)" style="fill:#edceb7"/><path d="M1077.483,664.162c-.268-.3-.721.05-.807.416-.143.595-.734,1.591-.047,1.822a2.3,2.3,0,0,1,1.834-.459c-1.58.023-.541-1.291-.98-1.779" transform="translate(-1066.633 -612.851)" style="fill:#edceb7"/><path d="M1086.955,670.658c1.7.228,1.868,1.7,2.8,2.584.164.156.631-.053.828.1a1.748,1.748,0,0,1,.5,1.783c.782-1.013,1.606.377,2.168-.132,1.03-.934.924-2.442,2.414-3.077-.24-1.166-1.275-1.8-1.834-2.75.5,1.6,1.739,3.321-.457,4.125.155.155.407.307.407.459a1.028,1.028,0,0,1-.438.846,1.361,1.361,0,0,1-1.734-.426,5.769,5.769,0,0,0-1.77-1.941c-.41-.375.018-1.473-.59-2.147-.156.155-.388.508-.447.4-.586-1.084-1.387-.969-1.615-.283l-.231.461" transform="translate(-1066.633 -612.851)" style="fill:#edceb7"/><g style="clip-path:url(#a)"><path d="M1086.61,672.982h0c-.121.094-.77-.25-.778-.42-.049-.99-.234-2-1.474-1.83,1.472,1.2,1.892,3.006,2.693,4.615.272.547-1.625,1.918-.859,2.377l1.375-.572c.4.424.869.707,1.834,0-.657.027-1.424.121-1.77-.5-.564-1.01-.074-1.578-.162-2.707-.014-.176-.656-.254-.746-.491a1.462,1.462,0,0,1-.113-.476" transform="translate(-1066.633 -612.851)" style="fill:#edceb7"/><path d="M1085.323,678.994c-.1.291-.262.462-.266.757q-1-.207-2.008-.414c-.545.619.682.85,1.521,1.256a13.905,13.905,0,0,0,1.653.863c-.115-.666-.7-1.662-.9-2.462" transform="translate(-1066.633 -612.851)" style="fill:#edceb7"/></g><path d="M1091.387,655.415c.291.651.875.424,1.375.459-.32-.572-.834-.556-1.375-.459" transform="translate(-1066.633 -612.851)" style="fill:#edceb7"/><g style="clip-path:url(#a)"><path d="M1097.08,679.248c-.277-2.631-.345,0-.5,0,.438.174,1.071.151.918.916a2.907,2.907,0,0,1-.418-.919" transform="translate(-1066.633 -612.851)" style="fill:#edceb7"/><path d="M1097.8,677.417a.636.636,0,0,0-.467-.859c-.525-.076-1.215-.254-1.228-.521a2.041,2.041,0,0,0-1.512-1.827,9.084,9.084,0,0,0,3.156,3.28c.153.107-.031.576.092.824.4.81,1.621-.076,1.738,1.4.01.141-.25.3-.4.453,1.289-.367,1.137,1.3,2.293,1.377v-.918a2.2,2.2,0,0,1-1.381-.449c-1.412-.7.057-2.474-2.287-2.76" transform="translate(-1066.633 -612.851)" style="fill:#edceb7"/></g><path d="M1099.145,673.759c-.125-.558-.362-1.2-.9-1.3-.427-.076-.9-.654-1.359.83,1.422-.455,1.826.739,2.291,1.834a6.18,6.18,0,0,0-.033-1.367" transform="translate(-1066.633 -612.851)" style="fill:#edceb7"/><path d="M1096.928,669.146a2.129,2.129,0,0,1-.041-.9,1.476,1.476,0,0,0-.356,1.758c.168.231.813.076,1.272.076a4.107,4.107,0,0,1-.875-.937" transform="translate(-1066.633 -612.851)" style="fill:#edceb7"/><path d="M1089.248,666.874c.028.305.157.762.037.836a4.25,4.25,0,0,1-1.775.252c.17.139.316.336.508.383.529.133,1.052-.529,1.238-.424,1.192.688,2.547,2.875,3.539,3.868.137-.166-.59-1.592-.619-1.629-1.1-1.371-1.869-1.961-2.928-3.286" transform="translate(-1066.633 -612.851)" style="fill:#edceb7"/><path d="M1091.713,665.7c-.4.263-1.211.248-.824.9.785,1.318,2.519,1.33,3.59,2.338.267-1.291,1.931-.982,2.7-1.877.156-.182.006-.568.076-.867.107-.469.127-1.076.893-.922-.155-.154-.3-.307-.459-.459-.815,1.195-.989-.133-1.832,0,.306.154.765.252.836.484a2.054,2.054,0,0,1-.4,2.243c-.252.226-.678.494-.849.4a1.593,1.593,0,0,1-.506-1.748c-.744.687-1.092,2.318-2.215,1.695a6.192,6.192,0,0,1-1.309-1.355c-.668-.809,1.483-.571,1.233-1.715a5.948,5.948,0,0,1-.934.889" transform="translate(-1066.633 -612.851)" style="fill:#edceb7"/><path d="M1087.475,665.529c.084-.11.636.183.764.058.281-.285,1.117-.685,1.2-1.132.273.209.718.4.72.626,0,.592-1.5.709-2.375,1.01a1.273,1.273,0,0,0-.74,1.184,4.289,4.289,0,0,1,.426-1.746" transform="translate(-1066.633 -612.851)" style="fill:#edceb7"/><g style="clip-path:url(#a)"><path d="M1085.369,665.787c.3-.983-.513-.668-.859-.1-.229.574-.562,2.283.92,2.353.146,0,.3-.253.457-.4-.324-.275-1.563,1.563-.518-1.853" transform="translate(-1066.633 -612.851)" style="fill:#edceb7"/><path d="M1070.416,676.5c-.213,1.192,1.617,3.575,2.178,4.584a1.123,1.123,0,0,0,.152-1.031c-.232-1.211-1.609-2.008-1.6-3.576-.344-.572-.3-.953-1.307-.893l.574.916" transform="translate(-1066.633 -612.851)" style="fill:#edceb7"/><path d="M1067.627,669.968c.1-.051.832.764,1.071.994l-.168-.222c-.655-.891.064-2.52-.151-3.852-.09-.531-1.09-.67-1.123-.947l.371,4.027" transform="translate(-1066.633 -612.851)" style="fill:#edceb7"/></g><path d="M1068.774,671.726c1.4.773-.014.855,1.642,1.566.8-.228.979-1.211,1.032-2.062.011-.2-.231-.842-.231-1.147-.154.305-.3.606-.457.916s-.277,1.09-.383,1.11a2.388,2.388,0,0,1-1.6-.383" transform="translate(-1066.633 -612.851)" style="fill:#edceb7"/><path d="M1078.475,679.06v.918a2.016,2.016,0,0,1,1.377-.459l-1.377-.459" transform="translate(-1066.633 -612.851)" style="fill:#edceb7"/><g style="clip-path:url(#a)"><path d="M1070.358,667.431c.3-.984-.516-.672-.86-.1-.228.573-.562,2.286.92,2.352.147.008.3-.25.455-.4-.32-.276-1.558,1.564-.515-1.85" transform="translate(-1066.633 -612.851)" style="fill:#edceb7"/><path d="M1067.563,654.123c.51.191,1.051-.422,1.3-.3,1.315.634,1.2,2.177,2.856.851.021-.017.375.26.353.391-.074.467-.554.861-.367,1.371.131.359.491.432.858.553,1.138.377-.286,1.525,1.341,2.334.186.092.206.861-.009,1.2-.485.767-1.43.484-2.221.5a2.169,2.169,0,0,1,1.834.916c-.154-.305-.305-.61-.459-.916l1.834-.918c-.307-.155-.75-.246-.846-.485-.213-.531.094-1.269-.154-1.765-.062-.125-.641.062-.773-.094-.745-.873-.364-2.428-1.116-2.961-1.222-.865-3.7-.58-4.293-2.531-.105-.344.7-.778,1.227-.809.6-.037,1.133.414,1.371,1.313a1.2,1.2,0,0,1,.5-1.282c.895-.345.832,1.5,1.77,1.2a.859.859,0,0,0,.408-.811c-.078-.234-.535-.434-.84-.434-.156,0-.357.375-.434.344-.937-.4-2.187-.285-2.732-1.334a2.046,2.046,0,0,1-.043-.894c-.5.033-1.314-.174-1.258.447.051.588.592,1.213.281,1.812-.13.252-.55.336-.857.491l.471,1.8" transform="translate(-1066.633 -612.851)" style="fill:#edceb7"/><path d="M1074.246,649.57c.239.086.332.537.487.842.3-.155.611-.305.916-.459.81,1.984,2.193,4.539,4.584,4.586v-.918a1.269,1.269,0,0,1-1.3-.5c-.418-.723.947-1.149-.074-2.25-.01.793.254,1.912-.5,2.14-.914.276-1.516-1.138-1.328-2.14-.3,0-.776.078-.832-.04-.561-1.195-2.018-1.457-2.377-2.71-.748.824-2.071,1.005-2.291,2.291,1.119.3,1.73-1.2,2.722-.842" transform="translate(-1066.633 -612.851)" style="fill:#edceb7"/><path d="M1068.467,659.656c-.973-.1-.418.554-.457.918.152-.307.305-.614.457-.918" transform="translate(-1066.633 -612.851)" style="fill:#edceb7"/></g><path d="M1070.832,659.71a1.638,1.638,0,0,0,.385-1.429c-.307.152-.818.314-.813.453.047,1.017-.918,1.754-.562,2.756.635-.448.584-1.242.99-1.78" transform="translate(-1066.633 -612.851)" style="fill:#edceb7"/><path d="M1068.467,662.4c-.127,1.021.678.172.918.461-.307-.157-.611-.305-.918-.461" transform="translate(-1066.633 -612.851)" style="fill:#edceb7"/><path d="M1076.766,661.486c-.08-1.555,1.111-2.418,2.244-3.2a2.007,2.007,0,0,1-1.381.861c-.139.012-.3-.352-.451-.352-.309,0-.8.233-.82.416-.084.889-.477,1.8.275,2.805.094.129-.221.547-.373.854-.307-.157-.611-.305-.916-.461-.309.613-.613,1.222-.918,1.836,1.391-.2,1.586-1.826,2.752-2.293-.156-.153-.4-.3-.412-.461" transform="translate(-1066.633 -612.851)" style="fill:#edceb7"/><path d="M1079.709,659.371c.78-.082.764.58.766,1,0,.449-.276.613.723,1.576.2.189.234.843.439,1.293.168-.139.334-.272.5-.412-.289-.182-.7-.311-.8-.569-.148-.39.193-1.019-.017-1.273-.352-.426-1.112-.651-1.1-1.573,0-.14.4-.322.379-.384a3.617,3.617,0,0,1-.215-1.9c-.941.528-.615,1.438-.676,2.235" transform="translate(-1066.633 -612.851)" style="fill:#edceb7"/><path d="M1084.186,661.091c-.766-.955-1.756.053-2.309-1.166.8.285.322-.213,1.805-.474-.037.339-.178.857-.057.927,1.485.856.715,2.743,1.858,3.9-.213.047-.422.092-.633.136a5.439,5.439,0,0,0-.569-1.873c-1.048-.691.565-.63-.095-1.453" transform="translate(-1066.633 -612.851)" style="fill:#edceb7"/><path d="M1080.934,655.642c-1.111.9-1.08-.242-1.924-.111.154.306.305.611.459.918.783-1.014,1.574.373,2.183-.131.485-.4-.579-.789-.718-.676" transform="translate(-1066.633 -612.851)" style="fill:#edceb7"/><path d="M1081.838,653.187c-.01-.168-.635-.244-.754-.494-.636-1.319-.2-1.686.451-2.709a.637.637,0,0,0-.861.467c-.127.769.361.709-.441,1.49-.235.23.812.818,1.009,1.334.379.982,1.192,1.277,1.707,2.144.174.295.778-.1.729-.388-.176-1.028-1.725.347-1.84-1.844" transform="translate(-1066.633 -612.851)" style="fill:#edceb7"/><path d="M1082.09,675.619c-.248.173.19.562.547.724.394-.92,1.959-.262,1.978-1.308.01-.387-.576-.723-.578-1.272-.91.617-1.017,1.205-1.947,1.856" transform="translate(-1066.633 -612.851)" style="fill:#edceb7"/><path d="M1085.887,655.759c.457-1-.748-.635-.922-1.117-.658,1.17,1.143.307.922,1.117" transform="translate(-1066.633 -612.851)" style="fill:#edceb7"/><path d="M1087.01,655.281c.311-.151.615-.3.924-.45.148.311.459.68.363.883-.617,1.319.189,2.678.586,3.9a.97.97,0,0,1,1.326.5c.565,1.1,1.742,2.8,1.861,4.088-.335-.065-.859-.071-.9-.225-.562-1.955-2.176-4.971-4.367-5.463-.072-.017-.129-.377-.066-.564.168-.518.9-.528,1.072-.871.33-.653-.373-1.241-.8-1.793" transform="translate(-1066.633 -612.851)" style="fill:#edceb7"/><path d="M1085.957,661.031c.076-.3-.185-.682.149-1,.539,1.322.562,2.834,2,3.83-.578.412-.97-.076-1.417-.3.695-1.074-1.02-1.418-.737-2.527" transform="translate(-1066.633 -612.851)" style="fill:#edceb7"/><path d="M1088.672,651.845c-.363-.707.893-1.771,1.3-1.67a1.238,1.238,0,0,1,.953,1.69c1.879-.1,4.154-2,2.637-3.559-.323-.328-1.133.1-1.721.35a1.675,1.675,0,0,1,1.293,2.248,1.332,1.332,0,0,1-1.3.519c-1.234-.093-.686-1.224-1.391-1.832a1.438,1.438,0,0,0-.894-.42c-.535.043-.947.545-1.42.774-.188.1-.674-.151-.82-.406a.93.93,0,0,1,.4-1.342c-.77-.157-.9.551-.818.894.191.84,1.728.727,1.689,1.854-.019.617-.434,1.138-1.33,1.377,2.008-.43,1.533,1.8,2.971,2.289.91.31.476-.5.39-.836-.228-.885-1.539-1.131-1.951-1.93" transform="translate(-1066.633 -612.851)" style="fill:#edceb7"/><path d="M1091.7,657.492a4.562,4.562,0,0,1-.922-.434c.738.52.033,1.287,1.3,1.965.307.162.182.924-.388,1.244.154.156.3.305.459.459a8.217,8.217,0,0,1,.459-3.209,3.746,3.746,0,0,1-.912-.025" transform="translate(-1066.633 -612.851)" style="fill:#edceb7"/><path d="M1095,659.5a2.462,2.462,0,0,0-.406-.918c-.156.157-.428.366-.4.428a3.609,3.609,0,0,1,.4,1.865A4.761,4.761,0,0,0,1095,659.5" transform="translate(-1066.633 -612.851)" style="fill:#edceb7"/><path d="M1094.361,662.99c-.779-.2-.845.511-.839.9,0,.324.5.695.789.406.308-.31.006-1.039,1.429-.863-.46-.154-.9-.326-1.379-.447" transform="translate(-1066.633 -612.851)" style="fill:#edceb7"/><path d="M1096.807,662.707c-.43-.485-.635-1.8-1.219-1.217s.684.834,1.219,1.217" transform="translate(-1066.633 -612.851)" style="fill:#edceb7"/><g style="clip-path:url(#a)"><path d="M1096.785,650.513c-.138-.576-.306-1.691-1.238-1.312-.107.045-.035.523-.035.83.777-.041,1.664.195,1.728,1.381.008.136-.677.253-.72.47-.09.42-.659.9.826,1.356-.641-.838-.344-1.809-.561-2.725" transform="translate(-1066.633 -612.851)" style="fill:#edceb7"/><path d="M1068.239,674.783c-.063-1.5-.1-1.006-1.6-1.491.305.155,1.215.579,1.285.807.147.477-.053.695.194,1.121-.114.461-.9.461-.487,1.092.619.934.131,2.289,1.305,2.769.264.108.146-.289.453-.289,0-1.259-1.09-2.658-1.146-4.009" transform="translate(-1066.633 -612.851)" style="fill:#edceb7"/></g><path d="M1101.471,659.656c-.975-.1-.418.554-.459.918.154-.307.3-.614.459-.918" transform="translate(-1066.633 -612.851)" style="fill:#edceb7"/><path d="M1076.323,646.164c1.009.755,1.382,3,2.533,3.484-.928-.7-1.02-2.986-1.76-3.781l-.773.3" transform="translate(-1066.633 -612.851)" style="fill:#edceb7"/><path d="M1099.178,647.165c1.289-.367,1.137,1.3,2.293,1.375v-.916a2.213,2.213,0,0,1-1.381-.449l-.912-.01" transform="translate(-1066.633 -612.851)" style="fill:#edceb7"/><path d="M1097.676,659.632c.189,2.381-.334,3.674,2.188,2.758.572-.8-1.11-.125-1.293-.5-.092-.187,1.025-.644.949-.877s-1.287-.236-1.434-.49c-.263-.457.154-.916.4-1.344-.307.156-.823.322-.813.451" transform="translate(-1066.633 -612.851)" style="fill:#edceb7"/><path d="M1096.658,656.906c-.791.113-.818-.52-.863-.94-.014-.136.371-.353.34-.422-.445-.949-1.467-.33-2.23-.488.3,0,.74-.1.843.051.58.842,1.733,2.182.532,3.158.587-.754,1.927-.25,2.291-1.375a6.181,6.181,0,0,0-.913.016" transform="translate(-1066.633 -612.851)" style="fill:#edceb7"/><path d="M1094.473,652.617a10.775,10.775,0,0,0-2.981-.116,2.125,2.125,0,0,0,.8.457c.307,0,.317-.457.547-.378s.32.73.488.74c.971.053,1.819.474,2.746.556-.154-.306-.24-.73-.49-.855a2.558,2.558,0,0,0-1.113-.4" transform="translate(-1066.633 -612.851)" style="fill:#edceb7"/><path d="M1098.721,654.843c-.129-.275-.59.086-.811.406.834.555-.087,1.977.94,2.182.377.076.812-.437,1.351-.346-.445-1-1.006-1.212-1.48-2.242" transform="translate(-1066.633 -612.851)" style="fill:#edceb7"/><path d="M1081.151,666.623c-.789.115-.817-.518-.862-.938-.013-.139.371-.355.34-.424-.443-.947-1.467-.33-2.23-.486.306,0,.74-.1.843.051.581.841,1.733,2.181.532,3.158.586-.756,1.927-.252,2.291-1.375a6.193,6.193,0,0,0-.914.014" transform="translate(-1066.633 -612.851)" style="fill:#edceb7"/><path d="M1078.094,661.718c.316.9,1.115.826,1.834.916a2.855,2.855,0,0,0-1.834-.916" transform="translate(-1066.633 -612.851)" style="fill:#edceb7"/><path d="M1069.473,664.189c-.076-.035-.279.24-.432.394.489.26.8,1.29,1.27.813.449-.455-.354-1.385-.838-1.207" transform="translate(-1066.633 -612.851)" style="fill:#edceb7"/><path d="M1069.385,656.675c.293.651.877.426,1.375.461-.32-.572-.832-.56-1.375-.461" transform="translate(-1066.633 -612.851)" style="fill:#edceb7"/><path d="M1084.723,656.915c-.281-.285-.266-.375-.453-.439-.514-.182-.936.182-1.364.43,1.571-.33,2.2.943,1.833,2.291.308-.155.814-.305.814-.457a4.047,4.047,0,0,0-.83-1.825" transform="translate(-1066.633 -612.851)" style="fill:#edceb7"/><path d="M1092.6,676.673c-.283-.283-.266-.371-.451-.437-.514-.184-.938.179-1.366.428,1.573-.331,2.2.943,1.832,2.291.309-.155.817-.305.817-.457a4.061,4.061,0,0,0-.832-1.825" transform="translate(-1066.633 -612.851)" style="fill:#edceb7"/><path d="M1077.635,656.218a2.03,2.03,0,0,1-.457,1.375.63.63,0,0,0,.853-.465,2.154,2.154,0,0,0-.4-.91" transform="translate(-1066.633 -612.851)" style="fill:#edceb7"/><g style="clip-path:url(#a)"><path d="M1075,646.706a2.032,2.032,0,0,1-.459,1.375.629.629,0,0,0,.854-.464,2.192,2.192,0,0,0-.395-.911" transform="translate(-1066.633 -612.851)" style="fill:#edceb7"/><path d="M1075,679.71a2.034,2.034,0,0,1-.459,1.375.628.628,0,0,0,.854-.466,2.185,2.185,0,0,0-.395-.909" transform="translate(-1066.633 -612.851)" style="fill:#edceb7"/><path d="M1067.092,657.708c.316.9,1.115.825,1.834.916a2.85,2.85,0,0,0-1.834-.916" transform="translate(-1066.633 -612.851)" style="fill:#edceb7"/><path d="M1100.1,657.708c.314.9,1.115.825,1.834.916a2.86,2.86,0,0,0-1.834-.916" transform="translate(-1066.633 -612.851)" style="fill:#edceb7"/><path d="M1069.385,679.824c-1.1.144-.141.972-.459,1.377,1.34-.065-.346-1.133.459-1.377" transform="translate(-1066.633 -612.851)" style="fill:#edceb7"/></g><path d="M1069.385,646.822c-1.1.144-.141.972-.459,1.375,1.34-.065-.346-1.133.459-1.375" transform="translate(-1066.633 -612.851)" style="fill:#edceb7"/><path d="M1101.381,666.888c-.086-.531-1.09-.67-1.123-.947-.131-1.135-.553-1.367-1.08-2.275-.154.154-.406.3-.406.458,0,.614.9.959,1.082,1.463.539,1.5.433,3.809.775,4.381.1-.051.832.764,1.07.994l-.318-4.074" transform="translate(-1066.633 -612.851)" style="fill:#edceb7"/><path d="M1071.867,646.923c.3.457.565.866.727,1.158a1.123,1.123,0,0,0,.152-1.031l-.879-.127" transform="translate(-1066.633 -612.851)" style="fill:#edceb7"/><g style="clip-path:url(#a)"><path d="M1101.242,674.783c-.064-1.5-.105-1.006-1.6-1.491.306.155,1.215.579,1.285.807.146.477-.053.695.2,1.121-.115.461-.906.461-.488,1.092.5.746.281,1.764.777,2.387l-.164-3.916" transform="translate(-1066.633 -612.851)" style="fill:#edceb7"/><path d="M1076.323,679.165c1.009.758,1.382,3,2.533,3.487-.928-.705-1.02-2.986-1.76-3.783-1.416-1.526-3.406-2.334-4.455-4.227-.379-.686.427-1.656-.506-2.266-.156,1.485-.141,3.075,1.012,4.006,1.193.965,1.959,1.875,3.176,2.783" transform="translate(-1066.633 -612.851)" style="fill:#edceb7"/></g><path d="M1085.323,645.99c-.1.293-.262.463-.266.758q-1-.206-2.008-.415c-.545.622.682.852,1.521,1.256a14.077,14.077,0,0,0,1.653.866c-.115-.666-.7-1.665-.9-2.465" transform="translate(-1066.633 -612.851)" style="fill:#edceb7"/><path d="M1081.027,646.748c.584,1.253,1.042,1.916,1.239,1.458l-.459-1.6-.78.145" transform="translate(-1066.633 -612.851)" style="fill:#edceb7"/><path d="M1088.785,679.746c-.431-.489-.636-1.8-1.218-1.219s.683.832,1.218,1.219" transform="translate(-1066.633 -612.851)" style="fill:#edceb7"/><g style="clip-path:url(#a)"><path d="M1090.319,646.439c-.27-.3-.723.049-.809.412-.143.6-.736,1.594-.047,1.824a2.315,2.315,0,0,1,1.832-.459c-1.578.026-.541-1.289-.976-1.777" transform="translate(-1066.633 -612.851)" style="fill:#edceb7"/><path d="M1090.319,679.443c-.27-.3-.723.049-.809.412-.143.6-.736,1.594-.047,1.824a2.3,2.3,0,0,1,1.832-.459c-1.578.026-.541-1.291-.976-1.777" transform="translate(-1066.633 -612.851)" style="fill:#edceb7"/><path d="M1094.881,679.015c.1-.184.459.059.631.275-.65.37.068,1.325-.732,1.463-.295.051-.633-.295-1.055-.232.348-.674.785-.815,1.156-1.506" transform="translate(-1066.633 -612.851)" style="fill:#edceb7"/></g><path d="M1094.881,646.011c.1-.183.459.059.631.276-.65.369.068,1.326-.732,1.462-.295.051-.633-.294-1.055-.232.348-.674.785-.814,1.156-1.506" transform="translate(-1066.633 -612.851)" style="fill:#edceb7"/><path d="M1080.692,672.568c.314.894,1.115.824,1.832.916a2.86,2.86,0,0,0-1.832-.916" transform="translate(-1066.633 -612.851)" style="fill:#edceb7"/><path d="M1099.178,670.884c.293.649.877.428,1.377.459-.322-.57-.834-.556-1.377-.459" transform="translate(-1066.633 -612.851)" style="fill:#edceb7"/><path d="M1101.93,649.572c-.5.033-1.315-.174-1.26.447.053.588.594,1.213.281,1.812-.13.252-.55.336-.855.491-.5-1.391-2.029-2.049-2.324-3.66-.086-.471-.313-1.289-.782-.821s.67.586.686.821a6.605,6.605,0,0,0,2.309,4.224c.23.237-.032,1.008.58,1.237.509.191,1.05-.422,1.3-.3l-.035-.2a2.234,2.234,0,0,1-1.127-1.344c-.1-.344.7-.778,1.227-.809l0-1.9" transform="translate(-1066.633 -612.851)" style="fill:#edceb7"/><path d="M1084.358,676.541a2.029,2.029,0,0,1-.457,1.375.631.631,0,0,0,.853-.467,2.152,2.152,0,0,0-.4-.908" transform="translate(-1066.633 -612.851)" style="fill:#edceb7"/><path d="M1082.815,666.511c1.027-.021.07-.693.32-.972q-.16.486-.32.972" transform="translate(-1066.633 -612.851)" style="fill:#edceb7"/><path d="M1098.721,667.22a2.017,2.017,0,0,1-.459,1.373.627.627,0,0,0,.853-.465,2.173,2.173,0,0,0-.394-.908" transform="translate(-1066.633 -612.851)" style="fill:#edceb7"/><path d="M1094.748,675.929a2.022,2.022,0,0,0,.649,1.3.628.628,0,0,1-.912-.338,2.172,2.172,0,0,1,.263-.957" transform="translate(-1066.633 -612.851)" style="fill:#edceb7"/><path d="M1073.666,678.728c.459-1-.746-.635-.92-1.119-.658,1.168,1.143.31.92,1.119" transform="translate(-1066.633 -612.851)" style="fill:#edceb7"/><path d="M1089.7,675.011c-.974-.1-.418.553-.457.918.153-.306.3-.613.457-.918" transform="translate(-1066.633 -612.851)" style="fill:#edceb7"/><path d="M1083.914,649.74c.772.209.547.8.42,1.2-.039.133-.48.179-.476.254.031,1.047,1.215.884,1.853,1.33-.279-.121-.719-.2-.756-.383-.2-1-.726-2.686.762-3.109-.836.462-1.869-.534-2.648.357a6.17,6.17,0,0,0,.845.346" transform="translate(-1066.633 -612.851)" style="fill:#edceb7"/><path d="M1074.885,665.539c-.973-.106-.418.552-.459.917.154-.308.305-.613.459-.917" transform="translate(-1066.633 -612.851)" style="fill:#edceb7"/><path d="M1076.26,668.9c.293.648.877.424,1.375.457-.32-.57-.832-.555-1.375-.457" transform="translate(-1066.633 -612.851)" style="fill:#edceb7"/><path d="M1089.4,661.871c-.975-.1-.418.554-.459.918.154-.307.3-.612.459-.918" transform="translate(-1066.633 -612.851)" style="fill:#edceb7"/><path d="M1086.639,653.007c.074.366-.168.637-.367.926.355.084.654-.08.683-.312,0-.227-.195-.407-.316-.614" transform="translate(-1066.633 -612.851)" style="fill:#edceb7"/><path d="M1083.328,652.853c-.277-2.633-.345,0-.5,0,.436.174,1.071.152.916.92a3.046,3.046,0,0,1-.418-.922" transform="translate(-1066.633 -612.851)" style="fill:#edceb7"/><path d="M1073.867,656.523c1.534.465.162.84,1.932,1.193.736-.388.707-1.386.582-2.23-.029-.195-.4-.774-.461-1.074-.088.33-.172.656-.26.99s-.043,1.123-.144,1.166a2.4,2.4,0,0,1-1.649-.045" transform="translate(-1066.633 -612.851)" style="fill:#edceb7"/><path d="M1074.332,652.564c.211-.777.86-.486,1.2-.287.282.16.362.775-.035.885-.423.115-.908-.506-1.455.822.092-.479.158-.944.291-1.42" transform="translate(-1066.633 -612.851)" style="fill:#edceb7"/><g style="clip-path:url(#a)"><path d="M1104.442,662.761a1.455,1.455,0,0,0-.453-.015,3.016,3.016,0,0,0,.916,1.375c.154-.307.457-.659.38-.891s-.519-.361-.843-.469" transform="translate(-1066.633 -612.851)" style="fill:#edceb7"/><path d="M1114.8,679.615c-.461-.305-.805-2.864-1.264-3.207-.179-.135-.457-.418-.457-.573,0-.308-.166-.269-.166-.574,0-.611-.451-1.412-1.293-1.232-.22.047-.408.6.842,1.312.135.074-.014.559.084.819,1.221,3.228,2.367,5.863,2.711,5.062l-.457-1.607" transform="translate(-1066.633 -612.851)" style="fill:#edceb7"/></g><path d="M1109.721,674.419c-.438.151-1.033.657-.973.809.561,1.422,1.108,2.02,1.682,2.041s-.744-.877-1.041-1.51,1.189-1.508.929-1.888-.285.195-.6.548" transform="translate(-1066.633 -612.851)" style="fill:#edceb7"/><path d="M1108.338,673.761c-.357-1.17-.24-1.287-1.834-1.832.463.141.344-.035.459,1.373.014.18,1.067.307,1.375.459" transform="translate(-1066.633 -612.851)" style="fill:#edceb7"/><path d="M1106.951,668.265c-.125-.32-.275-.805-.457-.824-1.22-.11-1.466-1.047-1.824-1.928.8-.222,1.365-1.017,2.293-.918-.428-.248-.914-.693-1.324-.39-.154.113.012.726-.084.757-1.754.6-1.315,1.916-.354,2.76.1.086.627-.389.8-.295.768.44-.3,2.783.506,2.211.4-.426,1.027-.887,1.733.074.3.416.1,1.147.1,1.758.229.459,1.262.2,1.285-.461.053-1.578-2.119-1.342-2.672-2.744" transform="translate(-1066.633 -612.851)" style="fill:#edceb7"/><path d="M1112.455,669.642c-.138-.174-.3-.414-.451-.414s-.305.256-.459.41c.307.153.807.285.82.465a1.974,1.974,0,0,1-1.277,2.283c1.854.559,2.375-1.484,1.367-2.744" transform="translate(-1066.633 -612.851)" style="fill:#edceb7"/><path d="M1114.4,668.712c.189,2.381-.335,3.674,2.185,2.758.572-.8-1.109-.127-1.291-.5-.094-.187,1.026-.644.947-.875s-1.287-.238-1.433-.492c-.262-.459.156-.916.4-1.344-.307.154-.82.322-.81.451" transform="translate(-1066.633 -612.851)" style="fill:#edceb7"/><path d="M1117.022,668.324c-.079-.032-.28.244-.434.4.488.262.8,1.289,1.272.813.449-.455-.356-1.387-.838-1.209" transform="translate(-1066.633 -612.851)" style="fill:#edceb7"/><path d="M1110.477,664.173c-.268-.3-.719.049-.807.416-.142.6-.734,1.592-.047,1.823a2.291,2.291,0,0,1,1.834-.459c-1.578.021-.541-1.289-.98-1.78" transform="translate(-1066.633 -612.851)" style="fill:#edceb7"/><path d="M1119.949,670.669c1.7.229,1.868,1.7,2.8,2.582.164.157.633-.052.828.1a1.742,1.742,0,0,1,.5,1.783c.782-1.013,1.606.377,2.17-.133,1.026-.931.924-2.441,2.412-3.074-.238-1.164-1.275-1.8-1.832-2.752.5,1.608,1.739,3.321-.459,4.125.155.154.407.307.407.459a1.028,1.028,0,0,1-.438.846,1.365,1.365,0,0,1-1.734-.424,5.766,5.766,0,0,0-1.77-1.943c-.41-.375.018-1.471-.59-2.143-.156.152-.386.506-.447.4-.584-1.086-1.387-.973-1.615-.284l-.231.459" transform="translate(-1066.633 -612.851)" style="fill:#edceb7"/><g style="clip-path:url(#a)"><path d="M1119.6,672.992h0c-.121.093-.77-.25-.778-.418-.048-.991-.234-2-1.474-1.83,1.472,1.2,1.892,3.006,2.693,4.613.272.547-1.625,1.92-.859,2.377l1.375-.572c.4.423.869.707,1.834,0-.656.027-1.424.121-1.768-.5-.566-1.009-.074-1.576-.164-2.7-.014-.177-.656-.255-.746-.492a1.451,1.451,0,0,1-.113-.476" transform="translate(-1066.633 -612.851)" style="fill:#edceb7"/><path d="M1118.317,679c-.1.291-.262.463-.264.758l-2.008-.414c-.547.619.682.85,1.52,1.256a14.147,14.147,0,0,0,1.654.865c-.115-.668-.707-1.662-.9-2.465" transform="translate(-1066.633 -612.851)" style="fill:#edceb7"/></g><path d="M1124.381,655.427c.293.649.877.424,1.375.459-.32-.57-.832-.558-1.375-.459" transform="translate(-1066.633 -612.851)" style="fill:#edceb7"/><g style="clip-path:url(#a)"><path d="M1130.074,679.257c-.277-2.631-.343,0-.5,0,.438.174,1.073.151.92.916a2.908,2.908,0,0,1-.42-.92" transform="translate(-1066.633 -612.851)" style="fill:#edceb7"/><path d="M1130.8,677.427a.639.639,0,0,0-.469-.859c-.525-.076-1.215-.254-1.226-.522a2.041,2.041,0,0,0-1.514-1.826,9.083,9.083,0,0,0,3.158,3.281c.151.106-.033.575.09.823.4.81,1.621-.074,1.738,1.4.01.143-.25.3-.4.453,1.287-.367,1.135,1.3,2.291,1.377v-.918c-.541.094-.932-.228-1.381-.447-1.412-.7.057-2.477-2.285-2.762" transform="translate(-1066.633 -612.851)" style="fill:#edceb7"/></g><path d="M1132.139,673.769c-.125-.559-.361-1.2-.9-1.3-.427-.076-.9-.652-1.357.83,1.422-.455,1.824.74,2.291,1.834a6.183,6.183,0,0,0-.035-1.367" transform="translate(-1066.633 -612.851)" style="fill:#edceb7"/><path d="M1129.922,669.158a2.161,2.161,0,0,1-.039-.9,1.478,1.478,0,0,0-.357,1.76c.168.228.812.076,1.273.076a4.122,4.122,0,0,1-.877-.939" transform="translate(-1066.633 -612.851)" style="fill:#edceb7"/><path d="M1122.242,666.886c.028.307.157.762.039.836a4.269,4.269,0,0,1-1.775.252c.168.139.315.336.506.385.529.129,1.055-.531,1.238-.426,1.192.688,2.547,2.875,3.539,3.867.139-.166-.59-1.592-.619-1.629-1.1-1.371-1.869-1.959-2.928-3.285" transform="translate(-1066.633 -612.851)" style="fill:#edceb7"/><path d="M1124.707,665.712c-.4.262-1.211.25-.824.9.785,1.318,2.52,1.332,3.592,2.338.267-1.291,1.93-.985,2.7-1.877.154-.18.006-.569.076-.867.108-.467.129-1.077.893-.922-.152-.155-.3-.305-.459-.461-.815,1.2-.988-.129-1.832,0,.306.156.765.254.838.486a2.056,2.056,0,0,1-.4,2.242c-.252.227-.677.5-.849.4a1.589,1.589,0,0,1-.5-1.748c-.746.687-1.092,2.318-2.217,1.695a6.216,6.216,0,0,1-1.309-1.355c-.668-.809,1.483-.571,1.235-1.717a5.963,5.963,0,0,1-.936.89" transform="translate(-1066.633 -612.851)" style="fill:#edceb7"/><path d="M1120.469,665.54c.084-.109.637.186.764.059.281-.285,1.119-.684,1.207-1.133.271.209.716.407.718.625,0,.594-1.5.711-2.373,1.012a1.265,1.265,0,0,0-.74,1.184,4.266,4.266,0,0,1,.424-1.747" transform="translate(-1066.633 -612.851)" style="fill:#edceb7"/><g style="clip-path:url(#a)"><path d="M1118.365,665.8c.3-.984-.515-.67-.861-.1-.228.574-.561,2.285.918,2.351.149.008.305-.25.459-.4-.324-.274-1.56,1.564-.516-1.85" transform="translate(-1066.633 -612.851)" style="fill:#edceb7"/><path d="M1103.41,676.511c-.212,1.192,1.618,3.574,2.178,4.584a1.124,1.124,0,0,0,.152-1.031c-.232-1.209-1.607-2.008-1.6-3.574-.344-.575-.305-.955-1.307-.9l.574.916" transform="translate(-1066.633 -612.851)" style="fill:#edceb7"/></g><path d="M1100.621,669.98c.1-.049.832.764,1.071.994l-.168-.223c-.655-.89.066-2.519-.151-3.851-.088-.529-1.09-.668-1.123-.947l.371,4.027" transform="translate(-1066.633 -612.851)" style="fill:#edceb7"/><path d="M1101.768,671.738c1.4.771-.014.853,1.642,1.564.8-.228.981-1.211,1.032-2.06.011-.2-.231-.842-.231-1.145l-.457.914c-.156.313-.275,1.088-.381,1.108a2.4,2.4,0,0,1-1.6-.381" transform="translate(-1066.633 -612.851)" style="fill:#edceb7"/><path d="M1111.469,679.07v.918a2.017,2.017,0,0,1,1.377-.459c-.461-.155-.918-.305-1.377-.459" transform="translate(-1066.633 -612.851)" style="fill:#edceb7"/><path d="M1103.352,667.441c.3-.983-.516-.668-.858-.1-.23.572-.564,2.287.918,2.352.149.006.3-.25.455-.405-.32-.273-1.558,1.565-.515-1.851" transform="translate(-1066.633 -612.851)" style="fill:#edceb7"/><path d="M1100.557,654.136c.51.188,1.051-.426,1.3-.3,1.314.635,1.2,2.178,2.857.85.02-.016.373.262.351.391-.074.468-.554.863-.367,1.373.131.359.491.431.86.553,1.137.376-.285,1.525,1.34,2.333.185.092.205.862-.01,1.2-.485.771-1.43.488-2.221.5a2.174,2.174,0,0,1,1.834.916c-.154-.3-.305-.611-.459-.916.611-.3,1.221-.611,1.834-.916-.306-.156-.75-.248-.846-.488-.21-.529.094-1.265-.152-1.762-.064-.127-.642.063-.775-.1-.744-.873-.364-2.428-1.116-2.959-1.22-.866-3.7-.582-4.292-2.535-.106-.344.7-.778,1.226-.809.6-.035,1.133.416,1.371,1.314a1.2,1.2,0,0,1,.5-1.279c.9-.349.832,1.5,1.772,1.2a.858.858,0,0,0,.406-.808c-.078-.237-.535-.436-.84-.436-.154,0-.357.377-.431.346-.94-.4-2.19-.285-2.735-1.334a2.061,2.061,0,0,1-.043-.9c-.5.034-1.312-.173-1.258.448.053.588.592,1.215.281,1.812-.13.25-.55.336-.857.49l.471,1.8" transform="translate(-1066.633 -612.851)" style="fill:#edceb7"/><path d="M1107.242,649.583c.237.084.331.538.485.84.306-.152.611-.3.916-.459.81,1.985,2.193,4.539,4.586,4.584v-.916a1.267,1.267,0,0,1-1.3-.5c-.418-.724.947-1.148-.074-2.248-.012.789.254,1.91-.506,2.137-.914.277-1.516-1.137-1.328-2.137-.305,0-.776.078-.832-.041-.561-1.195-2.016-1.457-2.375-2.711-.75.824-2.072,1.006-2.293,2.291,1.119.3,1.73-1.2,2.724-.84" transform="translate(-1066.633 -612.851)" style="fill:#edceb7"/><path d="M1101.463,659.667c-.974-.1-.418.555-.459.916.154-.3.305-.613.459-.916" transform="translate(-1066.633 -612.851)" style="fill:#edceb7"/><path d="M1103.826,659.722a1.64,1.64,0,0,0,.385-1.432c-.306.157-.818.317-.81.456.045,1.019-.92,1.753-.565,2.755.635-.447.586-1.242.99-1.779" transform="translate(-1066.633 -612.851)" style="fill:#edceb7"/><path d="M1101.463,662.417c-.129,1.02.678.17.916.458-.306-.155-.611-.3-.916-.458" transform="translate(-1066.633 -612.851)" style="fill:#edceb7"/><path d="M1109.76,661.5c-.08-1.555,1.111-2.418,2.244-3.208a2.008,2.008,0,0,1-1.379.864c-.14.013-.3-.354-.453-.354-.307,0-.8.235-.82.418-.082.891-.475,1.8.275,2.8.094.131-.221.549-.373.854-.305-.155-.611-.3-.916-.458-.308.612-.611,1.221-.916,1.834,1.391-.2,1.584-1.828,2.75-2.293-.156-.152-.4-.3-.412-.46" transform="translate(-1066.633 -612.851)" style="fill:#edceb7"/><path d="M1112.7,659.382c.778-.08.766.58.768,1,0,.449-.278.614.721,1.576.2.19.234.846.439,1.295.17-.14.332-.275.5-.414-.291-.181-.705-.312-.805-.568-.148-.391.194-1.02-.017-1.274-.352-.423-1.11-.65-1.1-1.572,0-.14.4-.32.379-.387a3.6,3.6,0,0,1-.213-1.892c-.943.527-.619,1.437-.678,2.234" transform="translate(-1066.633 -612.851)" style="fill:#edceb7"/><path d="M1117.18,661.1c-.766-.955-1.756.055-2.309-1.166.8.285.325-.213,1.805-.477-.037.342-.178.86-.057.932,1.485.854.715,2.742,1.858,3.9l-.633.137a5.485,5.485,0,0,0-.566-1.873c-1.051-.691.56-.631-.1-1.453" transform="translate(-1066.633 -612.851)" style="fill:#edceb7"/><path d="M1113.928,655.654c-1.111.9-1.08-.242-1.924-.112l.459.918c.783-1.013,1.576.373,2.184-.13.484-.4-.579-.789-.719-.676" transform="translate(-1066.633 -612.851)" style="fill:#edceb7"/><path d="M1114.832,653.2c-.008-.168-.634-.244-.754-.494-.635-1.319-.2-1.684.452-2.709a.638.638,0,0,0-.862.468c-.125.768.362.707-.439,1.489-.237.228.812.82,1.008,1.334.378.984,1.193,1.277,1.707,2.144.175.3.779-.1.728-.389-.176-1.027-1.724.346-1.84-1.843" transform="translate(-1066.633 -612.851)" style="fill:#edceb7"/><path d="M1115.086,675.628c-.25.174.188.563.545.725.395-.918,1.959-.26,1.979-1.309.009-.386-.575-.722-.58-1.271-.909.617-1.014,1.2-1.944,1.855" transform="translate(-1066.633 -612.851)" style="fill:#edceb7"/><path d="M1118.881,655.771c.457-1-.748-.633-.922-1.119-.656,1.17,1.143.308.922,1.119" transform="translate(-1066.633 -612.851)" style="fill:#edceb7"/><path d="M1120,655.292c.311-.15.615-.3.924-.449.15.311.459.68.363.883-.617,1.318.19,2.678.586,3.9a.971.971,0,0,1,1.326.495c.565,1.1,1.743,2.8,1.864,4.087-.338-.062-.862-.068-.9-.224-.562-1.953-2.175-4.971-4.365-5.459-.074-.018-.131-.381-.068-.567.168-.519.9-.525,1.072-.871.33-.652-.373-1.24-.8-1.793" transform="translate(-1066.633 -612.851)" style="fill:#edceb7"/><path d="M1118.951,661.042c.077-.3-.185-.679.149-1,.541,1.322.562,2.832,2.008,3.83-.58.41-.973-.077-1.42-.3.695-1.074-1.02-1.418-.737-2.528" transform="translate(-1066.633 -612.851)" style="fill:#edceb7"/><path d="M1121.666,651.857c-.361-.707.893-1.772,1.3-1.67a1.236,1.236,0,0,1,.953,1.689c1.879-.1,4.154-2,2.637-3.558-.322-.328-1.133.1-1.721.349a1.676,1.676,0,0,1,1.293,2.25,1.327,1.327,0,0,1-1.293.516c-1.236-.092-.687-1.223-1.392-1.83a1.428,1.428,0,0,0-.895-.42c-.535.043-.947.543-1.42.775-.188.094-.674-.152-.82-.41a.93.93,0,0,1,.4-1.34c-.767-.154-.894.553-.816.9.191.84,1.728.727,1.689,1.855-.019.618-.431,1.135-1.33,1.375,2.01-.427,1.533,1.8,2.971,2.29.91.31.478-.5.39-.838-.228-.885-1.539-1.129-1.951-1.928" transform="translate(-1066.633 -612.851)" style="fill:#edceb7"/><path d="M1124.692,657.5a4.542,4.542,0,0,1-.92-.433c.736.517.031,1.289,1.3,1.965.307.162.184.923-.386,1.244.152.154.3.3.457.459a8.22,8.22,0,0,1,.459-3.209,3.7,3.7,0,0,1-.912-.026" transform="translate(-1066.633 -612.851)" style="fill:#edceb7"/><path d="M1128,659.515a2.389,2.389,0,0,0-.406-.916c-.156.154-.428.363-.4.426a3.609,3.609,0,0,1,.4,1.865,4.743,4.743,0,0,0,.406-1.375" transform="translate(-1066.633 -612.851)" style="fill:#edceb7"/><path d="M1127.356,663c-.778-.2-.844.512-.84.9,0,.324.5.7.789.4.309-.307.006-1.037,1.432-.861-.463-.157-.9-.326-1.381-.448" transform="translate(-1066.633 -612.851)" style="fill:#edceb7"/><path d="M1129.8,662.718c-.43-.484-.635-1.8-1.219-1.217s.684.832,1.219,1.217" transform="translate(-1066.633 -612.851)" style="fill:#edceb7"/><path d="M1129.78,650.525c-.137-.576-.307-1.692-1.239-1.313-.107.045-.035.524-.035.83.777-.041,1.666.194,1.729,1.381.007.137-.676.254-.721.471-.09.42-.658.9.826,1.357-.639-.837-.344-1.81-.56-2.726" transform="translate(-1066.633 -612.851)" style="fill:#edceb7"/><g style="clip-path:url(#a)"><path d="M1101.233,674.792c-.061-1.5-.1-1-1.6-1.49.305.154,1.215.578,1.285.807.147.476-.052.7.194,1.123-.114.459-.9.459-.487,1.09.619.933.131,2.289,1.305,2.769.264.11.147-.287.453-.287,0-1.262-1.09-2.658-1.146-4.012" transform="translate(-1066.633 -612.851)" style="fill:#edceb7"/><path d="M1134.465,659.667c-.973-.1-.418.555-.459.916.154-.3.307-.613.459-.916" transform="translate(-1066.633 -612.851)" style="fill:#edceb7"/><path d="M1109.317,646.175c1.009.756,1.382,3,2.535,3.485-.93-.7-1.022-2.989-1.762-3.782l-.773.3" transform="translate(-1066.633 -612.851)" style="fill:#edceb7"/><path d="M1132.174,647.177c1.287-.369,1.135,1.3,2.291,1.375v-.916a2.2,2.2,0,0,1-1.381-.449l-.91-.01" transform="translate(-1066.633 -612.851)" style="fill:#edceb7"/></g><path d="M1130.67,659.646c.192,2.381-.334,3.672,2.19,2.756.57-.8-1.112-.127-1.295-.5-.092-.186,1.027-.641.949-.875s-1.287-.237-1.434-.49c-.263-.457.155-.916.4-1.342-.307.154-.821.32-.813.451" transform="translate(-1066.633 -612.851)" style="fill:#edceb7"/><path d="M1129.653,656.915c-.791.116-.819-.517-.864-.937-.013-.137.371-.353.34-.42-.443-.951-1.465-.332-2.228-.49.3,0,.738-.1.841.049.581.845,1.731,2.183.532,3.16.588-.754,1.927-.248,2.291-1.373a6.769,6.769,0,0,0-.912.011" transform="translate(-1066.633 -612.851)" style="fill:#edceb7"/><path d="M1127.467,652.628a10.844,10.844,0,0,0-2.98-.117,2.1,2.1,0,0,0,.8.459c.309,0,.317-.457.549-.379s.318.729.486.74c.971.053,1.819.475,2.749.557-.157-.306-.241-.732-.491-.855a2.555,2.555,0,0,0-1.115-.4" transform="translate(-1066.633 -612.851)" style="fill:#edceb7"/><path d="M1131.715,654.855c-.127-.277-.588.088-.81.406.834.555-.088,1.977.939,2.182.377.076.812-.44,1.354-.344-.448-1-1.006-1.213-1.483-2.244" transform="translate(-1066.633 -612.851)" style="fill:#edceb7"/><path d="M1114.147,666.632c-.791.118-.819-.515-.864-.935-.013-.137.372-.356.34-.422-.443-.949-1.467-.334-2.228-.488.3,0,.738-.1.842.048.58.844,1.732,2.184.533,3.159.584-.754,1.928-.248,2.291-1.375a6.79,6.79,0,0,0-.914.013" transform="translate(-1066.633 -612.851)" style="fill:#edceb7"/><path d="M1111.088,661.73c.317.9,1.115.826,1.834.916a2.864,2.864,0,0,0-1.834-.916" transform="translate(-1066.633 -612.851)" style="fill:#edceb7"/><path d="M1102.467,664.2c-.076-.034-.277.24-.432.394.489.262.8,1.289,1.27.811.451-.453-.354-1.383-.838-1.205" transform="translate(-1066.633 -612.851)" style="fill:#edceb7"/><path d="M1102.379,656.687c.293.65.877.426,1.375.461-.32-.572-.832-.559-1.375-.461" transform="translate(-1066.633 -612.851)" style="fill:#edceb7"/><path d="M1117.717,656.927c-.283-.285-.266-.375-.451-.439-.514-.182-.938.181-1.365.427,1.57-.326,2.2.948,1.832,2.3.308-.156.816-.306.816-.459a4.032,4.032,0,0,0-.832-1.824" transform="translate(-1066.633 -612.851)" style="fill:#edceb7"/><path d="M1125.6,676.683c-.283-.283-.266-.371-.453-.437-.514-.184-.938.179-1.365.427,1.572-.33,2.2.944,1.834,2.291.306-.154.814-.3.814-.457a4.08,4.08,0,0,0-.83-1.824" transform="translate(-1066.633 -612.851)" style="fill:#edceb7"/><path d="M1110.629,656.23a2.026,2.026,0,0,1-.457,1.377.633.633,0,0,0,.854-.469,2.16,2.16,0,0,0-.4-.908" transform="translate(-1066.633 -612.851)" style="fill:#edceb7"/><g style="clip-path:url(#a)"><path d="M1107.994,646.718a2.032,2.032,0,0,1-.459,1.375.627.627,0,0,0,.854-.465,2.187,2.187,0,0,0-.4-.91" transform="translate(-1066.633 -612.851)" style="fill:#edceb7"/><path d="M1107.994,679.72a2.036,2.036,0,0,1-.459,1.375.627.627,0,0,0,.854-.465,2.165,2.165,0,0,0-.4-.91" transform="translate(-1066.633 -612.851)" style="fill:#edceb7"/><path d="M1100.086,657.72c.317.9,1.117.824,1.834.916a2.846,2.846,0,0,0-1.834-.916" transform="translate(-1066.633 -612.851)" style="fill:#edceb7"/><path d="M1133.09,657.72c.315.9,1.117.824,1.834.916a2.855,2.855,0,0,0-1.834-.916" transform="translate(-1066.633 -612.851)" style="fill:#edceb7"/><path d="M1102.379,679.833c-1.094.147-.14.973-.459,1.377,1.34-.064-.344-1.132.459-1.377" transform="translate(-1066.633 -612.851)" style="fill:#edceb7"/><path d="M1102.379,646.833c-1.094.145-.14.973-.459,1.375,1.34-.062-.344-1.132.459-1.375" transform="translate(-1066.633 -612.851)" style="fill:#edceb7"/><path d="M1134.375,666.9c-.086-.529-1.09-.668-1.123-.947-.131-1.135-.553-1.366-1.078-2.276-.156.155-.41.305-.41.459,0,.613.9.959,1.084,1.463.539,1.5.433,3.809.777,4.381.1-.049.83.764,1.069.994l-.319-4.074" transform="translate(-1066.633 -612.851)" style="fill:#edceb7"/><path d="M1104.864,646.935c.292.457.562.865.724,1.158a1.123,1.123,0,0,0,.152-1.031l-.876-.127" transform="translate(-1066.633 -612.851)" style="fill:#edceb7"/><path d="M1134.235,674.792c-.063-1.5-.1-1-1.6-1.49.307.154,1.217.578,1.285.807.147.476-.051.7.2,1.123-.116.459-.9.459-.487,1.09.494.746.28,1.763.778,2.386l-.168-3.916" transform="translate(-1066.633 -612.851)" style="fill:#edceb7"/><path d="M1109.317,679.177c1.009.756,1.382,3,2.535,3.485-.93-.706-1.022-2.987-1.762-3.784-1.416-1.525-3.406-2.334-4.453-4.226-.381-.686.426-1.656-.508-2.266-.156,1.485-.14,3.074,1.012,4.006,1.193.967,1.961,1.875,3.176,2.785" transform="translate(-1066.633 -612.851)" style="fill:#edceb7"/></g><path d="M1118.317,646c-.1.294-.262.466-.264.759q-1.008-.2-2.008-.416c-.547.623.682.852,1.52,1.256a13.3,13.3,0,0,0,1.654.867c-.115-.666-.707-1.664-.9-2.466" transform="translate(-1066.633 -612.851)" style="fill:#edceb7"/><path d="M1114.02,646.759c.584,1.254,1.043,1.916,1.24,1.461l-.457-1.6-.783.142" transform="translate(-1066.633 -612.851)" style="fill:#edceb7"/><path d="M1121.78,679.755c-.43-.488-.635-1.8-1.219-1.218s.683.832,1.219,1.218" transform="translate(-1066.633 -612.851)" style="fill:#edceb7"/><g style="clip-path:url(#a)"><path d="M1123.313,646.453c-.268-.3-.721.047-.809.41-.14.6-.734,1.595-.047,1.824a2.317,2.317,0,0,1,1.832-.459c-1.578.025-.539-1.289-.976-1.775" transform="translate(-1066.633 -612.851)" style="fill:#edceb7"/><path d="M1123.313,679.455c-.268-.3-.721.046-.809.412-.14.6-.734,1.593-.047,1.822a2.3,2.3,0,0,1,1.832-.459c-1.578.025-.539-1.289-.976-1.775" transform="translate(-1066.633 -612.851)" style="fill:#edceb7"/><path d="M1127.875,679.025c.1-.184.459.058.631.275-.65.371.068,1.324-.732,1.463-.295.051-.633-.3-1.055-.232.348-.672.785-.815,1.156-1.506" transform="translate(-1066.633 -612.851)" style="fill:#edceb7"/></g><path d="M1127.875,646.023c.1-.184.459.058.631.275-.65.369.068,1.326-.732,1.463-.295.053-.633-.3-1.055-.234.348-.67.785-.813,1.156-1.5" transform="translate(-1066.633 -612.851)" style="fill:#edceb7"/><path d="M1113.686,672.578c.314.894,1.117.824,1.834.916a2.86,2.86,0,0,0-1.834-.916" transform="translate(-1066.633 -612.851)" style="fill:#edceb7"/><g style="clip-path:url(#a)"><path d="M1132.174,670.9c.291.646.875.426,1.375.459-.322-.57-.834-.557-1.375-.459" transform="translate(-1066.633 -612.851)" style="fill:#edceb7"/><path d="M1134.924,649.583c-.5.034-1.314-.173-1.26.448.053.588.594,1.215.282,1.812-.131.25-.551.336-.856.49-.5-1.388-2.029-2.046-2.322-3.66-.086-.468-.315-1.289-.783-.82s.67.586.685.82a6.6,6.6,0,0,0,2.311,4.225c.228.236-.032,1.008.578,1.238.51.188,1.053-.426,1.3-.3l-.036-.2a2.227,2.227,0,0,1-1.125-1.345c-.105-.344.7-.778,1.227-.809l0-1.9" transform="translate(-1066.633 -612.851)" style="fill:#edceb7"/></g><path d="M1117.352,676.55a2.022,2.022,0,0,1-.457,1.375.629.629,0,0,0,.853-.467,2.163,2.163,0,0,0-.4-.908" transform="translate(-1066.633 -612.851)" style="fill:#edceb7"/><path d="M1115.809,666.523c1.029-.02.072-.693.32-.973-.107.326-.211.649-.32.973" transform="translate(-1066.633 -612.851)" style="fill:#edceb7"/><path d="M1131.715,667.23a2.03,2.03,0,0,1-.457,1.375.63.63,0,0,0,.854-.465,2.2,2.2,0,0,0-.4-.91" transform="translate(-1066.633 -612.851)" style="fill:#edceb7"/><path d="M1127.742,675.939a2.022,2.022,0,0,0,.649,1.295.63.63,0,0,1-.912-.338,2.207,2.207,0,0,1,.263-.957" transform="translate(-1066.633 -612.851)" style="fill:#edceb7"/><path d="M1106.66,678.738c.461-1-.746-.635-.92-1.117-.658,1.168,1.143.308.92,1.117" transform="translate(-1066.633 -612.851)" style="fill:#edceb7"/><path d="M1122.7,675.023c-.974-.106-.42.553-.459.916.153-.307.3-.613.459-.916" transform="translate(-1066.633 -612.851)" style="fill:#edceb7"/><path d="M1116.908,649.751c.772.209.547.8.42,1.207-.039.131-.48.176-.478.25.033,1.049,1.217.885,1.855,1.332-.279-.121-.718-.2-.754-.38-.2-1-.728-2.688.762-3.112-.838.463-1.871-.533-2.65.358a6.218,6.218,0,0,0,.845.345" transform="translate(-1066.633 -612.851)" style="fill:#edceb7"/><path d="M1107.879,665.55c-.973-.105-.418.553-.457.916.154-.306.3-.613.457-.916" transform="translate(-1066.633 -612.851)" style="fill:#edceb7"/><path d="M1109.254,668.91c.293.65.877.425,1.375.459-.32-.571-.832-.555-1.375-.459" transform="translate(-1066.633 -612.851)" style="fill:#edceb7"/><path d="M1122.395,661.882c-.973-.1-.418.555-.457.918.152-.306.3-.611.457-.918" transform="translate(-1066.633 -612.851)" style="fill:#edceb7"/><path d="M1119.633,653.019c.074.365-.168.639-.367.926.357.084.656-.08.683-.313,0-.226-.195-.406-.316-.613" transform="translate(-1066.633 -612.851)" style="fill:#edceb7"/><path d="M1116.323,652.865c-.278-2.633-.346,0-.5,0,.438.175,1.071.152.916.918a3.009,3.009,0,0,1-.417-.92" transform="translate(-1066.633 -612.851)" style="fill:#edceb7"/><path d="M1106.862,656.535c1.533.465.162.839,1.931,1.193.738-.389.709-1.387.582-2.23-.029-.2-.4-.774-.459-1.075-.09.33-.172.657-.261.991s-.043,1.123-.143,1.166a2.406,2.406,0,0,1-1.65-.045" transform="translate(-1066.633 -612.851)" style="fill:#edceb7"/><path d="M1107.326,652.576c.211-.776.86-.487,1.2-.289.281.162.361.777-.036.888-.422.114-.906-.508-1.453.821.09-.477.159-.944.289-1.42" transform="translate(-1066.633 -612.851)" style="fill:#edceb7"/><path d="M1071.446,629.734a1.46,1.46,0,0,0-.454-.016,3,3,0,0,0,.916,1.375c.155-.3.457-.658.381-.89s-.519-.362-.843-.469" transform="translate(-1066.633 -612.851)" style="fill:#edceb7"/><path d="M1081.807,646.589c-.461-.306-.805-2.863-1.264-3.209-.179-.135-.457-.418-.457-.57,0-.309-.166-.27-.166-.576,0-.611-.453-1.41-1.293-1.233-.222.049-.408.608.84,1.313.135.076-.012.559.086.818,1.221,3.229,2.367,5.866,2.711,5.063l-.457-1.606" transform="translate(-1066.633 -612.851)" style="fill:#edceb7"/><path d="M1076.725,641.394c-.438.148-1.033.656-.973.807.561,1.422,1.108,2.019,1.682,2.043s-.744-.879-1.041-1.51,1.187-1.51.93-1.889-.286.194-.6.549" transform="translate(-1066.633 -612.851)" style="fill:#edceb7"/><path d="M1075.342,640.736c-.357-1.172-.24-1.289-1.834-1.834.463.14.344-.037.459,1.375.014.179,1.066.3,1.375.459" transform="translate(-1066.633 -612.851)" style="fill:#edceb7"/><path d="M1073.955,635.24c-.125-.323-.275-.809-.457-.825-1.222-.111-1.467-1.048-1.824-1.931.8-.223,1.365-1.016,2.293-.916-.43-.248-.914-.693-1.324-.389-.155.111.011.723-.084.756-1.754.6-1.315,1.916-.354,2.76.1.086.627-.389.8-.293.768.437-.3,2.781.506,2.209.4-.428,1.027-.887,1.732.074.3.416.1,1.146.1,1.758.229.459,1.262.2,1.285-.461.053-1.576-2.119-1.342-2.672-2.742" transform="translate(-1066.633 -612.851)" style="fill:#edceb7"/><path d="M1079.459,636.615c-.138-.176-.3-.414-.451-.414s-.305.255-.459.41c.307.154.807.287.82.465a1.974,1.974,0,0,1-1.279,2.283c1.856.558,2.377-1.484,1.369-2.744" transform="translate(-1066.633 -612.851)" style="fill:#edceb7"/><path d="M1081.406,635.685c.188,2.381-.333,3.674,2.186,2.758.572-.8-1.109-.127-1.291-.5-.094-.188,1.025-.643.947-.875s-1.287-.237-1.433-.49c-.262-.457.156-.918.4-1.344-.307.154-.82.32-.811.451" transform="translate(-1066.633 -612.851)" style="fill:#edceb7"/><path d="M1084.026,635.3c-.078-.033-.28.241-.434.395.488.262.8,1.289,1.272.812.449-.455-.356-1.386-.838-1.207" transform="translate(-1066.633 -612.851)" style="fill:#edceb7"/><path d="M1077.481,631.148c-.268-.3-.719.049-.807.414-.143.6-.734,1.594-.047,1.822a2.3,2.3,0,0,1,1.834-.459c-1.578.024-.541-1.289-.98-1.777" transform="translate(-1066.633 -612.851)" style="fill:#edceb7"/><path d="M1086.953,637.642c1.7.228,1.868,1.7,2.8,2.584.164.154.631-.053.826.1a1.738,1.738,0,0,1,.5,1.781c.782-1.014,1.606.379,2.17-.131,1.026-.934.922-2.443,2.412-3.076-.24-1.164-1.275-1.8-1.832-2.75.5,1.6,1.739,3.318-.459,4.125.155.152.406.3.406.459a1.028,1.028,0,0,1-.437.845,1.364,1.364,0,0,1-1.734-.425,5.779,5.779,0,0,0-1.77-1.944c-.41-.373.018-1.47-.59-2.144-.156.154-.386.508-.447.4-.584-1.084-1.387-.969-1.615-.281l-.231.459" transform="translate(-1066.633 -612.851)" style="fill:#edceb7"/><path d="M1086.608,639.964h0c-.122.1-.77-.25-.778-.418-.049-.99-.234-2-1.474-1.83,1.472,1.2,1.892,3.006,2.693,4.614.272.546-1.625,1.92-.859,2.378l1.375-.574c.4.426.869.709,1.834,0-.657.03-1.426.121-1.768-.494-.566-1.012-.074-1.578-.164-2.707-.014-.178-.656-.254-.746-.492a1.462,1.462,0,0,1-.113-.477" transform="translate(-1066.633 -612.851)" style="fill:#edceb7"/><path d="M1085.32,645.976c-.1.293-.261.463-.263.76-.672-.139-1.34-.28-2.008-.416-.547.621.682.851,1.52,1.256a13.823,13.823,0,0,0,1.652.865c-.113-.668-.7-1.662-.9-2.465" transform="translate(-1066.633 -612.851)" style="fill:#edceb7"/><path d="M1091.385,622.4c.293.65.877.424,1.375.459-.32-.572-.834-.557-1.375-.459" transform="translate(-1066.633 -612.851)" style="fill:#edceb7"/><path d="M1097.078,646.23c-.277-2.631-.345.006-.5.006.438.172,1.073.15.918.916a2.977,2.977,0,0,1-.418-.922" transform="translate(-1066.633 -612.851)" style="fill:#edceb7"/><path d="M1097.8,644.4a.638.638,0,0,0-.469-.86c-.527-.078-1.215-.255-1.226-.523a2.045,2.045,0,0,0-1.514-1.826,9.094,9.094,0,0,0,3.156,3.281c.151.106-.031.574.092.824.4.811,1.621-.076,1.738,1.4.01.14-.25.3-.4.453,1.287-.367,1.133,1.3,2.291,1.375v-.918c-.541.1-.934-.227-1.383-.447-1.41-.7.059-2.475-2.283-2.76" transform="translate(-1066.633 -612.851)" style="fill:#edceb7"/><path d="M1099.143,640.742c-.125-.557-.362-1.2-.9-1.3-.427-.078-.9-.655-1.357.83,1.422-.455,1.822.738,2.291,1.832a6.186,6.186,0,0,0-.035-1.367" transform="translate(-1066.633 -612.851)" style="fill:#edceb7"/><path d="M1096.926,636.13a2.159,2.159,0,0,1-.039-.9,1.475,1.475,0,0,0-.357,1.758c.168.23.812.076,1.273.076a4.1,4.1,0,0,1-.877-.938" transform="translate(-1066.633 -612.851)" style="fill:#edceb7"/><path d="M1089.246,633.859c.028.306.156.761.039.836a4.276,4.276,0,0,1-1.777.252c.17.14.315.336.508.383.529.132,1.054-.53,1.238-.422,1.192.687,2.547,2.873,3.539,3.865.139-.166-.59-1.592-.619-1.629-1.1-1.369-1.869-1.959-2.928-3.285" transform="translate(-1066.633 -612.851)" style="fill:#edceb7"/><path d="M1091.711,632.685c-.4.264-1.211.248-.824.9.785,1.319,2.519,1.332,3.592,2.338.267-1.291,1.929-.982,2.7-1.877.154-.181.006-.568.076-.867.108-.469.129-1.076.893-.922-.155-.154-.305-.3-.459-.459-.815,1.2-.988-.131-1.832,0,.306.155.765.252.838.485a2.057,2.057,0,0,1-.4,2.242c-.252.227-.677.5-.849.4a1.6,1.6,0,0,1-.506-1.75c-.744.688-1.09,2.319-2.215,1.7a6.179,6.179,0,0,1-1.309-1.356c-.67-.808,1.483-.57,1.233-1.715a5.9,5.9,0,0,1-.934.889" transform="translate(-1066.633 -612.851)" style="fill:#edceb7"/><path d="M1087.473,632.513c.084-.109.637.186.764.059.281-.285,1.119-.686,1.207-1.133.271.209.716.406.718.627,0,.592-1.5.709-2.373,1.01a1.261,1.261,0,0,0-.74,1.183,4.234,4.234,0,0,1,.424-1.746" transform="translate(-1066.633 -612.851)" style="fill:#edceb7"/><path d="M1085.367,632.773c.3-.984-.513-.67-.859-.1-.228.575-.56,2.285.918,2.354.148.006.3-.254.459-.4-.324-.276-1.561,1.562-.518-1.852" transform="translate(-1066.633 -612.851)" style="fill:#edceb7"/><g style="clip-path:url(#a)"><path d="M1070.414,643.484c-.213,1.193,1.617,3.574,2.178,4.586a1.128,1.128,0,0,0,.152-1.033c-.232-1.209-1.607-2.008-1.6-3.575-.344-.572-.305-.953-1.307-.894l.574.916" transform="translate(-1066.633 -612.851)" style="fill:#edceb7"/><path d="M1067.625,636.953c.1-.051.832.763,1.071.994l-.168-.223c-.655-.891.064-2.519-.151-3.849-.088-.532-1.09-.672-1.123-.95l.371,4.028" transform="translate(-1066.633 -612.851)" style="fill:#edceb7"/></g><path d="M1068.772,638.71c1.4.774-.014.856,1.642,1.567.8-.231.979-1.211,1.032-2.063.011-.2-.231-.841-.231-1.146-.152.305-.3.605-.457.916s-.275,1.088-.381,1.109a2.391,2.391,0,0,1-1.605-.383" transform="translate(-1066.633 -612.851)" style="fill:#edceb7"/><path d="M1078.473,646.044v.916a2.042,2.042,0,0,1,1.377-.459c-.461-.152-.918-.3-1.377-.457" transform="translate(-1066.633 -612.851)" style="fill:#edceb7"/><g style="clip-path:url(#a)"><path d="M1070.356,634.415c.3-.984-.516-.671-.858-.1-.23.574-.564,2.285.918,2.351.149.008.3-.25.455-.4-.32-.275-1.558,1.565-.515-1.85" transform="translate(-1066.633 -612.851)" style="fill:#edceb7"/><path d="M1067.561,621.109c.51.189,1.051-.424,1.3-.3,1.314.635,1.2,2.178,2.857.852.019-.018.373.259.352.39-.075.467-.555.862-.368,1.373.131.358.491.43.86.551,1.136.379-.286,1.526,1.34,2.334.185.092.2.861-.01,1.2-.485.77-1.43.487-2.221.5a2.171,2.171,0,0,1,1.834.918l-.459-.918q.917-.458,1.834-.916c-.307-.156-.75-.248-.846-.486-.211-.532.094-1.27-.152-1.766-.064-.123-.643.065-.775-.092-.745-.875-.364-2.429-1.116-2.963-1.22-.863-3.7-.58-4.293-2.531-.105-.344.7-.777,1.227-.808.6-.038,1.133.414,1.371,1.312a1.2,1.2,0,0,1,.5-1.281c.9-.346.832,1.5,1.77,1.2a.858.858,0,0,0,.408-.811c-.078-.234-.535-.433-.84-.433-.156,0-.357.377-.434.344-.937-.4-2.187-.286-2.732-1.334a2.051,2.051,0,0,1-.043-.9c-.5.033-1.312-.174-1.258.447.053.588.592,1.215.281,1.813-.13.252-.55.338-.857.49l.471,1.8" transform="translate(-1066.633 -612.851)" style="fill:#edceb7"/><path d="M1074.246,616.556c.235.084.33.535.485.84.3-.154.611-.305.916-.457.81,1.982,2.193,4.537,4.584,4.584V620.6a1.267,1.267,0,0,1-1.3-.5c-.416-.723.949-1.149-.074-2.25-.01.793.254,1.912-.5,2.141-.914.275-1.516-1.139-1.328-2.141-.305,0-.776.08-.834-.039-.559-1.195-2.014-1.457-2.373-2.711-.75.824-2.073,1.006-2.293,2.291,1.119.3,1.73-1.2,2.724-.84" transform="translate(-1066.633 -612.851)" style="fill:#edceb7"/><path d="M1068.465,626.64c-.973-.1-.416.555-.457.918.154-.307.3-.613.457-.918" transform="translate(-1066.633 -612.851)" style="fill:#edceb7"/></g><path d="M1070.83,626.695a1.639,1.639,0,0,0,.385-1.43c-.307.152-.818.314-.811.453.045,1.018-.919,1.754-.564,2.756.635-.447.586-1.242.99-1.779" transform="translate(-1066.633 -612.851)" style="fill:#edceb7"/><path d="M1068.465,629.39c-.127,1.02.678.172.918.459-.307-.156-.611-.3-.918-.459" transform="translate(-1066.633 -612.851)" style="fill:#edceb7"/><path d="M1076.764,628.47c-.08-1.554,1.111-2.418,2.244-3.2a2,2,0,0,1-1.379.861c-.14.014-.3-.351-.453-.351-.307,0-.8.232-.82.416-.082.889-.475,1.8.275,2.805.094.128-.221.546-.373.853-.305-.156-.611-.3-.916-.459-.309.611-.611,1.221-.916,1.834,1.391-.195,1.582-1.826,2.75-2.291-.156-.154-.4-.3-.412-.463" transform="translate(-1066.633 -612.851)" style="fill:#edceb7"/><path d="M1079.707,626.357c.778-.082.764.578.768,1,0,.449-.277.613.721,1.576.2.19.234.846.439,1.3.168-.141.332-.273.5-.414-.291-.182-.7-.311-.805-.568-.148-.389.194-1.018-.017-1.272-.352-.426-1.11-.652-1.1-1.572,0-.143.4-.323.379-.387a3.612,3.612,0,0,1-.213-1.894c-.943.529-.619,1.437-.678,2.236" transform="translate(-1066.633 -612.851)" style="fill:#edceb7"/><path d="M1084.184,628.076c-.766-.956-1.756.052-2.309-1.166.8.285.324-.213,1.805-.475-.037.342-.178.857-.057.928,1.485.855.715,2.742,1.858,3.9l-.633.139a5.475,5.475,0,0,0-.567-1.875c-1.05-.692.561-.631-.1-1.453" transform="translate(-1066.633 -612.851)" style="fill:#edceb7"/><path d="M1080.932,622.626c-1.111.9-1.08-.242-1.924-.111l.459.918c.783-1.014,1.576.373,2.184-.131.482-.4-.578-.789-.719-.676" transform="translate(-1066.633 -612.851)" style="fill:#edceb7"/><path d="M1081.836,620.173c-.008-.17-.635-.246-.754-.494-.634-1.318-.2-1.685.451-2.711a.639.639,0,0,0-.861.467c-.127.77.361.709-.441,1.49-.235.231.814.821,1.009,1.334.379.985,1.192,1.278,1.708,2.145.173.3.779-.1.728-.389-.176-1.027-1.725.348-1.84-1.842" transform="translate(-1066.633 -612.851)" style="fill:#edceb7"/><path d="M1082.088,642.6c-.248.174.19.562.547.723.4-.918,1.959-.26,1.979-1.307.009-.387-.575-.725-.581-1.271-.908.615-1.013,1.2-1.945,1.855" transform="translate(-1066.633 -612.851)" style="fill:#edceb7"/><path d="M1085.885,622.744c.457-1-.748-.635-.922-1.118-.656,1.17,1.143.307.922,1.118" transform="translate(-1066.633 -612.851)" style="fill:#edceb7"/><path d="M1087.008,622.265c.311-.15.615-.3.924-.449.15.31.459.68.363.883-.617,1.318.19,2.677.586,3.9a.97.97,0,0,1,1.326.5c.565,1.1,1.742,2.8,1.863,4.088-.337-.064-.861-.07-.9-.225-.562-1.955-2.176-4.97-4.365-5.461-.074-.019-.131-.378-.068-.566.168-.517.9-.525,1.072-.871.33-.652-.373-1.24-.8-1.793" transform="translate(-1066.633 -612.851)" style="fill:#edceb7"/><path d="M1085.955,628.015c.076-.3-.185-.682.149-1,.541,1.322.562,2.834,2.007,3.83-.58.412-.972-.076-1.419-.3.7-1.074-1.02-1.416-.737-2.527" transform="translate(-1066.633 -612.851)" style="fill:#edceb7"/><path d="M1088.67,618.829c-.361-.706.893-1.771,1.3-1.669a1.238,1.238,0,0,1,.953,1.689c1.879-.1,4.154-2,2.637-3.559-.323-.328-1.133.1-1.721.35a1.678,1.678,0,0,1,1.293,2.25,1.332,1.332,0,0,1-1.293.518c-1.236-.092-.687-1.225-1.393-1.832a1.418,1.418,0,0,0-.894-.42c-.535.043-.947.545-1.42.775-.187.094-.674-.152-.82-.408a.932.932,0,0,1,.4-1.342c-.768-.156-.894.553-.816.9.191.839,1.728.728,1.689,1.853-.02.619-.432,1.139-1.33,1.377,2.008-.428,1.533,1.8,2.971,2.289.91.311.478-.5.39-.836-.228-.885-1.539-1.131-1.951-1.93" transform="translate(-1066.633 -612.851)" style="fill:#edceb7"/><path d="M1091.7,624.476a4.493,4.493,0,0,1-.92-.434c.736.52.031,1.289,1.3,1.965.307.162.184.924-.386,1.244.152.157.3.305.457.459a8.223,8.223,0,0,1,.459-3.209,3.744,3.744,0,0,1-.912-.025" transform="translate(-1066.633 -612.851)" style="fill:#edceb7"/><path d="M1095,626.488a2.4,2.4,0,0,0-.406-.916c-.156.154-.428.363-.4.426a3.609,3.609,0,0,1,.4,1.865,4.761,4.761,0,0,0,.406-1.375" transform="translate(-1066.633 -612.851)" style="fill:#edceb7"/><path d="M1094.36,629.974c-.78-.195-.844.512-.84.9,0,.325.5.7.789.407.308-.309.006-1.04,1.431-.864-.463-.154-.9-.326-1.38-.447" transform="translate(-1066.633 -612.851)" style="fill:#edceb7"/><path d="M1096.8,629.691c-.432-.485-.635-1.8-1.219-1.217s.684.834,1.219,1.217" transform="translate(-1066.633 -612.851)" style="fill:#edceb7"/><g style="clip-path:url(#a)"><path d="M1096.783,617.5c-.136-.575-.306-1.692-1.238-1.313-.107.045-.035.523-.035.83.777-.041,1.664.2,1.729,1.381.007.137-.676.254-.721.471-.09.422-.658.9.826,1.355-.639-.836-.344-1.809-.561-2.724" transform="translate(-1066.633 -612.851)" style="fill:#edceb7"/><path d="M1068.237,641.767c-.061-1.5-.1-1.006-1.6-1.49.3.152,1.215.576,1.285.806.147.475-.053.7.194,1.122-.114.459-.905.459-.487,1.089.619.934.131,2.289,1.305,2.772.264.109.146-.289.453-.289,0-1.26-1.09-2.658-1.146-4.01" transform="translate(-1066.633 -612.851)" style="fill:#edceb7"/><path d="M1101.469,626.64c-.973-.1-.418.555-.459.918.154-.307.305-.613.459-.918" transform="translate(-1066.633 -612.851)" style="fill:#edceb7"/><path d="M1076.321,613.15c1.009.754,1.382,3,2.533,3.482-.928-.7-1.02-2.986-1.76-3.781l-.773.3" transform="translate(-1066.633 -612.851)" style="fill:#edceb7"/><path d="M1099.178,614.15c1.287-.367,1.133,1.3,2.291,1.375v-.916a2.228,2.228,0,0,1-1.383-.449l-.908-.01" transform="translate(-1066.633 -612.851)" style="fill:#edceb7"/></g><path d="M1097.674,626.619c.191,2.38-.334,3.671,2.187,2.755.573-.8-1.109-.124-1.292-.5-.092-.187,1.027-.644.949-.877s-1.287-.236-1.434-.49c-.263-.457.155-.916.4-1.344-.307.157-.821.323-.813.454" transform="translate(-1066.633 -612.851)" style="fill:#edceb7"/><path d="M1096.656,623.89c-.791.115-.818-.519-.863-.939-.013-.137.371-.354.34-.42-.443-.952-1.467-.332-2.231-.491.305,0,.741-.1.844.051.58.844,1.731,2.184.531,3.158.587-.753,1.928-.248,2.292-1.375a6.186,6.186,0,0,0-.913.016" transform="translate(-1066.633 -612.851)" style="fill:#edceb7"/><path d="M1094.471,619.6a10.737,10.737,0,0,0-2.981-.115,2.126,2.126,0,0,0,.8.457c.307,0,.317-.457.549-.379s.318.73.486.74c.971.053,1.819.475,2.748.557-.156-.307-.242-.731-.49-.854a2.569,2.569,0,0,0-1.115-.406" transform="translate(-1066.633 -612.851)" style="fill:#edceb7"/><path d="M1098.719,621.828c-.127-.276-.588.086-.811.406.834.555-.087,1.976.94,2.181.377.077.812-.437,1.353-.345-.447-1-1.006-1.213-1.482-2.242" transform="translate(-1066.633 -612.851)" style="fill:#edceb7"/><path d="M1081.151,633.607c-.791.115-.819-.518-.864-.938-.013-.138.371-.355.34-.424-.443-.947-1.467-.33-2.23-.486.306,0,.74-.1.843.051.581.842,1.733,2.182.534,3.158.584-.756,1.927-.252,2.291-1.375a6.188,6.188,0,0,0-.914.014" transform="translate(-1066.633 -612.851)" style="fill:#edceb7"/><path d="M1078.09,628.7c.318.9,1.117.826,1.836.918a2.858,2.858,0,0,0-1.836-.918" transform="translate(-1066.633 -612.851)" style="fill:#edceb7"/><path d="M1069.471,631.173c-.076-.035-.279.241-.432.395.489.262.8,1.289,1.27.812.451-.455-.354-1.385-.838-1.207" transform="translate(-1066.633 -612.851)" style="fill:#edceb7"/><path d="M1069.383,623.662c.293.648.877.423,1.375.459-.32-.573-.832-.561-1.375-.459" transform="translate(-1066.633 -612.851)" style="fill:#edceb7"/><path d="M1084.721,623.9c-.283-.283-.266-.373-.451-.44-.514-.181-.94.182-1.366.43,1.571-.33,2.2.943,1.832,2.291.309-.154.817-.305.817-.457a4.027,4.027,0,0,0-.832-1.824" transform="translate(-1066.633 -612.851)" style="fill:#edceb7"/><path d="M1092.6,643.656c-.281-.281-.264-.371-.451-.438-.514-.183-.938.182-1.366.43,1.573-.33,2.2.941,1.834,2.291.307-.156.815-.305.815-.459a4.068,4.068,0,0,0-.832-1.824" transform="translate(-1066.633 -612.851)" style="fill:#edceb7"/><g style="clip-path:url(#a)"><path d="M1077.633,623.2a2.017,2.017,0,0,1-.457,1.375.632.632,0,0,0,.854-.465,2.151,2.151,0,0,0-.4-.91" transform="translate(-1066.633 -612.851)" style="fill:#edceb7"/><path d="M1075,613.691a2.032,2.032,0,0,1-.459,1.375.628.628,0,0,0,.854-.465,2.181,2.181,0,0,0-.395-.91" transform="translate(-1066.633 -612.851)" style="fill:#edceb7"/><path d="M1075,646.693a2.037,2.037,0,0,1-.459,1.377.63.63,0,0,0,.854-.467,2.17,2.17,0,0,0-.395-.91" transform="translate(-1066.633 -612.851)" style="fill:#edceb7"/><path d="M1067.09,624.693c.316.894,1.117.824,1.834.916a2.841,2.841,0,0,0-1.834-.916" transform="translate(-1066.633 -612.851)" style="fill:#edceb7"/></g><path d="M1100.094,624.693c.314.894,1.115.824,1.834.916a2.85,2.85,0,0,0-1.834-.916" transform="translate(-1066.633 -612.851)" style="fill:#edceb7"/><g style="clip-path:url(#a)"><path d="M1069.383,646.808c-1.094.147-.141.971-.459,1.375,1.34-.064-.344-1.133.459-1.375" transform="translate(-1066.633 -612.851)" style="fill:#edceb7"/><path d="M1069.383,613.806c-1.094.145-.141.973-.459,1.375,1.34-.062-.344-1.133.459-1.375" transform="translate(-1066.633 -612.851)" style="fill:#edceb7"/><path d="M1101.379,633.875c-.086-.532-1.09-.672-1.123-.95-.131-1.135-.553-1.365-1.078-2.275-.156.154-.41.305-.41.459,0,.613.9.959,1.084,1.463.539,1.5.433,3.808.777,4.381.1-.051.83.763,1.069.994l-.319-4.072" transform="translate(-1066.633 -612.851)" style="fill:#edceb7"/><path d="M1071.867,613.908c.293.457.563.865.725,1.158a1.123,1.123,0,0,0,.152-1.031l-.877-.127" transform="translate(-1066.633 -612.851)" style="fill:#edceb7"/></g><path d="M1101.239,641.767c-.063-1.5-.1-1.006-1.6-1.49.307.152,1.215.576,1.285.806.147.475-.051.7.195,1.122-.115.459-.9.459-.486,1.089.494.748.279,1.766.776,2.387l-.166-3.914" transform="translate(-1066.633 -612.851)" style="fill:#edceb7"/><g style="clip-path:url(#a)"><path d="M1076.321,646.15c1.009.756,1.382,3,2.533,3.486-.928-.705-1.02-2.988-1.76-3.783-1.416-1.525-3.406-2.334-4.455-4.227-.379-.685.428-1.658-.506-2.267-.156,1.486-.141,3.074,1.012,4.008,1.193.964,1.961,1.873,3.176,2.783" transform="translate(-1066.633 -612.851)" style="fill:#edceb7"/><path d="M1085.32,612.974c-.1.293-.261.463-.263.758q-1.008-.205-2.008-.414c-.547.621.682.851,1.52,1.256a13.824,13.824,0,0,0,1.652.865c-.113-.666-.7-1.664-.9-2.465" transform="translate(-1066.633 -612.851)" style="fill:#edceb7"/><path d="M1081.024,613.734c.584,1.252,1.043,1.916,1.24,1.457l-.457-1.6-.783.147" transform="translate(-1066.633 -612.851)" style="fill:#edceb7"/><path d="M1088.783,646.73c-.429-.488-.634-1.8-1.218-1.221s.683.832,1.218,1.221" transform="translate(-1066.633 -612.851)" style="fill:#edceb7"/><path d="M1090.317,613.423c-.268-.3-.721.049-.809.412-.143.6-.734,1.594-.047,1.825a2.306,2.306,0,0,1,1.832-.459c-1.578.025-.539-1.288-.976-1.778" transform="translate(-1066.633 -612.851)" style="fill:#edceb7"/></g><path d="M1090.317,646.427c-.268-.3-.721.049-.809.412-.143.6-.734,1.594-.047,1.823a2.3,2.3,0,0,1,1.832-.457c-1.578.023-.539-1.291-.976-1.778" transform="translate(-1066.633 -612.851)" style="fill:#edceb7"/><g style="clip-path:url(#a)"><path d="M1094.879,646c.1-.184.459.058.631.273-.65.371.068,1.326-.733,1.465-.294.049-.632-.3-1.054-.235.348-.672.785-.812,1.156-1.5" transform="translate(-1066.633 -612.851)" style="fill:#edceb7"/><path d="M1094.879,612.995c.1-.183.459.059.631.276-.65.369.068,1.326-.733,1.463-.294.051-.632-.295-1.054-.233.348-.673.785-.812,1.156-1.506" transform="translate(-1066.633 -612.851)" style="fill:#edceb7"/></g><path d="M1080.69,639.55c.314.9,1.117.825,1.832.916a2.867,2.867,0,0,0-1.832-.916" transform="translate(-1066.633 -612.851)" style="fill:#edceb7"/><g style="clip-path:url(#a)"><path d="M1099.178,637.869c.291.648.875.427,1.373.461-.32-.571-.832-.559-1.373-.461" transform="translate(-1066.633 -612.851)" style="fill:#edceb7"/><path d="M1101.928,616.556c-.5.033-1.314-.174-1.26.447.053.588.594,1.215.281,1.813-.131.252-.55.338-.855.49-.5-1.391-2.029-2.049-2.322-3.66-.086-.471-.315-1.289-.783-.818s.669.584.685.818a6.6,6.6,0,0,0,2.311,4.224c.228.237-.034,1.008.578,1.239.51.189,1.051-.424,1.3-.3l-.035-.2a2.225,2.225,0,0,1-1.125-1.344c-.105-.344.7-.777,1.227-.808l0-1.9" transform="translate(-1066.633 -612.851)" style="fill:#edceb7"/></g><path d="M1084.356,643.525a2.024,2.024,0,0,1-.457,1.373.629.629,0,0,0,.853-.465,2.136,2.136,0,0,0-.4-.908" transform="translate(-1066.633 -612.851)" style="fill:#edceb7"/><path d="M1082.813,633.495c1.027-.021.072-.693.32-.972-.107.326-.211.648-.32.972" transform="translate(-1066.633 -612.851)" style="fill:#edceb7"/><path d="M1098.719,634.2a2.017,2.017,0,0,1-.459,1.373.627.627,0,0,0,.854-.465,2.165,2.165,0,0,0-.395-.908" transform="translate(-1066.633 -612.851)" style="fill:#edceb7"/><path d="M1094.746,642.912a2.029,2.029,0,0,0,.649,1.3.63.63,0,0,1-.912-.339,2.207,2.207,0,0,1,.263-.957" transform="translate(-1066.633 -612.851)" style="fill:#edceb7"/><path d="M1073.664,645.712c.461-1-.746-.636-.92-1.119-.658,1.168,1.143.309.92,1.119" transform="translate(-1066.633 -612.851)" style="fill:#edceb7"/><path d="M1089.7,641.995c-.976-.1-.42.553-.459.917.153-.3.305-.612.459-.917" transform="translate(-1066.633 -612.851)" style="fill:#edceb7"/><path d="M1083.912,616.724c.772.209.547.8.42,1.2-.039.133-.48.18-.478.254.033,1.047,1.216.885,1.855,1.33-.279-.121-.719-.2-.754-.381-.2-1-.728-2.687.762-3.111-.838.463-1.871-.533-2.65.357a6.047,6.047,0,0,0,.845.346" transform="translate(-1066.633 -612.851)" style="fill:#edceb7"/><path d="M1074.883,632.523c-.973-.106-.418.553-.457.918.152-.309.3-.613.457-.918" transform="translate(-1066.633 -612.851)" style="fill:#edceb7"/><path d="M1076.258,635.884c.293.649.877.424,1.375.457-.32-.57-.832-.554-1.375-.457" transform="translate(-1066.633 -612.851)" style="fill:#edceb7"/><path d="M1089.4,628.857c-.973-.106-.418.553-.457.916.152-.307.3-.611.457-.916" transform="translate(-1066.633 -612.851)" style="fill:#edceb7"/><path d="M1086.637,619.994c.074.363-.168.636-.367.923.355.084.654-.08.683-.312,0-.227-.2-.406-.316-.611" transform="translate(-1066.633 -612.851)" style="fill:#edceb7"/><path d="M1083.326,619.837c-.277-2.633-.345,0-.5,0,.438.176,1.071.155.916.92a3.025,3.025,0,0,1-.418-.922" transform="translate(-1066.633 -612.851)" style="fill:#edceb7"/><path d="M1073.865,623.507c1.534.465.162.84,1.932,1.194.738-.389.709-1.387.582-2.231-.029-.195-.4-.773-.461-1.074-.088.33-.172.656-.26.992s-.043,1.123-.144,1.164a2.4,2.4,0,0,1-1.649-.045" transform="translate(-1066.633 -612.851)" style="fill:#edceb7"/><path d="M1074.33,619.548c.211-.775.86-.486,1.2-.287.281.162.359.776-.036.885-.421.117-.908-.506-1.455.822.092-.478.16-.943.291-1.42" transform="translate(-1066.633 -612.851)" style="fill:#edceb7"/><path d="M1104.446,629.734a1.4,1.4,0,0,0-.454-.016,3.01,3.01,0,0,0,.916,1.373c.155-.3.457-.658.381-.888s-.519-.362-.843-.469" transform="translate(-1066.633 -612.851)" style="fill:#edceb7"/><path d="M1114.807,646.589c-.461-.306-.8-2.865-1.264-3.209-.179-.135-.457-.418-.457-.57,0-.31-.166-.27-.166-.576,0-.611-.451-1.412-1.293-1.233-.221.047-.408.608.842,1.313.135.076-.014.559.084.816,1.221,3.231,2.367,5.868,2.711,5.063l-.457-1.6" transform="translate(-1066.633 -612.851)" style="fill:#edceb7"/><path d="M1109.725,641.392c-.438.15-1.033.656-.973.809.561,1.422,1.108,2.019,1.682,2.043s-.744-.879-1.041-1.51,1.189-1.51.93-1.889-.286.194-.6.547" transform="translate(-1066.633 -612.851)" style="fill:#edceb7"/><path d="M1108.342,640.734c-.357-1.17-.24-1.287-1.834-1.832.463.14.344-.037.459,1.375.014.179,1.066.3,1.375.457" transform="translate(-1066.633 -612.851)" style="fill:#edceb7"/><path d="M1106.955,635.238c-.125-.321-.275-.807-.457-.824-1.22-.11-1.467-1.047-1.824-1.93.8-.223,1.365-1.018,2.293-.916-.428-.25-.914-.693-1.324-.391-.154.113.012.725-.084.758-1.754.6-1.315,1.916-.354,2.76.1.086.627-.389.8-.3.768.439-.3,2.781.506,2.211.4-.428,1.027-.887,1.732.074.3.416.1,1.145.1,1.758.229.459,1.262.195,1.285-.463.053-1.576-2.119-1.34-2.672-2.742" transform="translate(-1066.633 -612.851)" style="fill:#edceb7"/><path d="M1112.459,636.615c-.138-.176-.3-.416-.451-.416s-.305.257-.459.412c.307.152.807.285.82.465a1.976,1.976,0,0,1-1.277,2.283c1.854.558,2.375-1.486,1.367-2.744" transform="translate(-1066.633 -612.851)" style="fill:#edceb7"/><path d="M1114.406,635.685c.19,2.381-.333,3.674,2.186,2.758.572-.8-1.109-.127-1.291-.5-.094-.188,1.025-.643.947-.875s-1.287-.237-1.433-.49c-.262-.459.156-.918.4-1.344-.307.154-.82.32-.811.451" transform="translate(-1066.633 -612.851)" style="fill:#edceb7"/><path d="M1117.026,635.3c-.078-.031-.28.243-.434.4.488.262.8,1.289,1.272.812.449-.457-.356-1.386-.838-1.209" transform="translate(-1066.633 -612.851)" style="fill:#edceb7"/><path d="M1110.481,631.146c-.268-.3-.719.049-.807.416-.143.594-.734,1.592-.047,1.82a2.3,2.3,0,0,1,1.834-.457c-1.578.022-.541-1.289-.98-1.779" transform="translate(-1066.633 -612.851)" style="fill:#edceb7"/><path d="M1119.953,637.642c1.7.228,1.868,1.7,2.8,2.582.164.156.633-.051.828.1a1.741,1.741,0,0,1,.5,1.783c.782-1.014,1.606.377,2.17-.133,1.026-.932.924-2.441,2.412-3.074-.238-1.166-1.275-1.8-1.832-2.752.5,1.6,1.739,3.32-.459,4.127.155.152.407.3.407.457a1.034,1.034,0,0,1-.436.847,1.364,1.364,0,0,1-1.736-.427,5.791,5.791,0,0,0-1.77-1.942c-.41-.373.018-1.472-.59-2.144-.156.154-.386.506-.447.4-.584-1.086-1.387-.97-1.615-.283l-.231.461" transform="translate(-1066.633 -612.851)" style="fill:#edceb7"/><path d="M1119.608,639.964h0c-.121.094-.768-.25-.778-.418-.049-.99-.234-2-1.474-1.83,1.472,1.2,1.892,3,2.693,4.614.274.546-1.625,1.92-.859,2.378l1.375-.574c.4.426.869.709,1.834,0-.657.028-1.424.121-1.768-.5-.566-1.01-.074-1.576-.164-2.707-.014-.176-.656-.252-.746-.49a1.474,1.474,0,0,1-.113-.477" transform="translate(-1066.633 -612.851)" style="fill:#edceb7"/><path d="M1118.321,645.976c-.1.291-.262.463-.264.758-.672-.137-1.34-.278-2.008-.414-.547.619.682.851,1.519,1.256a13.939,13.939,0,0,0,1.655.865c-.115-.668-.707-1.662-.9-2.465" transform="translate(-1066.633 -612.851)" style="fill:#edceb7"/><path d="M1124.385,622.4c.293.648.877.424,1.375.457-.32-.57-.832-.557-1.375-.457" transform="translate(-1066.633 -612.851)" style="fill:#edceb7"/><g style="clip-path:url(#a)"><path d="M1130.078,646.23c-.277-2.631-.345.006-.5.006.438.172,1.071.15.918.916a2.932,2.932,0,0,1-.418-.922" transform="translate(-1066.633 -612.851)" style="fill:#edceb7"/><path d="M1130.8,644.4a.637.637,0,0,0-.469-.858c-.527-.078-1.215-.255-1.226-.523a2.041,2.041,0,0,0-1.514-1.826,9.11,9.11,0,0,0,3.156,3.281c.151.106-.031.574.092.822.4.811,1.623-.074,1.736,1.4.012.14-.248.3-.4.453,1.287-.367,1.135,1.3,2.291,1.375v-.918c-.541.094-.932-.227-1.381-.449-1.41-.7.059-2.475-2.283-2.76" transform="translate(-1066.633 -612.851)" style="fill:#edceb7"/></g><path d="M1132.143,640.742c-.125-.557-.362-1.2-.9-1.3-.427-.076-.9-.653-1.359.832,1.422-.457,1.824.738,2.291,1.832a6.18,6.18,0,0,0-.033-1.367" transform="translate(-1066.633 -612.851)" style="fill:#edceb7"/><path d="M1129.926,636.13a2.158,2.158,0,0,1-.041-.9,1.474,1.474,0,0,0-.355,1.758c.168.23.812.076,1.273.076a4.054,4.054,0,0,1-.877-.938" transform="translate(-1066.633 -612.851)" style="fill:#edceb7"/><path d="M1122.246,633.859c.028.306.157.761.039.836a4.3,4.3,0,0,1-1.775.252c.168.138.314.336.506.383.529.13,1.055-.53,1.238-.424,1.192.687,2.547,2.875,3.539,3.865.139-.166-.59-1.59-.619-1.629-1.1-1.369-1.869-1.957-2.928-3.283" transform="translate(-1066.633 -612.851)" style="fill:#edceb7"/><path d="M1124.711,632.685c-.4.262-1.211.248-.824.9.785,1.319,2.519,1.332,3.592,2.338.267-1.291,1.929-.984,2.7-1.879.154-.179.006-.568.076-.865.108-.469.127-1.076.891-.922-.153-.154-.3-.3-.457-.461-.817,1.2-.988-.129-1.832,0,.306.157.765.254.836.487a2.053,2.053,0,0,1-.4,2.24c-.252.229-.677.5-.849.4a1.589,1.589,0,0,1-.5-1.748c-.746.688-1.092,2.319-2.217,1.694a6.115,6.115,0,0,1-1.309-1.354c-.668-.808,1.483-.57,1.235-1.717a5.924,5.924,0,0,1-.936.891" transform="translate(-1066.633 -612.851)" style="fill:#edceb7"/><path d="M1120.473,632.513c.084-.109.637.186.764.059.281-.285,1.119-.686,1.206-1.135.272.209.717.408.719.627,0,.594-1.5.711-2.373,1.012a1.26,1.26,0,0,0-.74,1.183,4.265,4.265,0,0,1,.424-1.746" transform="translate(-1066.633 -612.851)" style="fill:#edceb7"/><path d="M1118.369,632.773c.3-.984-.515-.67-.861-.1-.228.573-.56,2.285.918,2.352.148.008.3-.252.459-.4-.324-.274-1.561,1.564-.516-1.85" transform="translate(-1066.633 -612.851)" style="fill:#edceb7"/><path d="M1103.414,643.484c-.213,1.193,1.617,3.574,2.178,4.584a1.123,1.123,0,0,0,.152-1.031c-.232-1.209-1.607-2.008-1.6-3.577-.344-.572-.305-.951-1.307-.892l.574.916" transform="translate(-1066.633 -612.851)" style="fill:#edceb7"/><path d="M1100.625,636.953c.1-.051.832.763,1.071.994l-.168-.223c-.655-.891.066-2.519-.151-3.851-.088-.53-1.09-.67-1.123-.948l.371,4.028" transform="translate(-1066.633 -612.851)" style="fill:#edceb7"/><path d="M1101.772,638.71c1.4.774-.014.854,1.642,1.567.8-.231.981-1.211,1.032-2.063.011-.2-.231-.841-.231-1.146-.152.305-.3.605-.457.916s-.275,1.088-.381,1.109a2.391,2.391,0,0,1-1.605-.383" transform="translate(-1066.633 -612.851)" style="fill:#edceb7"/><path d="M1111.473,646.044v.916a2.042,2.042,0,0,1,1.377-.459c-.461-.154-.918-.3-1.377-.457" transform="translate(-1066.633 -612.851)" style="fill:#edceb7"/><path d="M1103.356,634.414c.3-.985-.516-.67-.858-.1-.23.572-.564,2.285.918,2.351.149.006.3-.25.455-.4-.32-.275-1.558,1.563-.515-1.851" transform="translate(-1066.633 -612.851)" style="fill:#edceb7"/><path d="M1100.561,621.109c.51.187,1.051-.426,1.3-.3,1.314.637,1.2,2.18,2.857.852.019-.016.373.261.352.39-.075.467-.555.864-.368,1.373.131.36.491.432.86.553,1.136.377-.285,1.526,1.34,2.334.185.092.2.861-.01,1.2-.485.772-1.43.489-2.221.506a2.172,2.172,0,0,1,1.834.916c-.154-.305-.305-.611-.459-.916q.917-.461,1.834-.916c-.307-.156-.75-.248-.846-.488-.211-.53.094-1.268-.152-1.764-.064-.125-.643.065-.775-.094-.745-.873-.364-2.427-1.116-2.961-1.22-.863-3.7-.582-4.293-2.533-.105-.343.7-.777,1.227-.808.6-.036,1.133.416,1.371,1.314a1.2,1.2,0,0,1,.5-1.281c.9-.348.832,1.5,1.772,1.2a.855.855,0,0,0,.406-.809c-.078-.234-.535-.435-.84-.435-.154,0-.357.379-.432.346-.939-.4-2.189-.286-2.734-1.334a2.051,2.051,0,0,1-.043-.9c-.5.033-1.312-.174-1.258.445.053.59.592,1.217.282,1.813-.131.252-.551.338-.858.492l.471,1.8" transform="translate(-1066.633 -612.851)" style="fill:#edceb7"/><path d="M1107.246,616.556c.237.084.33.535.485.84.306-.154.611-.305.916-.459.81,1.982,2.193,4.539,4.586,4.584V620.6a1.267,1.267,0,0,1-1.3-.5c-.418-.725.947-1.149-.074-2.25-.012.791.254,1.912-.506,2.139-.914.277-1.516-1.137-1.328-2.139-.305,0-.776.08-.832-.039-.561-1.195-2.016-1.459-2.375-2.711-.75.824-2.073,1.006-2.293,2.291,1.119.3,1.73-1.2,2.724-.84" transform="translate(-1066.633 -612.851)" style="fill:#edceb7"/><path d="M1101.467,626.64c-.975-.1-.418.555-.459.916.154-.305.305-.613.459-.916" transform="translate(-1066.633 -612.851)" style="fill:#edceb7"/><path d="M1103.83,626.695a1.641,1.641,0,0,0,.385-1.432c-.307.154-.818.316-.81.453.044,1.02-.92,1.756-.565,2.756.635-.445.586-1.242.99-1.777" transform="translate(-1066.633 -612.851)" style="fill:#edceb7"/><path d="M1101.467,629.39c-.129,1.02.678.17.916.457-.307-.154-.611-.3-.916-.457" transform="translate(-1066.633 -612.851)" style="fill:#edceb7"/><path d="M1109.764,628.47c-.08-1.556,1.111-2.418,2.244-3.207a2,2,0,0,1-1.379.863c-.14.014-.3-.353-.453-.353-.307,0-.8.234-.82.418-.082.889-.475,1.8.275,2.8.094.13-.221.548-.373.853-.305-.154-.611-.3-.916-.457-.309.609-.611,1.221-.916,1.834,1.391-.2,1.584-1.828,2.75-2.293-.156-.152-.4-.3-.412-.461" transform="translate(-1066.633 -612.851)" style="fill:#edceb7"/><path d="M1112.707,626.355c.778-.08.766.58.768,1,0,.449-.277.613.721,1.576.2.19.234.846.439,1.3.17-.141.332-.275.5-.414-.291-.182-.7-.313-.805-.568-.148-.391.2-1.02-.017-1.274-.352-.424-1.11-.652-1.1-1.572,0-.141.4-.321.379-.387a3.607,3.607,0,0,1-.213-1.892c-.943.527-.619,1.437-.678,2.234" transform="translate(-1066.633 -612.851)" style="fill:#edceb7"/><path d="M1117.184,628.076c-.766-.956-1.756.052-2.309-1.166.8.285.324-.213,1.8-.477-.037.342-.178.859-.057.93,1.485.853.715,2.742,1.858,3.9l-.633.137a5.449,5.449,0,0,0-.567-1.873c-1.05-.692.561-.631-.1-1.453" transform="translate(-1066.633 -612.851)" style="fill:#edceb7"/><path d="M1113.932,622.626c-1.111.9-1.08-.242-1.924-.113l.459.92c.783-1.014,1.576.373,2.184-.131.484-.4-.578-.791-.719-.676" transform="translate(-1066.633 -612.851)" style="fill:#edceb7"/><path d="M1114.836,620.171c-.008-.168-.635-.244-.754-.494-.634-1.318-.2-1.683.451-2.709a.637.637,0,0,0-.861.467c-.125.77.361.709-.439,1.49-.237.229.812.821,1.007,1.334.379.985,1.194,1.278,1.708,2.145.175.3.779-.1.728-.389-.176-1.029-1.725.346-1.84-1.844" transform="translate(-1066.633 -612.851)" style="fill:#edceb7"/><path d="M1115.09,642.6c-.25.176.188.564.545.725.4-.918,1.959-.26,1.979-1.309.009-.387-.575-.723-.581-1.272-.908.618-1.013,1.208-1.943,1.856" transform="translate(-1066.633 -612.851)" style="fill:#edceb7"/><path d="M1118.885,622.744c.457-1-.748-.635-.922-1.12-.656,1.17,1.143.309.922,1.12" transform="translate(-1066.633 -612.851)" style="fill:#edceb7"/><path d="M1120.008,622.265c.31-.15.615-.3.924-.449.15.31.459.68.363.883-.617,1.318.19,2.677.586,3.9a.971.971,0,0,1,1.326.494c.565,1.1,1.742,2.8,1.864,4.088-.338-.062-.862-.068-.905-.224-.562-1.954-2.176-4.971-4.365-5.46-.074-.019-.131-.38-.068-.566.168-.519.9-.525,1.072-.871.33-.652-.373-1.24-.8-1.793" transform="translate(-1066.633 -612.851)" style="fill:#edceb7"/><path d="M1118.955,628.015c.076-.3-.185-.682.149-1,.541,1.322.562,2.832,2.008,3.83-.581.41-.973-.076-1.42-.3.7-1.074-1.02-1.418-.737-2.527" transform="translate(-1066.633 -612.851)" style="fill:#edceb7"/><path d="M1121.67,618.828c-.361-.705.893-1.77,1.3-1.668a1.235,1.235,0,0,1,.953,1.689c1.879-.1,4.154-2,2.637-3.559-.323-.328-1.133.1-1.721.348a1.679,1.679,0,0,1,1.293,2.252,1.328,1.328,0,0,1-1.293.516c-1.236-.092-.687-1.225-1.393-1.83a1.408,1.408,0,0,0-.894-.42c-.535.043-.947.543-1.42.775-.187.094-.674-.154-.82-.41a.93.93,0,0,1,.4-1.34c-.768-.156-.894.553-.816.893.191.841,1.728.728,1.689,1.855-.019.619-.432,1.137-1.33,1.377,2.01-.428,1.533,1.8,2.971,2.289.91.311.478-.5.39-.838-.228-.884-1.539-1.129-1.951-1.929" transform="translate(-1066.633 -612.851)" style="fill:#edceb7"/><path d="M1124.7,624.474a4.293,4.293,0,0,1-.92-.434c.736.52.031,1.291,1.3,1.967.307.162.184.922-.386,1.244.152.155.3.3.457.457a8.218,8.218,0,0,1,.459-3.207,3.743,3.743,0,0,1-.912-.027" transform="translate(-1066.633 -612.851)" style="fill:#edceb7"/><path d="M1128,626.488a2.389,2.389,0,0,0-.406-.916c-.156.154-.428.363-.4.426a3.6,3.6,0,0,1,.4,1.865,4.761,4.761,0,0,0,.406-1.375" transform="translate(-1066.633 -612.851)" style="fill:#edceb7"/><path d="M1127.36,629.974c-.778-.195-.844.512-.84.9,0,.325.5.7.789.4.308-.307.006-1.038,1.431-.864-.462-.154-.9-.324-1.38-.445" transform="translate(-1066.633 -612.851)" style="fill:#edceb7"/><path d="M1129.8,629.691c-.432-.487-.635-1.8-1.217-1.219s.682.834,1.217,1.219" transform="translate(-1066.633 -612.851)" style="fill:#edceb7"/><path d="M1129.783,617.5c-.138-.575-.306-1.692-1.238-1.311-.107.045-.035.523-.035.83.779-.043,1.666.193,1.729,1.379.005.139-.676.254-.721.473-.09.42-.658.9.826,1.355-.641-.836-.344-1.809-.561-2.726" transform="translate(-1066.633 -612.851)" style="fill:#edceb7"/><g style="clip-path:url(#a)"><path d="M1101.237,641.765c-.061-1.5-.1-1.006-1.6-1.488.305.152,1.215.576,1.285.806.147.475-.053.7.194,1.12-.114.461-.905.461-.487,1.091.619.934.131,2.289,1.3,2.772.263.107.146-.289.453-.289,0-1.26-1.09-2.66-1.146-4.012" transform="translate(-1066.633 -612.851)" style="fill:#edceb7"/><path d="M1134.467,626.64c-.971-.1-.416.555-.457.916.154-.305.305-.613.457-.916" transform="translate(-1066.633 -612.851)" style="fill:#edceb7"/><path d="M1109.321,613.148c1.009.754,1.382,3,2.535,3.484-.93-.7-1.022-2.988-1.762-3.781l-.773.3" transform="translate(-1066.633 -612.851)" style="fill:#edceb7"/><path d="M1132.176,614.15c1.287-.369,1.135,1.3,2.291,1.375v-.918c-.541.094-.932-.227-1.381-.449l-.91-.008" transform="translate(-1066.633 -612.851)" style="fill:#edceb7"/></g><path d="M1130.674,626.619c.191,2.38-.334,3.671,2.188,2.755.572-.8-1.11-.126-1.294-.5-.091-.185,1.026-.642.95-.875s-1.287-.236-1.436-.49c-.261-.459.157-.916.405-1.344-.307.157-.821.323-.813.454" transform="translate(-1066.633 -612.851)" style="fill:#edceb7"/><path d="M1129.656,623.888c-.791.115-.818-.517-.863-.937-.013-.139.371-.354.34-.42-.443-.952-1.465-.334-2.228-.491.3,0,.74-.1.841.049.58.846,1.731,2.184.532,3.16.587-.753,1.927-.248,2.29-1.375a6.456,6.456,0,0,0-.912.014" transform="translate(-1066.633 -612.851)" style="fill:#edceb7"/><path d="M1127.471,619.6a10.811,10.811,0,0,0-2.981-.117,2.106,2.106,0,0,0,.8.459c.309,0,.317-.457.549-.381s.318.73.486.742c.971.051,1.819.475,2.748.557-.156-.307-.24-.733-.49-.856a2.529,2.529,0,0,0-1.115-.4" transform="translate(-1066.633 -612.851)" style="fill:#edceb7"/><path d="M1131.719,621.828c-.129-.278-.588.086-.811.406.832.555-.087,1.976.938,2.18.379.076.814-.438,1.355-.344-.447-1-1.005-1.213-1.482-2.242" transform="translate(-1066.633 -612.851)" style="fill:#edceb7"/><path d="M1114.151,633.6c-.791.117-.819-.516-.864-.936-.013-.138.371-.355.34-.424-.443-.947-1.467-.331-2.228-.486.3,0,.738-.1.841.049.581.842,1.733,2.184.534,3.158.586-.754,1.927-.25,2.291-1.375a6.475,6.475,0,0,0-.914.014" transform="translate(-1066.633 -612.851)" style="fill:#edceb7"/><path d="M1111.092,628.7c.316.9,1.115.826,1.834.916a2.86,2.86,0,0,0-1.834-.916" transform="translate(-1066.633 -612.851)" style="fill:#edceb7"/><path d="M1102.471,631.173c-.076-.035-.278.241-.432.395.489.262.8,1.289,1.27.81.451-.453-.354-1.383-.838-1.205" transform="translate(-1066.633 -612.851)" style="fill:#edceb7"/><path d="M1102.383,623.66c.293.648.877.423,1.375.461-.32-.575-.832-.561-1.375-.461" transform="translate(-1066.633 -612.851)" style="fill:#edceb7"/><path d="M1117.721,623.9c-.283-.285-.266-.375-.451-.44-.514-.183-.938.182-1.365.428,1.57-.328,2.2.945,1.832,2.293.308-.154.816-.305.816-.457a4.027,4.027,0,0,0-.832-1.824" transform="translate(-1066.633 -612.851)" style="fill:#edceb7"/><path d="M1125.6,643.656c-.283-.281-.266-.371-.453-.438-.514-.183-.938.18-1.366.43,1.573-.33,2.2.941,1.834,2.291.307-.156.815-.307.815-.459a4.075,4.075,0,0,0-.83-1.824" transform="translate(-1066.633 -612.851)" style="fill:#edceb7"/><g style="clip-path:url(#a)"><path d="M1110.633,623.2a2.019,2.019,0,0,1-.457,1.377.632.632,0,0,0,.854-.467,2.173,2.173,0,0,0-.4-.91" transform="translate(-1066.633 -612.851)" style="fill:#edceb7"/><path d="M1108,613.691a2.032,2.032,0,0,1-.459,1.375.628.628,0,0,0,.854-.465,2.181,2.181,0,0,0-.4-.91" transform="translate(-1066.633 -612.851)" style="fill:#edceb7"/></g><path d="M1108,646.693a2.029,2.029,0,0,1-.459,1.375.627.627,0,0,0,.854-.465,2.17,2.17,0,0,0-.4-.91" transform="translate(-1066.633 -612.851)" style="fill:#edceb7"/><g style="clip-path:url(#a)"><path d="M1100.09,624.693c.316.894,1.117.824,1.834.916a2.841,2.841,0,0,0-1.834-.916" transform="translate(-1066.633 -612.851)" style="fill:#edceb7"/><path d="M1133.094,624.693c.314.894,1.115.824,1.832.916a2.841,2.841,0,0,0-1.832-.916" transform="translate(-1066.633 -612.851)" style="fill:#edceb7"/><path d="M1102.383,646.808c-1.094.145-.141.971-.459,1.375,1.34-.064-.344-1.133.459-1.375" transform="translate(-1066.633 -612.851)" style="fill:#edceb7"/><path d="M1102.383,613.806c-1.094.145-.141.973-.459,1.375,1.34-.062-.344-1.133.459-1.375" transform="translate(-1066.633 -612.851)" style="fill:#edceb7"/><path d="M1134.377,633.873c-.084-.53-1.088-.67-1.119-.948-.133-1.135-.553-1.365-1.082-2.275-.154.154-.408.305-.408.457,0,.613.9.959,1.082,1.465.539,1.5.433,3.806.777,4.381.1-.051.832.763,1.071.994l-.321-4.074" transform="translate(-1066.633 -612.851)" style="fill:#edceb7"/><path d="M1104.867,613.908c.293.457.563.863.725,1.158a1.123,1.123,0,0,0,.152-1.031l-.877-.127" transform="translate(-1066.633 -612.851)" style="fill:#edceb7"/><path d="M1134.239,641.765c-.063-1.5-.1-1.006-1.6-1.488.305.152,1.215.576,1.285.806.147.475-.053.7.195,1.12-.115.461-.906.461-.488,1.091.494.746.281,1.764.778,2.387l-.166-3.916" transform="translate(-1066.633 -612.851)" style="fill:#edceb7"/><path d="M1109.321,646.15c1.009.756,1.382,3,2.535,3.486-.93-.705-1.022-2.988-1.762-3.785-1.416-1.525-3.406-2.334-4.453-4.225-.381-.687.426-1.658-.508-2.267-.156,1.486-.141,3.074,1.012,4.006,1.2.965,1.961,1.875,3.176,2.785" transform="translate(-1066.633 -612.851)" style="fill:#edceb7"/><path d="M1118.321,612.972c-.1.3-.262.465-.264.76q-1.008-.205-2.008-.416c-.547.623.682.851,1.519,1.256a13.665,13.665,0,0,0,1.655.867c-.115-.668-.707-1.664-.9-2.467" transform="translate(-1066.633 -612.851)" style="fill:#edceb7"/><path d="M1114.024,613.732c.584,1.254,1.043,1.916,1.24,1.459l-.457-1.6-.783.145" transform="translate(-1066.633 -612.851)" style="fill:#edceb7"/><path d="M1121.783,646.73c-.429-.488-.634-1.8-1.218-1.221s.683.832,1.218,1.221" transform="translate(-1066.633 -612.851)" style="fill:#edceb7"/><path d="M1123.317,613.423c-.268-.3-.721.049-.809.412-.141.6-.734,1.594-.047,1.825a2.309,2.309,0,0,1,1.832-.459c-1.578.025-.539-1.289-.976-1.778" transform="translate(-1066.633 -612.851)" style="fill:#edceb7"/></g><path d="M1123.317,646.425c-.268-.3-.721.049-.809.414-.141.6-.734,1.592-.047,1.823a2.309,2.309,0,0,1,1.832-.459c-1.578.025-.539-1.289-.976-1.778" transform="translate(-1066.633 -612.851)" style="fill:#edceb7"/><g style="clip-path:url(#a)"><path d="M1127.879,646c.1-.184.459.058.631.273-.65.371.068,1.326-.732,1.463-.3.051-.633-.295-1.055-.233.348-.673.785-.814,1.156-1.5" transform="translate(-1066.633 -612.851)" style="fill:#edceb7"/><path d="M1127.879,612.995c.1-.185.459.059.631.276-.65.369.068,1.326-.732,1.463-.3.051-.633-.295-1.055-.235.348-.671.785-.812,1.156-1.5" transform="translate(-1066.633 -612.851)" style="fill:#edceb7"/></g><path d="M1113.69,639.55c.314.9,1.117.825,1.834.916a2.867,2.867,0,0,0-1.834-.916" transform="translate(-1066.633 -612.851)" style="fill:#edceb7"/><g style="clip-path:url(#a)"><path d="M1132.176,637.869c.293.648.877.425,1.375.461-.32-.571-.832-.559-1.375-.461" transform="translate(-1066.633 -612.851)" style="fill:#edceb7"/><path d="M1134.926,616.556c-.5.033-1.314-.174-1.258.445.053.59.594,1.217.281,1.813-.13.252-.55.338-.855.492-.5-1.391-2.029-2.049-2.322-3.66-.086-.471-.315-1.289-.783-.82s.669.586.685.82a6.61,6.61,0,0,0,2.309,4.224c.23.237-.032,1.008.58,1.239.51.187,1.051-.426,1.3-.3l-.036-.2a2.249,2.249,0,0,1-1.125-1.346c-.105-.343.7-.777,1.225-.808l0-1.9" transform="translate(-1066.633 -612.851)" style="fill:#edceb7"/></g><path d="M1117.356,643.525a2.024,2.024,0,0,1-.457,1.373.629.629,0,0,0,.853-.467,2.139,2.139,0,0,0-.4-.906" transform="translate(-1066.633 -612.851)" style="fill:#edceb7"/><path d="M1115.813,633.495c1.029-.021.072-.695.32-.972-.107.326-.211.648-.32.972" transform="translate(-1066.633 -612.851)" style="fill:#edceb7"/><path d="M1131.719,634.2a2.025,2.025,0,0,1-.459,1.375.629.629,0,0,0,.854-.465,2.172,2.172,0,0,0-.395-.91" transform="translate(-1066.633 -612.851)" style="fill:#edceb7"/><path d="M1127.746,642.912a2.02,2.02,0,0,0,.649,1.294.628.628,0,0,1-.912-.337,2.2,2.2,0,0,1,.263-.957" transform="translate(-1066.633 -612.851)" style="fill:#edceb7"/><path d="M1106.664,645.712c.461-1-.746-.636-.92-1.119-.658,1.168,1.143.309.92,1.119" transform="translate(-1066.633 -612.851)" style="fill:#edceb7"/><path d="M1122.7,641.994c-.974-.1-.42.552-.459.918.153-.307.305-.612.459-.918" transform="translate(-1066.633 -612.851)" style="fill:#edceb7"/><path d="M1116.912,616.724c.772.209.547.8.42,1.2-.039.133-.48.178-.478.252.033,1.049,1.217.885,1.855,1.332-.279-.121-.719-.2-.754-.381-.2-1-.728-2.687.762-3.111-.838.463-1.871-.533-2.65.357a6.047,6.047,0,0,0,.845.346" transform="translate(-1066.633 -612.851)" style="fill:#edceb7"/><path d="M1107.883,632.523c-.973-.106-.418.553-.457.916.154-.307.3-.613.457-.916" transform="translate(-1066.633 -612.851)" style="fill:#edceb7"/><path d="M1109.258,635.882c.293.651.877.426,1.375.459-.32-.57-.832-.554-1.375-.459" transform="translate(-1066.633 -612.851)" style="fill:#edceb7"/><path d="M1122.4,628.855c-.973-.1-.418.555-.457.918.152-.307.3-.613.457-.918" transform="translate(-1066.633 -612.851)" style="fill:#edceb7"/><path d="M1119.637,619.992c.074.363-.168.638-.367.925.357.082.656-.082.683-.312,0-.227-.195-.406-.316-.613" transform="translate(-1066.633 -612.851)" style="fill:#edceb7"/><path d="M1116.326,619.837c-.277-2.633-.345,0-.5,0,.438.176,1.071.153.916.918a3.015,3.015,0,0,1-.418-.92" transform="translate(-1066.633 -612.851)" style="fill:#edceb7"/><path d="M1106.865,623.507c1.534.465.163.84,1.932,1.192.738-.389.709-1.385.582-2.231-.029-.2-.4-.771-.459-1.072-.09.33-.172.656-.262.99s-.043,1.123-.142,1.166a2.4,2.4,0,0,1-1.651-.045" transform="translate(-1066.633 -612.851)" style="fill:#edceb7"/><path d="M1107.33,619.546c.211-.773.86-.484,1.2-.287.281.162.361.778-.036.887-.421.115-.906-.508-1.453.822.09-.478.158-.943.289-1.422" transform="translate(-1066.633 -612.851)" style="fill:#edceb7"/></svg>