<svg xmlns="http://www.w3.org/2000/svg" viewBox="0 0 33.555 33.5"><title>mangrove</title><rect x="0.055" width="33.5" height="33.5" style="fill:none"/><path d="M973.273,636.17c-.625-1.062.688-2.062,1.313-1.375s-.375,1.188-1.312,1.375-1.562,2.438-1.687,4.063.375,1.75,1,3.375c0,0,.667.875.083,1.125s-1.167,0-1.167-.667.417-.75,1.083-.458" transform="translate(-967.781 -629.483)" fill="none" stroke="param(outline) #231f20" stroke-width="param(outline-width) 0.33"/><path d="M971.836,638.67c-.187-.5-.125-1.937-.937-1.937s-2-1.437-.875-1.812,1.438,1.188.875,1.813" transform="translate(-967.781 -629.483)" fill="none" stroke="param(outline) #231f20" stroke-width="param(outline-width) 0.33"/><path d="M971.586,640.233c.375-.25.563-.75,1.188-.625s2.563.375,2-.687-1.5-.875-2,.688" transform="translate(-967.781 -629.483)" fill="none" stroke="param(outline) #231f20" stroke-width="param(outline-width) 0.33"/><path d="M971.523,640.733c-.875-.937-.505-1.913-1.312-1.375-.562.375-1.211,1.25-1.586.125s1.688-1.437,1.875-.312" transform="translate(-967.781 -629.483)" fill="none" stroke="param(outline) #231f20" stroke-width="param(outline-width) 0.33"/><path d="M972.148,642.483c.375-.875.688-1.375,1.5-.75s1.438.125,1.188-.5-1.312-1-1.187.5" transform="translate(-967.781 -629.483)" fill="none" stroke="param(outline) #231f20" stroke-width="param(outline-width) 0.33"/><path d="M971.711,641.67c-.687-.5-.875-.625-1.25,0s-2,2.063-2.25.875.5-1.375,1.75-.25" transform="translate(-967.781 -629.483)" fill="none" stroke="param(outline) #231f20" stroke-width="param(outline-width) 0.33"/><path d="M970.576,660.982c.818.922-.277,2.156-1.023,1.6s.139-1.237,1.023-1.6,1.367-1.8,1.176-3.416-.706-1.644-1.632-3.118c0,0-.823-.73-.3-1.088s1.145-.225,1.274.429-.264.816-.975.659" transform="translate(-967.781 -629.483)" fill="none" stroke="param(outline) #231f20" stroke-width="param(outline-width) 0.33"/><path d="M971.772,658.963c.28.455,1.183,2.066,1.981,1.91s2.239,1.024,1.208,1.609-1.64-.888-1.208-1.609" transform="translate(-967.781 -629.483)" fill="none" stroke="param(outline) #231f20" stroke-width="param(outline-width) 0.33"/><path d="M971.752,657.566c-.32.318-.407.845-1.044.843s-2.587.126-1.83,1.061,1.641.569,1.83-1.061" transform="translate(-967.781 -629.483)" fill="none" stroke="param(outline) #231f20" stroke-width="param(outline-width) 0.33"/><path d="M971.717,657.064c1.04.751,1.594,2.071,2.283,1.388.48-.476.947-1.46,1.532-.429s-1.379,1.736-1.78.668" transform="translate(-967.781 -629.483)" fill="none" stroke="param(outline) #231f20" stroke-width="param(outline-width) 0.33"/><path d="M970.766,655.467c-.2.931-.409,1.481-1.327,1.025s-1.435.154-1.069.719,1.481.729,1.069-.719" transform="translate(-967.781 -629.483)" fill="none" stroke="param(outline) #231f20" stroke-width="param(outline-width) 0.33"/><path d="M971.352,656.18c.771.357.979.444,1.227-.241s1.565-2.409,2.039-1.293-.226,1.446-1.669.583" transform="translate(-967.781 -629.483)" fill="none" stroke="param(outline) #231f20" stroke-width="param(outline-width) 0.33"/><path d="M982.461,631.545a.92.92,0,0,1,1.063-1.5c.688.5.375,1.125-1.062,1.5s-1.125,2.375-.062,3.125,1.188,2.25,1.25,4a12.382,12.382,0,0,0,.271,1.23c.167.583-.417,1-1.25.833a.97.97,0,0,1-.333-1.667,2,2,0,0,1,1.313-.4" transform="translate(-967.781 -629.483)" fill="none" stroke="param(outline) #231f20" stroke-width="param(outline-width) 0.33"/><path d="M983.4,636.608c-.937-.187-1.625-.375-2.062.125s-1.937,1.063-.562,1.563,1.375-1.25.563-1.562" transform="translate(-967.781 -629.483)" fill="none" stroke="param(outline) #231f20" stroke-width="param(outline-width) 0.33"/><path d="M983.086,635.42c.25-1.125-.25-1.312.438-1.5s1.188-1,1.438,0-.5,1.813-1.062,0" transform="translate(-967.781 -629.483)" fill="none" stroke="param(outline) #231f20" stroke-width="param(outline-width) 0.33"/><path d="M981.836,634.233c-.812,0-2.352-.258-2.687.75-.125.375-.562.688.063,1.125s1.875-.5.688-1.687" transform="translate(-967.781 -629.483)" fill="none" stroke="param(outline) #231f20" stroke-width="param(outline-width) 0.33"/><path d="M981.523,632.983c-1-.125-1.854-.25-2.021-.5-.419-.628-2.021-1.4-.833-2.083s1.583,1,.167,1.416" transform="translate(-967.781 -629.483)" fill="none" stroke="param(outline) #231f20" stroke-width="param(outline-width) 0.33"/><path d="M978.2,639.789c.929-.893,2.832.919,1.36,1.62s-.521-1.006-1.36-1.62a3.382,3.382,0,0,1-1.533-2.524s-1.114-1.849.116-1.786,1.141,1.57-.116,1.786" transform="translate(-967.781 -629.483)" fill="none" stroke="param(outline) #231f20" stroke-width="param(outline-width) 0.33"/><path d="M993.9,633.17c-.75,1.125.375,2.125.938,1.688.74-.575-.25-1.437-.937-1.687-1.266-.46-.562-1.812-.687-2.75a.648.648,0,0,0-.75-.437.821.821,0,0,0-.5,1.438c.625.625,1.125.75,1.188.188" transform="translate(-967.781 -629.483)" fill="none" stroke="param(outline) #231f20" stroke-width="param(outline-width) 0.33"/><path d="M969.148,630.233a3.208,3.208,0,0,1,2.521,1.48c.75,1.125,2.125,2.25,3.25,1.688s2.438-1.125,1.438-2.125-1.312.563-.937,1.688" transform="translate(-967.781 -629.483)" fill="none" stroke="param(outline) #231f20" stroke-width="param(outline-width) 0.33"/><path d="M971.794,631.962c.063.688-1.535.658-2.146,1.208s-1.125.75-1.479-.02c-.532-1.158.917-1.6,1.479.02" transform="translate(-967.781 -629.483)" fill="none" stroke="param(outline) #231f20" stroke-width="param(outline-width) 0.33"/><path d="M972.294,632.462c.75,0,.688-.187,1.125-.937s1.438-1.187.25-1.687-1.562.75-.437,1.563" transform="translate(-967.781 -629.483)" fill="none" stroke="param(outline) #231f20" stroke-width="param(outline-width) 0.33"/><path d="M986.773,632.983c-.062.313-.625,1.063-1.25.125s-.25-1.812.375-1.812.813,1.313.875,1.688.688.625,1.438.813,1.313.125,1.438,1a1.615,1.615,0,0,0,1.375,1.563c.813.125.938,1.125,1.313,1.875,0,0,.063-.062.438-.562s.688-.125,1.188-.062.5-1.125.5-1.125-1.687-1.687-1.187.938" transform="translate(-967.781 -629.483)" fill="none" stroke="param(outline) #231f20" stroke-width="param(outline-width) 0.33"/><path d="M991.461,636.608c-.062-.812-.187-.937.125-1.25s1.125-1.375.375-1.75-1.375,1.063-.375,1.75" transform="translate(-967.781 -629.483)" fill="none" stroke="param(outline) #231f20" stroke-width="param(outline-width) 0.33"/><path d="M989.4,634.17c0-.812-1.187-2.125-.75-2.312s.375-1.625-.437-1.75-.687,1.563.25,1.938" transform="translate(-967.781 -629.483)" fill="none" stroke="param(outline) #231f20" stroke-width="param(outline-width) 0.33"/><path d="M990.336,636.17c-.875-.125-1.062-.375-1.437.125s-1.062.813-1.25.125.625-1.687,1.438-.375" transform="translate(-967.781 -629.483)" fill="none" stroke="param(outline) #231f20" stroke-width="param(outline-width) 0.33"/><path d="M992.148,637.858c-.625-.062-.812-.187-1.125.438s-.687,1.5-1.25.625,0-1.875,1.375-.812" transform="translate(-967.781 -629.483)" fill="none" stroke="param(outline) #231f20" stroke-width="param(outline-width) 0.33"/><path d="M991,654.449c.2.246,1.05.644,1.162-.477s-.63-1.718-1.182-1.425-.1,1.541.02,1.9a2.384,2.384,0,0,1-.388,2.08c-.574.518-1.1.726-.8,1.558a1.616,1.616,0,0,1-.48,2.025c-.659.491-.3,1.433-.279,2.271,0,0-.085-.026-.65-.291s-.665.212-1.078.5-.97-.759-.97-.759.7-2.282,1.489.271" transform="translate(-967.781 -629.483)" fill="none" stroke="param(outline) #231f20" stroke-width="param(outline-width) 0.33"/><path d="M989.066,660.538c-.326-.747-.275-.916-.7-1.045s-1.639-.686-1.153-1.369,1.713.293,1.153,1.369" transform="translate(-967.781 -629.483)" fill="none" stroke="param(outline) #231f20" stroke-width="param(outline-width) 0.33"/><path d="M989.742,657.418c-.381-.718-.495-1.851-.969-1.811s-1.094-1.259-.435-1.75,1.341,1.057.689,1.828" transform="translate(-967.781 -629.483)" fill="none" stroke="param(outline) #231f20" stroke-width="param(outline-width) 0.33"/><path d="M989.853,659.623c.714-.52.762-.829,1.328-.564s1.319.219,1.162-.477-1.344-1.2-1.445.344" transform="translate(-967.781 -629.483)" fill="none" stroke="param(outline) #231f20" stroke-width="param(outline-width) 0.33"/><path d="M989.046,661.965c.522-.349.629-.548,1.2-.143s1.311,1,1.4-.035-.88-1.655-1.6-.071" transform="translate(-967.781 -629.483)" fill="none" stroke="param(outline) #231f20" stroke-width="param(outline-width) 0.33"/><path d="M996.961,630.045c-.75.5.063,1.875,1.375,2.063s1.438.313,1.563,1.063-1.062,2.75-.312,3.375,1.563-.125,1.313-.937a1.44,1.44,0,0,0-1.5-.875" transform="translate(-967.781 -629.483)" fill="none" stroke="param(outline) #231f20" stroke-width="param(outline-width) 0.33"/><path d="M997.086,631.545c-.375,1-1,2.188-1.812,1.375s.375-1.625.75-1.25a1.864,1.864,0,0,1,.438,1" transform="translate(-967.781 -629.483)" fill="none" stroke="param(outline) #231f20" stroke-width="param(outline-width) 0.33"/><path d="M998.336,632.108c.5-.25.625-.625.813-1.375s.625-1.25,1.25-.625a.733.733,0,0,1-.437,1.313,1.029,1.029,0,0,1-.875-.312" transform="translate(-967.781 -629.483)" fill="none" stroke="param(outline) #231f20" stroke-width="param(outline-width) 0.33"/><path d="M997.9,632.045a5.459,5.459,0,0,1,.313,1.375c0,.438-.187,1.25-.875,1.125s-.437-2.062.813-1.625" transform="translate(-967.781 -629.483)" fill="none" stroke="param(outline) #231f20" stroke-width="param(outline-width) 0.33"/><path d="M984.664,648.577c-.119,1.143-.415,1.693.652,2.481s1.118.957.872,1.676-1.719,1.522-1.355,2.428a.824.824,0,0,0,1.6-.2A.985.985,0,0,0,985.4,653.8" transform="translate(-967.781 -629.483)" fill="none" stroke="param(outline) #231f20" stroke-width="param(outline-width) 0.33"/><path d="M984.482,649.97c-.8.7-1.918,1.452-2.248.352s1.1-1.253,1.253-.745a1.865,1.865,0,0,1-.089,1.088" transform="translate(-967.781 -629.483)" fill="none" stroke="param(outline) #231f20" stroke-width="param(outline-width) 0.33"/><path d="M985.316,651.058c.559.017.847-.254,1.367-.825s1.143-.8,1.4.042a.732.732,0,0,1-1.007.948,1.031,1.031,0,0,1-.623-.69" transform="translate(-967.781 -629.483)" fill="none" stroke="param(outline) #231f20" stroke-width="param(outline-width) 0.33"/><path d="M984.961,650.8a10.7,10.7,0,0,1-.522,1.9c-.208.386-.758,1.012-1.3.576s.593-2.024,1.486-1.046" transform="translate(-967.781 -629.483)" fill="none" stroke="param(outline) #231f20" stroke-width="param(outline-width) 0.33"/><path d="M978.258,650.429c-.285,1.113-.659,1.614.281,2.55s.965,1.11.617,1.786-2.476.672-2.248,1.622,1.021.644,1.613.033a.837.837,0,0,0-.148-1.025" transform="translate(-967.781 -629.483)" fill="none" stroke="param(outline) #231f20" stroke-width="param(outline-width) 0.33"/><path d="M977.873,651.78c-.9.576-2.109,1.154-2.275.017s1.273-1.078,1.349-.554a1.864,1.864,0,0,1-.247,1.063" transform="translate(-967.781 -629.483)" fill="none" stroke="param(outline) #231f20" stroke-width="param(outline-width) 0.33"/><path d="M978.539,652.979c.55.1,1.26.618,1.859.129s1.249-.628,1.375.247a.733.733,0,0,1-1.136.79,1.027,1.027,0,0,1-.514-.773" transform="translate(-967.781 -629.483)" fill="none" stroke="param(outline) #231f20" stroke-width="param(outline-width) 0.33"/><path d="M978.225,652.666a5.435,5.435,0,0,1-.572,1.289c-.262.351-.9.89-1.374.379s.883-1.915,1.623-.816" transform="translate(-967.781 -629.483)" fill="none" stroke="param(outline) #231f20" stroke-width="param(outline-width) 0.33"/><path d="M986.961,639.545c-.625-.125-1.187-.312-.875-1.25s.5-.687.938.25-.125.813.125,1.563a5.012,5.012,0,0,1,.375,2.25,5.485,5.485,0,0,0,.125,2.625c.313.938.375.438.25,1.125s1.188,1.688-.187,1.875-.875-1.75.188-1.875" transform="translate(-967.781 -629.483)" fill="none" stroke="param(outline) #231f20" stroke-width="param(outline-width) 0.33"/><path d="M987.4,643.608c.625,0,1.125-.312,1.563-.125s2.25-.562,1.563-1.375-2.062.5-1.562,1.375" transform="translate(-967.781 -629.483)" fill="none" stroke="param(outline) #231f20" stroke-width="param(outline-width) 0.33"/><path d="M987.461,642.8c-.312-.312-.562-.687-1-.562s-1.375-.125-1.25-1,.938-.625,1.375-.125.188.813-.125,1.125" transform="translate(-967.781 -629.483)" fill="none" stroke="param(outline) #231f20" stroke-width="param(outline-width) 0.33"/><path d="M987.523,644.358c-.75,0-1.312-.062-1.437.25s.313,1.813-.75,1.563-.187-1.875.75-1.562" transform="translate(-967.781 -629.483)" fill="none" stroke="param(outline) #231f20" stroke-width="param(outline-width) 0.33"/><path d="M999.023,639.42c-.187.5.938,1.313,1.188,1.25.669-.167.625-.812.5-1.187-.257-.77-.875-.25-1.687-.062s-1.187-2.187-1.437-2.812c0,0-1.375-1.187-1.625-.125s.125,1.688.813,1.5.813-1.062.813-1.375" transform="translate(-967.781 -629.483)" fill="none" stroke="param(outline) #231f20" stroke-width="param(outline-width) 0.33"/><path d="M993.586,641.67c-1.375-.125-1.5-1.75-.25-1.812s0,1.375.25,1.813a2.049,2.049,0,0,0,1.75,1.125c1.188.188,1.75,1.313,2.5,2.125a1.44,1.44,0,0,0,1.938.375" transform="translate(-967.781 -629.483)" fill="none" stroke="param(outline) #231f20" stroke-width="param(outline-width) 0.33"/><path d="M997.336,644.358c-.062.688-.687,1-.187,1.563s1.375,2.063.313,2.188-1.312-2.062-.312-2.187" transform="translate(-967.781 -629.483)" fill="none" stroke="param(outline) #231f20" stroke-width="param(outline-width) 0.33"/><path d="M994.836,642.733a1.245,1.245,0,0,1-.187,1.688c-.5.438-1.937,1.688-.187,1.75s1.563-1.687.188-1.75" transform="translate(-967.781 -629.483)" fill="none" stroke="param(outline) #231f20" stroke-width="param(outline-width) 0.33"/><path d="M994.4,642.483c.813-.125,2,.125,2-.625s.125-1.875.938-1.812.938,2.25-.937,1.813" transform="translate(-967.781 -629.483)" fill="none" stroke="param(outline) #231f20" stroke-width="param(outline-width) 0.33"/><path d="M994.023,642.233c-.937-.062-.875,0-1.062.625s0,2-1,1.375.063-1.687,1-1.375" transform="translate(-967.781 -629.483)" fill="none" stroke="param(outline) #231f20" stroke-width="param(outline-width) 0.33"/><path d="M997.336,644.17a5.11,5.11,0,0,1,1.688-.312c.563.063,1.25-.625.5-1.187s-1.562.188-1,1.25" transform="translate(-967.781 -629.483)" fill="none" stroke="param(outline) #231f20" stroke-width="param(outline-width) 0.33"/><path d="M978.092,659.939c-.476,1.3-2.078,1-1.815-.228s1.328.356,1.815.228,2.62,1.4,3.108.3,1.72-1.352,2.7-1.866a1.44,1.44,0,0,0,.863-1.774" transform="translate(-967.781 -629.483)" fill="none" stroke="param(outline) #231f20" stroke-width="param(outline-width) 0.33"/><path d="M983.227,658.712c.648.237.942.353.942.353.673-.337,2.394-.244,1.833.667a.987.987,0,0,1-1.833-.667" transform="translate(-967.781 -629.483)" fill="none" stroke="param(outline) #231f20" stroke-width="param(outline-width) 0.33"/><path d="M980.586,660.65c.089-.817.709-1.484-.016-1.679s-1.779-.6-1.509-1.374,2.416-.324,1.509,1.374" transform="translate(-967.781 -629.483)" fill="none" stroke="param(outline) #231f20" stroke-width="param(outline-width) 0.33"/><path d="M979.211,660.233c-.5.063-.43.821-.562.875,0,0,2.3.508,1.438,1.313s-1.427-.184-.882-1.009" transform="translate(-967.781 -629.483)" fill="none" stroke="param(outline) #231f20" stroke-width="param(outline-width) 0.33"/><path d="M983.046,658.663a5.116,5.116,0,0,1,.134-1.711c.206-.527-.281-1.369-1.018-.79s-.223,1.558.949,1.289" transform="translate(-967.781 -629.483)" fill="none" stroke="param(outline) #231f20" stroke-width="param(outline-width) 0.33"/><path d="M998.155,661.06c-.424,1.315,1.022,2.067,1.569.942s-1.265-.54-1.569-.942a2.048,2.048,0,0,1-.349-2.051c.293-1.166-.521-2.124-.974-3.133,0,0-.5-2.561-.914-2.811,0,0-.75-1.25-1.417-1.25s-1.083.25-.833.917.917,1.167,1.25,1a9.9,9.9,0,0,0,1-.667" transform="translate(-967.781 -629.483)" fill="none" stroke="param(outline) #231f20" stroke-width="param(outline-width) 0.33"/><path d="M997.154,656.557c-.657-.213-1.189.24-1.511-.44s-1.358-2.074-1.89-1.145,1.382,2.016,1.89,1.145" transform="translate(-967.781 -629.483)" fill="none" stroke="param(outline) #231f20" stroke-width="param(outline-width) 0.33"/><path d="M997.668,659.493a1.245,1.245,0,0,0-1.625-.489c-.6.288-2.312,1.12-1.684-.514s2.165-.775,1.684.514" transform="translate(-967.781 -629.483)" fill="none" stroke="param(outline) #231f20" stroke-width="param(outline-width) 0.33"/><path d="M997.726,659.994c.434-.7.669-1.889,1.359-1.595s1.773.62,2.035-.151-1.7-1.745-2.035.151" transform="translate(-967.781 -629.483)" fill="none" stroke="param(outline) #231f20" stroke-width="param(outline-width) 0.33"/><path d="M997.809,660.437c-.311.887-.343.8-.992.732s-1.84-.784-1.657.381,1.577.6,1.657-.381" transform="translate(-967.781 -629.483)" fill="none" stroke="param(outline) #231f20" stroke-width="param(outline-width) 0.33"/><path d="M997.326,656.63c.516-.732.787-.888.95-1.43s1.065-.9,1.288.006-.785,1.363-1.542.43" transform="translate(-967.781 -629.483)" fill="none" stroke="param(outline) #231f20" stroke-width="param(outline-width) 0.33"/><path d="M989.273,652.545c.313-.812,2.563-2.187,2.188-3.437s-2.25-3.312-.812-3.5,1.188,1.938.25,2.188" transform="translate(-967.781 -629.483)" fill="none" stroke="param(outline) #231f20" stroke-width="param(outline-width) 0.33"/><path d="M991.461,649.92c.625-.25,2.375-2,3-.562s-1.562,1.5-1.687.938a5.9,5.9,0,0,1-.125-1.125" transform="translate(-967.781 -629.483)" fill="none" stroke="param(outline) #231f20" stroke-width="param(outline-width) 0.33"/><path d="M990.648,650.92c-.187-.75-.625-3.062-1.375-2.687s-.375,1.375.313,1.625.688-.125.688-.125" transform="translate(-967.781 -629.483)" fill="none" stroke="param(outline) #231f20" stroke-width="param(outline-width) 0.33"/><path d="M979.9,651.483a2.969,2.969,0,0,0,1-2.687,5.617,5.617,0,0,1,1.438-3.937c1-.937,2.125-1.5.625-2.312s-1.562.438-1.187.813.625.813,1.25.813" transform="translate(-967.781 -629.483)" fill="none" stroke="param(outline) #231f20" stroke-width="param(outline-width) 0.33"/><path d="M981.273,646.42a2.728,2.728,0,0,1-.312-.937c-.125-.625-.125-1.062-.75-.937-.7.14-1.312.688-.062,1.313.57.285.813-.375.813-.375" transform="translate(-967.781 -629.483)" fill="none" stroke="param(outline) #231f20" stroke-width="param(outline-width) 0.33"/><path d="M981.023,647.233c.688-.312,1.438-1.375,2.188-.875s.563,1.063-.187,1.313-1.125-.562-.937-1.187" transform="translate(-967.781 -629.483)" fill="none" stroke="param(outline) #231f20" stroke-width="param(outline-width) 0.33"/><path d="M977.961,644.045c-.375.25-.625.063-1.187-.375s.125-1.375,1.063-1.187.438,1.688-.687,2.813.125,2.625.125,3.438c0,0-.375,1.625-1.562.563s.188-1.375.625-1.125.938.563.938.563" transform="translate(-967.781 -629.483)" fill="none" stroke="param(outline) #231f20" stroke-width="param(outline-width) 0.33"/><path d="M976.648,646.67c-.875-.062-1.312.125-1.562-.437s1.453-2.7-.187-2.812c-.937-.062-.375,1.875.375,1.938" transform="translate(-967.781 -629.483)" fill="none" stroke="param(outline) #231f20" stroke-width="param(outline-width) 0.33"/><path d="M980.461,650.545a12.118,12.118,0,0,0-.5-1.687c-.187-.875-.75-1.437-1.187-1.062-.866.742.188,2.5,1.188,1.063" transform="translate(-967.781 -629.483)" fill="none" stroke="param(outline) #231f20" stroke-width="param(outline-width) 0.33"/><path d="M968.523,644.483c1.813.375,1.875,1.938,1.938,3.125a3.538,3.538,0,0,1-.187,2c-.25.563.063.688.813,1s1.188.25,1.25.75,1.438,1.313,1.75.813-.312-2.25-1.75-.812" transform="translate(-967.781 -629.483)" fill="none" stroke="param(outline) #231f20" stroke-width="param(outline-width) 0.33"/><path d="M970.523,647.858c.688.313,1,.313,1.25.75a.714.714,0,0,0,1.25-.5c0-.812-1.625-1.062-1.25.5" transform="translate(-967.781 -629.483)" fill="none" stroke="param(outline) #231f20" stroke-width="param(outline-width) 0.33"/><path d="M970.336,646.608c-.5-.062-1.125-.25-1.312.375s.5,1.313-.187,1.688-1.687-.875.188-1.687" transform="translate(-967.781 -629.483)" fill="none" stroke="param(outline) #231f20" stroke-width="param(outline-width) 0.33"/><path d="M970.148,650.045c-.25.313-1.875.813-1.187,1.5s1.625.438,1.438-.25a1.479,1.479,0,0,0-.625-1" transform="translate(-967.781 -629.483)" fill="none" stroke="param(outline) #231f20" stroke-width="param(outline-width) 0.33"/><path d="M997.773,653.92c0-1-.25-2.812.625-3.437a5.559,5.559,0,0,0,1.625-1.562c.313-.5,1-1.875.5-2.437s-1.562,1.25-.5,2.438" transform="translate(-967.781 -629.483)" fill="none" stroke="param(outline) #231f20" stroke-width="param(outline-width) 0.33"/><path d="M997.9,651.233c-.187-.687-1.125-2.375-1.687-1.562s.188,2,1.25.75" transform="translate(-967.781 -629.483)" fill="none" stroke="param(outline) #231f20" stroke-width="param(outline-width) 0.33"/><path d="M997.711,652.42c.438-.187.75-1.125,1.75-.937s1.625-.062,1.688.625-.25.813-.937.75a.9.9,0,0,1-.75-1.375" transform="translate(-967.781 -629.483)" fill="none" stroke="param(outline) #231f20" stroke-width="param(outline-width) 0.33"/><path d="M981.2,660.24c.76-.133,1.01-.2,1.573.617s-.312.813-.125,1.25,1.5.938,1.625.438-.625-1.812-1.375-1.312" transform="translate(-967.781 -629.483)" fill="none" stroke="param(outline) #231f20" stroke-width="param(outline-width) 0.33"/></svg>