<svg xmlns="http://www.w3.org/2000/svg" xmlns:xlink="http://www.w3.org/1999/xlink" viewBox="0 0 44 44"><defs><clipPath id="a" transform="translate(-740.189 -705.378)"><rect x="740.189" y="705.378" width="44" height="44" style="fill:none"/></clipPath></defs><title>orchard</title><rect width="44" height="44" style="fill:none"/><g style="clip-path:url(#a)"><path d="M774.189,727.378h0m-4,0h0m-4,0h0m-4,0h0m-4,0h0m-4,0h0m-4,0h0m-4,0h0m-4,0h0m40-4h0m-4,0h0m-4,0h0m-4,0h0m-4,0h0m-4,0h0m-4,0h0m-4,0h0m-4,0h0m-4,0h0m-4,0h0m40-4h0m-4,0h0m-4,0h0m-4,0h0m-4,0h0m-4,0h0m-4,0h0m-4,0h0m-4,0h0m-4,0h0m-4,0h0m40-4h0m-4,0h0m-4,0h0m-4,0h0m-4,0h0m-4,0h0m-4,0h0m-4,0h0m-4,0h0m-4,0h0m-4,0h0m40-4h0m-4,0h0m-4,0h0m-4,0h0m-4,0h0m-4,0h0m-4,0h0m-4,0h0m-4,0h0m-4,0h0m-4,0h0m40-4h0m-4,0h0m-4,0h0m-4,0h0m-4,0h0m-4,0h0m-4,0h0m-4,0h0m-4,0h0m-4,0h0m-4,0h0" transform="translate(-740.189 -705.378)" style="fill:none;stroke:#ecf5e9;stroke-linecap:round;stroke-width:2.5px"/><path d="M782.189,747.378h0m-4,0h0m-4,0h0m-4,0h0m-4,0h0m-4,0h0m-4,0h0m-4,0h0m-4,0h0m-4,0h0m-4,0h0m40-4h0m-4,0h0m-4,0h0m-4,0h0m-4,0h0m-4,0h0m-4,0h0m-4,0h0m-4,0h0m-4,0h0m-4,0h0m40-4h0m-4,0h0m-4,0h0m-4,0h0m-4,0h0m-4,0h0m-4,0h0m-4,0h0m-4,0h0m-4,0h0m-4,0h0m40-4h0m-4,0h0m-4,0h0m-4,0h0m-4,0h0m-4,0h0m-4,0h0m-4,0h0m-4,0h0m-4,0h0m-4,0h0m40-4h0m-4,0h0m-4,0h0m-4,0h0m-4,0h0m-4,0h0m-4,0h0m-4,0h0m-4,0h0m-4,0h0m-4,0h0m40-4h0m-4,0h0" transform="translate(-740.189 -705.378)" style="fill:none;stroke:#ecf5e9;stroke-linecap:round;stroke-width:2.5px"/></g></svg>