<svg xmlns="http://www.w3.org/2000/svg" xmlns:xlink="http://www.w3.org/1999/xlink" viewBox="0 0 68.295 69.811"><defs><clipPath id="a" transform="translate(-751.278 -797.424)"><rect x="752.653" y="799.133" width="65.953" height="65.951" style="fill:none"/></clipPath></defs><title>rough_water</title><rect x="1.375" y="1.709" width="65.953" height="65.951" style="fill:none"/><g style="clip-path:url(#a)"><path d="M756.092,847.322a1.435,1.435,0,0,0-.455-.017,3.015,3.015,0,0,0,.918,1.375c.155-.305.457-.658.381-.891s-.519-.359-.844-.467" transform="translate(-751.278 -797.424)" style="fill:#c9e9ed"/><path d="M766.452,864.178c-.461-.307-.8-2.865-1.262-3.209-.18-.135-.457-.418-.457-.57,0-.309-.168-.27-.166-.577,0-.611-.453-1.41-1.295-1.232-.221.049-.406.607.842,1.313.135.076-.012.558.086.818,1.221,3.228,2.365,5.863,2.711,5.062l-.459-1.605" transform="translate(-751.278 -797.424)" style="fill:#c9e9ed"/></g><path d="M761.372,858.983c-.438.148-1.035.656-.975.806.561,1.422,1.11,2.02,1.682,2.043s-.742-.879-1.039-1.51,1.187-1.509.927-1.888-.283.193-.6.549" transform="translate(-751.278 -797.424)" style="fill:#c9e9ed"/><path d="M759.989,858.324c-.357-1.172-.242-1.289-1.834-1.836.463.143.342-.035.457,1.377.016.18,1.068.305,1.377.459" transform="translate(-751.278 -797.424)" style="fill:#c9e9ed"/><path d="M758.6,852.826c-.125-.322-.275-.806-.457-.824-1.223-.111-1.469-1.047-1.824-1.93.8-.222,1.365-1.017,2.291-.918-.428-.248-.912-.693-1.324-.388-.153.111.013.724-.082.756-1.754.6-1.315,1.916-.356,2.759.1.088.629-.388.8-.293.768.438-.295,2.782.508,2.209.4-.425,1.025-.886,1.73.075.305.416.1,1.146.1,1.759.228.457,1.26.2,1.283-.463.055-1.576-2.117-1.339-2.67-2.742" transform="translate(-751.278 -797.424)" style="fill:#c9e9ed"/><path d="M764.106,854.2c-.139-.175-.3-.416-.451-.416s-.307.256-.459.41c.307.155.8.288.818.465a1.974,1.974,0,0,1-1.277,2.285c1.855.559,2.377-1.486,1.369-2.744" transform="translate(-751.278 -797.424)" style="fill:#c9e9ed"/><path d="M766.053,853.272c.188,2.381-.336,3.675,2.186,2.759.572-.8-1.109-.128-1.293-.5-.094-.187,1.025-.644.949-.875s-1.287-.238-1.435-.492c-.262-.457.156-.916.4-1.343-.307.156-.822.322-.811.451" transform="translate(-751.278 -797.424)" style="fill:#c9e9ed"/><path d="M768.671,852.885c-.079-.033-.278.242-.432.394.488.262.8,1.292,1.269.813.452-.455-.353-1.385-.837-1.207" transform="translate(-751.278 -797.424)" style="fill:#c9e9ed"/><path d="M762.128,848.735c-.268-.3-.721.048-.807.414-.145.6-.736,1.593-.049,1.822a2.3,2.3,0,0,1,1.834-.457c-1.578.021-.541-1.291-.978-1.779" transform="translate(-751.278 -797.424)" style="fill:#c9e9ed"/><path d="M771.6,855.229c1.7.228,1.865,1.7,2.8,2.586.164.154.631-.053.826.1a1.74,1.74,0,0,1,.5,1.783c.782-1.013,1.608.379,2.17-.13,1.027-.934.924-2.444,2.414-3.079-.24-1.164-1.277-1.8-1.834-2.75.5,1.606,1.738,3.321-.457,4.127.153.153.406.305.406.459a1.034,1.034,0,0,1-.437.846,1.363,1.363,0,0,1-1.734-.426,5.751,5.751,0,0,0-1.772-1.943c-.408-.375.02-1.473-.588-2.145-.156.155-.388.506-.449.4-.584-1.086-1.385-.971-1.615-.283l-.229.459" transform="translate(-751.278 -797.424)" style="fill:#c9e9ed"/><g style="clip-path:url(#a)"><path d="M771.253,857.553h0c-.12.1-.768-.25-.776-.418-.049-.992-.234-2-1.474-1.83,1.472,1.2,1.892,3.006,2.693,4.613.271.547-1.625,1.92-.859,2.379l1.375-.574c.4.426.869.709,1.834,0-.657.029-1.426.121-1.77-.494-.566-1.012-.074-1.578-.162-2.707-.016-.178-.656-.256-.746-.493a1.456,1.456,0,0,1-.115-.476" transform="translate(-751.278 -797.424)" style="fill:#c9e9ed"/><path d="M769.968,863.565a2.3,2.3,0,0,0-.266.757c-.67-.136-1.338-.277-2.008-.414-.547.619.682.852,1.519,1.256a13.946,13.946,0,0,0,1.655.865c-.115-.667-.7-1.662-.9-2.464" transform="translate(-751.278 -797.424)" style="fill:#c9e9ed"/></g><path d="M776.032,839.988c.291.649.875.424,1.373.457-.32-.57-.832-.556-1.373-.457" transform="translate(-751.278 -797.424)" style="fill:#c9e9ed"/><g style="clip-path:url(#a)"><path d="M781.725,863.819c-.279-2.631-.345.005-.5.005.436.172,1.071.151.918.916a2.9,2.9,0,0,1-.418-.921" transform="translate(-751.278 -797.424)" style="fill:#c9e9ed"/><path d="M782.448,861.99a.635.635,0,0,0-.467-.859c-.527-.078-1.215-.256-1.228-.523a2.044,2.044,0,0,0-1.514-1.827,9.1,9.1,0,0,0,3.158,3.282c.15.1-.031.574.092.822.4.812,1.621-.074,1.736,1.4.012.143-.248.3-.4.455,1.287-.367,1.135,1.3,2.293,1.375V865.2a2.2,2.2,0,0,1-1.383-.447c-1.412-.7.059-2.474-2.285-2.76" transform="translate(-751.278 -797.424)" style="fill:#c9e9ed"/></g><path d="M783.788,858.33c-.125-.558-.362-1.2-.9-1.295-.426-.078-.9-.656-1.357.83,1.422-.455,1.824.739,2.291,1.832a6.067,6.067,0,0,0-.035-1.367" transform="translate(-751.278 -797.424)" style="fill:#c9e9ed"/><path d="M781.573,853.717a2.123,2.123,0,0,1-.041-.9,1.479,1.479,0,0,0-.358,1.759c.17.229.815.076,1.274.076a4.134,4.134,0,0,1-.875-.939" transform="translate(-751.278 -797.424)" style="fill:#c9e9ed"/><path d="M773.893,851.445c.028.307.156.762.037.836a4.287,4.287,0,0,1-1.775.254c.17.139.314.336.508.383.527.131,1.053-.531,1.238-.424,1.191.688,2.545,2.873,3.537,3.866.139-.166-.588-1.592-.617-1.629-1.1-1.37-1.869-1.959-2.928-3.286" transform="translate(-751.278 -797.424)" style="fill:#c9e9ed"/><path d="M776.358,850.274c-.406.261-1.213.248-.824.9.785,1.316,2.519,1.33,3.59,2.338.267-1.291,1.929-.984,2.7-1.879.154-.18.006-.568.074-.867.11-.467.129-1.074.9-.922-.155-.154-.305-.305-.459-.459-.817,1.2-.989-.131-1.834,0,.306.156.767.254.838.484a2.061,2.061,0,0,1-.4,2.243c-.252.226-.68.5-.85.4a1.6,1.6,0,0,1-.5-1.748c-.745.685-1.092,2.316-2.215,1.693a6.174,6.174,0,0,1-1.309-1.353c-.67-.809,1.483-.571,1.233-1.717a6.054,6.054,0,0,1-.934.891" transform="translate(-751.278 -797.424)" style="fill:#c9e9ed"/><path d="M772.118,850.1c.086-.112.639.183.764.058.283-.287,1.119-.685,1.206-1.134.272.209.719.406.719.627,0,.593-1.5.709-2.373,1.011a1.262,1.262,0,0,0-.74,1.182,4.279,4.279,0,0,1,.424-1.744" transform="translate(-751.278 -797.424)" style="fill:#c9e9ed"/><g style="clip-path:url(#a)"><path d="M770.014,850.36c.3-.983-.515-.67-.859-.1-.229.574-.563,2.285.918,2.353.148.006.3-.252.457-.4-.322-.273-1.561,1.563-.516-1.851" transform="translate(-751.278 -797.424)" style="fill:#c9e9ed"/><path d="M755.059,861.072c-.213,1.192,1.619,3.575,2.178,4.586a1.129,1.129,0,0,0,.154-1.033c-.232-1.209-1.609-2.008-1.6-3.574-.344-.572-.3-.953-1.307-.9l.572.916" transform="translate(-751.278 -797.424)" style="fill:#c9e9ed"/><path d="M752.272,854.541c.1-.051.832.764,1.069.992l-.168-.22c-.655-.891.066-2.522-.151-3.852-.088-.531-1.09-.67-1.123-.949l.373,4.029" transform="translate(-751.278 -797.424)" style="fill:#c9e9ed"/></g><path d="M753.419,856.3c1.4.775-.016.857,1.64,1.568.8-.23.981-1.211,1.033-2.064.012-.195-.23-.84-.23-1.145-.154.305-.3.606-.459.915s-.275,1.089-.381,1.111a2.384,2.384,0,0,1-1.6-.385" transform="translate(-751.278 -797.424)" style="fill:#c9e9ed"/><path d="M763.12,863.633v.916a2.036,2.036,0,0,1,1.375-.459c-.459-.152-.918-.3-1.375-.457" transform="translate(-751.278 -797.424)" style="fill:#c9e9ed"/><g style="clip-path:url(#a)"><path d="M755,852c.3-.984-.516-.67-.86-.1-.228.573-.562,2.286.92,2.352.147.006.3-.252.455-.4-.322-.276-1.56,1.562-.515-1.852" transform="translate(-751.278 -797.424)" style="fill:#c9e9ed"/><path d="M752.206,838.7c.51.189,1.052-.424,1.3-.3,1.313.635,1.2,2.179,2.856.851.021-.017.375.262.353.391-.074.467-.554.861-.369,1.373.133.357.492.432.86.551,1.136.379-.286,1.525,1.341,2.334.184.094.205.863-.011,1.205-.483.769-1.43.486-2.219.506a2.172,2.172,0,0,1,1.834.916c-.156-.305-.3-.612-.459-.916q.913-.46,1.834-.918c-.307-.155-.75-.248-.848-.487-.211-.531.1-1.267-.152-1.763-.063-.125-.643.062-.773-.094-.745-.873-.364-2.428-1.116-2.961-1.222-.865-3.7-.582-4.295-2.533-.1-.344.7-.777,1.227-.809.605-.035,1.135.414,1.373,1.315a1.2,1.2,0,0,1,.494-1.282c.9-.347.834,1.5,1.772,1.2a.848.848,0,0,0,.406-.809c-.078-.236-.533-.435-.84-.435-.154,0-.356.376-.432.345-.939-.4-2.187-.285-2.732-1.334a2.057,2.057,0,0,1-.043-.9c-.5.033-1.314-.174-1.26.447.053.59.594,1.215.283,1.813-.131.251-.552.337-.857.492l.469,1.8" transform="translate(-751.278 -797.424)" style="fill:#c9e9ed"/><path d="M758.891,834.143c.237.086.332.537.485.842.306-.155.613-.305.918-.459.808,1.982,2.193,4.539,4.584,4.584v-.918a1.265,1.265,0,0,1-1.3-.5c-.418-.723.947-1.147-.074-2.248-.01.791.254,1.91-.5,2.138-.914.278-1.516-1.136-1.328-2.138-.3,0-.778.078-.834-.041-.559-1.2-2.016-1.457-2.375-2.71-.75.823-2.071,1-2.291,2.292,1.117.3,1.73-1.2,2.722-.842" transform="translate(-751.278 -797.424)" style="fill:#c9e9ed"/><path d="M753.112,844.227c-.973-.1-.418.554-.459.918.154-.307.3-.614.459-.918" transform="translate(-751.278 -797.424)" style="fill:#c9e9ed"/></g><path d="M755.477,844.283a1.641,1.641,0,0,0,.385-1.431c-.307.154-.82.316-.813.453.047,1.019-.919,1.754-.562,2.756.633-.446.584-1.242.99-1.778" transform="translate(-751.278 -797.424)" style="fill:#c9e9ed"/><path d="M753.112,846.977c-.127,1.021.678.172.918.459-.309-.155-.613-.305-.918-.459" transform="translate(-751.278 -797.424)" style="fill:#c9e9ed"/><path d="M761.411,846.059c-.08-1.557,1.111-2.418,2.244-3.207a2.011,2.011,0,0,1-1.381.861c-.139.014-.3-.351-.453-.351-.307,0-.8.234-.82.416-.082.89-.475,1.8.275,2.8.1.129-.219.549-.371.854-.307-.155-.613-.305-.916-.459-.309.611-.613,1.222-.918,1.836,1.391-.2,1.584-1.828,2.75-2.293-.154-.155-.4-.3-.41-.461" transform="translate(-751.278 -797.424)" style="fill:#c9e9ed"/><path d="M764.354,843.944c.778-.082.764.58.766,1,0,.449-.276.613.722,1.578.2.187.235.843.44,1.293l.5-.414c-.289-.182-.7-.311-.8-.569-.148-.388.195-1.017-.015-1.271-.354-.426-1.112-.653-1.1-1.573,0-.142.4-.322.379-.386a3.616,3.616,0,0,1-.215-1.9c-.941.53-.617,1.438-.676,2.237" transform="translate(-751.278 -797.424)" style="fill:#c9e9ed"/><path d="M768.829,845.662c-.764-.955-1.754.055-2.307-1.166.8.285.322-.213,1.8-.474-.037.341-.18.857-.059.929,1.487.854.715,2.743,1.86,3.9l-.635.136a5.438,5.438,0,0,0-.567-1.875c-1.048-.689.563-.628-.1-1.453" transform="translate(-751.278 -797.424)" style="fill:#c9e9ed"/><path d="M765.579,840.213c-1.113.9-1.08-.242-1.924-.111.154.308.305.611.457.918.783-1.012,1.576.373,2.186-.131.482-.4-.581-.789-.719-.676" transform="translate(-751.278 -797.424)" style="fill:#c9e9ed"/><path d="M766.483,837.76c-.01-.17-.637-.246-.754-.494-.637-1.319-.2-1.686.449-2.711a.638.638,0,0,0-.861.469c-.125.769.361.709-.439,1.49-.235.228.812.818,1.009,1.332.377.984,1.192,1.279,1.7,2.144.176.3.78-.1.731-.386-.176-1.03-1.727.345-1.84-1.844" transform="translate(-751.278 -797.424)" style="fill:#c9e9ed"/><path d="M766.735,860.19c-.248.175.189.564.545.724.4-.918,1.961-.26,1.98-1.308.008-.385-.576-.723-.58-1.27-.908.615-1.015,1.205-1.945,1.854" transform="translate(-751.278 -797.424)" style="fill:#c9e9ed"/><path d="M770.53,840.332c.459-1.006-.748-.635-.92-1.119-.658,1.17,1.143.309.92,1.119" transform="translate(-751.278 -797.424)" style="fill:#c9e9ed"/><path d="M771.655,839.852l.924-.45c.148.311.459.682.363.885-.617,1.319.188,2.678.586,3.9a.967.967,0,0,1,1.324.494c.565,1.1,1.742,2.8,1.863,4.088-.335-.065-.859-.071-.9-.225-.56-1.955-2.176-4.971-4.365-5.461-.074-.017-.129-.379-.068-.566.168-.518.9-.526,1.072-.871.33-.653-.371-1.239-.8-1.793" transform="translate(-751.278 -797.424)" style="fill:#c9e9ed"/><path d="M770.6,845.6c.076-.3-.183-.68.149-1,.541,1.324.564,2.834,2.008,3.83-.581.412-.971-.074-1.419-.3.7-1.074-1.021-1.418-.738-2.529" transform="translate(-751.278 -797.424)" style="fill:#c9e9ed"/><path d="M773.317,836.416c-.363-.705.891-1.771,1.3-1.668a1.237,1.237,0,0,1,.953,1.688c1.877-.1,4.154-2,2.637-3.559-.323-.326-1.133.1-1.721.35a1.679,1.679,0,0,1,1.293,2.25,1.337,1.337,0,0,1-1.3.517c-1.234-.092-.686-1.224-1.393-1.83a1.418,1.418,0,0,0-.894-.42c-.533.043-.947.543-1.42.774-.188.094-.672-.153-.818-.408a.928.928,0,0,1,.4-1.34c-.768-.157-.9.551-.818.892.193.84,1.728.729,1.691,1.856-.021.617-.434,1.136-1.332,1.377,2.01-.43,1.533,1.8,2.971,2.287.912.31.478-.5.39-.836-.228-.885-1.537-1.129-1.949-1.93" transform="translate(-751.278 -797.424)" style="fill:#c9e9ed"/><path d="M776.343,842.063a4.433,4.433,0,0,1-.922-.434c.738.52.033,1.289,1.3,1.967.309.16.184.922-.386,1.244l.459.457a8.171,8.171,0,0,1,.459-3.207,3.743,3.743,0,0,1-.912-.027" transform="translate(-751.278 -797.424)" style="fill:#c9e9ed"/><path d="M779.647,844.074a2.428,2.428,0,0,0-.408-.916c-.154.155-.426.364-.4.426a3.609,3.609,0,0,1,.4,1.867,4.717,4.717,0,0,0,.408-1.377" transform="translate(-751.278 -797.424)" style="fill:#c9e9ed"/><path d="M779.006,847.563c-.779-.2-.845.509-.841.9.006.324.5.7.791.406.308-.308,0-1.039,1.429-.863-.461-.154-.9-.324-1.379-.445" transform="translate(-751.278 -797.424)" style="fill:#c9e9ed"/><path d="M781.452,847.279c-.432-.486-.637-1.8-1.219-1.218s.684.834,1.219,1.218" transform="translate(-751.278 -797.424)" style="fill:#c9e9ed"/><g style="clip-path:url(#a)"><path d="M781.428,835.084c-.136-.574-.306-1.691-1.238-1.31-.105.043-.033.523-.033.83.777-.043,1.664.193,1.728,1.379.008.136-.677.254-.722.47-.088.422-.657.9.826,1.358-.639-.838-.342-1.809-.561-2.727" transform="translate(-751.278 -797.424)" style="fill:#c9e9ed"/><path d="M752.883,859.356c-.062-1.5-.1-1.008-1.6-1.491.307.153,1.217.577,1.287.805.147.477-.053.7.193,1.123-.113.459-.906.459-.486,1.09.619.934.129,2.289,1.305,2.771.264.108.146-.289.453-.289,0-1.259-1.09-2.658-1.147-4.009" transform="translate(-751.278 -797.424)" style="fill:#c9e9ed"/></g><path d="M786.116,844.227c-.975-.1-.42.554-.459.918.152-.307.3-.614.459-.918" transform="translate(-751.278 -797.424)" style="fill:#c9e9ed"/><path d="M760.967,830.737c1.01.753,1.383,3,2.534,3.484-.928-.705-1.022-2.988-1.76-3.781l-.774.3" transform="translate(-751.278 -797.424)" style="fill:#c9e9ed"/><path d="M783.823,831.738c1.287-.369,1.135,1.3,2.293,1.375V832.2a2.2,2.2,0,0,1-1.383-.45l-.91-.008" transform="translate(-751.278 -797.424)" style="fill:#c9e9ed"/><path d="M782.321,844.2c.189,2.381-.334,3.674,2.187,2.758.573-.8-1.109-.127-1.293-.5-.091-.185,1.026-.643.95-.875s-1.287-.238-1.434-.492c-.264-.457.154-.916.4-1.342-.306.156-.822.32-.812.451" transform="translate(-751.278 -797.424)" style="fill:#c9e9ed"/><path d="M781.3,841.477c-.791.115-.818-.518-.863-.938-.016-.138.371-.355.338-.422-.443-.951-1.465-.332-2.229-.488.305,0,.741-.1.844.049.58.844,1.731,2.184.531,3.16.586-.754,1.928-.25,2.292-1.375a6.462,6.462,0,0,0-.913.014" transform="translate(-751.278 -797.424)" style="fill:#c9e9ed"/><path d="M779.116,837.188a10.761,10.761,0,0,0-2.979-.116,2.091,2.091,0,0,0,.8.459c.307,0,.315-.457.547-.38s.318.73.488.74c.971.053,1.819.474,2.746.556-.154-.306-.24-.73-.49-.853a2.535,2.535,0,0,0-1.115-.406" transform="translate(-751.278 -797.424)" style="fill:#c9e9ed"/><path d="M783.366,839.416c-.129-.277-.59.086-.811.406.832.553-.09,1.977.94,2.18.377.076.812-.437,1.351-.344-.445-1-1.006-1.213-1.48-2.242" transform="translate(-751.278 -797.424)" style="fill:#c9e9ed"/><path d="M765.8,851.194c-.789.115-.817-.518-.862-.936-.013-.139.371-.357.34-.424-.445-.949-1.467-.332-2.23-.488.3,0,.738-.1.843.051.579.841,1.733,2.181.532,3.158.586-.754,1.927-.25,2.291-1.375a6.479,6.479,0,0,0-.914.014" transform="translate(-751.278 -797.424)" style="fill:#c9e9ed"/><path d="M762.737,846.291c.316.9,1.117.824,1.834.916a2.85,2.85,0,0,0-1.834-.916" transform="translate(-751.278 -797.424)" style="fill:#c9e9ed"/><path d="M754.118,848.76c-.078-.033-.28.24-.432.394.488.262.8,1.292,1.268.813.451-.455-.352-1.385-.836-1.207" transform="translate(-751.278 -797.424)" style="fill:#c9e9ed"/><path d="M754.03,841.248c.293.649.875.424,1.375.459-.322-.572-.832-.558-1.375-.459" transform="translate(-751.278 -797.424)" style="fill:#c9e9ed"/><path d="M769.368,841.487c-.283-.284-.266-.374-.453-.438-.514-.184-.938.182-1.364.428,1.571-.328,2.2.945,1.832,2.293.309-.157.815-.307.815-.459a4.058,4.058,0,0,0-.83-1.824" transform="translate(-751.278 -797.424)" style="fill:#c9e9ed"/><path d="M777.247,861.244c-.284-.283-.266-.371-.451-.437-.516-.184-.938.181-1.368.43,1.573-.331,2.2.941,1.834,2.291.307-.157.817-.305.817-.46a4.072,4.072,0,0,0-.832-1.824" transform="translate(-751.278 -797.424)" style="fill:#c9e9ed"/><path d="M762.28,840.789a2.037,2.037,0,0,1-.459,1.377.628.628,0,0,0,.853-.467,2.186,2.186,0,0,0-.394-.91" transform="translate(-751.278 -797.424)" style="fill:#c9e9ed"/><g style="clip-path:url(#a)"><path d="M759.645,831.279a2.038,2.038,0,0,1-.459,1.374.629.629,0,0,0,.854-.465,2.185,2.185,0,0,0-.395-.909" transform="translate(-751.278 -797.424)" style="fill:#c9e9ed"/><path d="M759.645,864.281a2.049,2.049,0,0,1-.459,1.377.631.631,0,0,0,.854-.466,2.192,2.192,0,0,0-.395-.911" transform="translate(-751.278 -797.424)" style="fill:#c9e9ed"/><path d="M751.737,842.279c.316.9,1.115.825,1.834.918a2.857,2.857,0,0,0-1.834-.918" transform="translate(-751.278 -797.424)" style="fill:#c9e9ed"/><path d="M784.741,842.279c.314.9,1.115.825,1.832.918a2.857,2.857,0,0,0-1.832-.918" transform="translate(-751.278 -797.424)" style="fill:#c9e9ed"/><path d="M754.03,864.4c-1.1.144-.141.97-.459,1.375,1.338-.065-.346-1.133.459-1.375" transform="translate(-751.278 -797.424)" style="fill:#c9e9ed"/></g><path d="M754.03,831.393c-1.1.144-.141.972-.459,1.377,1.338-.065-.346-1.135.459-1.377" transform="translate(-751.278 -797.424)" style="fill:#c9e9ed"/><path d="M786.024,851.461c-.086-.531-1.088-.67-1.121-.949-.131-1.135-.553-1.365-1.08-2.274-.154.153-.408.305-.408.458,0,.613.9.958,1.084,1.464.539,1.494.431,3.807.775,4.381.1-.051.832.764,1.07.992l-.32-4.072" transform="translate(-751.278 -797.424)" style="fill:#c9e9ed"/><path d="M756.512,831.494c.295.459.565.866.725,1.159a1.122,1.122,0,0,0,.154-1.03l-.879-.129" transform="translate(-751.278 -797.424)" style="fill:#c9e9ed"/><g style="clip-path:url(#a)"><path d="M785.885,859.356c-.062-1.5-.1-1.008-1.6-1.491.305.153,1.215.577,1.283.805.149.477-.051.7.2,1.123-.115.459-.906.459-.488,1.09.494.748.281,1.766.777,2.387l-.166-3.914" transform="translate(-751.278 -797.424)" style="fill:#c9e9ed"/><path d="M760.967,863.738c1.01.756,1.383,3,2.534,3.487-.928-.705-1.022-2.988-1.76-3.785-1.416-1.524-3.406-2.332-4.455-4.225-.381-.687.426-1.658-.508-2.268-.154,1.487-.139,3.075,1.014,4.006,1.193.967,1.959,1.875,3.175,2.785" transform="translate(-751.278 -797.424)" style="fill:#c9e9ed"/></g><path d="M769.968,830.561a2.341,2.341,0,0,0-.266.758q-1.005-.206-2.008-.415c-.547.622.682.852,1.519,1.256a13.807,13.807,0,0,0,1.655.866c-.115-.666-.7-1.663-.9-2.465" transform="translate(-751.278 -797.424)" style="fill:#c9e9ed"/><path d="M765.671,831.321c.584,1.253,1.042,1.916,1.24,1.458l-.459-1.6-.781.145" transform="translate(-751.278 -797.424)" style="fill:#c9e9ed"/><path d="M773.43,864.319c-.431-.491-.636-1.8-1.218-1.221s.683.832,1.218,1.221" transform="translate(-751.278 -797.424)" style="fill:#c9e9ed"/><g style="clip-path:url(#a)"><path d="M774.962,831.012c-.268-.3-.721.049-.807.412-.143.6-.736,1.594-.047,1.824a2.315,2.315,0,0,1,1.832-.461c-1.578.026-.541-1.287-.978-1.775" transform="translate(-751.278 -797.424)" style="fill:#c9e9ed"/><path d="M774.962,864.016c-.268-.3-.721.047-.807.412-.143.6-.736,1.594-.047,1.822a2.305,2.305,0,0,1,1.832-.457c-1.578.024-.541-1.291-.978-1.777" transform="translate(-751.278 -797.424)" style="fill:#c9e9ed"/><path d="M779.524,863.588c.1-.184.459.059.633.274-.65.371.068,1.326-.733,1.462-.294.051-.634-.295-1.054-.232.347-.672.783-.814,1.154-1.5" transform="translate(-751.278 -797.424)" style="fill:#c9e9ed"/></g><path d="M779.524,830.584c.1-.185.459.059.633.276-.65.369.068,1.326-.733,1.461-.294.052-.634-.293-1.054-.233.347-.672.783-.812,1.154-1.5" transform="translate(-751.278 -797.424)" style="fill:#c9e9ed"/><path d="M765.335,857.139c.316.894,1.117.824,1.834.916a2.874,2.874,0,0,0-1.834-.916" transform="translate(-751.278 -797.424)" style="fill:#c9e9ed"/><path d="M783.823,855.457c.293.649.877.426,1.375.459-.32-.57-.834-.556-1.375-.459" transform="translate(-751.278 -797.424)" style="fill:#c9e9ed"/><path d="M786.573,834.143c-.5.033-1.315-.174-1.258.447.053.59.594,1.215.281,1.813-.132.251-.55.337-.855.492-.5-1.391-2.031-2.049-2.324-3.662-.086-.469-.313-1.287-.782-.819s.67.586.684.821a6.6,6.6,0,0,0,2.311,4.222c.228.239-.032,1.01.58,1.239.509.189,1.05-.424,1.3-.3l-.035-.2a2.225,2.225,0,0,1-1.127-1.344c-.1-.344.7-.777,1.227-.809l0-1.9" transform="translate(-751.278 -797.424)" style="fill:#c9e9ed"/><path d="M769,861.113a2.022,2.022,0,0,1-.459,1.373.631.631,0,0,0,.855-.464,2.14,2.14,0,0,0-.4-.909" transform="translate(-751.278 -797.424)" style="fill:#c9e9ed"/><path d="M767.46,851.082c1.027-.019.07-.693.32-.972-.109.326-.213.65-.32.972" transform="translate(-751.278 -797.424)" style="fill:#c9e9ed"/><path d="M783.366,851.791a2.036,2.036,0,0,1-.459,1.375.628.628,0,0,0,.853-.465,2.175,2.175,0,0,0-.394-.91" transform="translate(-751.278 -797.424)" style="fill:#c9e9ed"/><path d="M779.393,860.5a2.039,2.039,0,0,0,.647,1.3.627.627,0,0,1-.91-.34,2.153,2.153,0,0,1,.263-.957" transform="translate(-751.278 -797.424)" style="fill:#c9e9ed"/><path d="M758.311,863.3c.459-1-.748-.637-.92-1.119-.658,1.168,1.143.308.92,1.119" transform="translate(-751.278 -797.424)" style="fill:#c9e9ed"/><path d="M774.35,859.584c-.974-.1-.418.553-.457.916.153-.3.3-.611.457-.916" transform="translate(-751.278 -797.424)" style="fill:#c9e9ed"/><path d="M768.559,834.313c.77.207.545.8.42,1.2-.039.133-.48.178-.478.252.033,1.049,1.216.884,1.855,1.33-.281-.121-.721-.2-.756-.381-.2-1-.726-2.686.762-3.111-.838.463-1.869-.532-2.648.359a6.6,6.6,0,0,0,.845.346" transform="translate(-751.278 -797.424)" style="fill:#c9e9ed"/><path d="M759.53,850.11c-.975-.1-.418.554-.459.918.154-.309.3-.614.459-.918" transform="translate(-751.278 -797.424)" style="fill:#c9e9ed"/><path d="M760.9,853.471c.293.65.877.426,1.375.459-.32-.57-.834-.557-1.375-.459" transform="translate(-751.278 -797.424)" style="fill:#c9e9ed"/><path d="M774.046,846.444c-.975-.106-.418.552-.459.918.152-.309.3-.614.459-.918" transform="translate(-751.278 -797.424)" style="fill:#c9e9ed"/><path d="M771.284,837.58c.074.364-.17.637-.367.926.355.082.654-.082.683-.314,0-.227-.195-.407-.316-.612" transform="translate(-751.278 -797.424)" style="fill:#c9e9ed"/><path d="M767.973,837.426c-.277-2.635-.345,0-.5,0,.438.174,1.071.152.918.918a3.012,3.012,0,0,1-.418-.92" transform="translate(-751.278 -797.424)" style="fill:#c9e9ed"/><path d="M758.512,841.1c1.532.465.162.838,1.93,1.191.738-.388.709-1.384.584-2.23-.029-.195-.4-.774-.461-1.072-.088.33-.172.656-.26.99s-.043,1.123-.144,1.164a2.4,2.4,0,0,1-1.649-.043" transform="translate(-751.278 -797.424)" style="fill:#c9e9ed"/><path d="M758.975,837.135c.213-.775.862-.486,1.2-.287.28.162.36.775-.037.887-.422.115-.906-.508-1.453.822.092-.479.158-.944.289-1.422" transform="translate(-751.278 -797.424)" style="fill:#c9e9ed"/><line x1="24.592" y1="38.334" x2="28.26" y2="34.67" style="fill:#c9e9ed"/><line x1="24.592" y1="34.67" x2="28.26" y2="38.334" style="fill:#c9e9ed"/><g style="clip-path:url(#a)"><path d="M789.087,847.332a1.466,1.466,0,0,0-.455-.015,3.02,3.02,0,0,0,.917,1.375c.155-.3.458-.659.381-.889s-.519-.363-.843-.471" transform="translate(-751.278 -797.424)" style="fill:#c9e9ed"/><path d="M799.446,864.188c-.459-.307-.8-2.864-1.262-3.209-.179-.135-.457-.418-.457-.571,0-.308-.168-.269-.166-.574,0-.613-.453-1.412-1.293-1.234-.222.049-.408.607.84,1.312.135.076-.012.559.086.819,1.221,3.228,2.365,5.865,2.711,5.062l-.459-1.605" transform="translate(-751.278 -797.424)" style="fill:#c9e9ed"/></g><path d="M794.366,858.992c-.438.149-1.033.657-.973.807.561,1.422,1.108,2.02,1.68,2.043s-.742-.879-1.039-1.51,1.187-1.51.928-1.888-.284.193-.6.548" transform="translate(-751.278 -797.424)" style="fill:#c9e9ed"/><path d="M792.983,858.334c-.357-1.172-.24-1.289-1.834-1.832.463.139.344-.037.459,1.373.014.18,1.066.305,1.375.459" transform="translate(-751.278 -797.424)" style="fill:#c9e9ed"/><path d="M791.6,852.838c-.125-.322-.275-.807-.457-.824-1.222-.11-1.466-1.047-1.824-1.93.8-.223,1.365-1.017,2.293-.916-.43-.25-.914-.695-1.326-.39-.152.111.014.724-.082.755-1.754.6-1.315,1.916-.356,2.762.1.084.629-.389.8-.295.77.438-.295,2.781.508,2.211.4-.428,1.027-.889,1.731.074.3.414.1,1.147.1,1.758.229.459,1.26.2,1.285-.461.053-1.578-2.119-1.342-2.672-2.744" transform="translate(-751.278 -797.424)" style="fill:#c9e9ed"/><path d="M797.1,854.215c-.138-.176-.3-.416-.451-.416s-.3.256-.459.412c.307.152.807.285.82.465a1.978,1.978,0,0,1-1.279,2.283c1.856.557,2.377-1.486,1.369-2.744" transform="translate(-751.278 -797.424)" style="fill:#c9e9ed"/><path d="M799.047,853.285c.188,2.381-.335,3.674,2.186,2.758.572-.8-1.109-.129-1.293-.5-.092-.187,1.026-.642.949-.875s-1.287-.238-1.435-.492c-.262-.457.156-.916.4-1.342-.307.154-.82.32-.811.451" transform="translate(-751.278 -797.424)" style="fill:#c9e9ed"/><path d="M801.667,852.9c-.08-.032-.28.242-.434.394.488.264.8,1.289,1.272.815.449-.457-.356-1.387-.838-1.209" transform="translate(-751.278 -797.424)" style="fill:#c9e9ed"/><path d="M795.122,848.746c-.268-.3-.719.049-.807.414-.142.6-.734,1.594-.047,1.823a2.3,2.3,0,0,1,1.832-.459c-1.576.023-.539-1.289-.978-1.778" transform="translate(-751.278 -797.424)" style="fill:#c9e9ed"/><path d="M804.594,855.24c1.7.231,1.868,1.7,2.8,2.584.164.155.631-.052.826.1a1.74,1.74,0,0,1,.5,1.781c.782-1.011,1.606.379,2.17-.131,1.026-.933.922-2.443,2.412-3.074-.24-1.166-1.275-1.8-1.834-2.752.5,1.606,1.739,3.321-.457,4.125.155.154.407.305.407.459a1.031,1.031,0,0,1-.438.846,1.365,1.365,0,0,1-1.734-.426,5.766,5.766,0,0,0-1.77-1.943c-.41-.373.018-1.469-.59-2.143-.156.154-.388.506-.449.4-.584-1.086-1.385-.971-1.613-.284l-.231.459" transform="translate(-751.278 -797.424)" style="fill:#c9e9ed"/><g style="clip-path:url(#a)"><path d="M804.249,857.565h0c-.121.093-.77-.252-.778-.42-.048-.991-.234-2-1.474-1.828,1.472,1.2,1.892,3,2.693,4.611.272.547-1.625,1.92-.859,2.379l1.375-.574c.4.425.869.709,1.834,0-.657.029-1.426.123-1.77-.495-.564-1.011-.074-1.578-.162-2.707-.014-.177-.656-.253-.746-.492a1.451,1.451,0,0,1-.113-.474" transform="translate(-751.278 -797.424)" style="fill:#c9e9ed"/><path d="M802.962,863.574a2.3,2.3,0,0,0-.266.76l-2.008-.416c-.545.619.682.852,1.522,1.256a13.823,13.823,0,0,0,1.652.865c-.113-.668-.7-1.662-.9-2.465" transform="translate(-751.278 -797.424)" style="fill:#c9e9ed"/></g><path d="M809.026,840c.293.649.877.424,1.375.457-.32-.57-.834-.556-1.375-.457" transform="translate(-751.278 -797.424)" style="fill:#c9e9ed"/><g style="clip-path:url(#a)"><path d="M814.719,863.828c-.277-2.631-.345.006-.5.006.438.172,1.073.151.918.916a2.912,2.912,0,0,1-.418-.922" transform="translate(-751.278 -797.424)" style="fill:#c9e9ed"/><path d="M815.444,862a.637.637,0,0,0-.469-.859c-.527-.078-1.215-.256-1.228-.522a2.036,2.036,0,0,0-1.514-1.826,9.1,9.1,0,0,0,3.158,3.279c.151.106-.031.577.092.825.4.81,1.621-.076,1.736,1.4.012.141-.248.3-.4.453,1.285-.367,1.133,1.3,2.291,1.375v-.916a2.218,2.218,0,0,1-1.383-.449c-1.412-.7.059-2.475-2.283-2.76" transform="translate(-751.278 -797.424)" style="fill:#c9e9ed"/></g><path d="M816.784,858.34c-.125-.557-.362-1.2-.9-1.3-.427-.078-.9-.652-1.357.83,1.42-.455,1.822.738,2.291,1.832a6.186,6.186,0,0,0-.035-1.367" transform="translate(-751.278 -797.424)" style="fill:#c9e9ed"/><path d="M814.567,853.729a2.119,2.119,0,0,1-.039-.9,1.472,1.472,0,0,0-.357,1.758c.168.229.812.076,1.273.076a4.081,4.081,0,0,1-.877-.939" transform="translate(-751.278 -797.424)" style="fill:#c9e9ed"/><path d="M806.887,851.459c.028.305.157.762.037.836a4.262,4.262,0,0,1-1.775.25c.17.141.314.338.508.385.527.131,1.055-.529,1.238-.424,1.192.688,2.547,2.875,3.539,3.865.137-.166-.59-1.59-.619-1.629-1.1-1.369-1.869-1.959-2.928-3.283" transform="translate(-751.278 -797.424)" style="fill:#c9e9ed"/><path d="M809.352,850.283c-.4.264-1.213.25-.824.9.785,1.318,2.519,1.332,3.592,2.34.267-1.293,1.929-.985,2.7-1.879.154-.18.006-.569.076-.867.108-.467.129-1.077.893-.92-.154-.157-.305-.307-.459-.461-.817,1.2-.988-.131-1.832,0,.3.154.765.254.836.484a2.051,2.051,0,0,1-.4,2.242c-.252.227-.679.5-.849.4a1.594,1.594,0,0,1-.506-1.748c-.744.687-1.092,2.318-2.215,1.693a6.129,6.129,0,0,1-1.309-1.353c-.67-.809,1.483-.573,1.233-1.717a5.764,5.764,0,0,1-.934.888" transform="translate(-751.278 -797.424)" style="fill:#c9e9ed"/><path d="M805.114,850.113c.084-.109.637.184.764.059.281-.285,1.119-.685,1.205-1.135.273.209.718.407.718.627,0,.594-1.5.709-2.373,1.01a1.266,1.266,0,0,0-.738,1.186,4.219,4.219,0,0,1,.424-1.747" transform="translate(-751.278 -797.424)" style="fill:#c9e9ed"/><g style="clip-path:url(#a)"><path d="M803.008,850.371c.3-.982-.513-.668-.859-.095-.228.572-.562,2.283.918,2.351.149.006.3-.252.459-.4-.324-.274-1.561,1.562-.518-1.852" transform="translate(-751.278 -797.424)" style="fill:#c9e9ed"/><path d="M788.055,861.084c-.213,1.192,1.618,3.572,2.178,4.584a1.127,1.127,0,0,0,.152-1.033c-.232-1.209-1.609-2.008-1.6-3.574-.344-.573-.3-.953-1.307-.9l.574.918" transform="translate(-751.278 -797.424)" style="fill:#c9e9ed"/></g><path d="M785.266,854.551c.1-.049.832.766,1.071,1l-.168-.223c-.655-.892.064-2.519-.151-3.851-.09-.531-1.09-.67-1.123-.949l.371,4.027" transform="translate(-751.278 -797.424)" style="fill:#c9e9ed"/><path d="M786.413,856.311c1.4.771-.016.853,1.642,1.564.8-.23.979-1.211,1.032-2.06.011-.2-.231-.842-.231-1.147-.154.305-.3.606-.457.916s-.277,1.086-.383,1.108a2.392,2.392,0,0,1-1.6-.381" transform="translate(-751.278 -797.424)" style="fill:#c9e9ed"/><path d="M796.114,863.643v.916a2.026,2.026,0,0,1,1.377-.457c-.461-.155-.92-.305-1.377-.459" transform="translate(-751.278 -797.424)" style="fill:#c9e9ed"/><path d="M788,852.014c.3-.985-.516-.67-.86-.1-.228.574-.562,2.287.92,2.352.147.008.3-.248.455-.4-.322-.273-1.558,1.565-.515-1.849" transform="translate(-751.278 -797.424)" style="fill:#c9e9ed"/><path d="M785.2,838.707c.51.19,1.051-.424,1.3-.3,1.314.635,1.2,2.18,2.855.852.022-.016.375.26.354.391-.075.466-.555.863-.368,1.373.131.359.491.429.858.552,1.138.377-.285,1.524,1.342,2.332.185.094.2.864-.01,1.206-.485.769-1.43.486-2.221.5a2.172,2.172,0,0,1,1.834.916c-.154-.306-.3-.611-.459-.916q.914-.459,1.834-.918c-.307-.154-.75-.246-.846-.486-.212-.531.094-1.267-.154-1.764-.062-.125-.642.063-.773-.093-.744-.875-.364-2.428-1.116-2.961-1.222-.865-3.7-.582-4.293-2.533-.1-.344.7-.778,1.227-.809.6-.037,1.133.416,1.371,1.314a1.2,1.2,0,0,1,.5-1.281c.9-.347.832,1.5,1.77,1.2a.85.85,0,0,0,.406-.808c-.076-.237-.533-.436-.838-.436-.156,0-.357.377-.433.346-.938-.4-2.188-.285-2.733-1.334a2.057,2.057,0,0,1-.043-.9c-.5.034-1.314-.171-1.258.448.051.588.592,1.215.281,1.812-.13.252-.55.338-.857.492l.471,1.8" transform="translate(-751.278 -797.424)" style="fill:#c9e9ed"/><path d="M791.887,834.154c.235.086.33.538.485.84.3-.152.611-.3.916-.457.81,1.983,2.193,4.539,4.584,4.584V838.2a1.266,1.266,0,0,1-1.3-.5c-.418-.722.949-1.146-.074-2.248-.01.791.254,1.912-.5,2.139-.914.275-1.516-1.137-1.328-2.139-.3,0-.776.078-.834-.041-.559-1.193-2.014-1.457-2.373-2.711-.75.825-2.073,1.008-2.293,2.291,1.119.3,1.73-1.2,2.724-.84" transform="translate(-751.278 -797.424)" style="fill:#c9e9ed"/><path d="M786.106,844.24c-.973-.1-.418.555-.457.916.152-.3.305-.613.457-.916" transform="translate(-751.278 -797.424)" style="fill:#c9e9ed"/><path d="M788.471,844.293a1.637,1.637,0,0,0,.385-1.43c-.307.155-.818.317-.812.454.047,1.019-.918,1.754-.563,2.755.635-.447.584-1.242.99-1.779" transform="translate(-751.278 -797.424)" style="fill:#c9e9ed"/><path d="M786.106,846.988c-.127,1.02.678.172.918.459-.307-.154-.611-.3-.918-.459" transform="translate(-751.278 -797.424)" style="fill:#c9e9ed"/><path d="M794.4,846.07c-.08-1.556,1.111-2.419,2.244-3.207a2,2,0,0,1-1.381.862c-.138.013-.3-.352-.451-.352-.307,0-.8.233-.822.418-.082.889-.473,1.8.277,2.8.094.131-.221.549-.373.853-.3-.154-.611-.3-.916-.459q-.464.918-.916,1.836c1.389-.2,1.582-1.828,2.75-2.293-.156-.152-.4-.3-.412-.461" transform="translate(-751.278 -797.424)" style="fill:#c9e9ed"/><path d="M797.348,843.955c.778-.082.764.578.766,1,0,.449-.276.614.723,1.576.2.188.234.844.439,1.293l.5-.412c-.289-.181-.705-.312-.8-.568-.148-.391.194-1.02-.017-1.274-.352-.425-1.112-.652-1.1-1.572,0-.142.4-.322.379-.387a3.613,3.613,0,0,1-.215-1.894c-.941.529-.617,1.437-.676,2.236" transform="translate(-751.278 -797.424)" style="fill:#c9e9ed"/><path d="M801.825,845.676c-.766-.955-1.756.053-2.309-1.166.8.285.325-.215,1.805-.477-.037.342-.178.858-.057.93,1.485.854.713,2.742,1.858,3.9l-.633.137a5.515,5.515,0,0,0-.566-1.873c-1.051-.693.56-.633-.1-1.453" transform="translate(-751.278 -797.424)" style="fill:#c9e9ed"/><path d="M798.573,840.227c-1.111.9-1.08-.244-1.924-.114l.459.92c.781-1.013,1.574.371,2.184-.13.482-.4-.58-.791-.719-.676" transform="translate(-751.278 -797.424)" style="fill:#c9e9ed"/><path d="M799.477,837.772c-.01-.17-.636-.246-.754-.494-.635-1.319-.2-1.686.451-2.71a.636.636,0,0,0-.861.467c-.127.768.361.707-.441,1.489-.235.23.814.82,1.009,1.336.379.982,1.192,1.277,1.707,2.144.174.293.78-.1.729-.389-.176-1.029-1.725.346-1.84-1.843" transform="translate(-751.278 -797.424)" style="fill:#c9e9ed"/><path d="M799.729,860.2c-.248.174.19.563.547.723.4-.918,1.959-.26,1.979-1.307.009-.386-.575-.724-.581-1.271-.91.615-1.015,1.2-1.945,1.855" transform="translate(-751.278 -797.424)" style="fill:#c9e9ed"/><path d="M803.526,840.342c.457-1-.748-.633-.922-1.117-.658,1.17,1.143.306.922,1.117" transform="translate(-751.278 -797.424)" style="fill:#c9e9ed"/><path d="M804.649,839.865c.311-.152.615-.3.922-.449.152.309.461.68.365.881-.617,1.32.188,2.678.586,3.9a.969.969,0,0,1,1.324.495c.567,1.1,1.745,2.8,1.864,4.087-.336-.062-.86-.07-.9-.224-.56-1.955-2.174-4.971-4.365-5.461-.074-.018-.129-.379-.068-.566.17-.518.9-.526,1.072-.872.332-.65-.371-1.24-.8-1.791" transform="translate(-751.278 -797.424)" style="fill:#c9e9ed"/><path d="M803.594,845.615c.079-.3-.183-.681.149-1,.543,1.323.564,2.833,2.008,3.829-.579.412-.971-.077-1.418-.3.695-1.072-1.02-1.416-.739-2.526" transform="translate(-751.278 -797.424)" style="fill:#c9e9ed"/><path d="M806.311,836.428c-.361-.7.891-1.77,1.3-1.668a1.235,1.235,0,0,1,.953,1.687c1.879-.095,4.154-2,2.637-3.556-.323-.328-1.133.1-1.721.347a1.679,1.679,0,0,1,1.293,2.25,1.328,1.328,0,0,1-1.293.518c-1.236-.092-.687-1.225-1.393-1.83a1.418,1.418,0,0,0-.894-.42c-.535.041-.947.543-1.42.773-.187.1-.674-.152-.82-.408a.932.932,0,0,1,.4-1.342c-.767-.154-.9.553-.816.9.191.84,1.728.729,1.689,1.855-.019.618-.432,1.137-1.33,1.377,2.008-.429,1.531,1.8,2.969,2.29.912.31.478-.5.392-.838-.228-.885-1.539-1.131-1.951-1.93" transform="translate(-751.278 -797.424)" style="fill:#c9e9ed"/><path d="M809.337,842.074a4.4,4.4,0,0,1-.922-.433c.738.519.033,1.289,1.3,1.965.309.162.186.923-.384,1.246.152.154.3.3.457.457a8.173,8.173,0,0,1,.459-3.207,3.693,3.693,0,0,1-.912-.028" transform="translate(-751.278 -797.424)" style="fill:#c9e9ed"/><path d="M812.641,844.088a2.385,2.385,0,0,0-.408-.918c-.154.156-.426.365-.4.428a3.58,3.58,0,0,1,.4,1.863,4.675,4.675,0,0,0,.408-1.373" transform="translate(-751.278 -797.424)" style="fill:#c9e9ed"/><path d="M812,847.572c-.78-.195-.846.514-.84.907,0,.322.5.695.789.4.308-.309.006-1.039,1.43-.863-.461-.155-.9-.326-1.379-.448" transform="translate(-751.278 -797.424)" style="fill:#c9e9ed"/><path d="M814.446,847.289c-.432-.484-.635-1.8-1.219-1.217s.684.834,1.219,1.217" transform="translate(-751.278 -797.424)" style="fill:#c9e9ed"/><path d="M814.424,835.1c-.138-.574-.306-1.692-1.238-1.313-.107.045-.035.524-.035.832.777-.043,1.664.194,1.729,1.379.007.137-.678.254-.721.473-.09.42-.658.9.826,1.355-.641-.837-.344-1.81-.561-2.726" transform="translate(-751.278 -797.424)" style="fill:#c9e9ed"/><g style="clip-path:url(#a)"><path d="M785.878,859.365c-.063-1.5-.1-1-1.6-1.49.305.154,1.215.576,1.285.807.147.474-.052.695.194,1.121-.114.459-.9.459-.487,1.09.619.933.131,2.289,1.305,2.771.264.108.146-.289.453-.289,0-1.26-1.09-2.658-1.146-4.01" transform="translate(-751.278 -797.424)" style="fill:#c9e9ed"/><path d="M819.11,844.24c-.973-.1-.418.555-.459.916.154-.3.305-.613.459-.916" transform="translate(-751.278 -797.424)" style="fill:#c9e9ed"/><path d="M793.962,830.748c1.009.754,1.382,3,2.533,3.483-.928-.7-1.02-2.987-1.76-3.78l-.773.3" transform="translate(-751.278 -797.424)" style="fill:#c9e9ed"/><path d="M816.819,831.75c1.285-.369,1.133,1.3,2.291,1.373v-.916a2.206,2.206,0,0,1-1.383-.449l-.908-.008" transform="translate(-751.278 -797.424)" style="fill:#c9e9ed"/></g><path d="M815.315,844.217c.19,2.381-.334,3.672,2.188,2.756.572-.8-1.11-.125-1.293-.5-.092-.186,1.025-.643.949-.877s-1.287-.235-1.436-.488c-.261-.459.157-.916.4-1.344-.307.154-.821.322-.813.451" transform="translate(-751.278 -797.424)" style="fill:#c9e9ed"/><path d="M814.3,841.488c-.791.116-.821-.519-.866-.939-.011-.137.373-.352.342-.42-.443-.949-1.467-.332-2.23-.488.3,0,.74-.1.843.049.58.843,1.731,2.183.532,3.16.586-.756,1.927-.25,2.291-1.375a6.6,6.6,0,0,0-.912.013" transform="translate(-751.278 -797.424)" style="fill:#c9e9ed"/><path d="M812.112,837.2a10.775,10.775,0,0,0-2.981-.117,2.1,2.1,0,0,0,.8.457c.307,0,.317-.455.547-.379s.32.731.488.742c.971.051,1.819.473,2.746.557-.154-.308-.24-.732-.488-.855a2.539,2.539,0,0,0-1.115-.4" transform="translate(-751.278 -797.424)" style="fill:#c9e9ed"/><path d="M816.36,839.426c-.129-.275-.588.088-.811.406.833.555-.087,1.977.938,2.182.379.076.814-.438,1.354-.344-.446-1-1-1.213-1.481-2.244" transform="translate(-751.278 -797.424)" style="fill:#c9e9ed"/><path d="M798.792,851.2c-.791.117-.819-.517-.864-.937-.013-.137.371-.354.34-.422-.443-.947-1.467-.332-2.23-.486.306,0,.74-.1.843.048.581.842,1.733,2.184.534,3.159.584-.756,1.926-.25,2.291-1.375a6.471,6.471,0,0,0-.914.013" transform="translate(-751.278 -797.424)" style="fill:#c9e9ed"/><path d="M795.731,846.3c.317.9,1.117.828,1.836.918a2.862,2.862,0,0,0-1.836-.918" transform="translate(-751.278 -797.424)" style="fill:#c9e9ed"/><path d="M787.112,848.772c-.076-.034-.279.24-.432.4.489.26.8,1.289,1.27.811.449-.453-.354-1.383-.838-1.207" transform="translate(-751.278 -797.424)" style="fill:#c9e9ed"/><path d="M787.024,841.26c.293.648.877.424,1.375.459-.32-.572-.832-.559-1.375-.459" transform="translate(-751.278 -797.424)" style="fill:#c9e9ed"/><path d="M802.362,841.5c-.283-.285-.266-.375-.453-.441-.512-.182-.938.181-1.363.429,1.57-.328,2.195.946,1.832,2.293.308-.154.816-.3.816-.457a4.053,4.053,0,0,0-.832-1.824" transform="translate(-751.278 -797.424)" style="fill:#c9e9ed"/><path d="M810.241,861.256c-.283-.283-.264-.373-.451-.439-.514-.182-.94.181-1.366.429,1.573-.33,2.2.942,1.832,2.291.309-.154.817-.3.817-.459a4.056,4.056,0,0,0-.832-1.822" transform="translate(-751.278 -797.424)" style="fill:#c9e9ed"/><path d="M795.274,840.8a2.032,2.032,0,0,1-.457,1.377.632.632,0,0,0,.854-.467,2.182,2.182,0,0,0-.4-.91" transform="translate(-751.278 -797.424)" style="fill:#c9e9ed"/><g style="clip-path:url(#a)"><path d="M792.639,831.291a2.036,2.036,0,0,1-.459,1.375.629.629,0,0,0,.854-.465,2.165,2.165,0,0,0-.4-.91" transform="translate(-751.278 -797.424)" style="fill:#c9e9ed"/><path d="M792.639,864.291a2.037,2.037,0,0,1-.459,1.377.629.629,0,0,0,.854-.467,2.187,2.187,0,0,0-.4-.91" transform="translate(-751.278 -797.424)" style="fill:#c9e9ed"/><path d="M784.731,842.293c.317.893,1.115.824,1.834.916a2.85,2.85,0,0,0-1.834-.916" transform="translate(-751.278 -797.424)" style="fill:#c9e9ed"/><path d="M817.735,842.293c.314.893,1.115.824,1.834.916a2.855,2.855,0,0,0-1.834-.916" transform="translate(-751.278 -797.424)" style="fill:#c9e9ed"/><path d="M787.024,864.406c-1.1.145-.141.971-.459,1.375,1.34-.062-.346-1.132.459-1.375" transform="translate(-751.278 -797.424)" style="fill:#c9e9ed"/><path d="M787.024,831.406c-1.1.143-.141.973-.459,1.373,1.34-.062-.346-1.13.459-1.373" transform="translate(-751.278 -797.424)" style="fill:#c9e9ed"/><path d="M819.02,851.473c-.086-.531-1.09-.67-1.123-.949-.131-1.133-.553-1.366-1.078-2.276-.156.156-.41.307-.41.459,0,.613.9.959,1.084,1.465.539,1.5.431,3.807.775,4.379.1-.049.832.766,1.071,1l-.319-4.074" transform="translate(-751.278 -797.424)" style="fill:#c9e9ed"/><path d="M789.507,831.506c.294.459.564.865.726,1.16a1.124,1.124,0,0,0,.152-1.031l-.878-.129" transform="translate(-751.278 -797.424)" style="fill:#c9e9ed"/><path d="M818.88,859.365c-.063-1.5-.1-1-1.6-1.49.307.154,1.215.576,1.285.807.147.474-.053.695.2,1.121-.116.459-.9.459-.489,1.09.494.748.281,1.765.778,2.386l-.166-3.914" transform="translate(-751.278 -797.424)" style="fill:#c9e9ed"/><path d="M793.962,863.748c1.009.758,1.382,3,2.533,3.487-.928-.706-1.02-2.989-1.76-3.784-1.416-1.525-3.406-2.334-4.455-4.226-.379-.686.428-1.658-.506-2.266-.156,1.485-.141,3.072,1.012,4.006,1.193.965,1.959,1.873,3.176,2.783" transform="translate(-751.278 -797.424)" style="fill:#c9e9ed"/></g><path d="M802.962,830.572c-.1.3-.262.465-.266.76-.67-.136-1.338-.277-2.008-.416-.545.621.682.852,1.522,1.256a13.554,13.554,0,0,0,1.652.867c-.113-.668-.7-1.664-.9-2.467" transform="translate(-751.278 -797.424)" style="fill:#c9e9ed"/><path d="M798.665,831.332c.584,1.252,1.043,1.916,1.24,1.459l-.459-1.6-.781.144" transform="translate(-751.278 -797.424)" style="fill:#c9e9ed"/><path d="M806.424,864.328c-.429-.488-.636-1.8-1.218-1.22s.683.832,1.218,1.22" transform="translate(-751.278 -797.424)" style="fill:#c9e9ed"/><g style="clip-path:url(#a)"><path d="M807.958,831.024c-.27-.3-.721.046-.809.412-.142.595-.734,1.593-.047,1.822a2.314,2.314,0,0,1,1.832-.457c-1.578.023-.541-1.289-.976-1.777" transform="translate(-751.278 -797.424)" style="fill:#c9e9ed"/><path d="M807.958,864.026c-.27-.3-.721.046-.809.412-.142.6-.734,1.593-.047,1.822a2.306,2.306,0,0,1,1.832-.457c-1.578.023-.541-1.291-.976-1.777" transform="translate(-751.278 -797.424)" style="fill:#c9e9ed"/><path d="M812.518,863.6c.1-.184.461.058.633.273-.65.371.068,1.326-.732,1.465-.295.049-.635-.3-1.055-.234.348-.672.785-.813,1.154-1.5" transform="translate(-751.278 -797.424)" style="fill:#c9e9ed"/></g><path d="M812.518,830.594c.1-.184.461.059.633.277-.65.369.068,1.325-.732,1.463-.295.051-.635-.3-1.055-.234.348-.672.785-.813,1.154-1.506" transform="translate(-751.278 -797.424)" style="fill:#c9e9ed"/><path d="M798.331,857.149c.314.9,1.115.824,1.832.918a2.855,2.855,0,0,0-1.832-.918" transform="translate(-751.278 -797.424)" style="fill:#c9e9ed"/><g style="clip-path:url(#a)"><path d="M816.819,855.469c.291.648.875.428,1.373.459-.32-.57-.832-.557-1.373-.459" transform="translate(-751.278 -797.424)" style="fill:#c9e9ed"/><path d="M819.569,834.154c-.5.034-1.316-.171-1.26.448.053.588.594,1.215.282,1.812-.131.252-.551.338-.856.492-.5-1.39-2.029-2.048-2.322-3.662-.088-.468-.315-1.289-.783-.818s.669.586.685.818a6.607,6.607,0,0,0,2.309,4.227c.23.234-.032,1.008.58,1.236.51.19,1.051-.424,1.3-.3l-.036-.2a2.227,2.227,0,0,1-1.125-1.345c-.107-.344.694-.778,1.225-.809l0-1.9" transform="translate(-751.278 -797.424)" style="fill:#c9e9ed"/></g><path d="M802,861.123a2.017,2.017,0,0,1-.457,1.373.63.63,0,0,0,.853-.465,2.152,2.152,0,0,0-.4-.908" transform="translate(-751.278 -797.424)" style="fill:#c9e9ed"/><path d="M800.454,851.1c1.027-.022.07-.695.32-.973q-.16.486-.32.973" transform="translate(-751.278 -797.424)" style="fill:#c9e9ed"/><path d="M816.36,851.8a2.025,2.025,0,0,1-.459,1.375.629.629,0,0,0,.854-.465,2.178,2.178,0,0,0-.395-.91" transform="translate(-751.278 -797.424)" style="fill:#c9e9ed"/><path d="M812.387,860.51a2.032,2.032,0,0,0,.649,1.3.63.63,0,0,1-.912-.34,2.18,2.18,0,0,1,.263-.957" transform="translate(-751.278 -797.424)" style="fill:#c9e9ed"/><path d="M791.3,863.311c.459-1-.746-.637-.92-1.119-.658,1.168,1.143.308.92,1.119" transform="translate(-751.278 -797.424)" style="fill:#c9e9ed"/><path d="M807.344,859.594c-.974-.1-.418.553-.457.916q.229-.458.457-.916" transform="translate(-751.278 -797.424)" style="fill:#c9e9ed"/><path d="M801.553,834.322c.772.209.547.8.42,1.207-.041.133-.48.178-.478.252.033,1.049,1.217.885,1.855,1.332-.281-.121-.718-.2-.754-.382-.2-1-.728-2.686.762-3.11-.838.461-1.871-.533-2.65.356a6.114,6.114,0,0,0,.845.345" transform="translate(-751.278 -797.424)" style="fill:#c9e9ed"/><path d="M792.524,850.123c-.973-.105-.418.551-.457.916.152-.308.3-.613.457-.916" transform="translate(-751.278 -797.424)" style="fill:#c9e9ed"/><path d="M793.9,853.483c.293.648.877.423,1.375.459-.32-.573-.832-.555-1.375-.459" transform="translate(-751.278 -797.424)" style="fill:#c9e9ed"/><path d="M807.04,846.455c-.975-.1-.418.555-.459.918.154-.308.3-.613.459-.918" transform="translate(-751.278 -797.424)" style="fill:#c9e9ed"/><path d="M804.278,837.592c.074.363-.168.637-.367.926.355.082.654-.082.683-.313,0-.226-.2-.406-.316-.613" transform="translate(-751.278 -797.424)" style="fill:#c9e9ed"/><path d="M800.967,837.436c-.277-2.631-.345,0-.5,0,.436.173,1.071.152.916.918a3.046,3.046,0,0,1-.418-.922" transform="translate(-751.278 -797.424)" style="fill:#c9e9ed"/><path d="M791.507,841.106c1.531.466.162.841,1.931,1.193.736-.389.707-1.385.582-2.23-.029-.2-.4-.772-.461-1.075-.088.332-.172.657-.26.993s-.043,1.123-.144,1.164a2.386,2.386,0,0,1-1.648-.045" transform="translate(-751.278 -797.424)" style="fill:#c9e9ed"/><path d="M791.971,837.147c.211-.776.86-.485,1.2-.287.279.162.359.777-.036.886-.421.116-.908-.508-1.455.823.092-.479.159-.944.291-1.422" transform="translate(-751.278 -797.424)" style="fill:#c9e9ed"/><path d="M779.995,858.334c-.356-1.172-.24-1.289-1.834-1.832.465.139.344-.037.459,1.373.015.18,1.068.305,1.375.459" transform="translate(-751.278 -797.424)" style="fill:#c9e9ed"/><path d="M756.091,814.307a1.47,1.47,0,0,0-.456-.016,3.03,3.03,0,0,0,.918,1.373c.155-.3.457-.658.381-.89s-.519-.36-.843-.467" transform="translate(-751.278 -797.424)" style="fill:#c9e9ed"/><path d="M766.45,831.162c-.459-.306-.8-2.865-1.262-3.211-.18-.134-.459-.416-.459-.57,0-.308-.166-.269-.164-.574,0-.611-.453-1.412-1.293-1.233-.223.047-.408.606.84,1.313.135.074-.012.559.086.816,1.221,3.231,2.365,5.868,2.711,5.065l-.459-1.606" transform="translate(-751.278 -797.424)" style="fill:#c9e9ed"/><path d="M761.37,825.965c-.438.15-1.035.656-.973.809.559,1.422,1.108,2.019,1.68,2.041s-.742-.879-1.039-1.51,1.187-1.51.928-1.889-.284.2-.6.549" transform="translate(-751.278 -797.424)" style="fill:#c9e9ed"/><path d="M759.987,825.307c-.357-1.17-.24-1.287-1.834-1.834.463.142.344-.035.459,1.375.014.18,1.066.306,1.375.459" transform="translate(-751.278 -797.424)" style="fill:#c9e9ed"/><path d="M758.6,819.811c-.125-.323-.275-.807-.457-.824-1.222-.112-1.467-1.047-1.824-1.93.8-.223,1.365-1.018,2.293-.916-.43-.248-.914-.695-1.326-.391-.153.113.013.725-.082.756-1.754.6-1.315,1.916-.356,2.76.1.088.629-.389.8-.293.77.437-.3,2.781.508,2.209.4-.426,1.027-.887,1.73.074.3.416.1,1.147.1,1.76.228.457,1.26.195,1.283-.463.055-1.576-2.117-1.34-2.67-2.742" transform="translate(-751.278 -797.424)" style="fill:#c9e9ed"/><path d="M764.1,821.188c-.138-.176-.3-.414-.451-.414s-.305.254-.459.408c.307.154.807.287.82.465a1.981,1.981,0,0,1-1.279,2.285c1.856.558,2.377-1.486,1.369-2.744" transform="translate(-751.278 -797.424)" style="fill:#c9e9ed"/><path d="M766.051,820.258c.188,2.381-.336,3.674,2.186,2.758.572-.8-1.109-.129-1.293-.5-.092-.188,1.025-.645.949-.875s-1.287-.238-1.435-.492c-.262-.457.156-.916.4-1.344-.307.156-.822.322-.811.453" transform="translate(-751.278 -797.424)" style="fill:#c9e9ed"/><path d="M768.671,819.869c-.081-.031-.28.243-.434.4.488.262.8,1.289,1.269.81.452-.455-.353-1.384-.835-1.207" transform="translate(-751.278 -797.424)" style="fill:#c9e9ed"/><path d="M762.124,815.719c-.266-.3-.719.049-.8.414-.143.6-.734,1.594-.049,1.822a2.3,2.3,0,0,1,1.834-.457c-1.576.022-.539-1.291-.98-1.779" transform="translate(-751.278 -797.424)" style="fill:#c9e9ed"/><path d="M771.6,822.213c1.7.23,1.867,1.7,2.8,2.584.164.156.631-.053.826.1a1.744,1.744,0,0,1,.5,1.783c.782-1.014,1.606.377,2.17-.133,1.026-.934.922-2.441,2.412-3.076-.24-1.164-1.277-1.8-1.834-2.75.5,1.6,1.739,3.32-.457,4.125.153.154.406.306.406.459a1.029,1.029,0,0,1-.437.846,1.363,1.363,0,0,1-1.734-.426,5.791,5.791,0,0,0-1.77-1.942c-.41-.375.018-1.472-.59-2.144-.156.154-.388.506-.449.4-.584-1.084-1.385-.97-1.615-.283l-.229.459" transform="translate(-751.278 -797.424)" style="fill:#c9e9ed"/><path d="M771.251,824.537h0c-.119.094-.768-.25-.776-.42-.049-.99-.234-2-1.474-1.828,1.472,1.2,1.892,3,2.693,4.614.272.546-1.625,1.92-.859,2.376l1.375-.572c.4.424.869.707,1.834,0-.657.028-1.426.121-1.77-.5-.566-1.01-.074-1.578-.162-2.705-.016-.178-.656-.256-.746-.492a1.52,1.52,0,0,1-.115-.477" transform="translate(-751.278 -797.424)" style="fill:#c9e9ed"/><path d="M769.966,830.549a2.309,2.309,0,0,0-.266.758q-1.005-.208-2.008-.414c-.545.619.682.851,1.521,1.256a13.609,13.609,0,0,0,1.653.863c-.113-.666-.7-1.662-.9-2.463" transform="translate(-751.278 -797.424)" style="fill:#c9e9ed"/><path d="M776.03,806.973c.293.648.877.424,1.375.459-.322-.572-.834-.559-1.375-.459" transform="translate(-751.278 -797.424)" style="fill:#c9e9ed"/><path d="M781.723,830.8c-.277-2.631-.345,0-.5,0,.438.174,1.071.15.918.916a2.859,2.859,0,0,1-.418-.92" transform="translate(-751.278 -797.424)" style="fill:#c9e9ed"/><path d="M782.448,828.973a.639.639,0,0,0-.469-.86c-.527-.076-1.215-.253-1.228-.521a2.038,2.038,0,0,0-1.514-1.826,9.1,9.1,0,0,0,3.158,3.281c.151.106-.031.574.092.822.4.811,1.621-.076,1.736,1.4.012.14-.248.3-.4.453,1.287-.365,1.135,1.3,2.291,1.377v-.918c-.541.094-.932-.227-1.381-.447-1.412-.7.059-2.477-2.283-2.762" transform="translate(-751.278 -797.424)" style="fill:#c9e9ed"/><path d="M783.788,825.315c-.125-.559-.364-1.2-.9-1.3-.427-.076-.9-.653-1.359.83,1.422-.455,1.824.74,2.291,1.834a6.18,6.18,0,0,0-.033-1.367" transform="translate(-751.278 -797.424)" style="fill:#c9e9ed"/><path d="M781.571,820.7a2.121,2.121,0,0,1-.041-.9,1.479,1.479,0,0,0-.356,1.76c.168.228.813.076,1.274.076a4.1,4.1,0,0,1-.877-.94" transform="translate(-751.278 -797.424)" style="fill:#c9e9ed"/><path d="M773.891,818.432c.028.305.157.76.037.834a4.266,4.266,0,0,1-1.775.254c.168.138.314.336.508.383.527.13,1.053-.532,1.238-.424,1.192.687,2.547,2.875,3.539,3.865.137-.166-.59-1.592-.619-1.627-1.1-1.371-1.869-1.961-2.928-3.285" transform="translate(-751.278 -797.424)" style="fill:#c9e9ed"/><path d="M776.356,817.258c-.4.262-1.213.248-.824.9.785,1.317,2.519,1.331,3.592,2.338.265-1.291,1.927-.984,2.7-1.877.154-.181.006-.568.076-.867.108-.469.127-1.076.891-.922-.153-.156-.3-.306-.457-.461-.817,1.2-.989-.13-1.834,0,.306.157.767.254.838.485a2.055,2.055,0,0,1-.4,2.242c-.252.229-.68.5-.849.4a1.593,1.593,0,0,1-.506-1.748c-.746.688-1.092,2.319-2.215,1.694a6.115,6.115,0,0,1-1.309-1.354c-.67-.808,1.483-.57,1.233-1.717a6.007,6.007,0,0,1-.934.891" transform="translate(-751.278 -797.424)" style="fill:#c9e9ed"/><path d="M772.118,817.086c.084-.111.637.184.764.059.281-.285,1.117-.686,1.2-1.133.271.207.718.4.718.625,0,.594-1.5.709-2.373,1.012a1.262,1.262,0,0,0-.74,1.181,4.264,4.264,0,0,1,.426-1.744" transform="translate(-751.278 -797.424)" style="fill:#c9e9ed"/><path d="M770.012,817.344c.3-.982-.513-.67-.859-.1-.23.573-.563,2.283.918,2.352.148.006.3-.252.459-.4-.324-.274-1.563,1.564-.518-1.852" transform="translate(-751.278 -797.424)" style="fill:#c9e9ed"/><g style="clip-path:url(#a)"><path d="M755.059,828.057c-.213,1.191,1.617,3.574,2.176,4.584a1.119,1.119,0,0,0,.154-1.031c-.232-1.209-1.609-2.008-1.6-3.577-.344-.572-.3-.953-1.307-.892l.574.916" transform="translate(-751.278 -797.424)" style="fill:#c9e9ed"/><path d="M752.27,821.526c.1-.051.832.763,1.071.994l-.168-.223c-.655-.891.064-2.521-.153-3.851-.088-.532-1.09-.67-1.123-.95l.373,4.03" transform="translate(-751.278 -797.424)" style="fill:#c9e9ed"/></g><path d="M753.417,823.283c1.4.772-.016.854,1.642,1.565.8-.229.979-1.211,1.032-2.063.011-.195-.231-.839-.231-1.144-.154.305-.3.605-.459.916s-.275,1.088-.381,1.107a2.386,2.386,0,0,1-1.6-.381" transform="translate(-751.278 -797.424)" style="fill:#c9e9ed"/><path d="M763.118,830.615v.918a2.032,2.032,0,0,1,1.377-.459c-.461-.154-.92-.3-1.377-.459" transform="translate(-751.278 -797.424)" style="fill:#c9e9ed"/><g style="clip-path:url(#a)"><path d="M755,818.987c.3-.983-.516-.67-.86-.1-.228.572-.562,2.285.92,2.351.147.006.3-.25.455-.4-.322-.275-1.56,1.563-.515-1.851" transform="translate(-751.278 -797.424)" style="fill:#c9e9ed"/><path d="M752.2,805.68c.512.189,1.053-.424,1.3-.3,1.315.635,1.2,2.18,2.856.852.021-.016.375.261.353.39-.074.469-.554.862-.367,1.373.131.358.491.432.858.551,1.138.379-.286,1.525,1.341,2.334.186.094.206.863-.011,1.2-.483.77-1.43.487-2.219.506a2.174,2.174,0,0,1,1.834.916c-.154-.305-.3-.611-.459-.916l1.834-.918c-.309-.154-.75-.246-.848-.486-.211-.531.1-1.268-.152-1.764-.062-.125-.643.063-.773-.094-.745-.873-.364-2.427-1.116-2.961-1.222-.865-3.7-.58-4.293-2.533-.105-.343.7-.777,1.227-.808.6-.035,1.133.414,1.371,1.314a1.2,1.2,0,0,1,.494-1.281c.9-.348.834,1.5,1.772,1.2a.855.855,0,0,0,.406-.81c-.078-.237-.533-.436-.838-.436-.156,0-.357.377-.434.346-.937-.4-2.187-.286-2.732-1.334a2.051,2.051,0,0,1-.043-.9c-.5.031-1.314-.176-1.258.445.051.59.592,1.215.281,1.815-.13.25-.55.336-.857.49l.469,1.8" transform="translate(-751.278 -797.424)" style="fill:#c9e9ed"/><path d="M758.889,801.127c.237.086.332.537.487.842.3-.154.611-.305.916-.459.81,1.984,2.193,4.539,4.584,4.584v-.918a1.264,1.264,0,0,1-1.3-.5c-.418-.725.947-1.148-.074-2.25-.01.791.254,1.912-.5,2.139-.916.277-1.516-1.137-1.328-2.139-.307,0-.776.078-.834-.041-.559-1.195-2.014-1.457-2.373-2.709-.75.822-2.073,1-2.293,2.291,1.117.3,1.73-1.2,2.722-.842" transform="translate(-751.278 -797.424)" style="fill:#c9e9ed"/><path d="M753.11,811.213c-.973-.1-.418.555-.457.916.152-.306.3-.613.457-.916" transform="translate(-751.278 -797.424)" style="fill:#c9e9ed"/></g><path d="M755.475,811.268a1.643,1.643,0,0,0,.385-1.432c-.307.154-.818.317-.813.453.047,1.02-.919,1.756-.562,2.758.635-.447.584-1.242.99-1.779" transform="translate(-751.278 -797.424)" style="fill:#c9e9ed"/><path d="M753.11,813.961c-.127,1.022.678.172.918.459l-.918-.459" transform="translate(-751.278 -797.424)" style="fill:#c9e9ed"/><path d="M761.409,813.043c-.08-1.556,1.111-2.418,2.244-3.207a2.009,2.009,0,0,1-1.381.862c-.139.013-.3-.352-.451-.352-.307,0-.805.234-.822.418-.082.888-.473,1.8.277,2.8.094.129-.221.548-.373.853-.307-.154-.613-.3-.916-.459-.309.613-.613,1.223-.918,1.836,1.391-.2,1.584-1.828,2.752-2.293-.156-.154-.4-.3-.412-.461" transform="translate(-751.278 -797.424)" style="fill:#c9e9ed"/><path d="M764.352,810.928c.778-.082.764.58.766,1,0,.449-.276.613.723,1.578.2.188.234.844.439,1.293.168-.139.332-.273.5-.414-.289-.182-.7-.311-.8-.566-.148-.391.194-1.02-.019-1.274-.35-.426-1.11-.65-1.094-1.572,0-.141.4-.322.379-.387a3.613,3.613,0,0,1-.215-1.894c-.941.529-.617,1.437-.676,2.236" transform="translate(-751.278 -797.424)" style="fill:#c9e9ed"/><path d="M768.829,812.647c-.766-.954-1.756.054-2.309-1.164.8.285.324-.215,1.805-.477-.037.342-.178.859-.057.93,1.485.853.713,2.742,1.858,3.9l-.635.137a5.476,5.476,0,0,0-.565-1.875c-1.05-.69.561-.629-.1-1.453" transform="translate(-751.278 -797.424)" style="fill:#c9e9ed"/><path d="M765.577,807.2c-1.111.9-1.08-.243-1.924-.11.154.307.305.61.459.916.781-1.012,1.574.373,2.184-.129.482-.4-.581-.791-.719-.677" transform="translate(-751.278 -797.424)" style="fill:#c9e9ed"/><path d="M766.481,804.744c-.01-.17-.637-.246-.754-.494-.635-1.318-.2-1.685.451-2.709a.636.636,0,0,0-.861.467c-.127.77.361.709-.441,1.49-.235.229.812.819,1.009,1.332.379.985,1.192,1.28,1.707,2.147.174.3.78-.1.729-.389-.176-1.027-1.725.346-1.84-1.844" transform="translate(-751.278 -797.424)" style="fill:#c9e9ed"/><path d="M766.733,827.174c-.248.174.189.563.547.725.394-.918,1.959-.262,1.978-1.309.008-.387-.576-.723-.58-1.272-.91.618-1.015,1.206-1.945,1.856" transform="translate(-751.278 -797.424)" style="fill:#c9e9ed"/><path d="M770.53,807.317c.457-1.006-.748-.635-.922-1.119-.658,1.169,1.143.308.922,1.119" transform="translate(-751.278 -797.424)" style="fill:#c9e9ed"/><path d="M771.653,806.836l.922-.449c.15.312.461.682.365.885-.617,1.318.188,2.677.586,3.9a.967.967,0,0,1,1.324.494c.567,1.1,1.744,2.8,1.863,4.088-.335-.064-.859-.068-.9-.224-.56-1.956-2.174-4.971-4.365-5.461-.074-.018-.129-.379-.068-.567.17-.517.9-.525,1.072-.869.33-.652-.371-1.24-.8-1.8" transform="translate(-751.278 -797.424)" style="fill:#c9e9ed"/><path d="M770.6,812.586c.076-.3-.183-.68.149-1,.541,1.324.564,2.834,2.008,3.83-.579.412-.971-.074-1.418-.3.695-1.074-1.022-1.417-.739-2.529" transform="translate(-751.278 -797.424)" style="fill:#c9e9ed"/><path d="M773.315,803.4c-.361-.705.891-1.77,1.3-1.668a1.237,1.237,0,0,1,.953,1.687c1.879-.1,4.154-2,2.635-3.557-.321-.328-1.131.1-1.719.348a1.679,1.679,0,0,1,1.293,2.25,1.328,1.328,0,0,1-1.293.518c-1.236-.092-.688-1.225-1.393-1.83a1.417,1.417,0,0,0-.894-.42c-.535.043-.947.543-1.422.773-.187.094-.672-.152-.818-.408a.929.929,0,0,1,.4-1.34c-.768-.156-.9.551-.816.9.191.839,1.726.726,1.689,1.853-.019.617-.432,1.137-1.33,1.377,2.008-.43,1.531,1.8,2.969,2.289.912.309.478-.5.392-.838-.228-.884-1.539-1.129-1.951-1.929" transform="translate(-751.278 -797.424)" style="fill:#c9e9ed"/><path d="M776.341,809.049a4.643,4.643,0,0,1-.922-.434c.736.518.033,1.288,1.3,1.965.309.162.186.922-.386,1.244l.459.459a8.181,8.181,0,0,1,.459-3.209,3.843,3.843,0,0,1-.912-.025" transform="translate(-751.278 -797.424)" style="fill:#c9e9ed"/><path d="M779.645,811.059a2.453,2.453,0,0,0-.408-.916c-.154.154-.426.363-.4.428a3.578,3.578,0,0,1,.4,1.865,4.717,4.717,0,0,0,.408-1.377" transform="translate(-751.278 -797.424)" style="fill:#c9e9ed"/><path d="M779,814.547c-.78-.2-.846.51-.84.9,0,.323.5.7.789.4.308-.309.006-1.039,1.429-.862-.461-.156-.9-.326-1.378-.447" transform="translate(-751.278 -797.424)" style="fill:#c9e9ed"/><path d="M781.45,814.264c-.432-.486-.635-1.8-1.219-1.217s.684.832,1.219,1.217" transform="translate(-751.278 -797.424)" style="fill:#c9e9ed"/><g style="clip-path:url(#a)"><path d="M781.428,802.069c-.138-.575-.306-1.69-1.238-1.311-.107.043-.035.523-.035.83.777-.041,1.664.193,1.728,1.379.006.139-.677.254-.72.471-.09.422-.658.9.824,1.357-.639-.838-.342-1.808-.559-2.726" transform="translate(-751.278 -797.424)" style="fill:#c9e9ed"/><path d="M752.881,826.338c-.062-1.5-.105-1.006-1.6-1.49.3.154,1.215.578,1.285.806.147.477-.053.7.194,1.122-.114.461-.9.461-.487,1.091.619.934.131,2.289,1.3,2.772.263.107.146-.289.453-.289,0-1.262-1.09-2.658-1.147-4.012" transform="translate(-751.278 -797.424)" style="fill:#c9e9ed"/><path d="M786.112,811.213c-.973-.1-.416.555-.457.916.154-.306.305-.613.457-.916" transform="translate(-751.278 -797.424)" style="fill:#c9e9ed"/><path d="M760.966,797.721c1.009.754,1.382,3,2.533,3.484-.928-.705-1.02-2.988-1.76-3.781l-.773.3" transform="translate(-751.278 -797.424)" style="fill:#c9e9ed"/><path d="M783.821,798.723c1.287-.369,1.135,1.3,2.291,1.375v-.916a2.223,2.223,0,0,1-1.381-.449l-.91-.01" transform="translate(-751.278 -797.424)" style="fill:#c9e9ed"/></g><path d="M782.319,811.19c.189,2.381-.334,3.674,2.188,2.758.572-.8-1.11-.127-1.294-.5-.091-.186,1.026-.643.95-.875s-1.287-.237-1.436-.491c-.262-.457.156-.918.4-1.343-.306.156-.822.32-.812.451" transform="translate(-751.278 -797.424)" style="fill:#c9e9ed"/><path d="M781.3,808.461c-.791.115-.82-.518-.865-.937-.014-.137.373-.354.342-.422-.445-.949-1.467-.332-2.231-.489.305,0,.741-.1.844.049.58.844,1.731,2.184.531,3.16.586-.753,1.928-.25,2.291-1.375a6.456,6.456,0,0,0-.912.014" transform="translate(-751.278 -797.424)" style="fill:#c9e9ed"/><path d="M779.116,804.172a10.814,10.814,0,0,0-2.981-.115,2.1,2.1,0,0,0,.8.459c.307,0,.317-.457.547-.381s.32.73.488.74c.971.053,1.819.477,2.746.559-.154-.307-.24-.733-.488-.856a2.6,2.6,0,0,0-1.115-.406" transform="translate(-751.278 -797.424)" style="fill:#c9e9ed"/><path d="M783.364,806.4c-.129-.278-.588.086-.811.406.832.553-.088,1.976.938,2.18.379.078.814-.438,1.353-.344-.445-1-1-1.213-1.48-2.242" transform="translate(-751.278 -797.424)" style="fill:#c9e9ed"/><path d="M765.8,818.178c-.791.115-.819-.518-.864-.936-.013-.138.371-.357.34-.424-.445-.947-1.467-.331-2.23-.488.306,0,.74-.1.843.051.581.844,1.733,2.182.534,3.158.584-.754,1.925-.25,2.291-1.375a6.47,6.47,0,0,0-.914.014" transform="translate(-751.278 -797.424)" style="fill:#c9e9ed"/><path d="M762.735,813.276c.316.894,1.117.824,1.836.916a2.855,2.855,0,0,0-1.836-.916" transform="translate(-751.278 -797.424)" style="fill:#c9e9ed"/><path d="M754.116,815.744c-.078-.033-.279.241-.432.4.488.26.8,1.289,1.268.81.451-.455-.352-1.384-.836-1.207" transform="translate(-751.278 -797.424)" style="fill:#c9e9ed"/><path d="M754.028,808.233c.293.648.875.423,1.375.459-.32-.571-.832-.559-1.375-.459" transform="translate(-751.278 -797.424)" style="fill:#c9e9ed"/><path d="M769.366,808.473c-.283-.285-.266-.375-.453-.44-.512-.181-.938.182-1.364.428,1.571-.328,2.2.945,1.833,2.293.308-.154.816-.305.816-.459a4.051,4.051,0,0,0-.832-1.822" transform="translate(-751.278 -797.424)" style="fill:#c9e9ed"/><path d="M777.245,828.229c-.283-.283-.264-.371-.451-.438-.514-.183-.94.18-1.366.428,1.573-.33,2.2.943,1.832,2.291.309-.154.817-.3.817-.457a4.058,4.058,0,0,0-.832-1.824" transform="translate(-751.278 -797.424)" style="fill:#c9e9ed"/><g style="clip-path:url(#a)"><path d="M762.278,807.774a2.036,2.036,0,0,1-.457,1.377.63.63,0,0,0,.853-.467,2.185,2.185,0,0,0-.4-.91" transform="translate(-751.278 -797.424)" style="fill:#c9e9ed"/><path d="M759.643,798.264a2.036,2.036,0,0,1-.459,1.375.629.629,0,0,0,.854-.465,2.165,2.165,0,0,0-.4-.91" transform="translate(-751.278 -797.424)" style="fill:#c9e9ed"/><path d="M759.643,831.266a2.032,2.032,0,0,1-.459,1.375.628.628,0,0,0,.854-.467,2.168,2.168,0,0,0-.4-.908" transform="translate(-751.278 -797.424)" style="fill:#c9e9ed"/><path d="M751.735,809.264c.316.9,1.115.826,1.834.918a2.853,2.853,0,0,0-1.834-.918" transform="translate(-751.278 -797.424)" style="fill:#c9e9ed"/></g><path d="M784.739,809.264c.314.9,1.115.826,1.834.918a2.857,2.857,0,0,0-1.834-.918" transform="translate(-751.278 -797.424)" style="fill:#c9e9ed"/><g style="clip-path:url(#a)"><path d="M754.028,831.379c-1.1.147-.141.973-.459,1.377,1.338-.064-.346-1.133.459-1.377" transform="translate(-751.278 -797.424)" style="fill:#c9e9ed"/><path d="M754.028,798.377c-1.1.147-.141.973-.459,1.377,1.338-.064-.346-1.133.459-1.377" transform="translate(-751.278 -797.424)" style="fill:#c9e9ed"/><path d="M786.022,818.446c-.084-.532-1.088-.67-1.121-.95-.131-1.134-.553-1.365-1.08-2.273-.154.154-.408.305-.408.457,0,.613.9.961,1.082,1.465.539,1.5.433,3.808.777,4.381.1-.051.832.763,1.07.994l-.32-4.074" transform="translate(-751.278 -797.424)" style="fill:#c9e9ed"/><path d="M756.51,798.479c.295.459.565.867.725,1.16a1.118,1.118,0,0,0,.154-1.031l-.879-.129" transform="translate(-751.278 -797.424)" style="fill:#c9e9ed"/></g><path d="M785.883,826.338c-.062-1.5-.1-1.006-1.6-1.49.3.154,1.215.578,1.285.806.147.477-.053.7.195,1.122-.115.461-.906.461-.488,1.091.494.746.281,1.764.777,2.387l-.166-3.916" transform="translate(-751.278 -797.424)" style="fill:#c9e9ed"/><g style="clip-path:url(#a)"><path d="M760.966,830.721c1.009.758,1.382,3,2.533,3.486-.928-.705-1.02-2.986-1.76-3.783-1.416-1.525-3.406-2.334-4.455-4.227-.379-.685.428-1.656-.506-2.265-.156,1.484-.141,3.074,1.012,4.006,1.193.966,1.959,1.875,3.176,2.783" transform="translate(-751.278 -797.424)" style="fill:#c9e9ed"/><path d="M769.966,797.545a2.341,2.341,0,0,0-.266.758q-1.005-.206-2.008-.414c-.545.621.682.851,1.521,1.256a13.348,13.348,0,0,0,1.653.865c-.113-.664-.7-1.662-.9-2.465" transform="translate(-751.278 -797.424)" style="fill:#c9e9ed"/><path d="M765.669,798.3c.584,1.254,1.043,1.916,1.24,1.459l-.459-1.6-.781.145" transform="translate(-751.278 -797.424)" style="fill:#c9e9ed"/><path d="M773.428,831.3c-.429-.486-.636-1.8-1.218-1.219s.683.832,1.218,1.219" transform="translate(-751.278 -797.424)" style="fill:#c9e9ed"/><path d="M774.962,798c-.27-.3-.721.049-.809.412-.143.6-.734,1.594-.047,1.825a2.3,2.3,0,0,1,1.832-.459c-1.578.023-.541-1.289-.976-1.778" transform="translate(-751.278 -797.424)" style="fill:#c9e9ed"/></g><path d="M774.962,831c-.27-.3-.721.049-.809.412-.143.6-.734,1.594-.047,1.825a2.3,2.3,0,0,1,1.832-.459c-1.578.025-.541-1.291-.976-1.778" transform="translate(-751.278 -797.424)" style="fill:#c9e9ed"/><g style="clip-path:url(#a)"><path d="M779.522,830.571c.1-.184.461.058.633.275-.65.369.068,1.324-.732,1.463-.295.051-.635-.295-1.055-.233.348-.673.785-.814,1.154-1.505" transform="translate(-751.278 -797.424)" style="fill:#c9e9ed"/><path d="M779.522,797.569c.1-.184.461.058.633.275-.65.369.068,1.326-.732,1.461-.295.053-.635-.293-1.055-.233.348-.671.785-.812,1.154-1.5" transform="translate(-751.278 -797.424)" style="fill:#c9e9ed"/></g><path d="M765.335,824.123c.314.9,1.115.825,1.832.916a2.86,2.86,0,0,0-1.832-.916" transform="translate(-751.278 -797.424)" style="fill:#c9e9ed"/><g style="clip-path:url(#a)"><path d="M783.821,822.442c.293.648.877.425,1.375.459-.32-.571-.832-.557-1.375-.459" transform="translate(-751.278 -797.424)" style="fill:#c9e9ed"/><path d="M786.573,801.129c-.5.031-1.316-.176-1.26.445.051.59.594,1.215.281,1.815-.13.25-.55.336-.855.49-.5-1.39-2.029-2.049-2.322-3.662-.088-.469-.315-1.287-.784-.818s.67.586.686.82a6.6,6.6,0,0,0,2.309,4.223c.23.238-.032,1.009.58,1.238.509.189,1.05-.424,1.3-.3l-.035-.2a2.225,2.225,0,0,1-1.127-1.344c-.1-.343.7-.777,1.227-.808l0-1.9" transform="translate(-751.278 -797.424)" style="fill:#c9e9ed"/></g><path d="M769,828.1a2.039,2.039,0,0,1-.457,1.375A.63.63,0,0,0,769.4,829a2.158,2.158,0,0,0-.4-.908" transform="translate(-751.278 -797.424)" style="fill:#c9e9ed"/><path d="M767.458,818.067c1.027-.02.07-.692.32-.973q-.161.489-.32.973" transform="translate(-751.278 -797.424)" style="fill:#c9e9ed"/><path d="M783.364,818.776a2.025,2.025,0,0,1-.459,1.375.629.629,0,0,0,.853-.465,2.181,2.181,0,0,0-.394-.91" transform="translate(-751.278 -797.424)" style="fill:#c9e9ed"/><path d="M779.389,827.485a2.013,2.013,0,0,0,.651,1.294.628.628,0,0,1-.912-.337,2.2,2.2,0,0,1,.261-.957" transform="translate(-751.278 -797.424)" style="fill:#c9e9ed"/><path d="M758.309,830.283c.459-1-.746-.634-.92-1.119-.658,1.168,1.143.311.92,1.119" transform="translate(-751.278 -797.424)" style="fill:#c9e9ed"/><path d="M774.348,826.568c-.974-.1-.418.551-.457.917.153-.307.3-.614.457-.917" transform="translate(-751.278 -797.424)" style="fill:#c9e9ed"/><path d="M768.557,801.3c.77.207.545.8.42,1.2-.041.133-.48.178-.478.252.033,1.049,1.217.885,1.855,1.332-.281-.123-.721-.2-.754-.383-.2-1-.728-2.685.76-3.111-.836.463-1.869-.531-2.648.359a6.194,6.194,0,0,0,.845.346" transform="translate(-751.278 -797.424)" style="fill:#c9e9ed"/><path d="M759.528,817.094c-.973-.1-.418.555-.459.918.154-.307.305-.613.459-.918" transform="translate(-751.278 -797.424)" style="fill:#c9e9ed"/><path d="M760.9,820.455c.293.651.877.426,1.375.459-.32-.57-.832-.556-1.375-.459" transform="translate(-751.278 -797.424)" style="fill:#c9e9ed"/><path d="M774.044,813.428c-.975-.1-.42.553-.459.918.154-.309.3-.613.459-.918" transform="translate(-751.278 -797.424)" style="fill:#c9e9ed"/><path d="M771.282,804.565c.074.363-.168.636-.367.925.355.083.654-.08.683-.314,0-.227-.195-.406-.316-.611" transform="translate(-751.278 -797.424)" style="fill:#c9e9ed"/><path d="M767.971,804.41c-.277-2.634-.345,0-.5,0,.436.174,1.071.153.916.918a2.968,2.968,0,0,1-.418-.92" transform="translate(-751.278 -797.424)" style="fill:#c9e9ed"/><path d="M758.51,808.08c1.532.465.162.838,1.932,1.194.736-.389.707-1.387.582-2.231-.029-.195-.4-.775-.461-1.074-.088.33-.172.656-.26.99s-.043,1.123-.144,1.164a2.389,2.389,0,0,1-1.649-.043" transform="translate(-751.278 -797.424)" style="fill:#c9e9ed"/><g style="clip-path:url(#a)"><path d="M758.975,804.119c.211-.775.86-.486,1.2-.287.28.162.36.778-.035.887-.422.115-.908-.506-1.455.822.092-.478.158-.943.291-1.422" transform="translate(-751.278 -797.424)" style="fill:#c9e9ed"/><line x1="24.596" y1="5.307" x2="28.264" y2="1.641" style="fill:#c9e9ed"/><line x1="24.596" y1="1.641" x2="28.264" y2="5.307" style="fill:#c9e9ed"/></g><path d="M789.091,814.3a1.47,1.47,0,0,0-.456-.016,3.025,3.025,0,0,0,.918,1.375c.155-.306.457-.658.381-.89s-.519-.362-.843-.469" transform="translate(-751.278 -797.424)" style="fill:#c9e9ed"/><path d="M799.45,831.16c-.459-.306-.8-2.865-1.262-3.209-.18-.134-.457-.416-.457-.57,0-.308-.168-.269-.166-.574,0-.614-.453-1.412-1.293-1.233-.223.047-.408.606.84,1.311.135.076-.012.561.086.818,1.221,3.231,2.367,5.866,2.711,5.063l-.459-1.606" transform="translate(-751.278 -797.424)" style="fill:#c9e9ed"/><path d="M794.37,825.965c-.438.15-1.033.656-.973.809.561,1.422,1.108,2.019,1.68,2.041s-.742-.879-1.039-1.51,1.187-1.51.927-1.889-.283.194-.6.549" transform="translate(-751.278 -797.424)" style="fill:#c9e9ed"/><path d="M792.987,825.307c-.357-1.17-.24-1.287-1.834-1.834.463.142.344-.035.459,1.375.014.18,1.066.306,1.375.459" transform="translate(-751.278 -797.424)" style="fill:#c9e9ed"/><path d="M791.6,819.811c-.125-.323-.275-.807-.457-.824-1.222-.112-1.467-1.047-1.824-1.93.8-.223,1.365-1.018,2.293-.916-.43-.25-.914-.695-1.326-.391-.153.112.013.725-.082.756-1.754.6-1.315,1.916-.356,2.76.1.086.629-.389.8-.293.77.437-.3,2.779.508,2.209.4-.426,1.027-.887,1.73.074.305.416.1,1.147.1,1.76.229.457,1.26.195,1.285-.463.053-1.576-2.119-1.342-2.672-2.742" transform="translate(-751.278 -797.424)" style="fill:#c9e9ed"/><path d="M797.1,821.188c-.139-.176-.3-.416-.451-.416s-.305.256-.459.41c.307.154.807.285.82.465a1.981,1.981,0,0,1-1.279,2.285c1.856.556,2.377-1.486,1.369-2.744" transform="translate(-751.278 -797.424)" style="fill:#c9e9ed"/><path d="M799.051,820.258c.188,2.381-.335,3.674,2.186,2.758.572-.8-1.109-.129-1.293-.5-.092-.186,1.025-.643.949-.873s-1.287-.238-1.435-.492c-.262-.457.156-.916.4-1.344-.307.156-.82.322-.811.453" transform="translate(-751.278 -797.424)" style="fill:#c9e9ed"/><path d="M801.671,819.869c-.08-.031-.28.243-.434.4.488.264.8,1.289,1.271.812.45-.455-.355-1.384-.837-1.207" transform="translate(-751.278 -797.424)" style="fill:#c9e9ed"/><path d="M795.126,815.717c-.268-.3-.719.051-.807.416-.143.6-.734,1.594-.047,1.822a2.3,2.3,0,0,1,1.834-.459c-1.578.024-.541-1.289-.98-1.779" transform="translate(-751.278 -797.424)" style="fill:#c9e9ed"/><path d="M804.6,822.213c1.7.23,1.867,1.7,2.8,2.584.164.154.631-.053.826.1a1.747,1.747,0,0,1,.5,1.785c.781-1.014,1.606.377,2.17-.133,1.026-.934.922-2.441,2.412-3.076-.24-1.164-1.275-1.8-1.834-2.75.5,1.6,1.739,3.318-.457,4.125.155.152.407.306.407.459a1.03,1.03,0,0,1-.438.846,1.365,1.365,0,0,1-1.734-.426,5.817,5.817,0,0,0-1.77-1.944c-.41-.373.018-1.47-.59-2.142-.156.152-.388.506-.449.394-.584-1.084-1.385-.968-1.613-.283l-.231.461" transform="translate(-751.278 -797.424)" style="fill:#c9e9ed"/><path d="M804.253,824.535h0c-.122.1-.77-.248-.778-.418-.049-.99-.234-2-1.474-1.83,1.472,1.2,1.892,3.006,2.693,4.614.272.548-1.625,1.922-.859,2.378l1.375-.572c.4.424.869.707,1.834,0-.657.028-1.426.121-1.77-.5-.564-1.012-.074-1.578-.162-2.707-.014-.178-.656-.254-.746-.492a1.45,1.45,0,0,1-.113-.477" transform="translate(-751.278 -797.424)" style="fill:#c9e9ed"/><path d="M802.966,830.549a2.315,2.315,0,0,0-.266.756c-.67-.137-1.338-.276-2.008-.412-.545.619.682.849,1.522,1.256a13.809,13.809,0,0,0,1.652.863c-.113-.666-.705-1.662-.9-2.463" transform="translate(-751.278 -797.424)" style="fill:#c9e9ed"/><path d="M809.03,806.971c.293.65.877.426,1.375.459-.32-.57-.834-.557-1.375-.459" transform="translate(-751.278 -797.424)" style="fill:#c9e9ed"/><g style="clip-path:url(#a)"><path d="M814.723,830.8c-.277-2.633-.345,0-.5,0,.438.174,1.071.15.918.916a2.942,2.942,0,0,1-.418-.92" transform="translate(-751.278 -797.424)" style="fill:#c9e9ed"/><path d="M815.446,828.973a.637.637,0,0,0-.467-.86c-.527-.078-1.215-.255-1.228-.523a2.041,2.041,0,0,0-1.514-1.826,9.1,9.1,0,0,0,3.158,3.283c.151.106-.031.574.092.82.4.813,1.621-.074,1.736,1.4.012.14-.25.3-.4.453,1.287-.367,1.135,1.3,2.291,1.375v-.916c-.541.094-.932-.229-1.381-.449-1.41-.7.059-2.475-2.285-2.76" transform="translate(-751.278 -797.424)" style="fill:#c9e9ed"/></g><path d="M816.788,825.313c-.125-.557-.362-1.2-.9-1.3-.429-.076-.9-.655-1.359.83,1.422-.455,1.824.74,2.291,1.834a6.2,6.2,0,0,0-.033-1.369" transform="translate(-751.278 -797.424)" style="fill:#c9e9ed"/><path d="M814.571,820.7a2.154,2.154,0,0,1-.041-.9,1.483,1.483,0,0,0-.358,1.76c.17.228.815.076,1.274.076a4.137,4.137,0,0,1-.875-.94" transform="translate(-751.278 -797.424)" style="fill:#c9e9ed"/><path d="M806.891,818.432c.028.305.157.76.037.834a4.261,4.261,0,0,1-1.775.252c.17.14.314.338.508.385.527.13,1.054-.532,1.238-.424,1.191.685,2.547,2.875,3.539,3.865.137-.166-.59-1.592-.619-1.629-1.1-1.371-1.869-1.959-2.928-3.283" transform="translate(-751.278 -797.424)" style="fill:#c9e9ed"/><path d="M809.356,817.256c-.4.264-1.211.25-.824.9.785,1.319,2.519,1.333,3.592,2.338.267-1.291,1.927-.982,2.7-1.877.154-.179.006-.568.076-.867.108-.467.127-1.076.891-.92-.153-.156-.3-.306-.457-.461-.817,1.2-.989-.13-1.832,0,.306.155.763.254.836.485a2.056,2.056,0,0,1-.4,2.242c-.25.227-.678.5-.847.4a1.59,1.59,0,0,1-.506-1.746c-.744.688-1.092,2.319-2.215,1.694a6.088,6.088,0,0,1-1.309-1.356c-.67-.808,1.483-.57,1.233-1.715a5.9,5.9,0,0,1-.934.889" transform="translate(-751.278 -797.424)" style="fill:#c9e9ed"/><path d="M805.118,817.086c.084-.111.637.184.764.059.281-.285,1.119-.686,1.2-1.135.273.209.718.406.718.627,0,.592-1.5.709-2.373,1.01a1.263,1.263,0,0,0-.738,1.183,4.216,4.216,0,0,1,.424-1.744" transform="translate(-751.278 -797.424)" style="fill:#c9e9ed"/><path d="M803.012,817.344c.3-.984-.513-.67-.859-.1-.229.573-.562,2.283.918,2.352.148.006.3-.252.459-.4-.324-.276-1.561,1.562-.518-1.852" transform="translate(-751.278 -797.424)" style="fill:#c9e9ed"/><path d="M788.059,828.055c-.213,1.193,1.617,3.574,2.178,4.586a1.124,1.124,0,0,0,.152-1.031c-.232-1.211-1.609-2.008-1.6-3.577-.344-.572-.305-.953-1.307-.894l.574.916" transform="translate(-751.278 -797.424)" style="fill:#c9e9ed"/><path d="M785.27,821.524c.1-.049.832.763,1.07,1l-.167-.223c-.655-.893.064-2.521-.151-3.851-.09-.532-1.09-.67-1.123-.95l.371,4.028" transform="translate(-751.278 -797.424)" style="fill:#c9e9ed"/><path d="M786.417,823.283c1.4.772-.014.854,1.642,1.565.8-.229.979-1.211,1.032-2.063.011-.2-.231-.842-.231-1.144-.154.3-.3.6-.457.914s-.277,1.09-.383,1.109a2.386,2.386,0,0,1-1.6-.381" transform="translate(-751.278 -797.424)" style="fill:#c9e9ed"/><path d="M796.118,830.615v.918a2.022,2.022,0,0,1,1.377-.459c-.461-.154-.92-.3-1.377-.459" transform="translate(-751.278 -797.424)" style="fill:#c9e9ed"/><path d="M788,818.987c.3-.985-.516-.67-.86-.1-.228.572-.562,2.287.92,2.351.147.008.3-.248.455-.4-.322-.273-1.558,1.565-.515-1.849" transform="translate(-751.278 -797.424)" style="fill:#c9e9ed"/><path d="M785.206,805.68c.51.189,1.05-.424,1.3-.3,1.315.635,1.2,2.178,2.856.852.021-.016.375.26.353.39-.074.467-.554.862-.367,1.371.131.36.491.432.858.553,1.138.379-.285,1.525,1.341,2.334.186.092.206.863-.009,1.2-.485.77-1.43.487-2.221.5a2.176,2.176,0,0,1,1.834.918c-.154-.306-.305-.611-.459-.918l1.834-.916c-.307-.154-.75-.246-.846-.486-.213-.531.094-1.268-.154-1.764-.062-.127-.643.063-.773-.094-.745-.875-.364-2.429-1.116-2.961-1.222-.865-3.7-.582-4.293-2.533-.1-.343.7-.777,1.227-.808.6-.037,1.133.414,1.371,1.312a1.2,1.2,0,0,1,.5-1.279c.9-.348.832,1.5,1.77,1.2a.85.85,0,0,0,.406-.808c-.076-.237-.533-.436-.838-.436-.156,0-.357.377-.434.346-.937-.4-2.187-.286-2.732-1.334a2.058,2.058,0,0,1-.043-.9c-.5.033-1.314-.174-1.258.447.051.588.592,1.215.281,1.813-.13.252-.55.336-.857.492l.471,1.8" transform="translate(-751.278 -797.424)" style="fill:#c9e9ed"/><path d="M791.891,801.127c.235.086.33.537.485.84.3-.152.611-.3.916-.457.81,1.982,2.193,4.539,4.584,4.584v-.918a1.265,1.265,0,0,1-1.3-.5c-.418-.723.949-1.148-.074-2.248-.01.791.254,1.912-.5,2.139-.914.275-1.516-1.137-1.328-2.139-.305,0-.776.078-.834-.041-.559-1.195-2.014-1.457-2.373-2.711-.75.824-2.073,1.006-2.293,2.291,1.119.3,1.73-1.2,2.724-.84" transform="translate(-751.278 -797.424)" style="fill:#c9e9ed"/><path d="M786.11,811.213c-.973-.1-.418.555-.457.916.152-.306.305-.613.457-.916" transform="translate(-751.278 -797.424)" style="fill:#c9e9ed"/><path d="M788.475,811.266a1.637,1.637,0,0,0,.385-1.43c-.307.154-.818.317-.812.453.046,1.02-.918,1.754-.563,2.756.635-.447.584-1.242.99-1.779" transform="translate(-751.278 -797.424)" style="fill:#c9e9ed"/><path d="M786.11,813.961c-.127,1.02.678.172.918.459-.307-.156-.611-.3-.918-.459" transform="translate(-751.278 -797.424)" style="fill:#c9e9ed"/><path d="M794.409,813.043c-.08-1.556,1.111-2.42,2.244-3.207a2.009,2.009,0,0,1-1.381.862c-.139.013-.3-.352-.451-.352-.307,0-.8.232-.822.418-.082.888-.473,1.8.277,2.8.094.129-.221.547-.373.853-.305-.156-.611-.3-.916-.459q-.463.918-.916,1.836c1.389-.2,1.582-1.828,2.75-2.293-.156-.154-.4-.3-.412-.461" transform="translate(-751.278 -797.424)" style="fill:#c9e9ed"/><path d="M797.352,810.926c.778-.08.764.58.766,1,0,.449-.276.613.723,1.578.2.188.234.844.439,1.293.168-.139.332-.273.5-.414-.289-.182-.7-.311-.8-.566-.148-.393.194-1.022-.017-1.276-.352-.424-1.112-.65-1.1-1.572,0-.141.4-.32.379-.385a3.613,3.613,0,0,1-.215-1.894c-.941.527-.617,1.437-.676,2.234" transform="translate(-751.278 -797.424)" style="fill:#c9e9ed"/><path d="M801.829,812.647c-.766-.954-1.756.054-2.309-1.164.8.285.324-.215,1.805-.477-.037.342-.178.858-.057.93,1.485.853.713,2.742,1.858,3.9-.213.049-.422.094-.633.139a5.519,5.519,0,0,0-.567-1.875c-1.05-.692.561-.631-.1-1.453" transform="translate(-751.278 -797.424)" style="fill:#c9e9ed"/><path d="M798.577,807.2c-1.112.9-1.08-.243-1.924-.112.154.309.305.612.459.918.781-1.012,1.574.373,2.184-.129.482-.4-.58-.791-.719-.677" transform="translate(-751.278 -797.424)" style="fill:#c9e9ed"/><path d="M799.481,804.744c-.01-.17-.635-.246-.754-.494-.635-1.32-.2-1.685.451-2.709a.636.636,0,0,0-.861.467c-.127.768.361.707-.441,1.488-.235.231.814.821,1.009,1.334.379.985,1.192,1.28,1.707,2.147.174.293.78-.1.729-.389-.176-1.029-1.725.346-1.84-1.844" transform="translate(-751.278 -797.424)" style="fill:#c9e9ed"/><path d="M799.733,827.172c-.248.176.189.565.547.727.394-.918,1.959-.262,1.978-1.311.01-.385-.574-.723-.58-1.27-.91.618-1.015,1.206-1.945,1.854" transform="translate(-751.278 -797.424)" style="fill:#c9e9ed"/><path d="M803.53,807.315c.457-1-.748-.633-.922-1.117-.658,1.169,1.143.306.922,1.117" transform="translate(-751.278 -797.424)" style="fill:#c9e9ed"/><path d="M804.653,806.836c.311-.15.615-.3.922-.449.152.311.461.682.365.883-.617,1.318.188,2.678.586,3.9a.967.967,0,0,1,1.324.494c.567,1.1,1.744,2.8,1.864,4.088-.336-.064-.86-.07-.905-.224-.56-1.956-2.174-4.971-4.365-5.461-.072-.018-.129-.379-.068-.567.17-.517.9-.525,1.074-.871.33-.65-.373-1.24-.8-1.793" transform="translate(-751.278 -797.424)" style="fill:#c9e9ed"/><path d="M803.6,812.586c.078-.3-.183-.68.149-1,.543,1.324.564,2.834,2.008,3.83-.579.412-.971-.076-1.418-.3.7-1.074-1.02-1.417-.739-2.527" transform="translate(-751.278 -797.424)" style="fill:#c9e9ed"/><path d="M806.315,803.4c-.361-.705.891-1.77,1.3-1.67a1.237,1.237,0,0,1,.953,1.689c1.879-.1,4.154-2,2.637-3.557-.323-.328-1.133.1-1.721.348a1.679,1.679,0,0,1,1.293,2.25,1.332,1.332,0,0,1-1.293.518c-1.236-.094-.688-1.225-1.393-1.832a1.433,1.433,0,0,0-.894-.42c-.535.043-.947.545-1.42.775-.188.094-.674-.152-.82-.408a.932.932,0,0,1,.4-1.342c-.768-.154-.9.553-.816.895.191.84,1.728.728,1.689,1.855-.02.617-.432,1.137-1.33,1.377,2.008-.43,1.533,1.8,2.971,2.289.91.309.476-.5.39-.838-.228-.884-1.539-1.131-1.951-1.929" transform="translate(-751.278 -797.424)" style="fill:#c9e9ed"/><path d="M809.341,809.047a4.584,4.584,0,0,1-.922-.433c.738.519.033,1.289,1.3,1.964.309.162.186.924-.384,1.245.152.156.3.3.457.458a8.176,8.176,0,0,1,.459-3.207,3.743,3.743,0,0,1-.912-.027" transform="translate(-751.278 -797.424)" style="fill:#c9e9ed"/><path d="M812.645,811.059a2.378,2.378,0,0,0-.408-.916c-.154.154-.426.363-.4.428a3.576,3.576,0,0,1,.4,1.863,4.687,4.687,0,0,0,.408-1.375" transform="translate(-751.278 -797.424)" style="fill:#c9e9ed"/><path d="M812,814.545c-.78-.195-.846.512-.84.906,0,.323.5.7.789.4.308-.309.006-1.039,1.429-.864-.461-.154-.9-.326-1.378-.447" transform="translate(-751.278 -797.424)" style="fill:#c9e9ed"/><path d="M814.45,814.262c-.432-.484-.635-1.8-1.219-1.217s.684.834,1.219,1.217" transform="translate(-751.278 -797.424)" style="fill:#c9e9ed"/><path d="M814.426,802.069c-.136-.577-.3-1.692-1.236-1.313-.107.045-.035.523-.035.832.777-.043,1.666.193,1.728,1.379.006.137-.675.254-.72.471-.09.42-.658.9.826,1.357-.641-.838-.344-1.81-.563-2.726" transform="translate(-751.278 -797.424)" style="fill:#c9e9ed"/><g style="clip-path:url(#a)"><path d="M785.882,826.338c-.063-1.5-.1-1.008-1.6-1.49.305.152,1.215.578,1.285.806.147.477-.053.7.194,1.122-.114.461-.9.461-.487,1.091.619.932.131,2.289,1.305,2.77.264.109.146-.287.453-.287,0-1.262-1.09-2.66-1.146-4.012" transform="translate(-751.278 -797.424)" style="fill:#c9e9ed"/><path d="M819.112,811.213c-.973-.1-.418.555-.457.916.154-.306.305-.613.457-.916" transform="translate(-751.278 -797.424)" style="fill:#c9e9ed"/><path d="M793.966,797.719c1.009.756,1.382,3,2.533,3.484-.928-.7-1.02-2.986-1.76-3.779l-.773.295" transform="translate(-751.278 -797.424)" style="fill:#c9e9ed"/><path d="M816.821,798.721c1.287-.367,1.135,1.3,2.291,1.375v-.916a2.21,2.21,0,0,1-1.381-.449l-.91-.01" transform="translate(-751.278 -797.424)" style="fill:#c9e9ed"/></g><path d="M815.319,811.19c.191,2.381-.334,3.672,2.188,2.756.572-.8-1.11-.125-1.293-.5-.094-.188,1.025-.643.949-.877s-1.287-.235-1.436-.489c-.261-.459.156-.918.4-1.343-.306.154-.822.32-.812.451" transform="translate(-751.278 -797.424)" style="fill:#c9e9ed"/><path d="M814.3,808.461c-.791.113-.82-.519-.865-.939-.012-.137.373-.352.342-.42-.443-.949-1.467-.332-2.231-.49.305,0,.741-.1.844.05.58.844,1.731,2.182.531,3.16.586-.755,1.928-.25,2.291-1.375a6.451,6.451,0,0,0-.912.014" transform="translate(-751.278 -797.424)" style="fill:#c9e9ed"/><path d="M812.116,804.172a10.814,10.814,0,0,0-2.981-.115,2.126,2.126,0,0,0,.8.457c.307,0,.317-.455.547-.379s.32.73.488.74c.971.053,1.819.475,2.746.559-.154-.309-.24-.733-.488-.858a2.6,2.6,0,0,0-1.115-.4" transform="translate(-751.278 -797.424)" style="fill:#c9e9ed"/><path d="M816.364,806.4c-.129-.276-.59.088-.813.406.834.555-.085,1.976.94,2.182.377.076.812-.438,1.355-.344-.447-1-1.007-1.213-1.482-2.244" transform="translate(-751.278 -797.424)" style="fill:#c9e9ed"/><path d="M798.8,818.178c-.791.115-.819-.518-.864-.938-.013-.136.371-.355.34-.422-.443-.947-1.467-.331-2.23-.488.306,0,.74-.1.843.051.58.842,1.733,2.182.534,3.158.584-.756,1.925-.25,2.291-1.375a6.47,6.47,0,0,0-.914.014" transform="translate(-751.278 -797.424)" style="fill:#c9e9ed"/><path d="M795.735,813.274c.316.9,1.117.826,1.836.916a2.865,2.865,0,0,0-1.836-.916" transform="translate(-751.278 -797.424)" style="fill:#c9e9ed"/><path d="M787.116,815.744c-.076-.033-.279.241-.432.4.489.26.8,1.289,1.27.81.449-.455-.354-1.384-.838-1.207" transform="translate(-751.278 -797.424)" style="fill:#c9e9ed"/><path d="M787.028,808.231c.293.65.877.425,1.375.461-.32-.573-.832-.559-1.375-.461" transform="translate(-751.278 -797.424)" style="fill:#c9e9ed"/><path d="M802.366,808.473c-.283-.287-.266-.377-.453-.442-.512-.181-.938.182-1.364.43,1.571-.328,2.2.945,1.833,2.293.308-.154.816-.305.816-.459a4.042,4.042,0,0,0-.832-1.822" transform="translate(-751.278 -797.424)" style="fill:#c9e9ed"/><path d="M810.245,828.229c-.283-.283-.264-.373-.451-.438-.514-.185-.94.18-1.366.428,1.573-.33,2.2.941,1.832,2.291.309-.154.817-.305.817-.457a4.049,4.049,0,0,0-.832-1.824" transform="translate(-751.278 -797.424)" style="fill:#c9e9ed"/><g style="clip-path:url(#a)"><path d="M795.278,807.774a2.036,2.036,0,0,1-.457,1.377.631.631,0,0,0,.853-.467,2.149,2.149,0,0,0-.4-.91" transform="translate(-751.278 -797.424)" style="fill:#c9e9ed"/><path d="M792.643,798.264a2.036,2.036,0,0,1-.459,1.375.63.63,0,0,0,.854-.465,2.165,2.165,0,0,0-.395-.91" transform="translate(-751.278 -797.424)" style="fill:#c9e9ed"/></g><path d="M792.643,831.266a2.036,2.036,0,0,1-.459,1.375.628.628,0,0,0,.854-.467,2.168,2.168,0,0,0-.395-.908" transform="translate(-751.278 -797.424)" style="fill:#c9e9ed"/><g style="clip-path:url(#a)"><path d="M784.735,809.264c.316.894,1.115.826,1.834.918a2.843,2.843,0,0,0-1.834-.918" transform="translate(-751.278 -797.424)" style="fill:#c9e9ed"/><path d="M817.737,809.264c.314.894,1.117.826,1.834.918a2.843,2.843,0,0,0-1.834-.918" transform="translate(-751.278 -797.424)" style="fill:#c9e9ed"/><path d="M787.028,831.379c-1.1.147-.141.971-.459,1.375,1.34-.062-.346-1.131.459-1.375" transform="translate(-751.278 -797.424)" style="fill:#c9e9ed"/><path d="M787.028,798.377c-1.1.145-.141.973-.459,1.375,1.34-.062-.346-1.131.459-1.375" transform="translate(-751.278 -797.424)" style="fill:#c9e9ed"/><path d="M819.022,818.446c-.084-.532-1.09-.67-1.121-.95-.131-1.134-.553-1.365-1.08-2.275-.154.156-.408.307-.408.459,0,.613.9.959,1.082,1.465.539,1.5.433,3.806.777,4.379.1-.049.832.763,1.068,1l-.318-4.074" transform="translate(-751.278 -797.424)" style="fill:#c9e9ed"/><path d="M789.51,798.479c.3.459.565.865.727,1.16a1.124,1.124,0,0,0,.152-1.031l-.879-.129" transform="translate(-751.278 -797.424)" style="fill:#c9e9ed"/><path d="M818.883,826.338c-.062-1.5-.1-1.008-1.6-1.49.305.152,1.215.578,1.285.806.145.477-.053.7.195,1.122-.115.461-.906.461-.488,1.091.494.746.281,1.764.777,2.385l-.166-3.914" transform="translate(-751.278 -797.424)" style="fill:#c9e9ed"/><path d="M793.966,830.721c1.009.758,1.382,3,2.533,3.486-.928-.705-1.02-2.986-1.76-3.785-1.416-1.523-3.406-2.332-4.455-4.225-.379-.687.428-1.656-.506-2.265-.156,1.484-.141,3.072,1.012,4,1.193.967,1.959,1.877,3.176,2.785" transform="translate(-751.278 -797.424)" style="fill:#c9e9ed"/><path d="M802.966,797.545a2.341,2.341,0,0,0-.266.758q-1.005-.206-2.008-.414c-.545.621.682.851,1.522,1.256a13.265,13.265,0,0,0,1.652.865c-.113-.666-.705-1.664-.9-2.465" transform="translate(-751.278 -797.424)" style="fill:#c9e9ed"/><path d="M798.669,798.3c.584,1.254,1.043,1.916,1.24,1.461l-.459-1.6-.781.143" transform="translate(-751.278 -797.424)" style="fill:#c9e9ed"/><path d="M806.428,831.3c-.429-.488-.636-1.8-1.218-1.219s.683.83,1.218,1.219" transform="translate(-751.278 -797.424)" style="fill:#c9e9ed"/><path d="M807.962,798c-.27-.3-.721.047-.809.41-.143.6-.734,1.6-.047,1.825a2.31,2.31,0,0,1,1.832-.457c-1.578.023-.541-1.291-.976-1.778" transform="translate(-751.278 -797.424)" style="fill:#c9e9ed"/></g><path d="M807.962,831c-.27-.3-.721.049-.809.412-.143.6-.734,1.594-.047,1.823a2.3,2.3,0,0,1,1.832-.457c-1.578.023-.541-1.291-.976-1.778" transform="translate(-751.278 -797.424)" style="fill:#c9e9ed"/><g style="clip-path:url(#a)"><path d="M812.522,830.571c.1-.184.461.058.633.275-.65.369.068,1.324-.733,1.463-.294.051-.634-.295-1.054-.233.347-.673.785-.816,1.154-1.505" transform="translate(-751.278 -797.424)" style="fill:#c9e9ed"/><path d="M812.522,797.567c.1-.184.461.058.633.277-.65.367.068,1.324-.733,1.461-.294.053-.634-.293-1.054-.233.347-.671.785-.814,1.154-1.5" transform="translate(-751.278 -797.424)" style="fill:#c9e9ed"/></g><path d="M798.335,824.123c.314.893,1.115.825,1.832.916a2.86,2.86,0,0,0-1.832-.916" transform="translate(-751.278 -797.424)" style="fill:#c9e9ed"/><g style="clip-path:url(#a)"><path d="M816.821,822.44c.293.65.877.427,1.375.461-.32-.571-.834-.557-1.375-.461" transform="translate(-751.278 -797.424)" style="fill:#c9e9ed"/><path d="M819.571,801.127c-.5.033-1.314-.174-1.258.447.051.588.592,1.215.281,1.813-.13.252-.55.336-.857.492-.5-1.39-2.027-2.049-2.322-3.662-.084-.469-.315-1.289-.782-.818s.67.586.686.818a6.6,6.6,0,0,0,2.309,4.225c.228.236-.032,1.009.58,1.238.509.189,1.05-.424,1.3-.3l-.035-.2a2.229,2.229,0,0,1-1.125-1.344c-.105-.343.7-.777,1.225-.808l0-1.9" transform="translate(-751.278 -797.424)" style="fill:#c9e9ed"/></g><path d="M802,828.1a2.032,2.032,0,0,1-.457,1.375A.631.631,0,0,0,802.4,829a2.136,2.136,0,0,0-.4-.908" transform="translate(-751.278 -797.424)" style="fill:#c9e9ed"/><path d="M800.458,818.067c1.027-.02.07-.694.32-.973q-.16.489-.32.973" transform="translate(-751.278 -797.424)" style="fill:#c9e9ed"/><path d="M816.364,818.776a2.017,2.017,0,0,1-.459,1.373.628.628,0,0,0,.853-.465,2.173,2.173,0,0,0-.394-.908" transform="translate(-751.278 -797.424)" style="fill:#c9e9ed"/><path d="M812.391,827.483a2.02,2.02,0,0,0,.649,1.3.629.629,0,0,1-.912-.339,2.187,2.187,0,0,1,.263-.957" transform="translate(-751.278 -797.424)" style="fill:#c9e9ed"/><path d="M791.309,830.283c.459-1-.746-.634-.92-1.119-.658,1.168,1.143.309.92,1.119" transform="translate(-751.278 -797.424)" style="fill:#c9e9ed"/><path d="M807.348,826.567c-.974-.1-.418.552-.457.916.153-.305.305-.612.457-.916" transform="translate(-751.278 -797.424)" style="fill:#c9e9ed"/><path d="M801.557,801.295c.772.209.547.8.42,1.207-.041.133-.48.178-.478.252.033,1.049,1.217.885,1.855,1.332-.281-.123-.719-.2-.754-.383-.2-1-.728-2.685.762-3.111-.838.463-1.871-.531-2.65.357a5.949,5.949,0,0,0,.845.346" transform="translate(-751.278 -797.424)" style="fill:#c9e9ed"/><path d="M792.528,817.094c-.973-.106-.418.553-.457.918.152-.309.3-.613.457-.918" transform="translate(-751.278 -797.424)" style="fill:#c9e9ed"/><path d="M793.9,820.455c.293.649.877.424,1.375.457-.32-.57-.832-.554-1.375-.457" transform="translate(-751.278 -797.424)" style="fill:#c9e9ed"/><path d="M807.044,813.426c-.975-.1-.418.555-.459.92.154-.309.3-.613.459-.92" transform="translate(-751.278 -797.424)" style="fill:#c9e9ed"/><path d="M804.282,804.565c.074.363-.168.636-.367.923.355.085.654-.08.683-.312,0-.227-.195-.406-.316-.611" transform="translate(-751.278 -797.424)" style="fill:#c9e9ed"/><path d="M800.971,804.408c-.277-2.632-.345,0-.5,0,.436.176,1.071.155.916.92a3,3,0,0,1-.418-.922" transform="translate(-751.278 -797.424)" style="fill:#c9e9ed"/><path d="M791.51,808.078c1.532.465.163.84,1.932,1.194.736-.389.707-1.387.582-2.231-.029-.2-.4-.773-.461-1.074-.088.33-.172.656-.26.99s-.043,1.123-.144,1.166a2.383,2.383,0,0,1-1.649-.045" transform="translate(-751.278 -797.424)" style="fill:#c9e9ed"/><path d="M791.975,804.119c.211-.775.86-.486,1.2-.287.282.16.36.778-.035.887-.422.115-.908-.508-1.455.822.092-.478.158-.943.291-1.422" transform="translate(-751.278 -797.424)" style="fill:#c9e9ed"/><path d="M780,825.307c-.356-1.17-.241-1.287-1.834-1.834.465.142.343-.035.459,1.375.015.18,1.068.306,1.375.459" transform="translate(-751.278 -797.424)" style="fill:#c9e9ed"/></svg>