<svg xmlns="http://www.w3.org/2000/svg" viewBox="0 0 36 36"><title>sand</title><rect width="36" height="36" style="fill:none"/><path d="M462.289,499.476a.252.252,0,1,0-.252.252.251.251,0,0,0,.252-.252" transform="translate(-460.829 -466.341)" style="fill:#b45414"/><path d="M463.348,501.066a.252.252,0,1,0-.252.252.253.253,0,0,0,.252-.252" transform="translate(-460.829 -466.341)" style="fill:#b45414"/><path d="M462.752,497.613a.252.252,0,1,0-.252.251.252.252,0,0,0,.252-.251" transform="translate(-460.829 -466.341)" style="fill:#b45414"/><path d="M464.24,496.482a.252.252,0,1,0-.252.252.252.252,0,0,0,.252-.252" transform="translate(-460.829 -466.341)" style="fill:#b45414"/><path d="M465.668,495.886a.252.252,0,1,0-.252.252.252.252,0,0,0,.252-.252" transform="translate(-460.829 -466.341)" style="fill:#b45414"/><path d="M465.549,497.851a.252.252,0,1,0-.252.252.252.252,0,0,0,.252-.252" transform="translate(-460.829 -466.341)" style="fill:#b45414"/><path d="M464.121,498.984a.252.252,0,1,0-.252.252.252.252,0,0,0,.252-.252" transform="translate(-460.829 -466.341)" style="fill:#b45414"/><path d="M467.037,496.423a.252.252,0,1,0-.5,0,.252.252,0,0,0,.5,0" transform="translate(-460.829 -466.341)" style="fill:#b45414"/><path d="M466.621,499.042a.252.252,0,1,0-.252.252.25.25,0,0,0,.252-.252" transform="translate(-460.829 -466.341)" style="fill:#b45414"/><path d="M467.81,498.15a.252.252,0,1,0-.5,0,.252.252,0,1,0,.5,0" transform="translate(-460.829 -466.341)" style="fill:#b45414"/><path d="M467.99,499.757a.252.252,0,1,0-.252.252.251.251,0,0,0,.252-.252" transform="translate(-460.829 -466.341)" style="fill:#b45414"/><path d="M466.859,501.066a.252.252,0,1,0-.252.252.251.251,0,0,0,.252-.252" transform="translate(-460.829 -466.341)" style="fill:#b45414"/><path d="M465.549,500.353a.252.252,0,1,0-.5,0,.252.252,0,0,0,.5,0" transform="translate(-460.829 -466.341)" style="fill:#b45414"/><path d="M464.953,501.9a.252.252,0,1,0-.252.252.251.251,0,0,0,.252-.252" transform="translate(-460.829 -466.341)" style="fill:#b45414"/><path d="M462.926,495.589a.252.252,0,1,0-.252.252.252.252,0,0,0,.252-.252" transform="translate(-460.829 -466.341)" style="fill:#b45414"/><path d="M461.424,496.482a.252.252,0,1,0-.252.252.252.252,0,0,0,.252-.252" transform="translate(-460.829 -466.341)" style="fill:#b45414"/><path d="M461.377,501.6a.252.252,0,1,0-.252.252.251.251,0,0,0,.252-.252" transform="translate(-460.829 -466.341)" style="fill:#b45414"/><path d="M469.492,499.476a.252.252,0,1,0-.252.252.251.251,0,0,0,.252-.252" transform="translate(-460.829 -466.341)" style="fill:#b45414"/><path d="M470.551,501.066a.252.252,0,1,0-.252.252.253.253,0,0,0,.252-.252" transform="translate(-460.829 -466.341)" style="fill:#b45414"/><path d="M469.955,497.613a.252.252,0,1,0-.252.251.252.252,0,0,0,.252-.251" transform="translate(-460.829 -466.341)" style="fill:#b45414"/><path d="M471.443,496.482a.252.252,0,1,0-.252.252.252.252,0,0,0,.252-.252" transform="translate(-460.829 -466.341)" style="fill:#b45414"/><path d="M472.871,495.886a.252.252,0,1,0-.252.252.251.251,0,0,0,.252-.252" transform="translate(-460.829 -466.341)" style="fill:#b45414"/><path d="M472.752,497.851a.252.252,0,1,0-.252.252.252.252,0,0,0,.252-.252" transform="translate(-460.829 -466.341)" style="fill:#b45414"/><path d="M471.324,498.984a.252.252,0,1,0-.252.252.252.252,0,0,0,.252-.252" transform="translate(-460.829 -466.341)" style="fill:#b45414"/><path d="M474.24,496.423a.252.252,0,1,0-.5,0,.252.252,0,0,0,.5,0" transform="translate(-460.829 -466.341)" style="fill:#b45414"/><path d="M473.824,499.042a.252.252,0,1,0-.252.252.25.25,0,0,0,.252-.252" transform="translate(-460.829 -466.341)" style="fill:#b45414"/><path d="M475.014,498.15a.252.252,0,1,0-.5,0,.252.252,0,1,0,.5,0" transform="translate(-460.829 -466.341)" style="fill:#b45414"/><path d="M475.193,499.757a.252.252,0,1,0-.252.252.251.251,0,0,0,.252-.252" transform="translate(-460.829 -466.341)" style="fill:#b45414"/><path d="M474.062,501.066a.252.252,0,1,0-.252.252.251.251,0,0,0,.252-.252" transform="translate(-460.829 -466.341)" style="fill:#b45414"/><path d="M472.752,500.353a.252.252,0,1,0-.5,0,.252.252,0,0,0,.5,0" transform="translate(-460.829 -466.341)" style="fill:#b45414"/><path d="M472.156,501.9a.252.252,0,0,0-.5,0,.252.252,0,1,0,.5,0" transform="translate(-460.829 -466.341)" style="fill:#b45414"/><path d="M470.131,495.589a.252.252,0,1,0-.252.252.252.252,0,0,0,.252-.252" transform="translate(-460.829 -466.341)" style="fill:#b45414"/><path d="M468.629,496.482a.252.252,0,1,0-.252.252.252.252,0,0,0,.252-.252" transform="translate(-460.829 -466.341)" style="fill:#b45414"/><path d="M468.58,501.6a.252.252,0,1,0-.252.252.251.251,0,0,0,.252-.252" transform="translate(-460.829 -466.341)" style="fill:#b45414"/><path d="M476.693,499.476a.252.252,0,1,0-.252.252.251.251,0,0,0,.252-.252" transform="translate(-460.829 -466.341)" style="fill:#b45414"/><path d="M477.752,501.066a.252.252,0,1,0-.252.252.252.252,0,0,0,.252-.252" transform="translate(-460.829 -466.341)" style="fill:#b45414"/><path d="M477.156,497.613a.252.252,0,1,0-.252.251.252.252,0,0,0,.252-.251" transform="translate(-460.829 -466.341)" style="fill:#b45414"/><path d="M478.644,496.482a.252.252,0,1,0-.251.252.252.252,0,0,0,.251-.252" transform="translate(-460.829 -466.341)" style="fill:#b45414"/><path d="M480.072,495.886a.252.252,0,1,0-.252.252.251.251,0,0,0,.252-.252" transform="translate(-460.829 -466.341)" style="fill:#b45414"/><path d="M479.953,497.851a.252.252,0,1,0-.252.252.251.251,0,0,0,.252-.252" transform="translate(-460.829 -466.341)" style="fill:#b45414"/><path d="M478.525,498.984a.252.252,0,1,0-.252.252.252.252,0,0,0,.252-.252" transform="translate(-460.829 -466.341)" style="fill:#b45414"/><path d="M481.441,496.423a.252.252,0,1,0-.5,0,.252.252,0,0,0,.5,0" transform="translate(-460.829 -466.341)" style="fill:#b45414"/><path d="M481.025,499.042a.252.252,0,0,0-.5,0,.252.252,0,0,0,.5,0" transform="translate(-460.829 -466.341)" style="fill:#b45414"/><path d="M482.215,498.15a.252.252,0,1,0-.5,0,.252.252,0,1,0,.5,0" transform="translate(-460.829 -466.341)" style="fill:#b45414"/><path d="M482.394,499.757a.252.252,0,1,0-.252.252.251.251,0,0,0,.252-.252" transform="translate(-460.829 -466.341)" style="fill:#b45414"/><path d="M481.264,501.066a.252.252,0,1,0-.252.252.252.252,0,0,0,.252-.252" transform="translate(-460.829 -466.341)" style="fill:#b45414"/><path d="M479.953,500.353a.252.252,0,1,0-.5,0,.252.252,0,0,0,.5,0" transform="translate(-460.829 -466.341)" style="fill:#b45414"/><path d="M479.357,501.9a.252.252,0,0,0-.5,0,.252.252,0,1,0,.5,0" transform="translate(-460.829 -466.341)" style="fill:#b45414"/><path d="M477.332,495.589a.252.252,0,1,0-.252.252.251.251,0,0,0,.252-.252" transform="translate(-460.829 -466.341)" style="fill:#b45414"/><path d="M475.83,496.482a.252.252,0,1,0-.252.252.251.251,0,0,0,.252-.252" transform="translate(-460.829 -466.341)" style="fill:#b45414"/><path d="M475.781,501.6a.252.252,0,1,0-.252.252.251.251,0,0,0,.252-.252" transform="translate(-460.829 -466.341)" style="fill:#b45414"/><path d="M483.9,499.476a.252.252,0,1,0-.252.252.251.251,0,0,0,.252-.252" transform="translate(-460.829 -466.341)" style="fill:#b45414"/><path d="M484.955,501.066a.252.252,0,1,0-.252.252.252.252,0,0,0,.252-.252" transform="translate(-460.829 -466.341)" style="fill:#b45414"/><path d="M484.359,497.613a.252.252,0,1,0-.252.251.252.252,0,0,0,.252-.251" transform="translate(-460.829 -466.341)" style="fill:#b45414"/><path d="M485.848,496.482a.252.252,0,1,0-.252.252.253.253,0,0,0,.252-.252" transform="translate(-460.829 -466.341)" style="fill:#b45414"/><path d="M487.275,495.886a.252.252,0,1,0-.252.252.251.251,0,0,0,.252-.252" transform="translate(-460.829 -466.341)" style="fill:#b45414"/><path d="M487.156,497.851a.252.252,0,1,0-.5,0,.252.252,0,0,0,.5,0" transform="translate(-460.829 -466.341)" style="fill:#b45414"/><path d="M485.728,498.984a.252.252,0,1,0-.252.252.252.252,0,0,0,.252-.252" transform="translate(-460.829 -466.341)" style="fill:#b45414"/><path d="M488.644,496.423a.252.252,0,1,0-.252.252.25.25,0,0,0,.252-.252" transform="translate(-460.829 -466.341)" style="fill:#b45414"/><path d="M488.228,499.042a.252.252,0,1,0-.252.252.25.25,0,0,0,.252-.252" transform="translate(-460.829 -466.341)" style="fill:#b45414"/><path d="M489.418,498.15a.252.252,0,1,0-.5,0,.252.252,0,1,0,.5,0" transform="translate(-460.829 -466.341)" style="fill:#b45414"/><path d="M489.6,499.757a.252.252,0,1,0-.252.252.252.252,0,0,0,.252-.252" transform="translate(-460.829 -466.341)" style="fill:#b45414"/><path d="M488.467,501.066a.252.252,0,1,0-.252.252.252.252,0,0,0,.252-.252" transform="translate(-460.829 -466.341)" style="fill:#b45414"/><path d="M487.156,500.353a.252.252,0,1,0-.5,0,.252.252,0,0,0,.5,0" transform="translate(-460.829 -466.341)" style="fill:#b45414"/><path d="M486.56,501.9a.252.252,0,1,0-.252.252.251.251,0,0,0,.252-.252" transform="translate(-460.829 -466.341)" style="fill:#b45414"/><path d="M484.533,495.589a.252.252,0,1,0-.252.252.251.251,0,0,0,.252-.252" transform="translate(-460.829 -466.341)" style="fill:#b45414"/><path d="M483.031,496.482a.252.252,0,1,0-.252.252.251.251,0,0,0,.252-.252" transform="translate(-460.829 -466.341)" style="fill:#b45414"/><path d="M482.984,501.6a.252.252,0,1,0-.252.252.251.251,0,0,0,.252-.252" transform="translate(-460.829 -466.341)" style="fill:#b45414"/><path d="M491.084,499.476a.252.252,0,1,0-.252.252.251.251,0,0,0,.252-.252" transform="translate(-460.829 -466.341)" style="fill:#b45414"/><path d="M492.142,501.066a.252.252,0,1,0-.251.252.252.252,0,0,0,.251-.252" transform="translate(-460.829 -466.341)" style="fill:#b45414"/><path d="M491.547,497.613a.252.252,0,1,0-.252.251.252.252,0,0,0,.252-.251" transform="translate(-460.829 -466.341)" style="fill:#b45414"/><path d="M493.035,496.482a.252.252,0,1,0-.252.252.252.252,0,0,0,.252-.252" transform="translate(-460.829 -466.341)" style="fill:#b45414"/><path d="M494.463,495.886a.252.252,0,1,0-.252.252.252.252,0,0,0,.252-.252" transform="translate(-460.829 -466.341)" style="fill:#b45414"/><path d="M494.344,497.851a.252.252,0,1,0-.252.252.252.252,0,0,0,.252-.252" transform="translate(-460.829 -466.341)" style="fill:#b45414"/><path d="M492.916,498.984a.252.252,0,1,0-.252.252.252.252,0,0,0,.252-.252" transform="translate(-460.829 -466.341)" style="fill:#b45414"/><path d="M495.832,496.423a.252.252,0,1,0-.5,0,.252.252,0,0,0,.5,0" transform="translate(-460.829 -466.341)" style="fill:#b45414"/><path d="M495.416,499.042a.252.252,0,1,0-.252.252.25.25,0,0,0,.252-.252" transform="translate(-460.829 -466.341)" style="fill:#b45414"/><path d="M496.605,498.15a.252.252,0,0,0-.5,0,.252.252,0,0,0,.5,0" transform="translate(-460.829 -466.341)" style="fill:#b45414"/><path d="M496.785,499.757a.252.252,0,1,0-.252.252.251.251,0,0,0,.252-.252" transform="translate(-460.829 -466.341)" style="fill:#b45414"/><path d="M495.654,501.066a.252.252,0,1,0-.252.252.251.251,0,0,0,.252-.252" transform="translate(-460.829 -466.341)" style="fill:#b45414"/><path d="M494.344,500.353a.252.252,0,1,0-.5,0,.252.252,0,1,0,.5,0" transform="translate(-460.829 -466.341)" style="fill:#b45414"/><path d="M493.748,501.9a.252.252,0,1,0-.252.252.251.251,0,0,0,.252-.252" transform="translate(-460.829 -466.341)" style="fill:#b45414"/><path d="M491.721,495.589a.252.252,0,1,0-.252.252.252.252,0,0,0,.252-.252" transform="translate(-460.829 -466.341)" style="fill:#b45414"/><path d="M490.219,496.482a.252.252,0,1,0-.252.252.252.252,0,0,0,.252-.252" transform="translate(-460.829 -466.341)" style="fill:#b45414"/><path d="M490.172,501.6a.252.252,0,1,0-.252.252.252.252,0,0,0,.252-.252" transform="translate(-460.829 -466.341)" style="fill:#b45414"/><path d="M462.289,492.271a.252.252,0,1,0-.252.252.251.251,0,0,0,.252-.252" transform="translate(-460.829 -466.341)" style="fill:#b45414"/><path d="M463.348,493.861a.252.252,0,1,0-.252.251.253.253,0,0,0,.252-.251" transform="translate(-460.829 -466.341)" style="fill:#b45414"/><path d="M462.752,490.407a.252.252,0,1,0-.252.252.252.252,0,0,0,.252-.252" transform="translate(-460.829 -466.341)" style="fill:#b45414"/><path d="M464.24,489.276a.252.252,0,1,0-.252.253.252.252,0,0,0,.252-.253" transform="translate(-460.829 -466.341)" style="fill:#b45414"/><path d="M465.668,488.681a.252.252,0,1,0-.252.252.252.252,0,0,0,.252-.252" transform="translate(-460.829 -466.341)" style="fill:#b45414"/><path d="M465.549,490.646a.252.252,0,1,0-.252.252.252.252,0,0,0,.252-.252" transform="translate(-460.829 -466.341)" style="fill:#b45414"/><path d="M464.121,491.779a.252.252,0,1,0-.252.252.252.252,0,0,0,.252-.252" transform="translate(-460.829 -466.341)" style="fill:#b45414"/><path d="M467.037,489.218a.252.252,0,1,0-.5,0,.252.252,0,0,0,.5,0" transform="translate(-460.829 -466.341)" style="fill:#b45414"/><path d="M466.621,491.837a.252.252,0,1,0-.252.252.25.25,0,0,0,.252-.252" transform="translate(-460.829 -466.341)" style="fill:#b45414"/><path d="M467.81,490.945a.252.252,0,1,0-.5,0,.252.252,0,0,0,.5,0" transform="translate(-460.829 -466.341)" style="fill:#b45414"/><path d="M467.99,492.552a.252.252,0,1,0-.252.252.251.251,0,0,0,.252-.252" transform="translate(-460.829 -466.341)" style="fill:#b45414"/><path d="M466.859,493.861a.252.252,0,1,0-.252.251.251.251,0,0,0,.252-.251" transform="translate(-460.829 -466.341)" style="fill:#b45414"/><path d="M465.549,493.148a.252.252,0,0,0-.5,0,.252.252,0,1,0,.5,0" transform="translate(-460.829 -466.341)" style="fill:#b45414"/><path d="M464.953,494.7a.252.252,0,1,0-.252.252.251.251,0,0,0,.252-.252" transform="translate(-460.829 -466.341)" style="fill:#b45414"/><path d="M462.926,488.384a.252.252,0,1,0-.252.252.252.252,0,0,0,.252-.252" transform="translate(-460.829 -466.341)" style="fill:#b45414"/><path d="M461.424,489.276a.252.252,0,1,0-.252.253.251.251,0,0,0,.252-.253" transform="translate(-460.829 -466.341)" style="fill:#b45414"/><path d="M461.377,494.4a.252.252,0,1,0-.252.252.251.251,0,0,0,.252-.252" transform="translate(-460.829 -466.341)" style="fill:#b45414"/><path d="M469.492,492.271a.252.252,0,1,0-.252.252.251.251,0,0,0,.252-.252" transform="translate(-460.829 -466.341)" style="fill:#b45414"/><path d="M470.551,493.861a.252.252,0,1,0-.252.251.253.253,0,0,0,.252-.251" transform="translate(-460.829 -466.341)" style="fill:#b45414"/><path d="M469.955,490.407a.252.252,0,1,0-.252.252.252.252,0,0,0,.252-.252" transform="translate(-460.829 -466.341)" style="fill:#b45414"/><path d="M471.443,489.276a.252.252,0,1,0-.252.253.252.252,0,0,0,.252-.253" transform="translate(-460.829 -466.341)" style="fill:#b45414"/><path d="M472.871,488.681a.252.252,0,1,0-.252.252.251.251,0,0,0,.252-.252" transform="translate(-460.829 -466.341)" style="fill:#b45414"/><path d="M472.752,490.646a.252.252,0,1,0-.252.252.252.252,0,0,0,.252-.252" transform="translate(-460.829 -466.341)" style="fill:#b45414"/><path d="M471.324,491.779a.252.252,0,1,0-.252.252.252.252,0,0,0,.252-.252" transform="translate(-460.829 -466.341)" style="fill:#b45414"/><path d="M474.24,489.218a.252.252,0,1,0-.5,0,.252.252,0,0,0,.5,0" transform="translate(-460.829 -466.341)" style="fill:#b45414"/><path d="M473.824,491.837a.252.252,0,1,0-.252.252.25.25,0,0,0,.252-.252" transform="translate(-460.829 -466.341)" style="fill:#b45414"/><path d="M475.014,490.945a.252.252,0,1,0-.252.251.25.25,0,0,0,.252-.251" transform="translate(-460.829 -466.341)" style="fill:#b45414"/><path d="M475.193,492.552a.252.252,0,1,0-.252.252.251.251,0,0,0,.252-.252" transform="translate(-460.829 -466.341)" style="fill:#b45414"/><path d="M474.062,493.861a.252.252,0,1,0-.252.251.251.251,0,0,0,.252-.251" transform="translate(-460.829 -466.341)" style="fill:#b45414"/><path d="M472.752,493.148a.252.252,0,0,0-.5,0,.252.252,0,1,0,.5,0" transform="translate(-460.829 -466.341)" style="fill:#b45414"/><path d="M472.156,494.7a.252.252,0,1,0-.5,0,.252.252,0,1,0,.5,0" transform="translate(-460.829 -466.341)" style="fill:#b45414"/><path d="M470.131,488.384a.252.252,0,1,0-.252.252.252.252,0,0,0,.252-.252" transform="translate(-460.829 -466.341)" style="fill:#b45414"/><path d="M468.629,489.276a.252.252,0,1,0-.252.253.251.251,0,0,0,.252-.253" transform="translate(-460.829 -466.341)" style="fill:#b45414"/><path d="M468.58,494.4a.252.252,0,1,0-.252.252.251.251,0,0,0,.252-.252" transform="translate(-460.829 -466.341)" style="fill:#b45414"/><path d="M476.693,492.271a.252.252,0,1,0-.252.252.251.251,0,0,0,.252-.252" transform="translate(-460.829 -466.341)" style="fill:#b45414"/><path d="M477.752,493.861a.252.252,0,1,0-.252.251.252.252,0,0,0,.252-.251" transform="translate(-460.829 -466.341)" style="fill:#b45414"/><path d="M477.156,490.407a.252.252,0,1,0-.252.252.252.252,0,0,0,.252-.252" transform="translate(-460.829 -466.341)" style="fill:#b45414"/><path d="M478.644,489.276a.252.252,0,1,0-.251.253.252.252,0,0,0,.251-.253" transform="translate(-460.829 -466.341)" style="fill:#b45414"/><path d="M480.072,488.681a.252.252,0,1,0-.252.252.251.251,0,0,0,.252-.252" transform="translate(-460.829 -466.341)" style="fill:#b45414"/><path d="M479.953,490.646a.252.252,0,1,0-.252.252.251.251,0,0,0,.252-.252" transform="translate(-460.829 -466.341)" style="fill:#b45414"/><path d="M478.525,491.779a.252.252,0,1,0-.252.252.252.252,0,0,0,.252-.252" transform="translate(-460.829 -466.341)" style="fill:#b45414"/><path d="M481.441,489.218a.252.252,0,1,0-.5,0,.252.252,0,0,0,.5,0" transform="translate(-460.829 -466.341)" style="fill:#b45414"/><path d="M481.025,491.837a.252.252,0,1,0-.5,0,.252.252,0,0,0,.5,0" transform="translate(-460.829 -466.341)" style="fill:#b45414"/><path d="M482.215,490.945a.252.252,0,1,0-.252.251.25.25,0,0,0,.252-.251" transform="translate(-460.829 -466.341)" style="fill:#b45414"/><path d="M482.394,492.552a.252.252,0,1,0-.252.252.251.251,0,0,0,.252-.252" transform="translate(-460.829 -466.341)" style="fill:#b45414"/><path d="M481.264,493.861a.252.252,0,1,0-.252.251.252.252,0,0,0,.252-.251" transform="translate(-460.829 -466.341)" style="fill:#b45414"/><path d="M479.953,493.148a.252.252,0,0,0-.5,0,.252.252,0,1,0,.5,0" transform="translate(-460.829 -466.341)" style="fill:#b45414"/><path d="M479.357,494.7a.252.252,0,1,0-.5,0,.252.252,0,1,0,.5,0" transform="translate(-460.829 -466.341)" style="fill:#b45414"/><path d="M477.332,488.384a.252.252,0,1,0-.252.252.251.251,0,0,0,.252-.252" transform="translate(-460.829 -466.341)" style="fill:#b45414"/><path d="M475.83,489.276a.252.252,0,1,0-.252.253.251.251,0,0,0,.252-.253" transform="translate(-460.829 -466.341)" style="fill:#b45414"/><path d="M475.781,494.4a.252.252,0,1,0-.252.252.251.251,0,0,0,.252-.252" transform="translate(-460.829 -466.341)" style="fill:#b45414"/><path d="M483.9,492.271a.252.252,0,1,0-.252.252.251.251,0,0,0,.252-.252" transform="translate(-460.829 -466.341)" style="fill:#b45414"/><path d="M484.955,493.861a.252.252,0,1,0-.252.251.252.252,0,0,0,.252-.251" transform="translate(-460.829 -466.341)" style="fill:#b45414"/><path d="M484.359,490.407a.252.252,0,1,0-.252.252.252.252,0,0,0,.252-.252" transform="translate(-460.829 -466.341)" style="fill:#b45414"/><path d="M485.848,489.276a.252.252,0,1,0-.252.253.253.253,0,0,0,.252-.253" transform="translate(-460.829 -466.341)" style="fill:#b45414"/><path d="M487.275,488.681a.252.252,0,1,0-.252.252.251.251,0,0,0,.252-.252" transform="translate(-460.829 -466.341)" style="fill:#b45414"/><path d="M487.156,490.646a.252.252,0,1,0-.5,0,.252.252,0,0,0,.5,0" transform="translate(-460.829 -466.341)" style="fill:#b45414"/><path d="M485.728,491.779a.252.252,0,1,0-.252.252.252.252,0,0,0,.252-.252" transform="translate(-460.829 -466.341)" style="fill:#b45414"/><path d="M488.644,489.218a.252.252,0,1,0-.252.252.25.25,0,0,0,.252-.252" transform="translate(-460.829 -466.341)" style="fill:#b45414"/><path d="M488.228,491.837a.252.252,0,1,0-.252.252.25.25,0,0,0,.252-.252" transform="translate(-460.829 -466.341)" style="fill:#b45414"/><path d="M489.418,490.945a.252.252,0,1,0-.252.251.25.25,0,0,0,.252-.251" transform="translate(-460.829 -466.341)" style="fill:#b45414"/><path d="M489.6,492.552a.252.252,0,1,0-.252.252.252.252,0,0,0,.252-.252" transform="translate(-460.829 -466.341)" style="fill:#b45414"/><path d="M488.467,493.861a.252.252,0,1,0-.252.251.252.252,0,0,0,.252-.251" transform="translate(-460.829 -466.341)" style="fill:#b45414"/><path d="M487.156,493.148a.252.252,0,0,0-.5,0,.252.252,0,1,0,.5,0" transform="translate(-460.829 -466.341)" style="fill:#b45414"/><path d="M486.56,494.7a.252.252,0,1,0-.252.252.251.251,0,0,0,.252-.252" transform="translate(-460.829 -466.341)" style="fill:#b45414"/><path d="M484.533,488.384a.252.252,0,1,0-.252.252.251.251,0,0,0,.252-.252" transform="translate(-460.829 -466.341)" style="fill:#b45414"/><path d="M483.031,489.276a.252.252,0,1,0-.252.253.251.251,0,0,0,.252-.253" transform="translate(-460.829 -466.341)" style="fill:#b45414"/><path d="M482.984,494.4a.252.252,0,1,0-.252.252.251.251,0,0,0,.252-.252" transform="translate(-460.829 -466.341)" style="fill:#b45414"/><path d="M491.084,492.271a.252.252,0,1,0-.252.252.251.251,0,0,0,.252-.252" transform="translate(-460.829 -466.341)" style="fill:#b45414"/><path d="M492.142,493.861a.252.252,0,1,0-.251.251.252.252,0,0,0,.251-.251" transform="translate(-460.829 -466.341)" style="fill:#b45414"/><path d="M491.547,490.407a.252.252,0,1,0-.252.252.252.252,0,0,0,.252-.252" transform="translate(-460.829 -466.341)" style="fill:#b45414"/><path d="M493.035,489.276a.252.252,0,1,0-.252.253.252.252,0,0,0,.252-.253" transform="translate(-460.829 -466.341)" style="fill:#b45414"/><path d="M494.463,488.681a.252.252,0,1,0-.252.252.252.252,0,0,0,.252-.252" transform="translate(-460.829 -466.341)" style="fill:#b45414"/><path d="M494.344,490.646a.252.252,0,1,0-.252.252.252.252,0,0,0,.252-.252" transform="translate(-460.829 -466.341)" style="fill:#b45414"/><path d="M492.916,491.779a.252.252,0,1,0-.252.252.252.252,0,0,0,.252-.252" transform="translate(-460.829 -466.341)" style="fill:#b45414"/><path d="M495.832,489.218a.252.252,0,1,0-.5,0,.252.252,0,0,0,.5,0" transform="translate(-460.829 -466.341)" style="fill:#b45414"/><path d="M495.416,491.837a.252.252,0,1,0-.252.252.25.25,0,0,0,.252-.252" transform="translate(-460.829 -466.341)" style="fill:#b45414"/><path d="M496.605,490.945a.252.252,0,0,0-.5,0,.252.252,0,0,0,.5,0" transform="translate(-460.829 -466.341)" style="fill:#b45414"/><path d="M496.785,492.552a.252.252,0,1,0-.252.252.251.251,0,0,0,.252-.252" transform="translate(-460.829 -466.341)" style="fill:#b45414"/><path d="M495.654,493.861a.252.252,0,1,0-.252.251.251.251,0,0,0,.252-.251" transform="translate(-460.829 -466.341)" style="fill:#b45414"/><path d="M494.344,493.148a.252.252,0,0,0-.5,0,.252.252,0,1,0,.5,0" transform="translate(-460.829 -466.341)" style="fill:#b45414"/><path d="M493.748,494.7a.252.252,0,1,0-.252.252.251.251,0,0,0,.252-.252" transform="translate(-460.829 -466.341)" style="fill:#b45414"/><path d="M491.721,488.384a.252.252,0,1,0-.252.252.252.252,0,0,0,.252-.252" transform="translate(-460.829 -466.341)" style="fill:#b45414"/><path d="M490.219,489.276a.252.252,0,1,0-.252.253.251.251,0,0,0,.252-.253" transform="translate(-460.829 -466.341)" style="fill:#b45414"/><path d="M490.172,494.4a.252.252,0,1,0-.252.252.252.252,0,0,0,.252-.252" transform="translate(-460.829 -466.341)" style="fill:#b45414"/><path d="M462.289,477.864a.252.252,0,1,0-.252.252.252.252,0,0,0,.252-.252" transform="translate(-460.829 -466.341)" style="fill:#b45414"/><path d="M463.348,479.454a.252.252,0,0,0-.5,0,.252.252,0,0,0,.5,0" transform="translate(-460.829 -466.341)" style="fill:#b45414"/><path d="M462.752,476a.252.252,0,1,0-.252.252.252.252,0,0,0,.252-.252" transform="translate(-460.829 -466.341)" style="fill:#b45414"/><path d="M464.24,474.87a.252.252,0,1,0-.252.252.253.253,0,0,0,.252-.252" transform="translate(-460.829 -466.341)" style="fill:#b45414"/><path d="M465.668,474.275a.252.252,0,1,0-.252.252.252.252,0,0,0,.252-.252" transform="translate(-460.829 -466.341)" style="fill:#b45414"/><path d="M465.549,476.239a.252.252,0,1,0-.252.252.251.251,0,0,0,.252-.252" transform="translate(-460.829 -466.341)" style="fill:#b45414"/><path d="M464.121,477.372a.252.252,0,1,0-.252.252.253.253,0,0,0,.252-.252" transform="translate(-460.829 -466.341)" style="fill:#b45414"/><path d="M467.037,474.812a.252.252,0,0,0-.5,0,.252.252,0,0,0,.5,0" transform="translate(-460.829 -466.341)" style="fill:#b45414"/><path d="M466.621,477.431a.252.252,0,1,0-.5,0,.252.252,0,0,0,.5,0" transform="translate(-460.829 -466.341)" style="fill:#b45414"/><path d="M467.81,476.538a.252.252,0,1,0-.251.252.25.25,0,0,0,.251-.252" transform="translate(-460.829 -466.341)" style="fill:#b45414"/><path d="M467.99,478.146a.252.252,0,0,0-.5,0,.252.252,0,1,0,.5,0" transform="translate(-460.829 -466.341)" style="fill:#b45414"/><path d="M466.859,479.454a.252.252,0,1,0-.252.252.252.252,0,0,0,.252-.252" transform="translate(-460.829 -466.341)" style="fill:#b45414"/><path d="M465.549,478.741a.252.252,0,1,0-.252.252.251.251,0,0,0,.252-.252" transform="translate(-460.829 -466.341)" style="fill:#b45414"/><path d="M464.953,480.288a.252.252,0,1,0-.252.252.252.252,0,0,0,.252-.252" transform="translate(-460.829 -466.341)" style="fill:#b45414"/><path d="M462.928,473.978a.252.252,0,1,0-.252.252.252.252,0,0,0,.252-.252" transform="translate(-460.829 -466.341)" style="fill:#b45414"/><path d="M461.426,474.87a.252.252,0,1,0-.252.252.252.252,0,0,0,.252-.252" transform="translate(-460.829 -466.341)" style="fill:#b45414"/><path d="M461.377,479.989a.252.252,0,1,0-.252.252.252.252,0,0,0,.252-.252" transform="translate(-460.829 -466.341)" style="fill:#b45414"/><path d="M469.492,477.864a.252.252,0,1,0-.252.252.252.252,0,0,0,.252-.252" transform="translate(-460.829 -466.341)" style="fill:#b45414"/><path d="M470.551,479.454a.252.252,0,0,0-.5,0,.252.252,0,1,0,.5,0" transform="translate(-460.829 -466.341)" style="fill:#b45414"/><path d="M469.955,476a.252.252,0,1,0-.252.252.252.252,0,0,0,.252-.252" transform="translate(-460.829 -466.341)" style="fill:#b45414"/><path d="M471.443,474.87a.252.252,0,1,0-.252.252.253.253,0,0,0,.252-.252" transform="translate(-460.829 -466.341)" style="fill:#b45414"/><path d="M472.871,474.275a.252.252,0,1,0-.252.252.251.251,0,0,0,.252-.252" transform="translate(-460.829 -466.341)" style="fill:#b45414"/><path d="M472.752,476.239a.252.252,0,1,0-.252.252.251.251,0,0,0,.252-.252" transform="translate(-460.829 -466.341)" style="fill:#b45414"/><path d="M471.324,477.372a.252.252,0,1,0-.252.252.253.253,0,0,0,.252-.252" transform="translate(-460.829 -466.341)" style="fill:#b45414"/><path d="M474.24,474.812a.252.252,0,0,0-.5,0,.252.252,0,0,0,.5,0" transform="translate(-460.829 -466.341)" style="fill:#b45414"/><path d="M473.824,477.431a.252.252,0,1,0-.5,0,.252.252,0,0,0,.5,0" transform="translate(-460.829 -466.341)" style="fill:#b45414"/><path d="M475.014,476.538a.252.252,0,1,0-.252.252.251.251,0,0,0,.252-.252" transform="translate(-460.829 -466.341)" style="fill:#b45414"/><path d="M475.193,478.146a.252.252,0,0,0-.5,0,.252.252,0,0,0,.5,0" transform="translate(-460.829 -466.341)" style="fill:#b45414"/><path d="M474.062,479.454a.252.252,0,1,0-.252.252.252.252,0,0,0,.252-.252" transform="translate(-460.829 -466.341)" style="fill:#b45414"/><path d="M472.752,478.741a.252.252,0,1,0-.252.252.251.251,0,0,0,.252-.252" transform="translate(-460.829 -466.341)" style="fill:#b45414"/><path d="M472.156,480.288a.252.252,0,1,0-.252.252.252.252,0,0,0,.252-.252" transform="translate(-460.829 -466.341)" style="fill:#b45414"/><path d="M470.131,473.978a.252.252,0,1,0-.252.252.252.252,0,0,0,.252-.252" transform="translate(-460.829 -466.341)" style="fill:#b45414"/><path d="M468.629,474.87a.252.252,0,1,0-.252.252.252.252,0,0,0,.252-.252" transform="translate(-460.829 -466.341)" style="fill:#b45414"/><path d="M468.58,479.989a.252.252,0,1,0-.252.252.252.252,0,0,0,.252-.252" transform="translate(-460.829 -466.341)" style="fill:#b45414"/><path d="M476.7,477.864a.252.252,0,1,0-.252.252.252.252,0,0,0,.252-.252" transform="translate(-460.829 -466.341)" style="fill:#b45414"/><path d="M477.754,479.454a.252.252,0,1,0-.252.252.253.253,0,0,0,.252-.252" transform="translate(-460.829 -466.341)" style="fill:#b45414"/><path d="M477.158,476a.252.252,0,1,0-.252.252.252.252,0,0,0,.252-.252" transform="translate(-460.829 -466.341)" style="fill:#b45414"/><path d="M478.646,474.87a.252.252,0,1,0-.252.252.253.253,0,0,0,.252-.252" transform="translate(-460.829 -466.341)" style="fill:#b45414"/><path d="M480.074,474.275a.252.252,0,1,0-.252.252.251.251,0,0,0,.252-.252" transform="translate(-460.829 -466.341)" style="fill:#b45414"/><path d="M479.955,476.239a.252.252,0,1,0-.252.252.251.251,0,0,0,.252-.252" transform="translate(-460.829 -466.341)" style="fill:#b45414"/><path d="M478.527,477.372a.252.252,0,1,0-.252.252.253.253,0,0,0,.252-.252" transform="translate(-460.829 -466.341)" style="fill:#b45414"/><path d="M481.443,474.812a.252.252,0,0,0-.5,0,.252.252,0,1,0,.5,0" transform="translate(-460.829 -466.341)" style="fill:#b45414"/><path d="M481.027,477.431a.252.252,0,1,0-.5,0,.252.252,0,0,0,.5,0" transform="translate(-460.829 -466.341)" style="fill:#b45414"/><path d="M482.217,476.538a.252.252,0,1,0-.252.252.251.251,0,0,0,.252-.252" transform="translate(-460.829 -466.341)" style="fill:#b45414"/><path d="M482.4,478.146a.252.252,0,0,0-.5,0,.252.252,0,1,0,.5,0" transform="translate(-460.829 -466.341)" style="fill:#b45414"/><path d="M481.266,479.454a.252.252,0,1,0-.252.252.252.252,0,0,0,.252-.252" transform="translate(-460.829 -466.341)" style="fill:#b45414"/><path d="M479.955,478.741a.252.252,0,1,0-.252.252.25.25,0,0,0,.252-.252" transform="translate(-460.829 -466.341)" style="fill:#b45414"/><path d="M479.359,480.288a.252.252,0,1,0-.252.252.252.252,0,0,0,.252-.252" transform="translate(-460.829 -466.341)" style="fill:#b45414"/><path d="M477.334,473.978a.252.252,0,1,0-.252.252.251.251,0,0,0,.252-.252" transform="translate(-460.829 -466.341)" style="fill:#b45414"/><path d="M475.832,474.87a.252.252,0,1,0-.252.252.252.252,0,0,0,.252-.252" transform="translate(-460.829 -466.341)" style="fill:#b45414"/><path d="M475.783,479.989a.252.252,0,1,0-.252.252.252.252,0,0,0,.252-.252" transform="translate(-460.829 -466.341)" style="fill:#b45414"/><path d="M483.9,477.864a.252.252,0,1,0-.252.252.252.252,0,0,0,.252-.252" transform="translate(-460.829 -466.341)" style="fill:#b45414"/><path d="M484.957,479.454a.252.252,0,1,0-.252.252.253.253,0,0,0,.252-.252" transform="translate(-460.829 -466.341)" style="fill:#b45414"/><path d="M484.361,476a.252.252,0,1,0-.252.252.252.252,0,0,0,.252-.252" transform="translate(-460.829 -466.341)" style="fill:#b45414"/><path d="M485.85,474.87a.252.252,0,1,0-.252.252.254.254,0,0,0,.252-.252" transform="translate(-460.829 -466.341)" style="fill:#b45414"/><path d="M487.277,474.275a.252.252,0,1,0-.252.252.251.251,0,0,0,.252-.252" transform="translate(-460.829 -466.341)" style="fill:#b45414"/><path d="M487.158,476.239a.252.252,0,1,0-.252.252.251.251,0,0,0,.252-.252" transform="translate(-460.829 -466.341)" style="fill:#b45414"/><path d="M485.73,477.372a.252.252,0,1,0-.252.252.253.253,0,0,0,.252-.252" transform="translate(-460.829 -466.341)" style="fill:#b45414"/><path d="M488.646,474.812a.252.252,0,0,0-.5,0,.252.252,0,1,0,.5,0" transform="translate(-460.829 -466.341)" style="fill:#b45414"/><path d="M488.23,477.431a.252.252,0,1,0-.5,0,.252.252,0,0,0,.5,0" transform="translate(-460.829 -466.341)" style="fill:#b45414"/><path d="M489.42,476.538a.252.252,0,1,0-.252.252.251.251,0,0,0,.252-.252" transform="translate(-460.829 -466.341)" style="fill:#b45414"/><path d="M489.6,478.146a.252.252,0,1,0-.252.252.252.252,0,0,0,.252-.252" transform="translate(-460.829 -466.341)" style="fill:#b45414"/><path d="M488.469,479.454a.252.252,0,1,0-.252.252.252.252,0,0,0,.252-.252" transform="translate(-460.829 -466.341)" style="fill:#b45414"/><path d="M487.158,478.741a.252.252,0,1,0-.252.252.25.25,0,0,0,.252-.252" transform="translate(-460.829 -466.341)" style="fill:#b45414"/><path d="M486.562,480.288a.252.252,0,1,0-.252.252.252.252,0,0,0,.252-.252" transform="translate(-460.829 -466.341)" style="fill:#b45414"/><path d="M484.535,473.978a.252.252,0,1,0-.252.252.251.251,0,0,0,.252-.252" transform="translate(-460.829 -466.341)" style="fill:#b45414"/><path d="M483.033,474.87a.252.252,0,1,0-.252.252.252.252,0,0,0,.252-.252" transform="translate(-460.829 -466.341)" style="fill:#b45414"/><path d="M482.986,479.989a.252.252,0,1,0-.252.252.252.252,0,0,0,.252-.252" transform="translate(-460.829 -466.341)" style="fill:#b45414"/><path d="M491.084,477.864a.252.252,0,1,0-.252.252.252.252,0,0,0,.252-.252" transform="translate(-460.829 -466.341)" style="fill:#b45414"/><path d="M492.142,479.454a.252.252,0,1,0-.251.252.253.253,0,0,0,.251-.252" transform="translate(-460.829 -466.341)" style="fill:#b45414"/><path d="M491.547,476a.252.252,0,1,0-.252.252.252.252,0,0,0,.252-.252" transform="translate(-460.829 -466.341)" style="fill:#b45414"/><path d="M493.035,474.87a.252.252,0,1,0-.252.252.253.253,0,0,0,.252-.252" transform="translate(-460.829 -466.341)" style="fill:#b45414"/><path d="M494.463,474.275a.252.252,0,1,0-.252.252.252.252,0,0,0,.252-.252" transform="translate(-460.829 -466.341)" style="fill:#b45414"/><path d="M494.344,476.239a.252.252,0,1,0-.252.252.251.251,0,0,0,.252-.252" transform="translate(-460.829 -466.341)" style="fill:#b45414"/><path d="M492.916,477.372a.252.252,0,1,0-.252.252.253.253,0,0,0,.252-.252" transform="translate(-460.829 -466.341)" style="fill:#b45414"/><path d="M495.832,474.812a.252.252,0,1,0-.5,0,.252.252,0,1,0,.5,0" transform="translate(-460.829 -466.341)" style="fill:#b45414"/><path d="M495.416,477.431a.252.252,0,0,0-.5,0,.252.252,0,0,0,.5,0" transform="translate(-460.829 -466.341)" style="fill:#b45414"/><path d="M496.605,476.538a.252.252,0,0,0-.5,0,.252.252,0,0,0,.5,0" transform="translate(-460.829 -466.341)" style="fill:#b45414"/><path d="M496.785,478.146a.252.252,0,1,0-.252.252.251.251,0,0,0,.252-.252" transform="translate(-460.829 -466.341)" style="fill:#b45414"/><path d="M495.654,479.454a.252.252,0,1,0-.252.252.252.252,0,0,0,.252-.252" transform="translate(-460.829 -466.341)" style="fill:#b45414"/><path d="M494.344,478.741a.252.252,0,1,0-.252.252.251.251,0,0,0,.252-.252" transform="translate(-460.829 -466.341)" style="fill:#b45414"/><path d="M493.748,480.288a.252.252,0,1,0-.252.252.252.252,0,0,0,.252-.252" transform="translate(-460.829 -466.341)" style="fill:#b45414"/><path d="M491.721,473.978a.252.252,0,1,0-.252.252.252.252,0,0,0,.252-.252" transform="translate(-460.829 -466.341)" style="fill:#b45414"/><path d="M490.219,474.87a.252.252,0,1,0-.252.252.252.252,0,0,0,.252-.252" transform="translate(-460.829 -466.341)" style="fill:#b45414"/><path d="M490.172,479.989a.252.252,0,1,0-.252.252.252.252,0,0,0,.252-.252" transform="translate(-460.829 -466.341)" style="fill:#b45414"/><path d="M462.289,485.068a.252.252,0,1,0-.252.252.251.251,0,0,0,.252-.252" transform="translate(-460.829 -466.341)" style="fill:#b45414"/><path d="M463.348,486.657a.252.252,0,1,0-.252.252.253.253,0,0,0,.252-.252" transform="translate(-460.829 -466.341)" style="fill:#b45414"/><path d="M462.752,483.2a.252.252,0,1,0-.252.252.253.253,0,0,0,.252-.252" transform="translate(-460.829 -466.341)" style="fill:#b45414"/><path d="M464.24,482.073a.252.252,0,1,0-.252.252.252.252,0,0,0,.252-.252" transform="translate(-460.829 -466.341)" style="fill:#b45414"/><path d="M465.668,481.478a.252.252,0,1,0-.252.252.252.252,0,0,0,.252-.252" transform="translate(-460.829 -466.341)" style="fill:#b45414"/><path d="M465.549,483.443a.252.252,0,1,0-.252.252.252.252,0,0,0,.252-.252" transform="translate(-460.829 -466.341)" style="fill:#b45414"/><path d="M464.121,484.575a.252.252,0,1,0-.252.252.253.253,0,0,0,.252-.252" transform="translate(-460.829 -466.341)" style="fill:#b45414"/><path d="M467.037,482.015a.252.252,0,0,0-.5,0,.252.252,0,0,0,.5,0" transform="translate(-460.829 -466.341)" style="fill:#b45414"/><path d="M466.621,484.634a.252.252,0,0,0-.5,0,.252.252,0,1,0,.5,0" transform="translate(-460.829 -466.341)" style="fill:#b45414"/><path d="M467.81,483.741a.252.252,0,1,0-.251.252.25.25,0,0,0,.251-.252" transform="translate(-460.829 -466.341)" style="fill:#b45414"/><path d="M467.99,485.349a.252.252,0,0,0-.5,0,.252.252,0,1,0,.5,0" transform="translate(-460.829 -466.341)" style="fill:#b45414"/><path d="M466.859,486.657a.252.252,0,1,0-.252.252.251.251,0,0,0,.252-.252" transform="translate(-460.829 -466.341)" style="fill:#b45414"/><path d="M465.549,485.945a.252.252,0,1,0-.5,0,.252.252,0,1,0,.5,0" transform="translate(-460.829 -466.341)" style="fill:#b45414"/><path d="M464.953,487.491a.252.252,0,1,0-.252.252.252.252,0,0,0,.252-.252" transform="translate(-460.829 -466.341)" style="fill:#b45414"/><path d="M462.928,481.181a.252.252,0,1,0-.252.252.252.252,0,0,0,.252-.252" transform="translate(-460.829 -466.341)" style="fill:#b45414"/><path d="M461.426,482.073a.252.252,0,1,0-.252.252.251.251,0,0,0,.252-.252" transform="translate(-460.829 -466.341)" style="fill:#b45414"/><path d="M461.377,487.193a.252.252,0,1,0-.252.252.251.251,0,0,0,.252-.252" transform="translate(-460.829 -466.341)" style="fill:#b45414"/><path d="M469.492,485.068a.252.252,0,1,0-.252.252.251.251,0,0,0,.252-.252" transform="translate(-460.829 -466.341)" style="fill:#b45414"/><path d="M470.551,486.657a.252.252,0,1,0-.252.252.253.253,0,0,0,.252-.252" transform="translate(-460.829 -466.341)" style="fill:#b45414"/><path d="M469.955,483.2a.252.252,0,1,0-.252.252.253.253,0,0,0,.252-.252" transform="translate(-460.829 -466.341)" style="fill:#b45414"/><path d="M471.443,482.073a.252.252,0,1,0-.252.252.252.252,0,0,0,.252-.252" transform="translate(-460.829 -466.341)" style="fill:#b45414"/><path d="M472.871,481.478a.252.252,0,1,0-.252.252.251.251,0,0,0,.252-.252" transform="translate(-460.829 -466.341)" style="fill:#b45414"/><path d="M472.752,483.443a.252.252,0,1,0-.252.252.252.252,0,0,0,.252-.252" transform="translate(-460.829 -466.341)" style="fill:#b45414"/><path d="M471.324,484.575a.252.252,0,1,0-.252.252.253.253,0,0,0,.252-.252" transform="translate(-460.829 -466.341)" style="fill:#b45414"/><path d="M474.24,482.015a.252.252,0,0,0-.5,0,.252.252,0,0,0,.5,0" transform="translate(-460.829 -466.341)" style="fill:#b45414"/><path d="M473.824,484.634a.252.252,0,0,0-.5,0,.252.252,0,1,0,.5,0" transform="translate(-460.829 -466.341)" style="fill:#b45414"/><path d="M475.014,483.741a.252.252,0,1,0-.252.252.251.251,0,0,0,.252-.252" transform="translate(-460.829 -466.341)" style="fill:#b45414"/><path d="M475.193,485.349a.252.252,0,0,0-.5,0,.252.252,0,1,0,.5,0" transform="translate(-460.829 -466.341)" style="fill:#b45414"/><path d="M474.062,486.657a.252.252,0,1,0-.252.252.251.251,0,0,0,.252-.252" transform="translate(-460.829 -466.341)" style="fill:#b45414"/><path d="M472.752,485.945a.252.252,0,1,0-.5,0,.252.252,0,1,0,.5,0" transform="translate(-460.829 -466.341)" style="fill:#b45414"/><path d="M472.156,487.491a.252.252,0,1,0-.252.252.252.252,0,0,0,.252-.252" transform="translate(-460.829 -466.341)" style="fill:#b45414"/><path d="M470.131,481.181a.252.252,0,1,0-.252.252.252.252,0,0,0,.252-.252" transform="translate(-460.829 -466.341)" style="fill:#b45414"/><path d="M468.629,482.073a.252.252,0,1,0-.252.252.251.251,0,0,0,.252-.252" transform="translate(-460.829 -466.341)" style="fill:#b45414"/><path d="M468.58,487.193a.252.252,0,1,0-.252.252.251.251,0,0,0,.252-.252" transform="translate(-460.829 -466.341)" style="fill:#b45414"/><path d="M476.7,485.068a.252.252,0,1,0-.252.252.251.251,0,0,0,.252-.252" transform="translate(-460.829 -466.341)" style="fill:#b45414"/><path d="M477.754,486.657a.252.252,0,1,0-.252.252.252.252,0,0,0,.252-.252" transform="translate(-460.829 -466.341)" style="fill:#b45414"/><path d="M477.158,483.2a.252.252,0,1,0-.252.252.253.253,0,0,0,.252-.252" transform="translate(-460.829 -466.341)" style="fill:#b45414"/><path d="M478.646,482.073a.252.252,0,1,0-.252.252.252.252,0,0,0,.252-.252" transform="translate(-460.829 -466.341)" style="fill:#b45414"/><path d="M480.074,481.478a.252.252,0,1,0-.252.252.251.251,0,0,0,.252-.252" transform="translate(-460.829 -466.341)" style="fill:#b45414"/><path d="M479.955,483.443a.252.252,0,1,0-.252.252.251.251,0,0,0,.252-.252" transform="translate(-460.829 -466.341)" style="fill:#b45414"/><path d="M478.527,484.575a.252.252,0,1,0-.252.252.253.253,0,0,0,.252-.252" transform="translate(-460.829 -466.341)" style="fill:#b45414"/><path d="M481.443,482.015a.252.252,0,1,0-.5,0,.252.252,0,1,0,.5,0" transform="translate(-460.829 -466.341)" style="fill:#b45414"/><path d="M481.027,484.634a.252.252,0,0,0-.5,0,.252.252,0,1,0,.5,0" transform="translate(-460.829 -466.341)" style="fill:#b45414"/><path d="M482.217,483.741a.252.252,0,1,0-.252.252.251.251,0,0,0,.252-.252" transform="translate(-460.829 -466.341)" style="fill:#b45414"/><path d="M482.4,485.349a.252.252,0,0,0-.5,0,.252.252,0,1,0,.5,0" transform="translate(-460.829 -466.341)" style="fill:#b45414"/><path d="M481.266,486.657a.252.252,0,1,0-.252.252.251.251,0,0,0,.252-.252" transform="translate(-460.829 -466.341)" style="fill:#b45414"/><path d="M479.955,485.945a.252.252,0,1,0-.5,0,.252.252,0,1,0,.5,0" transform="translate(-460.829 -466.341)" style="fill:#b45414"/><path d="M479.359,487.491a.252.252,0,1,0-.252.252.252.252,0,0,0,.252-.252" transform="translate(-460.829 -466.341)" style="fill:#b45414"/><path d="M477.334,481.181a.252.252,0,1,0-.252.252.251.251,0,0,0,.252-.252" transform="translate(-460.829 -466.341)" style="fill:#b45414"/><path d="M475.832,482.073a.252.252,0,1,0-.252.252.251.251,0,0,0,.252-.252" transform="translate(-460.829 -466.341)" style="fill:#b45414"/><path d="M475.783,487.193a.252.252,0,1,0-.252.252.251.251,0,0,0,.252-.252" transform="translate(-460.829 -466.341)" style="fill:#b45414"/><path d="M483.9,485.068a.252.252,0,1,0-.252.252.251.251,0,0,0,.252-.252" transform="translate(-460.829 -466.341)" style="fill:#b45414"/><path d="M484.957,486.657a.252.252,0,1,0-.252.252.252.252,0,0,0,.252-.252" transform="translate(-460.829 -466.341)" style="fill:#b45414"/><path d="M484.361,483.2a.252.252,0,1,0-.252.252.253.253,0,0,0,.252-.252" transform="translate(-460.829 -466.341)" style="fill:#b45414"/><path d="M485.85,482.073a.252.252,0,1,0-.252.252.253.253,0,0,0,.252-.252" transform="translate(-460.829 -466.341)" style="fill:#b45414"/><path d="M487.277,481.478a.252.252,0,1,0-.252.252.251.251,0,0,0,.252-.252" transform="translate(-460.829 -466.341)" style="fill:#b45414"/><path d="M487.158,483.443a.252.252,0,1,0-.252.252.251.251,0,0,0,.252-.252" transform="translate(-460.829 -466.341)" style="fill:#b45414"/><path d="M485.73,484.575a.252.252,0,1,0-.252.252.253.253,0,0,0,.252-.252" transform="translate(-460.829 -466.341)" style="fill:#b45414"/><path d="M488.646,482.015a.252.252,0,1,0-.5,0,.252.252,0,1,0,.5,0" transform="translate(-460.829 -466.341)" style="fill:#b45414"/><path d="M488.23,484.634a.252.252,0,0,0-.5,0,.252.252,0,1,0,.5,0" transform="translate(-460.829 -466.341)" style="fill:#b45414"/><path d="M489.42,483.741a.252.252,0,1,0-.252.252.251.251,0,0,0,.252-.252" transform="translate(-460.829 -466.341)" style="fill:#b45414"/><path d="M489.6,485.349a.252.252,0,1,0-.252.252.252.252,0,0,0,.252-.252" transform="translate(-460.829 -466.341)" style="fill:#b45414"/><path d="M488.469,486.657a.252.252,0,1,0-.252.252.251.251,0,0,0,.252-.252" transform="translate(-460.829 -466.341)" style="fill:#b45414"/><path d="M487.158,485.945a.252.252,0,1,0-.5,0,.252.252,0,1,0,.5,0" transform="translate(-460.829 -466.341)" style="fill:#b45414"/><path d="M486.562,487.491a.252.252,0,1,0-.252.252.252.252,0,0,0,.252-.252" transform="translate(-460.829 -466.341)" style="fill:#b45414"/><path d="M484.535,481.181a.252.252,0,1,0-.252.252.251.251,0,0,0,.252-.252" transform="translate(-460.829 -466.341)" style="fill:#b45414"/><path d="M483.033,482.073a.252.252,0,1,0-.252.252.251.251,0,0,0,.252-.252" transform="translate(-460.829 -466.341)" style="fill:#b45414"/><path d="M482.986,487.193a.252.252,0,1,0-.252.252.251.251,0,0,0,.252-.252" transform="translate(-460.829 -466.341)" style="fill:#b45414"/><path d="M491.084,485.068a.252.252,0,1,0-.252.252.251.251,0,0,0,.252-.252" transform="translate(-460.829 -466.341)" style="fill:#b45414"/><path d="M492.142,486.657a.252.252,0,1,0-.251.252.252.252,0,0,0,.251-.252" transform="translate(-460.829 -466.341)" style="fill:#b45414"/><path d="M491.547,483.2a.252.252,0,1,0-.252.252.253.253,0,0,0,.252-.252" transform="translate(-460.829 -466.341)" style="fill:#b45414"/><path d="M493.035,482.073a.252.252,0,1,0-.252.252.252.252,0,0,0,.252-.252" transform="translate(-460.829 -466.341)" style="fill:#b45414"/><path d="M494.463,481.478a.252.252,0,1,0-.252.252.252.252,0,0,0,.252-.252" transform="translate(-460.829 -466.341)" style="fill:#b45414"/><path d="M494.344,483.443a.252.252,0,1,0-.252.252.252.252,0,0,0,.252-.252" transform="translate(-460.829 -466.341)" style="fill:#b45414"/><path d="M492.916,484.575a.252.252,0,1,0-.252.252.253.253,0,0,0,.252-.252" transform="translate(-460.829 -466.341)" style="fill:#b45414"/><path d="M495.832,482.015a.252.252,0,1,0-.5,0,.252.252,0,1,0,.5,0" transform="translate(-460.829 -466.341)" style="fill:#b45414"/><path d="M495.416,484.634a.252.252,0,0,0-.5,0,.252.252,0,0,0,.5,0" transform="translate(-460.829 -466.341)" style="fill:#b45414"/><path d="M496.605,483.741a.252.252,0,0,0-.5,0,.252.252,0,0,0,.5,0" transform="translate(-460.829 -466.341)" style="fill:#b45414"/><path d="M496.785,485.349a.252.252,0,1,0-.252.252.251.251,0,0,0,.252-.252" transform="translate(-460.829 -466.341)" style="fill:#b45414"/><path d="M495.654,486.657a.252.252,0,1,0-.252.252.251.251,0,0,0,.252-.252" transform="translate(-460.829 -466.341)" style="fill:#b45414"/><path d="M494.344,485.945a.252.252,0,1,0-.5,0,.252.252,0,1,0,.5,0" transform="translate(-460.829 -466.341)" style="fill:#b45414"/><path d="M493.748,487.491a.252.252,0,1,0-.252.252.252.252,0,0,0,.252-.252" transform="translate(-460.829 -466.341)" style="fill:#b45414"/><path d="M491.721,481.181a.252.252,0,1,0-.252.252.252.252,0,0,0,.252-.252" transform="translate(-460.829 -466.341)" style="fill:#b45414"/><path d="M490.219,482.073a.252.252,0,1,0-.252.252.251.251,0,0,0,.252-.252" transform="translate(-460.829 -466.341)" style="fill:#b45414"/><path d="M490.172,487.193a.252.252,0,1,0-.252.252.252.252,0,0,0,.252-.252" transform="translate(-460.829 -466.341)" style="fill:#b45414"/><path d="M462.289,470.667a.252.252,0,1,0-.252.252.251.251,0,0,0,.252-.252" transform="translate(-460.829 -466.341)" style="fill:#b45414"/><path d="M463.348,472.257a.252.252,0,1,0-.252.252.253.253,0,0,0,.252-.252" transform="translate(-460.829 -466.341)" style="fill:#b45414"/><path d="M462.752,468.8a.252.252,0,1,0-.252.252.252.252,0,0,0,.252-.252" transform="translate(-460.829 -466.341)" style="fill:#b45414"/><path d="M464.24,467.673a.252.252,0,1,0-.252.252.252.252,0,0,0,.252-.252" transform="translate(-460.829 -466.341)" style="fill:#b45414"/><path d="M465.668,467.077a.252.252,0,1,0-.252.252.252.252,0,0,0,.252-.252" transform="translate(-460.829 -466.341)" style="fill:#b45414"/><path d="M465.549,469.042a.252.252,0,1,0-.252.252.252.252,0,0,0,.252-.252" transform="translate(-460.829 -466.341)" style="fill:#b45414"/><path d="M464.121,470.175a.252.252,0,1,0-.252.252.252.252,0,0,0,.252-.252" transform="translate(-460.829 -466.341)" style="fill:#b45414"/><path d="M467.037,467.614a.252.252,0,1,0-.252.252.25.25,0,0,0,.252-.252" transform="translate(-460.829 -466.341)" style="fill:#b45414"/><path d="M466.621,470.234a.252.252,0,1,0-.5,0,.252.252,0,1,0,.5,0" transform="translate(-460.829 -466.341)" style="fill:#b45414"/><path d="M467.81,469.341a.252.252,0,1,0-.5,0,.252.252,0,1,0,.5,0" transform="translate(-460.829 -466.341)" style="fill:#b45414"/><path d="M467.99,470.948a.252.252,0,1,0-.252.252.251.251,0,0,0,.252-.252" transform="translate(-460.829 -466.341)" style="fill:#b45414"/><path d="M466.859,472.257a.252.252,0,1,0-.252.252.251.251,0,0,0,.252-.252" transform="translate(-460.829 -466.341)" style="fill:#b45414"/><path d="M465.549,471.544a.252.252,0,1,0-.252.252.251.251,0,0,0,.252-.252" transform="translate(-460.829 -466.341)" style="fill:#b45414"/><path d="M464.953,473.091a.252.252,0,1,0-.252.252.251.251,0,0,0,.252-.252" transform="translate(-460.829 -466.341)" style="fill:#b45414"/><path d="M462.928,466.781a.252.252,0,1,0-.252.251.252.252,0,0,0,.252-.251" transform="translate(-460.829 -466.341)" style="fill:#b45414"/><path d="M461.426,467.673a.252.252,0,1,0-.252.252.252.252,0,0,0,.252-.252" transform="translate(-460.829 -466.341)" style="fill:#b45414"/><path d="M461.377,472.792a.252.252,0,1,0-.252.252.252.252,0,0,0,.252-.252" transform="translate(-460.829 -466.341)" style="fill:#b45414"/><path d="M469.492,470.667a.252.252,0,1,0-.252.252.251.251,0,0,0,.252-.252" transform="translate(-460.829 -466.341)" style="fill:#b45414"/><path d="M470.551,472.257a.252.252,0,1,0-.252.252.253.253,0,0,0,.252-.252" transform="translate(-460.829 -466.341)" style="fill:#b45414"/><path d="M469.955,468.8a.252.252,0,1,0-.252.252.252.252,0,0,0,.252-.252" transform="translate(-460.829 -466.341)" style="fill:#b45414"/><path d="M471.443,467.673a.252.252,0,1,0-.252.252.252.252,0,0,0,.252-.252" transform="translate(-460.829 -466.341)" style="fill:#b45414"/><path d="M472.871,467.077a.252.252,0,1,0-.252.252.252.252,0,0,0,.252-.252" transform="translate(-460.829 -466.341)" style="fill:#b45414"/><path d="M472.752,469.042a.252.252,0,1,0-.252.252.252.252,0,0,0,.252-.252" transform="translate(-460.829 -466.341)" style="fill:#b45414"/><path d="M471.324,470.175a.252.252,0,1,0-.252.252.252.252,0,0,0,.252-.252" transform="translate(-460.829 -466.341)" style="fill:#b45414"/><path d="M474.24,467.614a.252.252,0,0,0-.5,0,.252.252,0,0,0,.5,0" transform="translate(-460.829 -466.341)" style="fill:#b45414"/><path d="M473.824,470.234a.252.252,0,1,0-.5,0,.252.252,0,1,0,.5,0" transform="translate(-460.829 -466.341)" style="fill:#b45414"/><path d="M475.014,469.341a.252.252,0,1,0-.252.252.25.25,0,0,0,.252-.252" transform="translate(-460.829 -466.341)" style="fill:#b45414"/><path d="M475.193,470.948a.252.252,0,1,0-.252.252.251.251,0,0,0,.252-.252" transform="translate(-460.829 -466.341)" style="fill:#b45414"/><path d="M474.062,472.257a.252.252,0,1,0-.252.252.251.251,0,0,0,.252-.252" transform="translate(-460.829 -466.341)" style="fill:#b45414"/><path d="M472.752,471.544a.252.252,0,1,0-.252.252.251.251,0,0,0,.252-.252" transform="translate(-460.829 -466.341)" style="fill:#b45414"/><path d="M472.156,473.091a.252.252,0,1,0-.252.252.251.251,0,0,0,.252-.252" transform="translate(-460.829 -466.341)" style="fill:#b45414"/><path d="M470.131,466.781a.252.252,0,1,0-.252.251.252.252,0,0,0,.252-.251" transform="translate(-460.829 -466.341)" style="fill:#b45414"/><path d="M468.629,467.673a.252.252,0,1,0-.252.252.252.252,0,0,0,.252-.252" transform="translate(-460.829 -466.341)" style="fill:#b45414"/><path d="M468.58,472.792a.252.252,0,1,0-.252.252.252.252,0,0,0,.252-.252" transform="translate(-460.829 -466.341)" style="fill:#b45414"/><path d="M476.7,470.667a.252.252,0,1,0-.252.252.251.251,0,0,0,.252-.252" transform="translate(-460.829 -466.341)" style="fill:#b45414"/><path d="M477.754,472.257a.252.252,0,1,0-.252.252.252.252,0,0,0,.252-.252" transform="translate(-460.829 -466.341)" style="fill:#b45414"/><path d="M477.158,468.8a.252.252,0,1,0-.252.252.252.252,0,0,0,.252-.252" transform="translate(-460.829 -466.341)" style="fill:#b45414"/><path d="M478.646,467.673a.252.252,0,1,0-.252.252.252.252,0,0,0,.252-.252" transform="translate(-460.829 -466.341)" style="fill:#b45414"/><path d="M480.074,467.077a.252.252,0,1,0-.252.252.252.252,0,0,0,.252-.252" transform="translate(-460.829 -466.341)" style="fill:#b45414"/><path d="M479.955,469.042a.252.252,0,1,0-.252.252.252.252,0,0,0,.252-.252" transform="translate(-460.829 -466.341)" style="fill:#b45414"/><path d="M478.527,470.175a.252.252,0,1,0-.252.252.252.252,0,0,0,.252-.252" transform="translate(-460.829 -466.341)" style="fill:#b45414"/><path d="M481.443,467.614a.252.252,0,1,0-.5,0,.252.252,0,1,0,.5,0" transform="translate(-460.829 -466.341)" style="fill:#b45414"/><path d="M481.027,470.234a.252.252,0,1,0-.5,0,.252.252,0,1,0,.5,0" transform="translate(-460.829 -466.341)" style="fill:#b45414"/><path d="M482.217,469.341a.252.252,0,1,0-.252.252.25.25,0,0,0,.252-.252" transform="translate(-460.829 -466.341)" style="fill:#b45414"/><path d="M482.4,470.948a.252.252,0,1,0-.252.252.251.251,0,0,0,.252-.252" transform="translate(-460.829 -466.341)" style="fill:#b45414"/><path d="M481.266,472.257a.252.252,0,1,0-.252.252.252.252,0,0,0,.252-.252" transform="translate(-460.829 -466.341)" style="fill:#b45414"/><path d="M479.955,471.544a.252.252,0,1,0-.252.252.25.25,0,0,0,.252-.252" transform="translate(-460.829 -466.341)" style="fill:#b45414"/><path d="M479.359,473.091a.252.252,0,1,0-.252.252.251.251,0,0,0,.252-.252" transform="translate(-460.829 -466.341)" style="fill:#b45414"/><path d="M477.334,466.781a.252.252,0,1,0-.252.251.251.251,0,0,0,.252-.251" transform="translate(-460.829 -466.341)" style="fill:#b45414"/><path d="M475.832,467.673a.252.252,0,1,0-.252.252.251.251,0,0,0,.252-.252" transform="translate(-460.829 -466.341)" style="fill:#b45414"/><path d="M475.783,472.792a.252.252,0,1,0-.252.252.252.252,0,0,0,.252-.252" transform="translate(-460.829 -466.341)" style="fill:#b45414"/><path d="M483.9,470.667a.252.252,0,1,0-.252.252.251.251,0,0,0,.252-.252" transform="translate(-460.829 -466.341)" style="fill:#b45414"/><path d="M484.957,472.257a.252.252,0,1,0-.252.252.252.252,0,0,0,.252-.252" transform="translate(-460.829 -466.341)" style="fill:#b45414"/><path d="M484.361,468.8a.252.252,0,1,0-.252.252.252.252,0,0,0,.252-.252" transform="translate(-460.829 -466.341)" style="fill:#b45414"/><path d="M485.85,467.673a.252.252,0,1,0-.252.252.253.253,0,0,0,.252-.252" transform="translate(-460.829 -466.341)" style="fill:#b45414"/><path d="M487.277,467.077a.252.252,0,1,0-.252.252.252.252,0,0,0,.252-.252" transform="translate(-460.829 -466.341)" style="fill:#b45414"/><path d="M487.158,469.042a.252.252,0,1,0-.252.252.252.252,0,0,0,.252-.252" transform="translate(-460.829 -466.341)" style="fill:#b45414"/><path d="M485.73,470.175a.252.252,0,1,0-.252.252.252.252,0,0,0,.252-.252" transform="translate(-460.829 -466.341)" style="fill:#b45414"/><path d="M488.646,467.614a.252.252,0,1,0-.5,0,.252.252,0,1,0,.5,0" transform="translate(-460.829 -466.341)" style="fill:#b45414"/><path d="M488.23,470.234a.252.252,0,1,0-.5,0,.252.252,0,1,0,.5,0" transform="translate(-460.829 -466.341)" style="fill:#b45414"/><path d="M489.42,469.341a.252.252,0,1,0-.252.252.25.25,0,0,0,.252-.252" transform="translate(-460.829 -466.341)" style="fill:#b45414"/><path d="M489.6,470.948a.252.252,0,1,0-.252.252.251.251,0,0,0,.252-.252" transform="translate(-460.829 -466.341)" style="fill:#b45414"/><path d="M488.469,472.257a.252.252,0,1,0-.252.252.252.252,0,0,0,.252-.252" transform="translate(-460.829 -466.341)" style="fill:#b45414"/><path d="M487.158,471.544a.252.252,0,1,0-.252.252.25.25,0,0,0,.252-.252" transform="translate(-460.829 -466.341)" style="fill:#b45414"/><path d="M486.562,473.091a.252.252,0,1,0-.252.252.251.251,0,0,0,.252-.252" transform="translate(-460.829 -466.341)" style="fill:#b45414"/><path d="M484.535,466.781a.252.252,0,1,0-.252.251.251.251,0,0,0,.252-.251" transform="translate(-460.829 -466.341)" style="fill:#b45414"/><path d="M483.033,467.673a.252.252,0,1,0-.252.252.251.251,0,0,0,.252-.252" transform="translate(-460.829 -466.341)" style="fill:#b45414"/><path d="M482.986,472.792a.252.252,0,1,0-.252.252.252.252,0,0,0,.252-.252" transform="translate(-460.829 -466.341)" style="fill:#b45414"/><path d="M491.084,470.667a.252.252,0,1,0-.252.252.251.251,0,0,0,.252-.252" transform="translate(-460.829 -466.341)" style="fill:#b45414"/><path d="M492.142,472.257a.252.252,0,1,0-.251.252.252.252,0,0,0,.251-.252" transform="translate(-460.829 -466.341)" style="fill:#b45414"/><path d="M491.547,468.8a.252.252,0,1,0-.252.252.252.252,0,0,0,.252-.252" transform="translate(-460.829 -466.341)" style="fill:#b45414"/><path d="M493.035,467.673a.252.252,0,1,0-.252.252.252.252,0,0,0,.252-.252" transform="translate(-460.829 -466.341)" style="fill:#b45414"/><path d="M494.463,467.077a.252.252,0,1,0-.252.252.252.252,0,0,0,.252-.252" transform="translate(-460.829 -466.341)" style="fill:#b45414"/><path d="M494.344,469.042a.252.252,0,1,0-.252.252.252.252,0,0,0,.252-.252" transform="translate(-460.829 -466.341)" style="fill:#b45414"/><path d="M492.916,470.175a.252.252,0,1,0-.252.252.252.252,0,0,0,.252-.252" transform="translate(-460.829 -466.341)" style="fill:#b45414"/><path d="M495.832,467.614a.252.252,0,1,0-.252.252.25.25,0,0,0,.252-.252" transform="translate(-460.829 -466.341)" style="fill:#b45414"/><path d="M495.416,470.234a.252.252,0,0,0-.5,0,.252.252,0,0,0,.5,0" transform="translate(-460.829 -466.341)" style="fill:#b45414"/><path d="M496.605,469.341a.252.252,0,0,0-.5,0,.252.252,0,0,0,.5,0" transform="translate(-460.829 -466.341)" style="fill:#b45414"/><path d="M496.785,470.948a.252.252,0,1,0-.252.252.251.251,0,0,0,.252-.252" transform="translate(-460.829 -466.341)" style="fill:#b45414"/><path d="M495.654,472.257a.252.252,0,1,0-.252.252.251.251,0,0,0,.252-.252" transform="translate(-460.829 -466.341)" style="fill:#b45414"/><path d="M494.344,471.544a.252.252,0,1,0-.252.252.251.251,0,0,0,.252-.252" transform="translate(-460.829 -466.341)" style="fill:#b45414"/><path d="M493.748,473.091a.252.252,0,1,0-.252.252.251.251,0,0,0,.252-.252" transform="translate(-460.829 -466.341)" style="fill:#b45414"/><path d="M491.721,466.781a.252.252,0,1,0-.252.251.252.252,0,0,0,.252-.251" transform="translate(-460.829 -466.341)" style="fill:#b45414"/><path d="M490.219,467.673a.252.252,0,1,0-.252.252.252.252,0,0,0,.252-.252" transform="translate(-460.829 -466.341)" style="fill:#b45414"/><path d="M490.172,472.792a.252.252,0,1,0-.252.252.252.252,0,0,0,.252-.252" transform="translate(-460.829 -466.341)" style="fill:#b45414"/></svg>