<svg xmlns="http://www.w3.org/2000/svg" xmlns:xlink="http://www.w3.org/1999/xlink" viewBox="0 0 57.826 57.826"><defs><clipPath id="a" transform="translate(-640.16 -357.867)"><rect x="642.073" y="359.78" width="54" height="54" style="fill:none"/></clipPath></defs><title>shrubland</title><rect x="1.913" y="1.913" width="54" height="54" style="fill:none"/><g style="clip-path:url(#a)"><path d="M684.261,405.53h0m-.188-3.187h0m-1.687-2.25h0m1.125-2.625h0m-1.875-2.063h0m-1.313,2.438h0M679.2,401.03h0m2.063,2.625h0m-2.625,0h0m-.188,3.375h0m2.813-.187h0m.187,2.624h0m-2.625,0h0m.563,3.188h0m-3.75-.75h0m.187-2.438h0m.188-3.187h0m-.188-3h0m.75-2.625h0m.75-2.625h0m-8.812-1.875h0m3.187-.187h0m-.937,3.375h0m3.562-.188h0M673.2,401.78h0m-.187,3.375h0m.375,3h0m-.563,2.812h0M670.2,404.78h0m-.187,2.813h0m.187,2.249h0m-.562,2.438h0m-2.063-2.625h0m-1.5-2.25h0m3.938-5.437h0m-7.125-4.125h0m2.625.562h0m2.625.188h0m-1.688,2.625h0m1.313,3.562h0m-3.188,0h0m-1.5-1.687h0m.375-2.438h0m-2.25-1.312h0m-2.062.562h0m-1.875,2.813h0m-2.438,2.437h0m3.75-.75h0m.188,2.625h0m3-1.312h0m1.5,2.249h0m.562,2.063h0m2.063,2.062h0m-3,.75h0m-8.063,0h0m6-1.5h0m3-1.312h0m-5.812,3.375h0m-.938-2.625h0m-1.687-2.625h0m-2.25,3h0m-.188-3.188h0m-2.25,5.251h0m8.813-3.751h0" transform="translate(-640.16 -357.867)" style="fill:none;stroke:#ecf5e9;stroke-linecap:round;stroke-width:1.9500000476837158px"/><path d="M655.948,361.655h0m-2.625-.75h0m-7.5,36.563h0m.563-2.25h0m1.875,4.125h0m3.187,1.312h0m-2.062,2.063h0m0,3h0m-2.063-1.688h0m-2.437,8.062h0m5.25-3.937h0m-3.563-.562h0m-.187,2.437h0m2.437.375h0m-.937,2.813h0m-3-8.25h0m1.125-5.063h0m-3.75-3.187h0m.562,2.437h0m-1.125,2.063h0m2.813,1.125h0m-1.875,2.25h0m-.188,2.437h0m1.125,2.437h0m16.5-7.124h0m-9.375-4.875h0m1.875-2.25h0m3.375,1.125h0m-1.875,1.687h0m-2.625,2.625h0m0,4.688h0m1.688-2.063h0m1.687-2.25h0m-.75-3h0m3,.75h0m3-2.062h0m22.5,14.624h0m.75,2.251h0m2.25-1.688h0m-1.125-2.625h0m11.25-8.062h0m-1.312,2.625h0m.75,8.437h0m-.75-3.563h0m-2.625-1.5h0m-.563-2.813h0m2.25-5.062h0m0-2.625h0m-3.187.75h0m-3.375-.938h0m-1.313,3.188h0m2.063-.375h0m2.625.375h0m1.5,1.687h0m-2.813.75h0m-1.875,2.063h0m2.063,1.687h0m.562,2.812h0m2.625,2.25h0m-1.5,1.5h0m-2.437-1.312h0m-2.813.75h0m1.313-3.375h0m-2.438.75h0" transform="translate(-640.16 -357.867)" style="fill:none;stroke:#ecf5e9;stroke-linecap:round;stroke-width:1.9500000476837158px"/><path d="M661.573,375.718h0m0,3h0m-2.625,1.5h0m2.813,4.874h0m-2.063-1.874h0m-1.875,2.249h0m-.562-3.187h0m-3,.75h0m2.25-4.125h0m-2.438.75h0m-2.625.938h0m3.938-5.063h0m-2.063,1.125h0m-2.25.75h0m-1.875,2.25h0m-3,.375h0m1.313-3h0m-2.625-1.5h0m-.75,2.25h0m-1.125,2.063h0m-1.876,2.625h0m3.563-.188h0m-.375,2.812h0m-2.625.375h0m1.688,8.626h0m-1.876-1.125h0m1.876-5.251h0m.562,3h0m2.25,1.5h0m.188-3.938h0m.75-3.375h0m2.437,1.125h0m-.187-3.187h0m2.437,1.312h0m2.25,2.062h0m2.25,1.875h0m-2.812,1.688h0m-2.063-1.875h0m-1.875-1.875h0m-1.125,3.187h0m.75,2.438h0m2.438,1.125h0m2.437-.937h0m1.5,1.875h0m1.125-2.813h0m2.438.563h0m2.625-.563h0m2.062,1.5h0m.938,3h0m-2.813-1.5h0m-3.375.75h0m-12.187-33.187h0m3.375.187h0m-7.125-.937h0m39.75,1.687h0m.937-2.813h0m9.563.751h0m-6,.562h0m-7.5,1.125h0m-3.563,1.313h0m-5.437-2.063h0m-3.75-.375h0m-2.625.375h0m-3.938-.375h0" transform="translate(-640.16 -357.867)" style="fill:none;stroke:#ecf5e9;stroke-linecap:round;stroke-width:1.9500000476837158px"/><path d="M659.7,387.717h0m2.625,0h0m2.438-1.312h0m0-3h0m.937-3h0m-1.5-2.437h0m-5.625-.938h0" transform="translate(-640.16 -357.867)" style="fill:none;stroke:#ecf5e9;stroke-linecap:round;stroke-width:1.9500000476837158px"/><path d="M686.886,389.217h0m-2.25,2.251h0m-3.188-1.876h0m-1.687,2.813h0m2.25.75h0m2.625,1.313h0m2.812-.75h0m2.625,1.125h0m-.75-3.563h0m2.625.188h0m1.875-12h0m.75-2.625h0m.563,5.625h0m.562,3h0m-2.625-.937h0m.188,2.812h0m-.188,6.938h0m2.438-1.312h0m-.75-3.188h0m-32.25-8.062h0m21.937,3.749h0m.75-3h0m0-2.813h0m-.562-3.562h0m-2.063,2.25h0m.188,3.375h0m-2.813-.563h0m.75,3h0m.188,3h0m-2.438,1.875h0m-1.5,2.438h0m.938,3.187h0m-3.563,2.063h0m.75-3h0m-2.437-1.5h0m1.5-1.688h0m1.312-1.875h0m2.438-3h0m-.938-2.25h0m.188-6.937h0m0,3.375h0m-2.25-2.25h0m-1.5,2.625h0m.562,2.812h0m.375,2.812h0m-2.25,1.875h0m-1.687,2.438h0m-.563,3.375h0m-2.812.188h0m.375-3h0m1.687-2.813h0m-2.25.375h0m3.375-3.188h0m.563-2.624h0m.187-3.375h0m-4.312-2.25h0m3.75-.75h0m-2.25,3.187h0m-2.438,1.125h0m2.25,1.688h0m-.75,2.812h0m1.875,3h0m-2.25.375h0m-2.25,2.062h0" transform="translate(-640.16 -357.867)" style="fill:none;stroke:#ecf5e9;stroke-linecap:round;stroke-width:1.9500000476837158px"/><path d="M679.573,364.468h0m-2.625.937h0m-3.562-.187h0m1.687,5.625h0m-.187-3.188h0m2.437,1.313h0m2.25,2.062h0m-.562,3.563h0m-3.563-.75h0m-.375-3h0M673.2,375.53h0m-25.687-11.25h0m20.25,0h0m-2.438-1.125h0m-3,1.875h0m-.187-2.625h0m-3.75.938h0m.562,2.25h0m-3.187-.563h0m-5.063-2.062h0m2.25,1.687h0m-3.187,1.313h0m.937-3h0m-6.75-.188h0m.75,3h0m-2.062-.937h0m27.187,5.062h0m-16.687,3.563h0m17.437-.563h0m-2.625,1.313h0m-.375-6.75h0m.188,4.125h0m-2.813-1.875h0m-.937,2.812h0m.562,2.25h0m-3.187-1.312h0m.187-3.375h0m-4.312-1.5h0m3.75-.75h0m-2.25,3.187h0m-2.438,1.125h0m2.25,1.688h0m-2.25-1.688h0m-1.312-4.687h0m-.188,2.25h0m-5.625-.938h0m3-1.312h0m0,3h0m-2.625,1.5h0m.75,3h0m-2.437-.938h0m-.75-3.375h0m41.25,4.5h0m-8.813,2.813h0m11.625,4.125h0m.188-4.313h0m-4.125.188h0m-2.063,1.687h0m3.938.375h0m-.938,3h0m2.063,3.187h0m.187,2.438h0m-3.375-2.625h0m-3,2.062h0" transform="translate(-640.16 -357.867)" style="fill:none;stroke:#ecf5e9;stroke-linecap:round;stroke-width:1.9500000476837158px"/><path d="M641.323,367.655h0m31.125-4.875h0m4.313-1.875h0m20.25,13.875h0m-.75-3h0m.75,8.063h0m-54.375,34.875h0m.375-39.938h0m-1.876,37.5h0m55.5-51.562h0m-.375,36h0m.562,2.437h0m-.187,5.438h0m-.188,2.437h0m-13.125-47.438h0m-35.437-.375h0m35.437.375h0m-20.437-.75h0m-8.063,0h0m3.188.563h0m-7.313-.188h0m32.625,54.376h0m9.563.75h0m-20.063-.188h0m0-54h0m4.688,12h0m-5.063-1.125h0m-7.687-4.125h0m-18.375.75h0M649.2,395.03h0m41.813-19.875h0m-.75-13.125h0m-4.5,1.5h0M682.2,374.968h0m9.938-7.875h0m-.188,5.437h0m-6,1.313h0m3.188-2.25h0m1.312-1.875h0m-1.5-5.625h0m-.375,3h0m-1.5,1.687h0m-1.687,2.438h0m-3,1.125h0m1.687-3.375h0m-2.25.375h0m3.375-3.188h0m-3-.187h0m1.875,3h0m-2.25.375h0m-11.437-4.313h0m1.125,2.25h0m23.812.375h0m-1.125,6.75h0m-.187-3.937h0m.187,3.937h0m2.438-9.562h0m-4.5-.75h0m2.437-1.125h0m-49.687,9.562h0m-.375-3.562h0m-2.25,2.812h0m37.5-3.937h0" transform="translate(-640.16 -357.867)" style="fill:none;stroke:#ecf5e9;stroke-linecap:round;stroke-width:1.9500000476837158px"/></g></svg>