<svg xmlns="http://www.w3.org/2000/svg" xmlns:xlink="http://www.w3.org/1999/xlink" viewBox="0 0 75.48 61.062"><defs><clipPath id="a" transform="translate(-863.04 -373.323)"><rect x="864.655" y="374.31" width="71.832" height="58.998" style="fill:none"/></clipPath></defs><title>sti</title><rect x="1.615" y="0.987" width="71.832" height="58.998" style="fill:none"/><g style="clip-path:url(#a)"><path d="M938.52,432.529H865.081m73.439-3.283H865.081m73.439-3.282H865.081m73.439-3.283H865.081M938.52,419.4H865.081m73.439-3.283H865.081m73.439-3.282H865.081m73.439-3.283H865.081m73.439-3.281H865.081m73.439-3.283H865.081m73.439-3.281H865.081m73.439-3.284H865.081m73.439-3.257H865.081m73.439-3.256H865.081m73.439-3.262H865.081m73.439-3.277H865.081m73.439-3.278H865.081m73.439-3.277H865.081m73.439-3.277H865.081m71.4,60.63H863.04m73.441-3.283H863.04m73.441-3.281H863.04m73.441-3.283H863.04m73.441-3.281H863.04m73.441-3.284H863.04m73.441-3.281H863.04m73.441-3.283H863.04m73.441-3.281H863.04m73.441-3.284H863.04m73.441-3.281H863.04m73.441-3.283H863.04m73.441-3.271H863.04m73.441-3.256H863.04m73.441-3.254H863.04m73.441-3.274H863.04m73.441-3.277H863.04m73.441-3.277H863.04m73.441-3.278H863.04" transform="translate(-863.04 -373.323)" style="fill:none;stroke:#00b4c8;stroke-width:0.4320000112056732px;stroke-dasharray:3.240000009536743,0.8640000224113464"/></g></svg>