<svg xmlns="http://www.w3.org/2000/svg" xmlns:xlink="http://www.w3.org/1999/xlink" viewBox="0 0 81.039 72.104"><defs><clipPath id="a" transform="translate(-518.798 -419.021)"><rect x="518.798" y="419.021" width="81.039" height="72.104" style="fill:none"/></clipPath></defs><title>swamp_marsh</title><rect width="81.039" height="72.104" style="fill:none"/><g style="clip-path:url(#a)"><path d="M548.728,428.984h-8.457m23.631,3.923h-4.066M526,426.151l-.709-.75m1.793.792-.668-1.292m3.1,1.25.709-.75m-1.793.792.668-1.292m-1.334,1.25v-1.916m2.25,2.875h-4.041m5.957-.917h-8.457m57.046,2.8.709-.75m-1.793.792.668-1.292m-3.1,1.25-.709-.75m1.793.792-.668-1.292m1.334,1.25v-1.916m-2.25,2.875h4.041m-5.957-.917h8.457M563.464,432l.711-.75m-1.8.792.672-1.292M559.92,432l-.711-.75m1.8.792-.671-1.292m1.343,1.25v-1.916m-4.181,1.958h8.486m31.331-5.838.709-.75m-1.793.792.668-1.292m-3.1,1.25-.709-.75m1.793.792-.668-1.292m1.334,1.25v-1.916m-2.25,2.874h4.041m-5.957-.916h8.457m-78.519,64.682-.709-.75m1.793.792-.668-1.292m3.1,1.25.709-.75m-1.793.792.668-1.292m-1.334,1.25v-1.916m4.166,1.958H518.8m73.837.008.709-.75m-1.793.792.668-1.292m-3.106,1.25-.709-.75m1.793.792-.668-1.292m1.334,1.25v-1.916m-4.166,1.958h8.457M538.17,421.73l-.709-.75m1.793.792-.668-1.292m3.1,1.25.709-.75m-1.793.792.668-1.292m-1.334,1.25v-1.916m2.25,2.875H538.15m5.957-.917H535.65m23.631,3.923h-4.067M525.4,419.9h-4.041m54.546,1.882.709-.75m-1.793.792.668-1.292m-3.1,1.25-.709-.75m1.793.792-.668-1.292m1.334,1.25v-1.916m-2.25,2.875h4.041m-5.957-.917h8.457m-19.584,2.963.711-.75m-1.8.792.671-1.292m-3.125,1.25-.71-.75m1.8.792-.672-1.292m1.344,1.25v-1.916m-4.181,1.958h8.486m27.31-4.88h4.041" transform="translate(-518.798 -419.021)" fill="none" stroke="param(outline) #00b4c8" stroke-width="param(outline-width) 0.2160000056028366px"
/><path d="M527.769,440.624v-1.916m2.25,2.875h-4.041m5.957-.917h-8.457m57.047,2.8.709-.75m-1.792.792.667-1.292m-3.1,1.25-.709-.75m1.793.792-.668-1.292m1.334,1.25v-1.916m-2.25,2.875h4.041m-5.957-.917h8.457m-19.584,2.964.712-.75m-1.8.792.672-1.292m-3.127,1.25-.709-.75m1.8.792-.671-1.292m1.341,1.25v-1.916m-4.181,1.958h8.488m31.331-5.839.709-.75m-1.794.792.669-1.292m-3.106,1.25-.709-.75m1.793.792-.668-1.292m1.334,1.25v-1.916m-2.25,2.875h4.041m-5.957-.917h8.457M538.109,436.1l-.709-.75m1.793.792-.668-1.292m3.1,1.25.709-.75m-1.793.792.668-1.292m-1.334,1.25v-1.916m2.25,2.875h-4.041m5.957-.917h-8.457m23.629,3.923h-4.064m-33.836-6.756-.709-.75m1.793.792-.668-1.292m3.1,1.25.709-.75m-1.793.792.668-1.292m-1.334,1.25V431.4m2.25,2.875H521.3m5.957-.917H518.8m57.048,2.8.709-.75m-1.793.792.668-1.292m-3.106,1.25-.709-.75m1.793.792-.668-1.292m1.334,1.25v-1.916m-2.25,2.875h4.041m-5.957-.917h8.457m-19.584,2.964.713-.75m-1.8.791.672-1.291m-3.127,1.25-.709-.75m1.8.791-.672-1.291M557,439.16v-1.917m-4.182,1.958H561.3m31.331-5.838.709-.75m-1.793.792.668-1.292m-3.106,1.25-.709-.75m1.793.792-.668-1.292m1.334,1.25v-1.916m-2.25,2.875h4.041m-5.957-.917h8.457m-52.363-4.463-.709-.75m1.793.792-.668-1.292m3.1,1.25.709-.75m-1.793.792.668-1.292m-1.334,1.25v-1.916m2.25,2.875h-4.041" transform="translate(-518.798 -419.021)" fill="none" stroke="param(outline) #00b4c8" stroke-width="param(outline-width) 0.2160000056028366px"
/><path d="M577.942,457.752l-.668-1.292m1.334,1.25v-1.916m-2.25,2.875H580.4m-5.957-.917H582.9m-19.585,2.964.713-.75m-1.8.792.672-1.292m-3.127,1.25-.709-.75m1.8.792-.672-1.292m1.342,1.25V458.8m-4.182,1.958h8.489m31.33-5.839.709-.75m-1.793.792.668-1.292m-3.105,1.25-.709-.75m1.793.792-.668-1.292m1.334,1.25V453m-2.25,2.875h4.041m-5.957-.917h8.457m-61.579-4.674-.709-.75m1.793.792-.668-1.292m3.1,1.25.709-.75m-1.793.792.668-1.292m-1.334,1.25v-1.916m2.25,2.875h-4.041m5.957-.917h-8.457m23.629,3.923h-4.064M521.318,447.5l-.709-.75m1.793.792-.668-1.292m3.1,1.25.709-.75m-1.793.792.668-1.292m-1.334,1.25V445.58m2.25,2.875H521.3m5.957-.917H518.8m57.048,2.8.709-.75m-1.793.792.668-1.292m-3.106,1.25-.709-.75m1.793.792-.668-1.292m1.334,1.25v-1.916m-2.25,2.875h4.041m-5.957-.917h8.457m-19.584,2.964.713-.75m-1.8.792.672-1.292m-3.127,1.25-.709-.75m1.8.792-.672-1.292m1.342,1.25v-1.916m-4.182,1.958H561.3m31.331-5.839.709-.75m-1.793.792.668-1.292m-3.106,1.25-.709-.75m1.793.792-.668-1.292m1.334,1.25V445.63m-2.25,2.875h4.041m-5.957-.917h8.457m-52.365-4.173-.709-.75m1.793.792-.668-1.292m3.1,1.25.709-.75m-1.793.792.668-1.292m-1.334,1.25V441.5m2.25,2.875h-4.041m5.957-.917h-8.457M563.9,447.38h-4.064M526,440.624l-.709-.75m1.793.792-.668-1.292m3.1,1.25.709-.75m-1.793.792.668-1.292" transform="translate(-518.798 -419.021)" fill="none" stroke="param(outline) #00b4c8" stroke-width="param(outline-width) 0.2160000056028366px"
/><path d="M529.373,454.869l.709-.75m-1.793.792.668-1.292m-1.334,1.25v-1.916m2.25,2.875h-4.041m5.957-.917h-8.457m57.047,2.8.709-.75m-1.793.792.668-1.292m-3.1,1.25-.709-.75" transform="translate(-518.798 -419.021)" fill="none" stroke="param(outline) #00b4c8" stroke-width="param(outline-width) 0.2160000056028366px"
/><path d="M579.295,472.313l.668-1.292m-3.1,1.25-.709-.75m1.793.792-.668-1.292m1.334,1.25v-1.916m-2.25,2.875H580.4m-5.957-.917H582.9m-19.585,2.964.713-.75m-1.8.792.672-1.292m-3.127,1.25-.709-.75m1.8.792-.672-1.292m1.342,1.25v-1.916m-4.182,1.958h8.489m31.33-5.839.709-.75m-1.793.792.668-1.292m-3.105,1.25-.709-.75m1.793.792-.668-1.292m1.334,1.25v-1.916m-2.25,2.875h4.041m-5.957-.917h8.457m-61.579-4.612-.709-.75m1.793.792-.668-1.292m3.1,1.25.709-.75m-1.793.792.668-1.292m-1.334,1.25v-1.916m2.25,2.875h-4.041m5.957-.917h-8.457m23.629,3.923h-4.064m-33.836-6.756-.709-.75m1.793.792-.668-1.292m3.1,1.25.709-.75m-1.793.792.668-1.292m-1.334,1.25V460.2m2.25,2.875H521.3m5.957-.917H518.8m57.048,2.8.709-.75m-1.793.792.668-1.292m-3.106,1.25-.709-.75m1.793.792-.668-1.292m1.334,1.25v-1.916m-2.25,2.875h4.041M569.908,465h8.457m-19.584,2.964.713-.75m-1.8.792.672-1.292m-3.127,1.25-.709-.75m1.8.792-.672-1.292m1.342,1.25V466.05m-4.182,1.958H561.3m31.331-5.84.709-.75m-1.793.792.668-1.292m-3.106,1.25-.709-.75m1.793.792-.668-1.292m1.334,1.25v-1.916m-2.25,2.875h4.041m-5.957-.917h8.457m-52.512-4.55-.709-.75m1.793.792-.668-1.292m3.106,1.25.709-.75m-1.793.792.668-1.292m-1.334,1.25v-1.916m2.25,2.875h-4.041m5.957-.917h-8.457m23.629,3.923h-4.065m-33.836-6.756-.709-.75m1.793.792-.668-1.292" transform="translate(-518.798 -419.021)" fill="none" stroke="param(outline) #00b4c8" stroke-width="param(outline-width) 0.2160000056028366px"
/><path d="M563.168,489.607l.712-.75m-1.8.792.672-1.292m-3.127,1.25-.709-.75m1.8.792-.671-1.292m1.341,1.25v-1.916m-4.181,1.958h8.488m31.331-5.839.709-.75m-1.793.792.668-1.292m-3.106,1.25-.709-.75m1.793.792-.668-1.292m1.334,1.25v-1.916M593,484.769h4.041m-5.957-.917h8.457m-61.291-4.684-.709-.75m1.793.792-.668-1.292m3.1,1.25.709-.75m-1.793.792.668-1.292m-1.334,1.25v-1.916m2.25,2.875H538.23m5.957-.917H535.73m23.629,3.923h-4.064m-33.836-6.756-.709-.75m1.793.792-.668-1.292m3.1,1.25.709-.75m-1.793.792.668-1.292m-1.334,1.25v-1.916m2.25,2.875h-4.041m5.957-.917h-8.457m57.047,2.8.709-.75m-1.793.792.668-1.292m-3.1,1.25-.709-.75m1.793.792-.668-1.292m1.334,1.25V477.3m-2.25,2.875h4.041m-5.957-.917h8.457m-19.585,2.964.713-.75m-1.8.792.672-1.292m-3.127,1.25-.709-.75m1.8.792-.672-1.292m1.342,1.25v-1.916m-4.181,1.958h8.488m31.33-5.84.709-.75m-1.792.792.667-1.292m-3.105,1.25-.709-.75m1.793.792-.668-1.292m1.334,1.25V474.51m-2.25,2.875h4.041m-5.957-.917h8.457m-52.653-4.247-.709-.75m1.793.792-.668-1.292m3.106,1.25.709-.75m-1.793.792.668-1.292m-1.334,1.25v-1.916m2.25,2.875h-4.041m5.957-.917h-8.457m23.629,3.923h-4.065m-33.836-6.756-.709-.75m1.793.792-.668-1.292m3.106,1.25.709-.75m-1.793.792.668-1.292m-1.334,1.25v-1.916m2.25,2.875h-4.041m5.957-.917h-8.457m57.047,2.8.709-.75" transform="translate(-518.798 -419.021)" fill="none" stroke="param(outline) #00b4c8" stroke-width="param(outline-width) 0.2160000056028366px"
/><path d="M530.646,487.761h4.647m-4.629-14.723h4.652m-1.926-14.426h4.653M533.4,429.656h4.645m-7.379,14.73h4.652m31.133,39.006H571.1m-1.926-14.427h4.652m-7.378-42.688H571.1m-1.913,13.732h4.644m-7.378,14.731H571.1m-26.207,21.5h4.652m-1.925-14.426h4.652m-7.379-42.689h4.647m-1.912,13.733h4.644m-7.379,14.729h4.652m31.336,32.872h4.651m-1.924-14.427h4.651m-7.378-42.688h4.646m-1.913,13.732h4.645m-7.378,14.73h4.651M542.5,486.551l-.709-.75m1.793.792-.668-1.292m3.1,1.25.709-.75m-1.793.792.668-1.292m-1.334,1.25v-1.916m2.25,2.875h-4.041m5.957-.917h-8.457m23.629,3.923h-4.064M525.7,483.76l-.709-.75m1.793.792-.668-1.292m3.105,1.25.709-.75m-1.793.792.668-1.292m-1.334,1.25v-1.916m2.25,2.875h-4.041m5.957-.917h-8.457m57.048,2.8.709-.75m-1.793.792.668-1.292m-3.106,1.25-.709-.75m1.793.792-.668-1.292m1.334,1.25v-1.916m-2.25,2.875h4.041m-5.957-.917h8.457" transform="translate(-518.798 -419.021)" fill="none" stroke="param(outline) #00b4c8" stroke-width="param(outline-width) 0.2160000056028366px"
/></g></svg>