<svg xmlns="http://www.w3.org/2000/svg" xmlns:xlink="http://www.w3.org/1999/xlink" viewBox="0 0 75.48 58.996"><defs><clipPath id="a" transform="translate(-538.499 -496.996)"><rect x="540.114" y="496.996" width="71.832" height="58.996" style="fill:none"/></clipPath></defs><title>tailings</title><rect x="1.615" width="71.832" height="58.996" style="fill:none"/><g style="clip-path:url(#a)"><path d="M613.979,555.142H540.54m73.439-3.283H540.54m73.439-3.281H540.54m73.439-3.283H540.54m73.439-3.281H540.54m73.439-3.284H540.54m73.439-3.281H540.54m73.439-3.283H540.54m73.439-3.281H540.54m73.439-3.284H540.54m73.439-3.281H540.54m73.439-3.283H540.54m73.439-3.258H540.54m73.439-3.256H540.54m73.439-3.261H540.54m73.439-3.278H540.54m73.439-3.277H540.54m73.439-3.277H540.54m71.4,54.07H538.5m73.441-3.281H538.5m73.441-3.284H538.5m73.441-3.281H538.5m73.441-3.283H538.5m73.441-3.281H538.5m73.441-3.283H538.5m73.441-3.282H538.5m73.441-3.283H538.5m73.441-3.281H538.5m73.441-3.283H538.5m73.441-3.272H538.5m73.441-3.256H538.5M611.94,510.9H538.5m73.441-3.273H538.5m73.441-3.277H538.5m73.441-3.278H538.5m73.441-3.277H538.5" transform="translate(-538.499 -496.996)" style="fill:none;stroke:#e5ba9a;stroke-width:0.2160000056028366px;stroke-dasharray:3.240000009536743,0.8640000224113464"/></g></svg>