<svg xmlns="http://www.w3.org/2000/svg" xmlns:xlink="http://www.w3.org/1999/xlink" viewBox="0 0 27.89 26.936"><defs><clipPath id="a" transform="translate(-664.84 -588.905)"><rect x="666.495" y="590.317" width="23.865" height="23.865" style="fill:none"/></clipPath></defs><title>tailings_heap</title><rect x="1.655" y="1.412" width="23.865" height="23.865" style="fill:none"/><g style="clip-path:url(#a)"><path d="M667.1,611.534a1.672,1.672,0,0,1-.564-1.713m15.239-3.637a.818.818,0,0,1-1.154-.041m-.484-.064a2.6,2.6,0,0,1-2.333-1m6.91.621a2.055,2.055,0,0,1-2.078.78m4.426-9.555a2.055,2.055,0,0,1,.866,2.043m-4.862-4.759a2.056,2.056,0,0,1,2.074.789m-9.009,8.149a2.058,2.058,0,0,1-.693-2.108m10.118,2.639s.051.419-.491.58m-.375-1.216s.284.29-.358.526m1.719.3a.82.82,0,0,1-.682.932m-.222-8.426s.42-.053.582.488m-1.215.38s.288-.285.528.356m.3-1.72a.82.82,0,0,1,.935.678m-8.683.409s-.066-.417.471-.595m.414,1.2s-.293-.28.34-.538m-1.726-.246a.818.818,0,0,1,.65-.954m.7,7.448s-.422-.027-.48-.589m-.163,1.407a.818.818,0,0,1-.79-.841m4.534,1.955a.572.572,0,0,1-.756-.079m.8-.994s-.08.4-.636,0m.716,2.941a.819.819,0,0,1-1.154-.04m-1.539-7.088a1.414,1.414,0,0,1,.483-1.447m-1.012,1.343a1.544,1.544,0,0,1,.527-1.579m-1.584,1.37a1.8,1.8,0,0,1,.615-1.842m-2.01,1.633a2.058,2.058,0,0,1,.7-2.1m4.19,2.093a1.026,1.026,0,0,1,1-.476m-1.293.021a1.152,1.152,0,0,1,1.128-.534m-1.709-.373a1.413,1.413,0,0,1,1.378-.653m-1.669.2a1.541,1.541,0,0,1,1.5-.713m-2.086-.2a1.8,1.8,0,0,1,1.755-.831m-2.045.378a1.926,1.926,0,0,1,1.88-.891m-2.508.1a2.5,2.5,0,0,1,2.592-1.078m1.644,5a1.031,1.031,0,0,1,.454,1.013m-1.064-1.847a1.15,1.15,0,0,1,1.166.444m-.914-1.492a1.412,1.412,0,0,1,1.425.543m-1.172-1.591a1.671,1.671,0,0,1,1.684.642M682.6,595.4a1.927,1.927,0,0,1,1.944.74m-1.819-1.264a2.056,2.056,0,0,1,2.074.79m-1.784,3.49a1.159,1.159,0,0,1,.487,1.149m-.022-1.421a1.287,1.287,0,0,1,.54,1.278m.391-1.821a1.545,1.545,0,0,1,.648,1.533m.282-2.076a1.8,1.8,0,0,1,.759,1.787m.171-2.33a2.056,2.056,0,0,1,.867,2.043M683.9,600.58a1.283,1.283,0,0,1-.547,1.274m1.583-.979a1.539,1.539,0,0,1-.656,1.529m1.693-1.233a1.8,1.8,0,0,1-.766,1.784m1.8-1.489a2.057,2.057,0,0,1-.874,2.04m-3.665-2.406a1.031,1.031,0,0,1-1.039.392m1.29.085a1.155,1.155,0,0,1-1.168.439m1.672.514a1.414,1.414,0,0,1-1.428.536m1.932.415a1.67,1.67,0,0,1-1.687.635m2.191.318a1.932,1.932,0,0,1-1.948.733m-.848-3.274a1.155,1.155,0,0,1-1.125-.54m.787,1.563a1.414,1.414,0,0,1-1.376-.66m1.206,1.171a1.537,1.537,0,0,1-1.5-.719m1.162,1.742a1.8,1.8,0,0,1-1.751-.838m1.412,1.861a2.056,2.056,0,0,1-2-.959m2.555-3.562a1.028,1.028,0,0,1-.347-1.054m-.14,1.286a1.158,1.158,0,0,1-.389-1.185m-.1,1.417a1.287,1.287,0,0,1-.434-1.318m-.052,1.549a1.412,1.412,0,0,1-.477-1.448m-.5,1.912a1.669,1.669,0,0,1-.562-1.712m.077,1.944a1.8,1.8,0,0,1-.608-1.843m-.365,2.307a2.051,2.051,0,0,1-.693-2.107" transform="translate(-664.84 -588.905)" style="fill:none;stroke:#b45414;stroke-linejoin:bevel;stroke-width:0.2160000056028366px"/><path d="M687.017,610.091a.818.818,0,0,1-.042-1.153m2.992.127a1.8,1.8,0,0,1,.615-1.842m-4.626,2.315a1.967,1.967,0,0,1,1.237-2.25m3.767,4.246a1.674,1.674,0,0,1-.564-1.713m.078,1.945a1.8,1.8,0,0,1-.606-1.845m-.366,2.308a2.054,2.054,0,0,1-.694-2.107m-13.028-3.777a2.055,2.055,0,0,1,.866,2.043m-4.861-4.759a2.052,2.052,0,0,1,2.073.789m.416,8.68s.052.42-.49.58m-.376-1.215a.509.509,0,0,1-.357.526m1.718.3a.818.818,0,0,1-.681.931m-.222-8.426s.42-.053.582.489m-1.216.379s.289-.285.529.356m-.184-.8s.419-.053.582.489m-.1-1.413a.818.818,0,0,1,.933.679m-8.683.408s-.064-.418.472-.595m.414,1.2s-.293-.281.341-.537m-.79.2s-.064-.417.472-.6m-1.409.143a.817.817,0,0,1,.651-.953m1.124,7.08s-.337.226-.452-.448m3.172,1.675s-.08.4-.637,0m-.92-3.978a1.159,1.159,0,0,1,.4-1.184m-.924,1.08a1.285,1.285,0,0,1,.439-1.316m-1.5,1.107a1.541,1.541,0,0,1,.526-1.578m-1.583,1.369a1.8,1.8,0,0,1,.615-1.842m2.883,1.621a1.027,1.027,0,0,1,1-.475m-1.294.021a1.158,1.158,0,0,1,1.128-.534m-1.418.08a1.285,1.285,0,0,1,1.253-.593m-1.544.14a1.416,1.416,0,0,1,1.379-.653m-1.96-.254a1.672,1.672,0,0,1,1.629-.772m-2.21-.135a1.928,1.928,0,0,1,1.88-.891m-2.508.1a2.508,2.508,0,0,1,2.593-1.078m1.644,5a1.032,1.032,0,0,1,.454,1.013m-1.066-1.848a1.156,1.156,0,0,1,1.167.445m-1.04-.968a1.284,1.284,0,0,1,1.3.493m-1.044-1.541a1.544,1.544,0,0,1,1.556.593m-1.429-1.116a1.671,1.671,0,0,1,1.685.641m-1.433-1.689a1.927,1.927,0,0,1,1.945.74m-1.53,3.016a1.156,1.156,0,0,1,.487,1.149m-.022-1.421a1.287,1.287,0,0,1,.541,1.277m.39-1.82a1.544,1.544,0,0,1,.649,1.532m-.183-1.8a1.675,1.675,0,0,1,.7,1.661m.227-2.2a1.927,1.927,0,0,1,.812,1.915m-.347-2.187a2.056,2.056,0,0,1,.866,2.044m-3.755,1.127a1.155,1.155,0,0,1-.492,1.148m1.011-1a1.285,1.285,0,0,1-.547,1.274m1.582-.98a1.544,1.544,0,0,1-.655,1.531m1.691-1.235a1.8,1.8,0,0,1-.764,1.786m1.8-1.49a2.059,2.059,0,0,1-.875,2.04m-3.665-2.405a1.029,1.029,0,0,1-1.039.391m1.29.086a1.153,1.153,0,0,1-1.168.438m1.42.037a1.284,1.284,0,0,1-1.3.488m1.8.464a1.539,1.539,0,0,1-1.557.586m2.062.367a1.8,1.8,0,0,1-1.818.683m2.07-.207a1.929,1.929,0,0,1-1.947.732m-.85-3.273a1.158,1.158,0,0,1-1.126-.54m.956,1.051a1.286,1.286,0,0,1-1.25-.6m1.081,1.111a1.414,1.414,0,0,1-1.375-.66m1.037,1.682a1.669,1.669,0,0,1-1.626-.778m1.288,1.8a1.927,1.927,0,0,1-1.877-.9m1.707,1.41a2.055,2.055,0,0,1-2-.959m2.554-3.562a1.026,1.026,0,0,1-.346-1.054m-.626,1.518a1.285,1.285,0,0,1-.434-1.318m-.539,1.782a1.55,1.55,0,0,1-.521-1.582" transform="translate(-664.84 -588.905)" style="fill:none;stroke:#b45414;stroke-linejoin:bevel;stroke-width:0.2160000056028366px"/><path d="M684.381,609.876a4.08,4.08,0,0,1-4.388,0m3.142-1.14a2.17,2.17,0,0,1-2.579.127m4.041-1.59a2.057,2.057,0,0,1-2.078.78m4.507,4.739a2.059,2.059,0,0,1-.693-2.108m-8.478-2.608a1.6,1.6,0,0,1,.563,1.462m0,1.237a3.91,3.91,0,0,1-1.087,2.94m-.487-3.052a2.9,2.9,0,0,1-.976,2.49m.246-3.832a.573.573,0,0,1,.068.758m-1.137-.547a.573.573,0,0,1,.066.758m-5.044-4.732s0-.406.623-.127m4.867,8.519a.819.819,0,0,1-.682.932m1.969-24.131a2.039,2.039,0,0,1-1.181,1.18m-.957,1.406a3.125,3.125,0,0,1-2.564,1.173m1.627-2.13a2.057,2.057,0,0,1-2.077.78m15.562,6.8a.571.571,0,0,1-.039.758m-.815-.844a.573.573,0,0,1-.039.759m-16.6,2.039c.189-.279,1.463-.224,2.362.338m-6.192.065A2.5,2.5,0,0,1,668.518,602m-2.367,1.752a2.506,2.506,0,0,1,2.592-1.078m-.608-6.126a4.131,4.131,0,0,1,.72,3.539M666.9,597a3.883,3.883,0,0,1,.721,3.425m.675-6.3c-.336.029-2.46.1-3.361-1.366m3.044.182a2.317,2.317,0,0,1-2.481-1.194m26.649,2.378c-.337.029-2.461.1-3.361-1.366m3.042.182a2.314,2.314,0,0,1-2.479-1.194m-1.557,1.418a2.826,2.826,0,0,1,1.943,2.223m-16.383,7.7a2.834,2.834,0,0,1-.253-2.944m1.621,2.354c-.745-.908-.816-1.367-.349-2.293M689.4,597.45a2.826,2.826,0,0,1,.576,2.9m-1.542-2.4c.45,1.125.619,1.479.257,2.453m-1.8-6.113a2.825,2.825,0,0,1,1.942,2.223m-2.582-1.164c1.138.292,1.465.621,1.637,1.644m-4.518-4.488a2.828,2.828,0,0,1,2.778,1m-2.822.235c1.136-.3,1.582-.168,2.228.644m-5.774-1.884a2.83,2.83,0,0,1,2.937-.311m-2.437,1.444c.893-.763,1.35-.842,2.285-.394m-6.98,1.833a2.827,2.827,0,0,1,2.2-1.965M676.65,595.7c.282-1.141.607-1.471,1.628-1.653m-5.121,4.757a2.826,2.826,0,0,1,.992-2.781m.92,2.709c-.3-1.136-.173-1.581.636-2.23m.682,9.129a2.827,2.827,0,0,1-1.845-2.305m2.417,1.724c-1.124-.341-1.437-.683-1.563-1.713m3.745,4.479a2.827,2.827,0,0,1-2.622-1.358m2.829.138c-1.166.144-1.591-.043-2.125-.931m10.452-.556a2.826,2.826,0,0,1-2.192,1.979m1.121-2.6c-.273,1.142-.6,1.474-1.616,1.663m3.106-4.716c.337,1.125.224,1.575-.563,2.25m5.19-12.053a2.6,2.6,0,0,1-2.334-1m2,1.522a2.319,2.319,0,0,1-2.48-1.194m-19.415.78a.819.819,0,0,1-1.153-.04m-.485-.066a2.6,2.6,0,0,1-2.333-1m2,1.522a2.319,2.319,0,0,1-2.48-1.194m7.389.294a2.058,2.058,0,0,1-2.078.78m3.415-2.61a.819.819,0,0,1-.681.932m-3.826.417a.573.573,0,0,1-.756-.08m.875,1.947a.817.817,0,0,1-1.153-.041m3.475-3.086a1.8,1.8,0,0,1-1.818.684m2.07-.207a1.927,1.927,0,0,1-1.947.731m-1.865-.2a1.931,1.931,0,0,1-1.877-.9m21.448,22.947a2.057,2.057,0,0,1-.694-2.107m2.152-4.073s-.066-.418.472-.595m-.973.419a.819.819,0,0,1,.651-.953m-2.479,4.589a.571.571,0,0,1,.025-.759m.731.812s-.4-.052-.044-.635" transform="translate(-664.84 -588.905)" style="fill:none;stroke:#b45414;stroke-linejoin:bevel;stroke-width:0.2160000056028366px"/><path d="M690.232,613.448s-.334.23-.456-.443m-.593,1.641a.817.817,0,0,1-.8-.83m-16.714-13.391c-.787-2.137-.025-4.308,1.013-5.062m16.762,5.963a2.826,2.826,0,0,1-.9,2.812m.2,4.467a2.055,2.055,0,0,1,.7-2.1m-1.77,1.906a2.056,2.056,0,0,1,.7-2.106m-6.941,1.571a.819.819,0,0,1-1.154-.041m4.888,3.17a5.2,5.2,0,0,1-5.063.562" transform="translate(-664.84 -588.905)" style="fill:none;stroke:#b45414;stroke-linejoin:bevel;stroke-width:0.2160000056028366px"/><path d="M666.609,611.766a1.8,1.8,0,0,1-.606-1.845m9.554-19.835a.819.819,0,0,1-.682.931m-5.9.013a2.055,2.055,0,0,1-2-.958m3.134,14.37s.424-.4.756-.073m-.37-10.6a.817.817,0,0,1-1.153-.041m7.616-1.625a2.745,2.745,0,0,1,2.475-1.349m-9.083,4.427a2.477,2.477,0,0,1-2.392.185m3.309-.051c-.947.5-1.622,2.3-1.171,3.988m-1.351,1.688a6.381,6.381,0,0,1,3.263.787m13.388,10.575a3.682,3.682,0,0,1-2.363.9m-.9.112a3.4,3.4,0,0,1-2.813-.563m1.024-21.422a6.163,6.163,0,0,1,6.064.722m1.8,23.646c-.3-.159-1.69-.358-2.076-2.974m2.076-20.876c-.3-.159-1.69-.358-2.076-2.975m3.051,1.876a.82.82,0,0,1-.8-.832m1.324,23.981s-.423-.022-.487-.583" transform="translate(-664.84 -588.905)" style="fill:none;stroke:#b45414;stroke-linejoin:bevel;stroke-width:0.2160000056028366px"/></g></svg>