<svg xmlns="http://www.w3.org/2000/svg" xmlns:xlink="http://www.w3.org/1999/xlink" viewBox="0 0 304.777 319.351"><defs><clipPath id="a"><rect width="73.243" height="73" style="fill:none"/></clipPath><pattern id="b" width="73.243" height="73" patternTransform="matrix(1, 0, 0, -1, -441.165, 16671.464)" patternUnits="userSpaceOnUse" viewBox="0 0 73.243 73"><rect width="73.243" height="73" style="fill:none"/><g style="clip-path:url(#a)"><path d="M.01,1.008H73.234M.01,3.1H73.234M.01,5.184H73.234M.01,7.271H73.234M.01,9.359H73.234M.01,11.447H73.234M.01,13.535H73.234M.01,15.622H73.234M.01,17.71H73.234M.01,19.8H73.234M.01,21.886H73.234M.01,23.974H73.234M.01,26.062H73.234M.01,28.149H73.234M.01,30.237H73.234M.01,32.324H73.234M.01,34.412H73.234M.01,36.5H73.234M.01,38.588H73.234M.01,40.676H73.234M.01,42.764H73.234M.01,44.852H73.234M.01,46.939H73.234M.01,49.026H73.234M.01,51.114H73.234M.01,53.2H73.234M.01,55.29H73.234M.01,57.378H73.234M.01,59.466H73.234M.01,61.554H73.234M.01,65.729H73.234M.01,67.816H73.234M.01,63.642H73.234M.01,69.9H73.234M0,71.992H73.243" style="fill:none;stroke:#ecf5e9;stroke-width:1.3680000305175781px;stroke-dasharray:1.0080000162124634,0.4320000112056732"/><rect x="0.622" y="0.5" width="72" height="72" style="fill:none;stroke:#ecf5e9"/></g></pattern><clipPath id="c" transform="translate(-630.117 -551.376)"><polyline points="934.894 551.376 934.894 624.376 861.651 624.376 861.651 551.376" style="fill:none"/></clipPath></defs><title>vineyard</title><rect y="304.951" width="36" height="14.4" style="fill:url(#b)"/><rect x="231.534" width="73.243" height="73" style="fill:none"/><g style="clip-path:url(#c)"><path d="M934.885,552.384H861.661m73.224,2.088H861.661m73.224,2.088H861.661m73.224,2.087H861.661m73.224,2.088H861.661m73.224,2.088H861.661m73.224,2.088H861.661M934.885,567H861.661m73.224,2.088H861.661m73.224,2.088H861.661m73.224,2.088H861.661m73.224,2.088H861.661m73.224,2.088H861.661m73.224,2.087H861.661m73.224,2.088H861.661m73.224,2.087H861.661m73.224,2.088H861.661m73.224,2.088H861.661m73.224,2.088H861.661m73.224,2.088H861.661m73.224,2.088H861.661m73.224,2.088H861.661m73.224,2.087H861.661m73.224,2.087H861.661m73.224,2.088H861.661m73.224,2.088H861.661m73.224,2.088H861.661m73.224,2.088H861.661m73.224,2.088H861.661m73.224,2.088H861.661m73.224,4.175H861.661m73.224,2.087H861.661m73.224-4.174H861.661m73.224,6.262H861.661m73.233,2.088H861.651" transform="translate(-630.117 -551.376)" style="fill:none;stroke:#ecf5e9;stroke-width:1.3680000305175781px;stroke-dasharray:1.0080000162124634,0.4320000112056732"/></g></svg>