<?xml version="1.0" encoding="UTF-8" standalone="no"?>
<!-- Created with Inkscape (http://www.inkscape.org/) -->

<svg
   xmlns:dc="http://purl.org/dc/elements/1.1/"
   xmlns:cc="http://creativecommons.org/ns#"
   xmlns:rdf="http://www.w3.org/1999/02/22-rdf-syntax-ns#"
   xmlns:svg="http://www.w3.org/2000/svg"
   xmlns="http://www.w3.org/2000/svg"
   xmlns:xlink="http://www.w3.org/1999/xlink"
   xmlns:sodipodi="http://sodipodi.sourceforge.net/DTD/sodipodi-0.dtd"
   xmlns:inkscape="http://www.inkscape.org/namespaces/inkscape"
   width="410"
   height="150"
   id="svg3782"
   version="1.1"
   inkscape:version="0.48.3.1 r9886"
   sodipodi:docname="Australian Alphanumeric Route C424.svg">
  <defs
     id="defs3784">
    <linearGradient
       inkscape:collect="always"
       id="linearGradient3772">
      <stop
         style="stop-color:#ffa709;stop-opacity:1;"
         offset="0"
         id="stop3774" />
      <stop
         style="stop-color:#ffa709;stop-opacity:0;"
         offset="1"
         id="stop3776" />
    </linearGradient>
    <linearGradient
       inkscape:collect="always"
       xlink:href="#linearGradient3772"
       id="linearGradient3778"
       x1="-1740.4095"
       y1="-456.38239"
       x2="-1348.4189"
       y2="-456.38239"
       gradientUnits="userSpaceOnUse" />
  </defs>
  <sodipodi:namedview
     id="base"
     pagecolor="#ffffff"
     bordercolor="#666666"
     borderopacity="1.0"
     inkscape:pageopacity="0.0"
     inkscape:pageshadow="2"
     inkscape:zoom="2"
     inkscape:cx="166.76213"
     inkscape:cy="94.5"
     inkscape:document-units="px"
     inkscape:current-layer="layer1"
     showgrid="false"
     fit-margin-top="10"
     fit-margin-right="10"
     fit-margin-bottom="10"
     fit-margin-left="10"
     inkscape:window-width="1920"
     inkscape:window-height="1150"
     inkscape:window-x="0"
     inkscape:window-y="0"
     inkscape:window-maximized="1"
     showguides="true"
     inkscape:guide-bbox="true">
    <sodipodi:guide
       orientation="1,0"
       position="577.5,-110"
       id="guide3976" />
  </sodipodi:namedview>
  <metadata
     id="metadata3787">
    <rdf:RDF>
      <cc:Work
         rdf:about="">
        <dc:format>image/svg+xml</dc:format>
        <dc:type
           rdf:resource="http://purl.org/dc/dcmitype/StillImage" />
        <dc:title></dc:title>
      </cc:Work>
    </rdf:RDF>
  </metadata>
  <g
     inkscape:label="Layer 1"
     inkscape:groupmode="layer"
     id="layer1"
     transform="translate(1334.7443,269.52274)">
    <rect
       style="fill:#195f35;fill-opacity:1;fill-rule:nonzero;stroke:none"
       id="rect3840"
       width="390"
       height="130"
       x="-1324.7443"
       y="-259.52274"
       ry="11.621135" />
    <g
       transform="translate(-1254.4125,-177.74915)"
       style="font-size:130px;font-style:normal;font-variant:normal;font-weight:normal;font-stretch:normal;line-height:125%;letter-spacing:0px;word-spacing:0px;fill:#ffa709;fill-opacity:1;stroke:none;font-family:Roadgeek 2005 Series E;-inkscape-font-specification:Roadgeek 2005 Series E"
       id="flowRoot2993">
      <path
         d="m 29.17,9.0964141 -13.78,-7.41 C 7.7200077,10.006406 3.4299921,12.736414 -4.5,12.736414 c -13.129987,0 -21.06,-11.0500189 -21.06,-30.03 0,-13.389987 5.200016,-28.99 21.06,-28.99 4.67999532,0 10.4000034,1.820003 13.78,4.55 2.469998,1.559999 3.640002,2.860004 6.11,6.5 l 13.78,-7.41 c -6.759993,-12.219988 -19.630014,-19.24 -33.67,-19.24 -22.879977,0 -36.92,17.420028 -36.92,44.98 0,27.169973 14.040023,45.24 36.92,45.24 14.039986,0 27.300006,-7.020012 33.67,-19.2399999"
         style=""
         id="path3900" />
      <path
         d="m 123.13156,9.0964141 0,-14.04 -12.87,0 0,-55.3800001 -15.209997,0 -53.82,55.3800001 0,14.04 53.82,0 0,17.6799999 15.209997,0 0,-17.6799999 12.87,0 m -28.079997,-14.04 -33.930001,0 33.930001,-34.8400001 0,34.8400001"
         style=""
         id="path3902" />
      <path
         d="m 208.23687,26.776414 0,-15.6 -51.35,0 c 2.99,-5.8499941 5.46001,-9.1000033 9.49,-12.4799999 5.2,-4.6799953 8.45002,-6.1100034 20.15,-9.4900001 6.11,-1.819998 10.01001,-4.030002 12.87001,-6.11 5.71999,-4.939995 8.83999,-11.700007 8.83999,-18.98 0,-15.859984 -13.13002,-26 -33.67,-26 -14.03998,0 -26.52001,4.680009 -36.65999,13.52 l 10.65999,11.83 c 7.41,-6.629993 15.60002,-9.49 26.91,-9.49 11.04999,0 17.16,3.770006 17.16,10.14 0,5.199995 -3.38,8.320003 -13.13,11.05 -15.98998,4.289996 -26.91,12.220013 -34.58,24.96000009 -4.93999,8.57999141 -7.01999,16.25000991 -7.01999,26.64999991 l 70.32999,0"
         style=""
         id="path3904" />
      <path
         d="m 290.75641,26.776414 0,-15.6 -51.35,0 c 2.98999,-5.8499941 5.46,-9.1000033 9.49,-12.4799999 5.19999,-4.6799953 8.45001,-6.1100034 20.15,-9.4900001 6.10999,-1.819998 10.01,-4.030002 12.87,-6.11 5.71999,-4.939995 8.84,-11.700007 8.84,-18.98 0,-15.859984 -13.13002,-26 -33.67,-26 -14.03999,0 -26.52001,4.680009 -36.66,13.52 l 10.66,11.83 c 7.40999,-6.629993 15.60001,-9.49 26.91,-9.49 11.04999,0 17.16,3.770006 17.16,10.14 0,5.199995 -3.38001,8.320003 -13.13,11.05 -15.98999,4.289996 -26.91001,12.220013 -34.58,24.96000009 -4.94,8.57999141 -7.02,16.25000991 -7.02,26.64999991 l 70.33,0"
         style=""
         id="path3906" />
    </g>
  </g>
</svg>
