<?xml version="1.0" encoding="UTF-8" standalone="no"?>
<!-- Created with Inkscape (http://www.inkscape.org/) -->
<svg xmlns:dc="http://purl.org/dc/elements/1.1/" xmlns:cc="http://creativecommons.org/ns#" xmlns:rdf="http://www.w3.org/1999/02/22-rdf-syntax-ns#" xmlns:svg="http://www.w3.org/2000/svg" xmlns="http://www.w3.org/2000/svg" version="1.1" width="376.00287" height="360.99713" id="svg8322">
  <defs id="defs8324">
    <clipPath id="clipPath5227">
      <path d="m 218,6600 0,-6600 4665,0 0,6600 -4665,0 z" id="path5229"/>
    </clipPath>
  </defs>
  <metadata id="metadata8327">
    <rdf:RDF>
      <cc:Work rdf:about="">
        <dc:format>image/svg+xml</dc:format>
        <dc:type rdf:resource="http://purl.org/dc/dcmitype/StillImage"/>
        <dc:title/>
      </cc:Work>
    </rdf:RDF>
  </metadata>
  <g transform="translate(-342.13109,-238.50609)" id="layer1">
    <path d="m 364.57275,263.37054 -5.48541,12.92806 -4.48807,12.92808 -3.9894,13.42531 -2.99204,13.4253 -2.49336,13.92255 -1.49603,13.4253 -0.99735,13.92255 0,13.92253 0.99735,13.92254 1.49603,13.42531 2.49336,13.92254 2.99204,13.4253 3.9894,13.42531 4.98674,12.92808 5.48542,12.92808 5.98408,12.43082 6.98143,11.93362 7.48012,11.9336 8.47745,10.93915 8.47747,10.4419 9.4748,10.4419 9.97348,9.44744 10.97083,8.95021 10.97084,8.45298 11.46949,7.95572 11.96819,6.96128 12.46684,5.9668 12.46686,5.46957 12.96552,4.97234 13.4642,3.97787 11.4695,3.48063 11.4695,-3.48063 13.4642,-3.97787 12.96552,-4.97234 12.96553,-5.46957 11.96817,-5.9668 11.96819,-6.96128 11.46949,-7.95572 11.46951,-8.45298 10.47216,-8.95021 9.97348,-9.44744 9.4748,-10.4419 8.97614,-10.4419 7.97878,-10.93915 7.97878,-11.9336 6.48277,-11.93362 6.48276,-12.43082 5.48541,-12.92808 4.48807,-12.92808 3.9894,-13.42531 3.49072,-13.4253 1.99468,-13.92254 1.99471,-13.42531 0.49867,-13.92254 0,-13.92253 -0.49867,-13.92255 -1.99471,-13.4253 -1.99468,-13.92255 -2.99205,-13.4253 -3.98939,-13.42531 -4.98675,-12.92808 -5.48541,-12.92806 -5.98408,-12.43084 -6.98145,-11.93361 -305.1885,0 -6.48277,11.93361 z" id="path5249" style="fill:#ffffff;fill-opacity:1;stroke:#000000;stroke-opacity:1"/>
    <path d="m 384.51971,250.9397 -6.48277,11.9336 -4.98673,11.93361 -4.98675,12.43084 -3.98939,12.43083 -3.49071,12.92808 -2.49337,12.92808 -1.9947,12.92807 -0.99735,13.4253 -0.49867,12.92808 0.49867,13.42531 0.99735,13.4253 1.9947,12.92808 2.99204,12.92807 3.49072,12.92806 3.9894,12.43085 4.98674,12.43084 5.48541,11.9336 6.48276,11.43638 6.98144,11.43637 7.48011,10.93913 8.47745,9.94468 8.47747,9.94467 9.4748,9.44744 9.97349,8.9502 10.47215,7.95575 10.97082,7.95573 10.97083,6.46404 11.96818,6.46403 11.96817,5.96681 12.46686,4.4751 11.96817,4.4751 12.96553,3.48064 12.96553,-3.48064 12.46685,-4.4751 12.46684,-4.4751 11.96818,-5.96681 11.46951,-6.46403 11.4695,-6.46404 10.47215,-7.95573 10.47215,-7.95575 9.97349,-8.9502 9.4748,-9.44744 8.97614,-9.94467 7.97878,-9.94468 7.97879,-10.93913 6.48276,-11.43637 6.48276,-11.43638 5.48541,-11.9336 4.98674,-12.43084 4.48808,-12.43085 3.49071,-12.92806 2.49337,-12.92807 1.9947,-12.92808 0.99735,-13.4253 0.99735,-13.42531 -0.49868,-12.92808 -1.49602,-13.4253 -1.49602,-12.92807 -2.99205,-12.92808 -2.99204,-12.92808 -3.98939,-12.43083 -4.98675,-12.43084 -5.4854,-11.93361 -6.48277,-11.9336 -291.22564,0" id="path5245" style="fill:#174f90;fill-opacity:1;stroke:none"/>
    <g id="text9065" style="font-size:267.85714722px;font-style:normal;font-variant:normal;font-weight:normal;font-stretch:normal;text-align:center;line-height:100%;letter-spacing:0px;word-spacing:0px;writing-mode:lr-tb;text-anchor:middle;fill:#ffffff;fill-opacity:1;stroke:none;font-family:Roadgeek 2005 Series C;-inkscape-font-specification:Roadgeek 2005 Series C">
      <path d="m 513.85185,427.39609 c -1.2e-4,8.57148 -1.16083,16.33932 -3.48214,23.30357 -2.32154,6.96431 -5.7144,13.03574 -10.17857,18.21429 -4.28582,5.00001 -9.55367,8.92857 -15.80358,11.78571 -6.25008,2.67857 -13.21436,4.01786 -20.89285,4.01786 -16.42863,0 -28.83933,-5.625 -37.23215,-16.875 -8.39287,-11.42855 -12.5893,-27.41067 -12.58928,-47.94643 -2e-5,-10.89278 1.33926,-21.78563 4.01785,-32.67857 2.85712,-11.07132 6.87498,-21.69631 12.05358,-31.875 5.3571,-10.35701 11.87495,-20.17843 19.55357,-29.46429 7.67851,-9.28555 16.4285,-17.6784 26.25,-25.17857 l 14.46428,20.35714 c -3.75009,2.8573 -7.58937,6.25016 -11.51785,10.17858 -3.75008,3.92871 -7.32151,8.12514 -10.71429,12.58928 -3.39292,4.28585 -6.42863,8.75013 -9.10714,13.39286 -2.67863,4.64298 -4.82149,9.10726 -6.42857,13.39286 2.1428,-0.35704 4.10708,-0.53561 5.89285,-0.53572 1.96423,1.1e-4 3.74994,1.1e-4 5.35715,0 7.67849,1.1e-4 14.64277,1.42868 20.89285,4.28572 6.24991,2.67867 11.51776,6.60724 15.80358,11.78571 4.46417,5.00009 7.85703,10.98223 10.17857,17.94643 2.32131,6.96436 3.48202,14.73221 3.48214,23.30357 m -25.17857,0 c -9e-5,-9.64279 -2.32152,-17.49993 -6.96429,-23.57143 -4.64293,-6.07134 -10.71436,-9.10705 -18.21428,-9.10714 -7.67863,9e-5 -13.83934,2.85723 -18.48215,8.57143 -4.46433,5.71436 -6.69647,12.85721 -6.69643,21.42857 -4e-5,10.17862 2.2321,18.57147 6.69643,25.17857 4.64281,6.4286 10.80352,9.64288 18.48215,9.64286 7.49992,2e-5 13.57135,-2.9464 18.21428,-8.83929 4.64277,-6.07139 6.9642,-13.83924 6.96429,-23.30357" id="path10671" style="font-family:Roadgeek 2005 Series C;-inkscape-font-specification:Roadgeek 2005 Series C"/>
      <path d="m 646.73411,427.39609 c -1.1e-4,8.57148 -1.16083,16.33932 -3.48214,23.30357 -2.32154,6.96431 -5.71439,13.03574 -10.17857,18.21429 -4.28581,5.00001 -9.55367,8.92857 -15.80357,11.78571 -6.25008,2.67857 -13.21436,4.01786 -20.89286,4.01786 -16.42862,0 -28.83932,-5.625 -37.23214,-16.875 -8.39288,-11.42855 -12.58931,-27.41067 -12.58929,-47.94643 -2e-5,-10.89278 1.33927,-21.78563 4.01786,-32.67857 2.85712,-11.07132 6.87497,-21.69631 12.05357,-31.875 5.3571,-10.35701 11.87495,-20.17843 19.55357,-29.46429 7.67851,-9.28555 16.4285,-17.6784 26.25,-25.17857 l 14.46429,20.35714 c -3.75009,2.8573 -7.58937,6.25016 -11.51786,10.17858 -3.75008,3.92871 -7.3215,8.12514 -10.71429,12.58928 -3.39292,4.28585 -6.42863,8.75013 -9.10714,13.39286 -2.67863,4.64298 -4.82148,9.10726 -6.42857,13.39286 2.1428,-0.35704 4.10708,-0.53561 5.89286,-0.53572 1.96422,1.1e-4 3.74993,1.1e-4 5.35714,0 7.6785,1.1e-4 14.64278,1.42868 20.89286,4.28572 6.2499,2.67867 11.51776,6.60724 15.80357,11.78571 4.46418,5.00009 7.85703,10.98223 10.17857,17.94643 2.32131,6.96436 3.48203,14.73221 3.48214,23.30357 m -25.17857,0 c -9e-5,-9.64279 -2.32152,-17.49993 -6.96428,-23.57143 -4.64294,-6.07134 -10.71436,-9.10705 -18.21429,-9.10714 -7.67863,9e-5 -13.83934,2.85723 -18.48214,8.57143 -4.46433,5.71436 -6.69647,12.85721 -6.69643,21.42857 -4e-5,10.17862 2.2321,18.57147 6.69643,25.17857 4.6428,6.4286 10.80351,9.64288 18.48214,9.64286 7.49993,2e-5 13.57135,-2.9464 18.21429,-8.83929 4.64276,-6.07139 6.96419,-13.83924 6.96428,-23.30357" id="path10673" style="font-family:Roadgeek 2005 Series C;-inkscape-font-specification:Roadgeek 2005 Series C"/>
    </g>
  </g>
</svg>