<?xml version="1.0" encoding="UTF-8" standalone="no"?>
<!-- Created with Inkscape (http://www.inkscape.org/) -->
<svg xmlns:dc="http://purl.org/dc/elements/1.1/" xmlns:cc="http://creativecommons.org/ns#" xmlns:rdf="http://www.w3.org/1999/02/22-rdf-syntax-ns#" xmlns:svg="http://www.w3.org/2000/svg" xmlns="http://www.w3.org/2000/svg" version="1.1" width="311" height="551.03125" id="svg13355">
  <defs id="defs13357">
    <clipPath id="clipPath4371">
      <path d="m 594,5584 0,-1114 1682,0 0,1114 -1682,0 z" id="path4373"/>
    </clipPath>
  </defs>
  <metadata id="metadata13360">
    <rdf:RDF>
      <cc:Work rdf:about="">
        <dc:format>image/svg+xml</dc:format>
        <dc:type rdf:resource="http://purl.org/dc/dcmitype/StillImage"/>
        <dc:title/>
      </cc:Work>
    </rdf:RDF>
  </metadata>
  <path d="m 40.452316,0.486394 -6.06859,0.50385 -5.56288,1.51048 -5.05716,2.01396 -5.05717,2.51745 -4.55143,3.52445 -4.04574,4.02792 -3.54001,4.53142 -2.52857,5.03492 -2.02287,5.0349 -1.01143,5.5384 -0.50572,6.04189 -2.5e-4,402.472746 0.50572,7.04888 1.01143,6.54538 1.51715,7.04887 2.52858,6.0419 3.54001,6.54538 4.04573,5.53841 4.04573,5.5384 5.05716,4.53142 5.56288,4.53141 6.06859,3.52444 6.06859,3.02094 114.797554,47.32815 115.30326,-47.32815 6.0686,-3.02094 6.06859,-3.52444 5.05716,-4.53141 5.05716,-4.53142 4.55145,-5.5384 4.04573,-5.53841 3.0343,-6.54538 2.52857,-6.0419 2.02287,-7.04887 1.01143,-6.54538 0.50572,-7.04888 2.5e-4,-402.472746 -0.50572,-6.04189 -1.51715,-5.5384 -1.51715,-5.0349 -3.03429,-5.03492 -3.0343,-4.53142 -4.04573,-4.02792 -4.55144,-3.52445 -5.05716,-2.51745 -5.56288,-2.01396 -5.56288,-1.51048 -5.56288,-0.50349 z" id="path4463" style="fill:#ffffff;fill-opacity:1;stroke:#000000;stroke-opacity:1"/>
  <path d="m 40.446226,12.559644 -4.53125,0.5 -4.0625,1.03125 -4.03125,1.5 -4.0625,2.53125 -3.03125,3 -3.03125,3.03125 -2.53125,3.53125 -1.53125,4.03125 -1,4.53125 0,4.53125 0,402.468746 0,6.03125 1,6.03125 2.03125,6.0625 2.53125,5.53125 3.03125,5.53125 3.5625,5.03125 4.53125,4.53125 5.0625,4.03125 5.0625,3.03125 5.5625,3.03125 110.250004,45.3125 110.25,-45.3125 5.5625,-3.03125 5.5625,-3.03125 4.53125,-4.03125 4.5625,-4.53125 3.53125,-5.03125 3.53125,-5.53125 2.53125,-5.53125 1.53125,-6.0625 1,-6.03125 0.5,-6.03125 0,-402.468746 -0.5,-4.53125 -0.5,-4.53125 -2.03125,-4.03125 -2,-3.53125 -3.03125,-3.03125 -3.5625,-3 -3.53125,-2.53125 -4.03125,-1.5 -4.5625,-1.03125 -4.0625,-0.5 z m -0.1875,10.875 230.468754,0 c 8.864,0 16,7.136 16,16 l 0,147.218746 c 0,8.864 -7.136,16.00001 -16,16 l -230.468754,-2.5e-4 c -8.864,-1e-5 -16,-7.13575 -16,-15.99975 l 0,-147.218746 c 0,-8.864 7.136,-16 16,-16 z m 0.1875,191.218746 230.093754,0 3.5625,0.5 3.03125,1 3.03125,2.03125 2.53125,2.5 2.03125,3.03125 1.5,3.53125 0.5,3.53125 0,212.46875 -1,6.03125 -1,5.53125 -2.03125,6.0625 -3.03125,5.03125 -4.0625,4.53125 -4.53125,4.53125 -4.5625,3.53125 -5.5625,2.5 -105.6875,43.8125 -105.718754,-43.8125 -5.5625,-2.5 -4.53125,-3.53125 -4.5625,-4.53125 -3.53125,-4.53125 -3.03125,-5.03125 -2.03125,-6.0625 -1.5,-5.53125 -0.53125,-6.03125 0,-212.46875 0.53125,-3.53125 1,-3.53125 2.03125,-3.03125 2.53125,-2.5 3.03125,-2.03125 3.53125,-1 z" id="path4451" style="fill:#000000;fill-opacity:1;stroke:none"/>
  <g id="text14575" style="font-size:267.85714722px;font-style:normal;font-variant:normal;font-weight:normal;font-stretch:normal;text-align:center;line-height:100%;letter-spacing:0px;word-spacing:0px;writing-mode:lr-tb;text-anchor:middle;fill:#000000;fill-opacity:1;stroke:none;font-family:Roadgeek 2005 Series C;-inkscape-font-specification:Roadgeek 2005 Series C">
    <path d="m 44.873285,442.02838 c 0.357132,-6.07142 0.714274,-11.33927 1.071428,-15.80357 0.535702,-4.46427 1.071416,-8.48212 1.607143,-12.05357 0.714272,-3.5714 1.517843,-6.96425 2.410715,-10.17857 1.071411,-3.39282 2.32141,-7.05353 3.75,-10.98215 7.321402,-18.74993 16.964249,-33.66063 28.928572,-44.73214 1.071379,-0.89276 2.142806,-1.78562 3.214285,-2.67857 1.249947,-1.07133 2.678517,-2.23205 4.285715,-3.48214 1.785656,-1.2499 3.839226,-2.76776 6.160714,-4.55358 2.499936,-1.7856 5.535643,-3.92846 9.107143,-6.42857 5.89278,-4.10703 9.82135,-7.58916 11.78571,-10.44643 2.14278,-2.85702 3.2142,-6.51773 3.21429,-10.98214 -9e-5,-3.39272 -0.71437,-6.607 -2.14286,-9.64286 -1.25008,-3.03557 -3.03579,-5.71413 -5.35714,-8.03571 -2.14293,-2.32128 -4.8215,-4.10699 -8.03571,-5.35714 -3.03579,-1.42842 -6.250069,-2.1427 -9.642861,-2.14286 -3.571487,1.6e-4 -6.875055,0.71444 -9.910715,2.14286 -3.035762,1.25015 -5.714331,3.03586 -8.035714,5.35714 -2.142898,2.32158 -3.928611,5.00014 -5.357143,8.03571 -1.250037,3.03586 -1.875036,6.25014 -1.875,9.64286 l -25.178572,0 c 0.17856,-6.96415 1.517845,-13.482 4.017857,-19.55357 2.678554,-6.24984 6.249979,-11.60698 10.714286,-16.07143 4.464256,-4.64268 9.732108,-8.21411 15.803572,-10.71429 6.071381,-2.67839 12.678517,-4.01767 19.821429,-4.01785 6.964221,1.8e-4 13.392781,1.33946 19.285711,4.01785 6.07135,2.67875 11.3392,6.33946 15.80357,10.98215 4.64276,4.46445 8.21419,9.7323 10.71429,15.80357 2.67846,6.07157 4.01775,12.58942 4.01786,19.55357 -1.1e-4,14.28583 -5.08939,26.07154 -15.26786,35.35714 -0.89295,0.71439 -1.87509,1.42867 -2.94643,2.14286 -0.89295,0.53581 -1.7858,1.25009 -2.67857,2.14286 l -6.16071,4.55357 -6.42858,4.28571 -6.96428,5.08929 c -2.85721,2.14293 -5.714352,4.73222 -8.57143,7.76786 -2.678631,2.85721 -5.357199,6.07149 -8.035714,9.64285 -2.500052,3.39292 -4.732192,7.05363 -6.696429,10.98215 -1.964331,3.75004 -3.571472,7.50004 -4.821429,11.25 -1.07147,2.32146 -1.87504,4.46432 -2.410714,6.42857 -0.357183,1.78574 -0.892896,4.28574 -1.607143,7.5 l 72.589289,0 0,25.17857 -100.178575,0" id="path3985"/>
    <path d="m 266.42463,393.54624 c -1.1e-4,7.32147 -1.25011,14.19646 -3.75,20.625 -2.5001,6.25002 -5.98224,11.69644 -10.44643,16.33928 -4.28581,4.64287 -9.55366,8.30358 -15.80357,10.98215 -6.0715,2.5 -12.67864,3.74999 -19.82143,3.75 -7.32148,-10e-6 -14.0179,-1.25 -20.08929,-3.75 -5.89289,-2.5 -11.07145,-5.98214 -15.53571,-10.44643 -4.28574,-4.46427 -7.76787,-9.73212 -10.44643,-15.80357 -2.50001,-6.24997 -3.92858,-13.03568 -4.28571,-20.35715 l 25.17857,0 c 0.71425,7.32147 3.30353,13.39289 7.76786,18.21429 4.64281,4.64288 10.44637,6.96431 17.41071,6.96429 7.32136,2e-5 13.3035,-2.49998 17.94643,-7.5 4.82134,-5.17854 7.23206,-11.51782 7.23214,-19.01786 -8e-5,-4.82138 -0.62508,-9.28566 -1.875,-13.39286 -1.25008,-4.28565 -2.94651,-7.94636 -5.08928,-10.98214 -2.14294,-3.21421 -4.64294,-5.71421 -7.5,-7.5 -2.67864,-1.78563 -5.62507,-2.67849 -8.83929,-2.67857 l -12.58929,0 0,-24.64286 10.71429,0 c 3.21422,1.1e-4 5.62493,-0.53561 7.23214,-1.60714 1.78565,-1.07132 3.74993,-2.85704 5.89286,-5.35715 5.17849,-5.71416 7.76778,-12.41059 7.76786,-20.08928 -8e-5,-6.96415 -1.96437,-12.49986 -5.89286,-16.60715 -3.75007,-4.10698 -8.75007,-6.16055 -15,-6.16071 -5.71434,1.6e-4 -10.26791,1.69658 -13.66071,5.08928 -3.21433,3.21444 -5.17862,7.85729 -5.89286,13.92858 l -25.17857,-3.21429 c 0.71427,-5.89271 2.32141,-11.33913 4.82143,-16.33929 2.49997,-5.1784 5.71425,-9.5534 9.64285,-13.125 3.92854,-3.57125 8.48211,-6.3391 13.66072,-8.30357 5.17852,-2.14267 10.71423,-3.2141 16.60714,-3.21428 6.4285,1.8e-4 12.41064,1.16089 17.94643,3.48214 5.53563,2.32161 10.26777,5.62517 14.19643,9.91071 4.10704,4.10731 7.32133,9.01802 9.64286,14.73215 2.32132,5.53586 3.48203,11.518 3.48214,17.94643 -1.1e-4,7.50013 -1.25011,14.4644 -3.75,20.89285 -2.32153,6.42868 -6.51795,13.12511 -12.58929,20.08929 6.96419,6.25009 12.14276,13.39294 15.53572,21.42857 3.57132,8.03578 5.35703,16.6072 5.35714,25.71429" id="path3987"/>
  </g>
  <g id="text3928" style="font-size:149.2537384px;font-style:normal;font-variant:normal;font-weight:normal;font-stretch:normal;text-align:start;line-height:100%;letter-spacing:0px;word-spacing:0px;writing-mode:lr-tb;text-anchor:start;fill:#000000;fill-opacity:1;stroke:none;font-family:Roadgeek 2005 Series C;-inkscape-font-specification:Roadgeek 2005 Series C">
    <path d="m 112.39599,161.03125 -7.01492,-27.31343 -21.492541,0 -6.567165,27.31343 -14.477612,0 24.925374,-100.000005 14.029854,0 24.92537,100.000005 -14.32836,0 m -17.910446,-70.149257 -7.014926,28.805967 14.328362,0 -7.313436,-28.805967" id="path3978" style="fill:#000000"/>
    <path d="m 140.56764,161.03125 0,-100.000005 14.32836,0 0,86.716425 36.56716,0 0,13.28358 -50.89552,0" id="path3980" style="fill:#000000"/>
    <path d="m 230.50002,74.314828 0,86.716422 -14.47762,0 0,-86.716422 -18.20895,0 0,-13.283583 50.89552,0 0,13.283583 -18.20895,0" id="path3982" style="fill:#000000"/>
  </g>
</svg>