<?xml version="1.0" encoding="utf-8"?>
<!-- Generator: Adobe Illustrator 21.1.0, SVG Export Plug-In . SVG Version: 6.00 Build 0)  -->
<svg version="1.1"
	 id="svg2" xmlns:cc="http://creativecommons.org/ns#" xmlns:dc="http://purl.org/dc/elements/1.1/" xmlns:rdf="http://www.w3.org/1999/02/22-rdf-syntax-ns#" xmlns:svg="http://www.w3.org/2000/svg"
	 xmlns="http://www.w3.org/2000/svg" xmlns:xlink="http://www.w3.org/1999/xlink" x="0px" y="0px" viewBox="0 0 501 501"
	 style="enable-background:new 0 0 501 501;" xml:space="preserve">
<style type="text/css">
	.st0{fill:#FFFFFF;stroke:#000000;stroke-width:0.8;}
	.st1{fill:#4F372D;}
</style>
<path id="path392" class="st0" d="M497.7,165.2l1.8-7l0.9-7.2l0.2-7.5l-0.4-7.2l-1.3-7.2l-2-7l-2.9-6.8l-3.5-6.6l-3.9-6.2l-4.8-5.5
	l-5.3-5.3l-5.9-4.7l-6.1-4l-6.8-3.4L313.4,14.1l-9.9-4l-10.3-3.4l-10.5-2.8L272.2,2l-10.7-1.1l-11-0.4l-10.7,0.4L229,2l-10.7,1.9
	l-10.5,2.8l-10.1,3.4l-10.1,4L43.5,79.3l-6.6,3.4l-6.4,4l-5.7,4.7l-5.5,5.3l-4.6,5.5l-4.2,6.2l-3.5,6.6l-2.6,6.8l-2.2,7l-1.1,7.2
	l-0.7,7.2l0.2,7.5l1.1,7.2l1.8,7l84.9,283.1l2.6,7.2l3.3,7l4.2,6.6l5,6.2l5.5,5.5l6.1,5.1l6.6,4.3l7.2,3.6l7.2,2.8l7.9,2.1l7.9,1.3
	l7.9,0.4h181.4l7.9-0.4l7.9-1.3l7.7-2.1l7.5-2.8l7-3.6l6.6-4.3l6.1-5.1l5.7-5.5l4.8-6.2l4.2-6.6l3.5-7l2.6-7.2L497.7,165.2z"/>
<path id="path82" class="st1" d="M244.8,23.9l-9.8,0.9l-9.8,1.5l-9.9,2.3l-9.4,3l-9.2,3.6L53,100.4l-5.9,3l-5.3,3.8l-5,4.5l-4.2,5.1
	l-3.5,5.5l-2.6,6l-2,6.1l-1.1,6.4l-0.4,6.4l0.6,6.6l1.6,6.1l84.6,282.4l2.2,6.1l3.1,5.8l3.9,5.3l4.4,4.7l5,4.2l5.5,3.6l6.1,2.8
	l6.4,2.1l6.6,1.1l6.6,0.4h180.9l6.6-0.4l6.5-1.1l6.4-2.1l5.9-2.8l5.5-3.6l5.3-4.2l4.4-4.7l3.7-5.3l3.1-5.8l2.4-6.1l84.7-282.4
	l1.3-6.1l0.6-6.6l-0.2-6.4l-1.1-6.4l-2-6.1l-2.8-6l-3.5-5.5l-4.2-5.1l-4.8-4.5l-5.5-3.8l-5.7-3L303.2,35.2l-9.2-3.6l-9.6-3l-9.6-2.3
	l-9.8-1.5l-10.1-0.9H244.8L244.8,23.9z M240.5,47h22.1v5.1h-8.3l0.2,30.2h-5.7V52.1h-8.3V47z M220.8,50.7l2,0.2l1.3,0.4l1.1,0.4
	l1.3,0.6l1.1,0.7l0.9,0.9l0.4,0.4l-4.2,3.8l-0.6-0.7l-1.3-0.8l-1.5-0.4l-1.3,0.2l-1.5,0.2l-1.1,0.8l-1.1,0.9l-0.6,1.3l-0.2,1.5v1.3
	L216,64l0.9,1.1l1.3,0.4h1.6l5-1.3l1.1-0.2l1.7-0.2h1.8l2,0.4l1.5,0.7l1.7,1.1l1.3,1.3l1.1,1.3l0.9,1.7l0.6,1.7l0.5,1.7v1.7
	l-0.2,1.9l-0.6,1.7l-0.9,1.5l-1.1,1.5l-1.3,1.1l-1.5,1l-1.6,0.9l-2,0.4l-2,0.4h-1.6l-1.7-0.2l-1.5-0.2l-1.5-0.6l-1.5-0.7l-1.5-0.8
	l-1.3-0.9l-0.5-0.6l3.9-3.8l1.5,1l1.8,0.9l2,0.4h1.7l2-0.4l1.5-0.9l1.1-1l0.6-1.3l0.5-1.5v-1.5l-0.5-1.2l-0.9-1.3l-1.1-0.9l-1.5-0.7
	l-1.3-0.2l-1.8,0.2l-5,1.3l-1.5,0.2l-1.6,0.2l-1.5-0.4l-1.5-0.4l-1.5-0.9l-1.1-0.8l-1.1-1.3l-0.9-1.3l-0.4-1.7l-0.5-1.7v-1.7
	l0.2-1.7l0.5-1.5l0.6-1.5l0.9-1.5l1.3-1.3l1.3-1l1.5-0.9l1.7-0.6l1.5-0.2L220.8,50.7L220.8,50.7z M304.1,60.9l9.2,4.2l0.9,0.4
	l1.3,0.9l1.1,0.9l0.9,0.8l1.1,1.1l0.6,1.3l0.7,1.1l0.4,1.3l0.4,1.5l0.2,1.3v2.8l-0.2,1.3l-0.2,1.9l-0.4,1.3l-0.2,1.3l-0.5,1.1
	l-0.6,1.3l-0.4,1.3l-0.7,1.1l-0.6,1.1l-0.9,1.3l-0.9,1l-0.9,0.9l-0.9,1.1l-0.9,0.8l-1.3,1.1l-1.1,0.7l-1.3,0.6l-1.3,0.7l-1.3,0.2
	l-1.3,0.2l-1.5,0.2l-1.3-0.2l-1.5-0.2l-1.3-0.4l-1.3-0.4l-9.2-4.2L304.1,60.9L304.1,60.9z M196,61.3l15.3,32.1l-5,2.3l-15.5-32.1
	L196,61.3z M306.9,68.3l-10.7,21.9l4.2,1.9l1.5,0.7l1.5,0.2l1.7-0.2l1.3-0.7l1.5-0.6l1.1-1.1l1.1-1.1l1.1-1.3l0.9-1.3l0.7-1.3
	l0.6-1.3l0.7-1.5l0.4-1.5l0.4-1.5l0.2-1.5v-1.5l-0.2-1.5l-0.4-1.5l-0.9-1.5l-1.1-1.1l-1.1-0.9l-0.7-0.2L306.9,68.3L306.9,68.3z
	 M174.8,71.3h3.1l1.5,0.2l1.7,0.6l1.3,0.9l1.3,1.1l1.1,1.3l0.9,1.3l0.6,1.7l0.5,1.5v1.7l-0.2,1.7l-0.2,1.3l-0.9,1.5l-0.7,1.1
	l-0.2,0.2l12.9,12.5l-5.5,2.3l-12-11.5l-6.4,2.8l6.8,14l-5,2.3L160,77.7l12.5-5.5l0.7-0.2L174.8,71.3L174.8,71.3z M335,74.9
	l12.3,5.8l0.9,0.2l1.3,1.1l1.1,0.8l1.1,1.3l0.6,1.5l0.7,1.5l0.2,1.7v1.7l-0.2,1.5l-0.4,1.7l-0.9,1.5l-1.1,1.3l-1.3,1l-1.3,0.9
	l-1.3,0.6l-1.5,0.4l-1.3,0.2h-0.4l-1.5,17.4l-5.5-2.6l1.3-16.4l-6.1-2.8l-6.8,14l-5-2.3L335,74.9L335,74.9z M176.6,76.8l-1.3,0.2
	l-0.4,0.2l-7.2,3.2l3.7,8.1l7.2-3.4l1.1-0.6l0.9-1.1l0.6-1.5v-1.5l-0.4-1.1l-1.1-1.5l-1.3-0.9L176.6,76.8L176.6,76.8z M337.6,82.3
	l-3.7,8.1l7.2,3.2l1.3,0.4h1.3l1.5-0.7l1.1-0.8l0.7-1.1l0.4-1.7l-0.2-1.7l-0.9-1.5l-1.1-0.8l-0.4-0.2L337.6,82.3L337.6,82.3z
	 M148.6,83l10.5,21.7l0.2,0.4l0.5,1.3l0.2,1.5l0.2,1.3v1.5l-0.2,1.3l-0.4,1.5l-0.5,1.3l-0.6,1.3l-0.9,1.1l-0.9,1.1l-1.1,0.9
	l-1.1,0.8l-1.3,0.7l-1.3,0.4l-1.3,0.4l-1.5,0.2h-2.8l-1.3-0.4l-1.5-0.4l-1.3-0.7l-1.1-0.6l-1.1-0.9l-1.1-1.1l-0.9-1l-0.7-1.3
	l-0.2-0.4l-10.5-21.7l5-2.3l10.5,21.7l0.6,1l1.5,1.3l1.6,0.9l2,0.4l1.7-0.2l1.8-0.6l1.5-1.1l1.1-1.7l0.7-1.7v-1.9l-0.7-1.7
	l-10.5-21.9L148.6,83L148.6,83z M365.8,88.9l5.3,2.3l-15.3,32.1l-5.3-2.3L365.8,88.9z M379.6,95.1l5.5,2.6l-3.5,24.8l17.3-18.5
	l5.5,2.3l-25.6,27.4l-4.2-1.9L379.6,95.1L379.6,95.1z M110.1,100.4h1.5l1.3,0.2l1.3,0.4l1.5,0.4l1.1,0.7l1.1,0.9l1.1,0.8l1.3,1.5
	l1.7,1.9l1.3,2.1l0.7,1.3l0.6,1.1l1.1,2.3l1.1,2.3l0.6,2.6l0.7,2.3l0.2,2.1v2.8l-0.4,1.3l-0.5,1.3l-0.4,1.3l-0.9,1.1l-0.9,1
	l-1.3,1.1l-1.5,1.1L121,135l-1.8,0.4l-1.7,0.2h-1.3l-1.5-0.2l-1.3-0.2l-1.3-0.7l-1.3-0.6l-1.1-0.7l-1.1-1l-0.4-0.4l-0.9-1.1
	l-0.9-0.8l-0.7-1.1l-1.5-2.1l-1.3-2.3l-1.1-2.3l-0.9-2.3l-0.9-2.6l-0.2-1.3l-0.2-1.3l-0.4-1.9v-1.3l0.2-1.5l0.2-1.3l0.4-1.3l0.7-1.3
	l0.6-1.1l1.1-1.1l1.1-1l1.5-1.1l1.7-0.7l1.7-0.6L110.1,100.4L110.1,100.4z M109.6,106.1l-1.3,0.4l-1.1,0.9l-1.1,0.9l-0.7,1.2
	l-0.4,1.3l-0.2,1.3l0.4,1.7l0.4,2.1l0.7,2.1l0.6,1.9l1.1,1.9l0.9,1.9l1.3,1.9l1.3,1.7l0.6,0.9l0.4,0.2l1.1,0.8l1.3,0.7l1.5,0.2
	l1.3-0.2l1.5-0.4l1.1-0.7l1.1-1.1l0.6-1.1l0.5-1.5V124l-0.2-1.7l-0.5-2.1l-0.6-1.9l-0.9-2.1l-0.9-1.9l-1.1-1.9l-1.3-1.7l-1.3-1.9
	l-1.1-1.1l-1.1-0.9l-1.3-0.4l-1.3-0.2L109.6,106.1L109.6,106.1z M89.1,109.7l2.2,4.7l-7.5,3.4L97,145.2l-5.3,2.3l-13.1-27.4
	l-7.5,3.4l-2.2-4.7L89.1,109.7L89.1,109.7z M412.8,110.4l19,8.5l-2.4,5.1l-13.8-6.4l-3.9,8.1l9.6,4.2l-2.4,4.9l-9.6-4.2l-4.2,9.1
	l14.9,6.6l-2.4,5.1l-20.1-9.1L412.8,110.4L412.8,110.4z"/>
</svg>
