<?xml version="1.0" encoding="UTF-8" standalone="no"?>
<!-- Created with Inkscape (http://www.inkscape.org/) -->
<svg xmlns:dc="http://purl.org/dc/elements/1.1/" xmlns:cc="http://creativecommons.org/ns#" xmlns:rdf="http://www.w3.org/1999/02/22-rdf-syntax-ns#" xmlns:svg="http://www.w3.org/2000/svg" xmlns="http://www.w3.org/2000/svg" version="1.1" width="460.00378" height="359.99603" id="svg13355">
  <defs id="defs13357">
    <clipPath id="clipPath4371">
      <path d="m 594,5584 0,-1114 1682,0 0,1114 -1682,0 z" id="path4373"/>
    </clipPath>
  </defs>
  <metadata id="metadata13360">
    <rdf:RDF>
      <cc:Work rdf:about="">
        <dc:format>image/svg+xml</dc:format>
        <dc:type rdf:resource="http://purl.org/dc/dcmitype/StillImage"/>
        <dc:title/>
      </cc:Work>
    </rdf:RDF>
  </metadata>
  <path d="m 39.95157,0 -6.06859,0.50349 -5.56288,1.510469 -5.05716,2.01396 -5.05717,2.51745 -4.55143,3.52445 -4.04574,4.02792 -3.54001,4.53142 -2.52857,5.03492 -2.02287,5.0349 -1.01143,5.5384 L 0,40.279269 0,252.75246 l 0.50572,7.04888 1.01143,6.54538 1.51715,7.04887 2.52858,6.0419 3.54001,6.54538 4.04573,5.53841 4.04573,5.5384 5.05716,4.53142 5.56288,4.53141 6.06859,3.52444 6.06859,3.02094 189.79743,47.32815 190.30319,-47.32815 6.0686,-3.02094 6.06859,-3.52444 5.05716,-4.53141 5.05716,-4.53142 4.55145,-5.5384 4.04573,-5.53841 3.0343,-6.54538 2.52857,-6.0419 2.02287,-7.04887 1.01143,-6.54538 0.50572,-7.04888 0,-212.473191 -0.50572,-6.04189 -1.51715,-5.5384 -1.51715,-5.0349 -3.03429,-5.03492 -3.0343,-4.53142 -4.04573,-4.02792 -4.55144,-3.52445 -5.05716,-2.51745 -5.56288,-2.01396 L 425.61507,0.50349 420.05219,0 z" id="path4463" style="fill:#ffa709;fill-opacity:1;stroke:none"/>
  <path d="m 420.05282,24.167559 -380.10125,0 -3.54001,0.50349 -3.54002,1.00698 -3.0343,2.01397 -2.52857,2.51745 -2.02286,3.02095 -1.01144,3.52443 -0.50571,3.52444 0,212.473191 0.50571,6.0419 1.51715,5.53839 2.02287,6.0419 3.03429,5.03491 3.54001,4.53142 4.55145,4.53141 4.55144,3.52444 5.56288,2.51746 180.69454,43.80372 180.69523,-43.80372 5.56288,-2.51746 4.55144,-3.52444 4.55145,-4.53141 4.04573,-4.53142 3.03429,-5.03491 2.02285,-6.0419 1.01144,-5.53839 1.01143,-6.0419 0,-212.473191 -0.50572,-3.52444 -1.51715,-3.52443 -2.02285,-3.02095 -2.52857,-2.51745 -3.0343,-2.01397 -3.0343,-1.00698 -3.54002,-0.50349" id="path4413" style="fill:#21432d;fill-opacity:1;stroke:none"/>
  <g id="text14575" style="font-size:268.65133667px;font-style:normal;font-variant:normal;font-weight:normal;font-stretch:normal;text-align:center;line-height:100%;letter-spacing:0px;word-spacing:0px;writing-mode:lr-tb;text-anchor:middle;fill:#ffa709;fill-opacity:1;stroke:none;font-family:Roadgeek 2005 Series C;-inkscape-font-specification:Roadgeek 2005 Series C">
    <path d="m 133.03345,283.99603 0,-101.0129 -33.312765,101.0129 -33.581417,-101.0129 0,101.0129 -25.790528,0 0,-179.99639 25.790528,0 33.581417,101.0129 33.312765,-101.0129 26.05918,0 0,179.99639 -26.05918,0" id="path4694" style="font-family:Roadgeek 2005 Series C;-inkscape-font-specification:Roadgeek 2005 Series C"/>
    <path d="m 289.89645,231.07172 c -1.1e-4,8.59689 -1.52247,16.83552 -4.56707,24.71592 -3.04482,7.70136 -7.25369,14.14899 -12.62661,19.3429 -7.88053,8.05954 -18.80567,12.08931 -32.77547,12.08931 -8.95509,0 -16.65642,-1.61191 -23.10401,-4.83573 -6.26856,-3.22381 -11.64159,-7.96998 -16.11908,-14.23852 -3.58204,-5.0148 -6.3581,-10.74602 -8.32819,-17.19368 -1.97012,-6.44759 -2.95518,-13.07432 -2.95517,-19.8802 -1e-5,-8.95498 1.34325,-17.19362 4.02977,-24.71592 2.8656,-7.70126 7.16402,-14.41753 12.89527,-20.14885 -9.67147,-10.56685 -14.50719,-23.01435 -14.50718,-37.34254 -1e-5,-6.98479 1.16415,-13.43242 3.49247,-19.3429 2.32829,-5.91016 5.55211,-10.92498 9.67145,-15.04447 4.29839,-4.29825 9.40276,-7.61161 15.31313,-9.9401 5.91028,-2.50723 12.44745,-3.76094 19.61154,-3.76112 6.98487,1.8e-4 13.34295,1.25389 19.07425,3.76112 5.73114,2.32849 10.65641,5.64185 14.77582,9.9401 4.29832,4.11949 7.61169,9.13431 9.9401,15.04447 2.32821,5.91048 3.49236,12.35811 3.49247,19.3429 -1.1e-4,7.34326 -1.25381,14.23864 -3.76112,20.68615 -2.32841,6.26864 -5.91043,11.82076 -10.74605,16.65639 5.73113,5.37312 10.02954,11.99984 12.89526,19.8802 2.86551,7.7014 4.29831,16.02959 4.29842,24.98457 m -27.93974,-82.20731 c -8e-5,-6.62659 -2.14929,-12.08916 -6.44763,-16.38773 -4.11939,-4.29827 -9.31331,-6.44748 -15.58178,-6.44763 -6.62678,1.5e-4 -12.08936,2.14936 -16.38773,6.44763 -4.29846,4.29857 -6.44767,9.76114 -6.44763,16.38773 -4e-5,7.34326 2.14917,13.16404 6.44763,17.46234 4.29837,4.29853 9.76095,6.44774 16.38773,6.44763 6.26847,1.1e-4 11.46239,-2.1491 15.58178,-6.44763 4.29834,-4.2983 6.44755,-10.11908 6.44763,-17.46234 m 3.22382,82.20731 c -9e-5,-9.85049 -2.3284,-17.64137 -6.98494,-23.37267 -4.65669,-5.91024 -10.74612,-8.86541 -18.26829,-8.86549 -7.52229,8e-5 -13.61171,2.95525 -18.26829,8.86549 -4.65666,5.7313 -6.98497,13.52218 -6.98493,23.37267 -4e-5,9.13419 2.32827,16.56687 6.98493,22.29806 4.65658,5.73125 10.746,8.59687 18.26829,8.59684 7.52217,3e-5 13.6116,-2.86559 18.26829,-8.59684 4.65654,-5.73119 6.98485,-13.16387 6.98494,-22.29806" id="path4696" style="font-family:Roadgeek 2005 Series C;-inkscape-font-specification:Roadgeek 2005 Series C"/>
    <path d="m 422.37513,193.72918 c -1.3e-4,13.79085 -0.80608,25.52195 -2.41787,35.19333 -1.43292,9.67149 -4.02988,18.80563 -7.79088,27.40244 -4.47763,10.74607 -10.11931,18.6265 -16.92504,23.64131 -6.62682,4.83573 -15.04455,7.25359 -25.25322,7.25359 -10.74612,0 -19.52205,-2.41786 -26.32784,-7.25359 -6.62677,-5.01481 -12.17889,-12.89524 -16.65638,-23.64131 -3.76114,-8.77591 -6.44765,-17.91005 -8.05954,-27.40244 -1.43282,-9.67138 -2.14923,-21.40248 -2.14921,-35.19333 -2e-5,-13.61156 0.71639,-25.25311 2.14921,-34.92467 1.61189,-9.85041 4.2984,-19.0741 8.05954,-27.67109 4.65659,-10.74589 10.29827,-18.44722 16.92504,-23.10401 6.80578,-4.83555 15.49216,-7.25341 26.05918,-7.25359 10.38777,1.8e-4 18.89505,2.41804 25.52187,7.25359 6.62663,4.65679 12.17876,12.53722 16.65639,23.64131 1.79089,4.47767 3.31325,8.95519 4.56707,13.43257 1.43269,4.47766 2.50729,9.22383 3.22381,14.23852 0.89539,4.83585 1.52224,10.11932 1.88056,15.85043 0.35808,5.55223 0.53718,11.73121 0.53731,18.53694 m -24.71593,0 c -9e-5,-5.01473 -0.17919,-9.58179 -0.5373,-13.70121 -0.1792,-4.11922 -0.5374,-7.88033 -1.07461,-11.28336 -0.35829,-3.5819 -0.89559,-6.98481 -1.6119,-10.20875 -0.7165,-3.22369 -1.52245,-6.4475 -2.41787,-9.67145 -2.3284,-8.0594 -5.28356,-13.88017 -8.86549,-17.46234 -3.403,-3.58186 -7.79096,-5.37287 -13.16391,-5.37302 -11.10432,1.5e-4 -18.7161,7.43283 -22.83537,22.29806 -2.14925,6.80596 -3.67161,13.70134 -4.56707,20.68615 -0.71645,6.80594 -1.07465,15.22368 -1.07461,25.25323 -4e-5,4.83581 0.0895,9.31332 0.26865,13.43256 0.35817,3.9403 0.71637,7.70141 1.07461,11.28336 0.53726,3.40298 1.16411,6.80589 1.88056,10.20875 0.71636,3.40297 1.52231,6.89543 2.41786,10.4774 4.11927,14.86541 11.73105,22.29809 22.83537,22.29806 5.37295,3e-5 9.76091,-1.79098 13.16391,-5.37302 3.58193,-3.58199 6.53709,-9.22366 8.86549,-16.92504 1.07452,-3.58197 1.97002,-6.98488 2.68652,-10.20875 0.71631,-3.40286 1.25361,-6.89532 1.61191,-10.4774 0.5372,-3.58195 0.8954,-7.34306 1.0746,-11.28336 0.17901,-4.11924 0.26856,-8.77586 0.26865,-13.96987" id="path4698" style="font-family:Roadgeek 2005 Series C;-inkscape-font-specification:Roadgeek 2005 Series C"/>
  </g>
  <g transform="translate(-25,0)" id="text3050" style="font-size:62.68531036px;font-style:normal;font-variant:normal;font-weight:normal;font-stretch:normal;text-align:center;line-height:125%;letter-spacing:0px;word-spacing:0px;writing-mode:lr-tb;text-anchor:middle;fill:#ffa709;fill-opacity:1;stroke:none;font-family:Roadgeek 2005 Series D;-inkscape-font-specification:Roadgeek 2005 Series D">
    <path d="m 146.2017,86.996033 -16.04627,-28.459759 0,28.459759 -6.64578,0 0,-42 6.64578,0 15.29446,26.829879 0,-26.829879 6.64578,0 0,42 z" id="path3823"/>
    <path d="m 186.83773,86.996033 -4.13783,-11.784104 -13.10025,0 -4.13782,11.784104 -7.08386,0 14.48144,-42 6.58074,0 14.48144,42 z m -10.59421,-30.340241 -4.3253,11.786016 8.4,0 z" id="path3825"/>
    <path d="m 212.81249,50.889998 0,36.106035 -6.64386,0 0,-36.106035 -9.5918,0 0,-5.893965 25.95181,0 0,5.893965 z" id="path3827"/>
    <path d="m 228.67895,86.996033 0,-42 6.77012,0 0,42 z" id="path3829"/>
    <path d="m 274.35001,66.058206 c -4e-5,3.343948 -0.39698,6.541212 -1.19085,9.591801 -0.79392,3.050612 -1.92228,5.516471 -3.38506,7.397586 -2.34027,3.133501 -5.725,4.700249 -10.15422,4.70025 -2.96772,-10e-7 -5.41254,-0.605784 -7.33446,-1.817353 -1.92194,-1.211567 -3.50973,-3.113091 -4.76338,-5.704578 -0.87743,-1.79694 -1.5878,-3.980313 -2.13108,-6.550125 -0.5433,-2.569786 -0.81495,-5.108977 -0.81494,-7.617581 -1e-5,-3.467614 0.40746,-6.684965 1.22241,-9.652061 0.81493,-2.967036 1.93276,-5.45362 3.35349,-7.459759 1.25365,-1.587754 2.7477,-2.768395 4.48217,-3.541927 1.73444,-0.773448 3.81324,-1.160194 6.23639,-1.160236 2.67436,4.2e-5 4.95179,0.606145 6.8323,1.81831 1.88045,1.212246 3.4896,3.113451 4.82746,5.703621 0.8774,1.881154 1.56672,4.075367 2.06796,6.582646 0.50117,2.507336 0.75177,5.077136 0.75181,7.709406 z m -6.64386,0 c -3e-5,-2.381029 -0.20887,-4.585126 -0.62651,-6.612298 -0.4177,-2.027117 -1.04485,-3.751051 -1.88144,-5.171806 -0.6683,-1.086553 -1.43063,-1.880448 -2.287,-2.38169 -0.85641,-0.501171 -1.91143,-0.793861 -3.16506,-0.878069 -1.6299,-0.08286 -2.98813,0.293363 -4.0747,1.128672 -1.0866,0.835379 -1.98507,2.193611 -2.69542,4.074699 -0.54331,1.253684 -0.95078,2.768463 -1.22241,4.54434 -0.27166,1.77593 -0.40748,3.541312 -0.40747,5.296152 -1e-5,2.257363 0.20882,4.430852 0.62651,6.520473 0.41766,2.08965 1.04416,3.802744 1.87952,5.139285 0.66954,1.086594 1.46375,1.901533 2.38265,2.444819 0.91886,0.543299 2.04721,0.814946 3.38506,0.81494 1.54569,6e-6 2.83058,-0.417666 3.8547,-1.253018 1.02407,-0.835337 1.8913,-2.193568 2.60169,-4.074698 0.20913,-0.543281 0.41828,-1.201354 0.62746,-1.97422 0.20913,-0.77284 0.38672,-1.587778 0.53277,-2.444819 0.146,-0.857009 0.26078,-1.724237 0.34434,-2.601685 0.0835,-0.877412 0.12528,-1.734437 0.12531,-2.571077 z" id="path3831"/>
    <path d="m 306.34308,86.996033 -16.04628,-28.459759 0,28.459759 -6.64578,0 0,-42 6.64578,0 15.29447,26.829879 0,-26.829879 6.64577,0 0,42 z" id="path3833"/>
    <path d="m 346.97911,86.996033 -4.13783,-11.784104 -13.10025,0 -4.13783,11.784104 -7.08385,0 14.48144,-42 6.58073,0 14.48144,42 z m -10.59422,-30.340241 -4.3253,11.786016 8.4,0 z" id="path3835"/>
    <path d="m 360.41605,86.996033 0,-42 6.64578,0 0,35.794215 19.43229,0 0,6.205785 z" id="path3837"/>
  </g>
</svg>