<?xml version="1.0" encoding="utf-8"?>
<!-- Generator: Adobe Illustrator 21.1.0, SVG Export Plug-In . SVG Version: 6.00 Build 0)  -->
<svg version="1.1"
	 id="svg13355" xmlns:cc="http://creativecommons.org/ns#" xmlns:dc="http://purl.org/dc/elements/1.1/" xmlns:rdf="http://www.w3.org/1999/02/22-rdf-syntax-ns#" xmlns:svg="http://www.w3.org/2000/svg"
	 xmlns="http://www.w3.org/2000/svg" xmlns:xlink="http://www.w3.org/1999/xlink" x="0px" y="0px" viewBox="0 0 311 361"
	 style="enable-background:new 0 0 311 361;" xml:space="preserve">
<style type="text/css">
	.st0{fill:#FFFFFF;stroke:#000000;}
</style>
<g id="g15109">
	<path id="path4463" class="st0" d="M40.4,0.5L34.4,1l-5.6,1.5l-5.1,2L18.7,7l-4.6,3.5l-4,4l-3.5,4.5l-2.5,5l-2,5l-1,5.5l-0.5,6
		v212.5l0.5,7l1,6.5l1.5,7l2.5,6l3.5,6.5l4,5.5l4,5.5l5.1,4.5l5.6,4.5l6.1,3.5l6.1,3l114.8,47.3l115.3-47.3l6.1-3l6.1-3.5l5.1-4.5
		l5.1-4.5l4.6-5.5l4-5.5l3-6.5l2.5-6l2-7l1-6.5l0.5-7V40.8l-0.5-6l-1.5-5.5l-1.5-5l-3-5l-3-4.5l-4-4L292.3,7l-5.1-2.5l-5.6-2
		L276.1,1l-5.6-0.5L40.4,0.5z"/>
	<path id="path4451" d="M40.4,12.6l-4.5,0.5l-4.1,1l-4,1.5l-4.1,2.5l-3,3l-3,3l-2.5,3.5l-1.5,4l-1,4.5v4.5v212.5v6l1,6l2,6.1
		l2.5,5.5l3,5.5l3.6,5l4.5,4.5l5.1,4l5.1,3l5.6,3l110.2,45.3l110.2-45.3l5.6-3l5.6-3l4.5-4l4.6-4.5l3.5-5l3.5-5.5l2.5-5.5l1.5-6.1
		l1-6l0.5-6V40.8l-0.5-4.5l-0.5-4.5l-2-4l-2-3.5l-3-3l-3.6-3l-3.5-2.5l-4-1.5l-4.6-1l-4.1-0.5H40.4z M40.4,24.7h230.1l3.6,0.5l3,1
		l3,2l2.5,2.5l2,3l1.5,3.5l0.5,3.5v212.5l-1,6l-1,5.5l-2,6.1l-3,5l-4.1,4.5l-4.5,4.5l-4.6,3.5l-5.6,2.5l-105.7,43.8L49.5,291
		l-5.6-2.5l-4.5-3.5l-4.6-4.5l-3.5-4.5l-3-5l-2-6.1l-1.5-5.5l-0.5-6V40.8l0.5-3.5l1-3.5l2-3l2.5-2.5l3-2l3.5-1L40.4,24.7z"/>
</g>
</svg>
