<?xml version="1.0" encoding="UTF-8" standalone="no"?>
<!-- Created with Inkscape (http://www.inkscape.org/) -->

<svg
   xmlns:dc="http://purl.org/dc/elements/1.1/"
   xmlns:cc="http://creativecommons.org/ns#"
   xmlns:rdf="http://www.w3.org/1999/02/22-rdf-syntax-ns#"
   xmlns:svg="http://www.w3.org/2000/svg"
   xmlns="http://www.w3.org/2000/svg"
   version="1.1"
   width="376"
   height="514.19135"
   id="svg8322">
  <defs
     id="defs8324">
    <clipPath
       id="clipPath5227">
      <path
         d="m 218,6600 0,-6600 4665,0 0,6600 -4665,0 z"
         id="path5229" />
    </clipPath>
    <clipPath
       id="clipPath5227-5">
      <path
         d="m 218,6600 0,-6600 4665,0 0,6600 -4665,0 z"
         id="path5229-8" />
    </clipPath>
  </defs>
  <metadata
     id="metadata8327">
    <rdf:RDF>
      <cc:Work
         rdf:about="">
        <dc:format>image/svg+xml</dc:format>
        <dc:type
           rdf:resource="http://purl.org/dc/dcmitype/StillImage" />
        <dc:title></dc:title>
      </cc:Work>
    </rdf:RDF>
  </metadata>
  <g
     id="g3869">
    <g
       transform="matrix(0.5079832,0,0,0.5079832,36.209039,-145.46547)"
       id="g2000">
      <g
         transform="translate(18.60837,25.64935)"
         id="g1981">
        <g
           transform="translate(-1.508784,-1.005909)"
           id="g1980">
          <g
             transform="translate(6.038078,9.055714)"
             id="g1945">
            <g
               transform="translate(-9.052727,-1.005922)"
               id="g2029">
              <g
                 transform="translate(-17.60251,-18.10539)"
                 id="g2086">
                <g
                   transform="translate(-4.023426,-24.64352)"
                   id="g2133">
                  <g
                     transform="translate(-0.502925,-7.543936)"
                     id="g2190" />
                </g>
              </g>
            </g>
          </g>
        </g>
      </g>
    </g>
    <path
       d="m 54.110162,0.5039916 266.691338,0 c 10.55331,0 19.04929,8.4959479 19.04929,19.0492114 l 0,114.296537 c 0,10.55326 -8.49598,19.04921 -19.04929,19.04921 l -266.691338,0 c -10.553307,0 -19.04929,-8.49595 -19.04929,-19.04921 l 0,-114.296537 c 0,-10.5532635 8.495983,-19.0492114 19.04929,-19.0492114 z"
       id="rect1872"
       style="color:#000000;fill:#ffffff;fill-opacity:1;fill-rule:nonzero;stroke:#000000;stroke-width:1;stroke-linecap:butt;stroke-linejoin:miter;stroke-miterlimit:4;stroke-opacity:1;stroke-dasharray:none;stroke-dashoffset:0;marker:none;visibility:visible;display:inline;overflow:visible" />
    <path
       d="m 54.110242,6.8537816 266.691178,0 c 7.03557,0 12.69958,5.6640124 12.69958,12.6995804 l 0,114.296218 c 0,7.03557 -5.66401,12.69958 -12.69958,12.69958 l -266.691178,0 c -7.035568,0 -12.69958,-5.66401 -12.69958,-12.69958 l 0,-114.296218 c 0,-7.035568 5.664012,-12.6995804 12.69958,-12.6995804 z"
       id="rect2766"
       style="color:#000000;fill:#174f90;fill-opacity:1;fill-rule:nonzero;stroke:none;stroke-width:0.8735441;marker:none;visibility:visible;display:inline;overflow:visible" />
    <g
       transform="matrix(0.5079832,0,0,0.5079832,31.754462,159.33906)"
       id="g1935">
      <path
         d="m 236.45317,-87.6778 -14.87787,-42.0861 -47.10294,0 -14.87787,42.0861 -25.47053,0 52.06911,-150.00005 23.66152,0 52.0691,150.00005 -25.47052,0 z m -38.0923,-108.35803 -15.55195,42.09292 30.20283,0 -14.65088,-42.09292 z m 86.40582,108.35803 0,-150.00005 23.89538,0 0,127.83653 69.87027,0 0,22.16352 -93.76565,0 z m 161.2973,-128.95016 0,128.95016 -23.88852,0 0,-128.95016 -34.48803,0 0,-21.04989 93.31169,0 0,21.04989 -34.93514,0 z"
         id="text1881"
         style="font-size:224.63162231px;font-style:normal;font-variant:normal;font-weight:normal;font-stretch:normal;text-align:center;line-height:125%;writing-mode:lr-tb;text-anchor:middle;fill:#ffffff;fill-opacity:1;font-family:Roadgeek 2005 Series D" />
    </g>
    <g
       transform="translate(-0.15625,0.09761943)"
       id="g3786">
      <g
         id="g3782">
        <path
           d="m 22.58703,177.93347 -5.48541,12.92806 -4.48807,12.92809 -3.9894,13.42531 -2.99204,13.4253 -2.49336,13.92255 -1.49603,13.4253 -0.99735,13.92255 0,13.92253 0.99735,13.92254 1.49603,13.42531 2.49336,13.92254 2.99204,13.4253 3.9894,13.42531 4.98674,12.92808 5.48542,12.92808 5.98408,12.43082 6.98143,11.93362 7.48012,11.9336 8.47745,10.93915 8.47747,10.4419 9.4748,10.4419 9.97348,9.44744 10.97083,8.95021 10.97084,8.45298 11.46949,7.95572 11.96819,6.96128 12.46684,5.9668 12.46686,5.46957 12.96552,4.97234 13.4642,3.97787 11.4695,3.48063 11.4695,-3.48063 13.4642,-3.97787 12.96552,-4.97234 12.96553,-5.46957 11.96817,-5.9668 11.96819,-6.96128 11.46949,-7.95572 11.46951,-8.45298 10.47216,-8.95021 9.97348,-9.44744 9.4748,-10.4419 8.97614,-10.4419 7.97878,-10.93915 7.97878,-11.9336 6.48277,-11.93362 6.48276,-12.43082 5.48541,-12.92808 4.48807,-12.92808 3.9894,-13.42531 3.49072,-13.4253 1.99468,-13.92254 1.99471,-13.42531 0.49867,-13.92254 0,-13.92253 -0.49867,-13.92255 -1.99471,-13.4253 -1.99468,-13.92255 -2.99205,-13.4253 -3.98939,-13.42531 -4.98675,-12.92809 -5.48541,-12.92806 -5.98408,-12.43084 -6.98145,-11.93361 -305.1885,0 -6.48277,11.93361 z"
           id="path5249-9"
           style="fill:#ffffff;fill-opacity:1;stroke:#000000;stroke-opacity:1" />
        <path
           d="m 42.53399,165.50263 -6.48277,11.9336 -4.98673,11.93361 -4.98675,12.43084 -3.98939,12.43083 -3.49071,12.92808 -2.49337,12.92808 -1.9947,12.92807 -0.99735,13.4253 -0.49867,12.92808 0.49867,13.42532 0.99735,13.4253 1.9947,12.92808 2.99204,12.92807 3.49072,12.92806 3.9894,12.43085 4.98674,12.43084 5.48541,11.9336 6.48276,11.43638 6.98144,11.43637 7.48011,10.93913 8.47745,9.94468 8.47747,9.94467 9.4748,9.44744 9.97349,8.9502 10.47215,7.95574 10.97082,7.95574 10.97083,6.46403 11.96818,6.46403 11.96817,5.96681 12.46686,4.4751 11.96817,4.4751 12.96553,3.48064 12.96553,-3.48064 12.46685,-4.4751 12.46684,-4.4751 11.96818,-5.96681 11.46951,-6.46403 11.4695,-6.46403 10.47215,-7.95574 10.47215,-7.95574 9.97349,-8.9502 9.4748,-9.44744 8.97614,-9.94467 7.97878,-9.94468 7.97879,-10.93913 6.48276,-11.43637 6.48276,-11.43638 5.48541,-11.9336 4.98674,-12.43084 4.48808,-12.43085 3.49071,-12.92806 2.49337,-12.92807 1.9947,-12.92808 0.99735,-13.4253 0.99735,-13.42532 -0.49868,-12.92808 -1.49602,-13.4253 -1.49602,-12.92807 -2.99205,-12.92808 -2.99204,-12.92808 -3.98939,-12.43083 -4.98675,-12.43084 -5.4854,-11.93361 -6.48277,-11.9336 -291.22564,0"
           id="path5245-7"
           style="fill:#174f90;fill-opacity:1;stroke:none" />
      </g>
      <g
         transform="translate(-341.98574,-85.437065)"
         id="text9065-6"
         style="font-size:267.85714722px;font-style:normal;font-variant:normal;font-weight:normal;font-stretch:normal;text-align:center;line-height:100%;letter-spacing:0px;word-spacing:0px;writing-mode:lr-tb;text-anchor:middle;fill:#ffffff;fill-opacity:1;stroke:none;font-family:Roadgeek 2005 Series C;-inkscape-font-specification:Roadgeek 2005 Series C">
        <path
           d="m 514.1783,433.02109 c -1.1e-4,7.32147 -1.25011,14.19646 -3.75,20.625 -2.5001,6.25002 -5.98224,11.69645 -10.44643,16.33929 -4.2858,4.64286 -9.55366,8.30357 -15.80357,10.98214 -6.0715,2.5 -12.67864,3.75 -19.82143,3.75 -7.32148,0 -14.0179,-1.25 -20.08928,-3.75 -5.8929,-2.5 -11.07146,-5.98214 -15.53572,-10.44643 -4.28573,-4.46427 -7.76787,-9.73212 -10.44643,-15.80357 -2.50001,-6.24997 -3.92858,-13.03567 -4.28571,-20.35714 l 25.17857,0 c 0.71425,7.32147 3.30353,13.39289 7.76786,18.21428 4.64281,4.64288 10.44637,6.96431 17.41071,6.96429 7.32136,2e-5 13.3035,-2.49998 17.94643,-7.5 4.82135,-5.17854 7.23206,-11.51782 7.23214,-19.01786 -8e-5,-4.82137 -0.62508,-9.28566 -1.875,-13.39286 -1.25008,-4.28564 -2.94651,-7.94636 -5.08928,-10.98214 -2.14294,-3.21421 -4.64293,-5.71421 -7.5,-7.5 -2.67864,-1.78563 -5.62507,-2.67849 -8.83929,-2.67857 l -12.58928,0 0,-24.64286 10.71428,0 c 3.21422,1.1e-4 5.62493,-0.5356 7.23214,-1.60714 1.78565,-1.07132 3.74993,-2.85703 5.89286,-5.35714 5.17849,-5.71417 7.76778,-12.41059 7.76786,-20.08929 -8e-5,-6.96414 -1.96437,-12.49985 -5.89286,-16.60714 -3.75007,-4.10699 -8.75007,-6.16056 -15,-6.16072 -5.71434,1.6e-4 -10.26791,1.69659 -13.66071,5.08929 -3.21433,3.21443 -5.17862,7.85729 -5.89286,13.92857 l -25.17857,-3.21429 c 0.71427,-5.89271 2.32141,-11.33913 4.82143,-16.33928 2.49997,-5.17841 5.71426,-9.55341 9.64285,-13.125 3.92854,-3.57126 8.48211,-6.33911 13.66072,-8.30357 5.17852,-2.14268 10.71423,-3.21411 16.60714,-3.21429 6.42851,1.8e-4 12.41064,1.1609 17.94643,3.48214 5.53563,2.32161 10.26777,5.62518 14.19643,9.91072 4.10704,4.10731 7.32133,9.01802 9.64286,14.73214 2.32132,5.53586 3.48203,11.518 3.48214,17.94643 -1.1e-4,7.50013 -1.25011,14.46441 -3.75,20.89286 -2.32153,6.42868 -6.51795,13.1251 -12.58929,20.08928 6.96419,6.25009 12.14276,13.39294 15.53572,21.42858 3.57132,8.03578 5.35703,16.6072 5.35714,25.71428"
           id="path9788"
           style="font-family:Roadgeek 2005 Series C;-inkscape-font-specification:Roadgeek 2005 Series C" />
        <path
           d="m 646.26536,391.50323 c -1.2e-4,13.75008 -0.80369,25.4465 -2.41072,35.08929 -1.42868,9.6429 -4.01797,18.75004 -7.76785,27.32143 -4.4644,10.7143 -10.08939,18.57144 -16.875,23.57143 -6.60723,4.82143 -15.00008,7.23214 -25.17857,7.23214 -10.71435,0 -19.46434,-2.41071 -26.25001,-7.23214 -6.60717,-4.99999 -12.14288,-12.85713 -16.60714,-23.57143 -3.75002,-8.74997 -6.42859,-17.8571 -8.03571,-27.32143 -1.42859,-9.64279 -2.14288,-21.33921 -2.14286,-35.08929 -2e-5,-13.57132 0.71427,-25.17845 2.14286,-34.82143 1.60712,-9.82129 4.28569,-19.01771 8.03571,-27.58928 4.64283,-10.71412 10.26782,-18.39269 16.875,-23.03572 6.78567,-4.82124 15.44637,-7.23196 25.98215,-7.23214 10.35706,1.8e-4 18.83919,2.4109 25.44642,7.23214 6.60705,4.64303 12.14275,12.50017 16.60715,23.57143 1.7856,4.46444 3.30345,8.92872 4.55357,13.39286 1.42845,4.46442 2.49988,9.19656 3.21428,14.19643 0.89274,4.82155 1.51774,10.0894 1.875,15.80357 0.35703,5.53582 0.5356,11.69653 0.53572,18.48214 m -24.64286,0 c -10e-5,-4.9999 -0.17867,-9.55347 -0.53571,-13.66071 -0.17867,-4.10704 -0.53581,-7.85703 -1.07143,-11.25 -0.35724,-3.57131 -0.89295,-6.96417 -1.60714,-10.17857 -0.71438,-3.21416 -1.51795,-6.42844 -2.41072,-9.64286 -2.32152,-8.03557 -5.26794,-13.83914 -8.83928,-17.41071 -3.39294,-3.57128 -7.76794,-5.35699 -13.125,-5.35715 -11.07149,1.6e-4 -18.66077,7.41087 -22.76786,22.23215 -2.1429,6.78584 -3.66076,13.66083 -4.55357,20.625 -0.71433,6.78582 -1.07147,15.17867 -1.07143,25.17857 -4e-5,4.82151 0.0892,9.28579 0.26785,13.39286 0.35711,3.92864 0.71425,7.67864 1.07143,11.25 0.53567,3.39291 1.16067,6.78577 1.875,10.17857 0.71424,3.39291 1.51781,6.87504 2.41072,10.44643 4.10709,14.82145 11.69637,22.23216 22.76786,22.23214 5.35706,2e-5 9.73206,-1.78569 13.125,-5.35714 3.57134,-3.5714 6.51776,-9.1964 8.83928,-16.875 1.07134,-3.57139 1.96419,-6.96424 2.67857,-10.17858 0.71419,-3.3928 1.24991,-6.87493 1.60715,-10.44642 0.53561,-3.57136 0.89276,-7.32136 1.07142,-11.25 0.17848,-4.10707 0.26776,-8.74992 0.26786,-13.92858"
           id="path9790"
           style="font-family:Roadgeek 2005 Series C;-inkscape-font-specification:Roadgeek 2005 Series C" />
      </g>
    </g>
  </g>
</svg>
