<?xml version="1.0" encoding="UTF-8" standalone="no"?>
<!-- Created with Inkscape (http://www.inkscape.org/) -->

<svg
   xmlns:dc="http://purl.org/dc/elements/1.1/"
   xmlns:cc="http://creativecommons.org/ns#"
   xmlns:rdf="http://www.w3.org/1999/02/22-rdf-syntax-ns#"
   xmlns:svg="http://www.w3.org/2000/svg"
   xmlns="http://www.w3.org/2000/svg"
   version="1.1"
   width="378.49304"
   height="351.01074"
   id="svg8322">
  <defs
     id="defs8324">
    <clipPath
       id="clipPath5227">
      <path
         d="m 218,6600 0,-6600 4665,0 0,6600 -4665,0 z"
         id="path5229" />
    </clipPath>
  </defs>
  <metadata
     id="metadata8327">
    <rdf:RDF>
      <cc:Work
         rdf:about="">
        <dc:format>image/svg+xml</dc:format>
        <dc:type
           rdf:resource="http://purl.org/dc/dcmitype/StillImage" />
        <dc:title></dc:title>
      </cc:Work>
    </rdf:RDF>
  </metadata>
  <g
     transform="matrix(1,0,0,0.97229862,-341.13506,-231.89227)"
     id="layer1">
    <path
       d="m 356.57309,263.37054 -4.486,12.92806 -3.488,12.92808 -2.989,13.42531 -1.992,13.4253 -1.494,13.92255 -0.496,13.4253 0.003,13.92255 0.5,13.92253 1.49735,13.92254 1.49603,13.42531 2.49336,13.92254 2.99204,13.4253 3.9894,13.42531 4.98674,12.92808 5.48542,12.92808 5.98408,12.43082 6.98143,11.93362 7.48012,11.9336 8.47745,10.93915 8.47747,10.4419 9.4748,10.4419 9.97348,9.44744 10.97083,8.95021 10.97084,8.45298 11.46949,7.95572 11.96819,6.96128 12.46684,5.9668 12.46686,5.46957 12.96552,4.97234 13.4642,3.97787 11.4695,3.48063 11.4695,-3.48063 13.4642,-3.97787 12.96552,-4.97234 12.96553,-5.46957 11.96817,-5.9668 11.96819,-6.96128 11.46949,-7.95572 11.46951,-8.45298 10.47216,-8.95021 9.97348,-9.44744 9.4748,-10.4419 8.97614,-10.4419 7.97878,-10.93915 7.97878,-11.9336 6.48277,-11.93362 6.48276,-12.43082 5.48541,-12.92808 4.48807,-12.92808 3.9894,-13.42531 3.49072,-13.4253 1.99468,-13.92254 1.99471,-13.42531 0.99579,-13.92254 0.503,-13.92253 0.501,-13.92255 -0.994,-13.4253 -0.995,-13.92255 -1.992,-13.4253 -2.99,-13.42531 -3.986,-12.92808 -4.486,-12.92806 -4.984,-12.43084 -5.981,-11.93361 -325.18871,0 -5.48329,11.93361 z"
       id="path5249"
       style="fill:#ffffff;fill-opacity:1;stroke:#000000;stroke-opacity:1" />
    <path
       d="m 374.52009,250.9397 -5.483,11.9336 -3.987,11.93361 -3.987,12.43084 -2.989,12.43083 -2.491,12.92808 -1.493,12.92808 -0.995,12.92807 -0.497,13.4253 0.501,12.92808 0.999,13.42531 1.9972,13.4253 1.9947,12.92808 2.99204,12.92807 3.49072,12.92806 3.9894,12.43085 4.98674,12.43084 5.48541,11.9336 6.48276,11.43638 6.98144,11.43637 7.48011,10.93913 8.47745,9.94468 8.47747,9.94467 9.4748,9.44744 9.97349,8.9502 10.47215,7.95575 10.97082,7.95573 10.97083,6.46404 11.96818,6.46403 11.96817,5.96681 12.46686,4.4751 11.96817,4.4751 12.96553,3.48064 12.96553,-3.48064 12.46685,-4.4751 12.46684,-4.4751 11.96818,-5.96681 11.46951,-6.46403 11.4695,-6.46404 10.47215,-7.95573 10.47215,-7.95575 9.97349,-8.9502 9.4748,-9.44744 8.97614,-9.94467 7.97878,-9.94468 7.97879,-10.93913 6.48276,-11.43637 6.48276,-11.43638 5.48541,-11.9336 4.98674,-12.43084 4.48808,-12.43085 3.49071,-12.92806 2.49337,-12.92807 1.9947,-12.92808 1.49732,-13.4253 1.497,-13.42531 0.502,-12.92808 -0.496,-13.4253 -0.496,-12.92807 -1.992,-12.92808 -1.992,-12.92808 -2.99,-12.43083 -3.987,-12.43084 -4.485,-11.93361 -5.483,-11.9336"
       id="path5245"
       style="fill:#336745;fill-opacity:1;stroke:none" />
    <g
       id="text9065"
       style="font-size:267.85714722px;font-style:normal;font-variant:normal;font-weight:normal;font-stretch:normal;text-align:center;line-height:100%;letter-spacing:0px;word-spacing:0px;writing-mode:lr-tb;text-anchor:middle;fill:#ffffff;fill-opacity:1;stroke:none;font-family:Roadgeek 2005 Series C;-inkscape-font-specification:Roadgeek 2005 Series C" />
  </g>
  <g
     id="text2990"
     style="font-size:223.21427917px;font-style:normal;font-variant:normal;font-weight:normal;font-stretch:normal;text-align:center;line-height:100%;letter-spacing:0px;word-spacing:0px;writing-mode:lr-tb;text-anchor:middle;fill:#ffffff;fill-opacity:1;stroke:none;font-family:Roadgeek 2005 Series C;-inkscape-font-specification:Roadgeek 2005 Series C">
    <path
       d="m 70.264591,82.460924 0,37.723216 29.910709,0 0,20.53571 -29.910709,0 0,70.3125 -21.428571,0 0,-149.553568 76.11607,0 0,20.982142 -54.687499,0"
       id="path3932" />
    <path
       d="m 222.17237,112.37164 c -9e-5,18.60127 -4.53878,36.45839 -13.61607,53.57142 -8.92864,17.11313 -21.57744,32.14287 -37.94643,45.08929 L 158.5563,194.29128 c 3.12497,-2.38094 6.24997,-5.20831 9.375,-8.48214 3.27377,-3.4226 6.32436,-6.99402 9.15179,-10.71429 2.82733,-3.86901 5.35709,-7.73805 7.58928,-11.60714 2.23209,-3.869 4.0178,-7.58923 5.35715,-11.16072 -1.78578,0.29768 -3.42268,0.44649 -4.91072,0.44643 -1.33934,6e-5 -2.82743,6e-5 -4.46428,0 -12.94647,6e-5 -23.21432,-4.24101 -30.80357,-12.72321 -7.44049,-8.48207 -11.16073,-20.01479 -11.16072,-34.59822 -1e-5,-6.99393 0.96725,-13.318329 2.90179,-18.973209 1.93451,-5.803441 4.68748,-10.71415 8.25893,-14.732143 3.72021,-4.166523 8.18449,-7.365924 13.39285,-9.598214 5.2083,-2.231991 11.01186,-3.348062 17.41072,-3.348214 13.69041,1.52e-4 24.03266,4.538838 31.02678,13.616071 6.99396,9.07751 10.49098,22.395949 10.49107,39.955359 m -20.53571,-4.6875 c -7e-5,-8.482033 -1.93459,-15.25286 -5.80357,-20.312502 -3.86911,-5.059395 -8.92863,-7.589154 -15.17857,-7.589286 -6.69648,1.32e-4 -11.9048,2.306677 -15.625,6.919643 -3.57146,4.613215 -5.35718,10.863209 -5.35715,18.749995 -3e-5,8.18463 1.78569,14.65783 5.35715,19.41965 3.7202,4.61317 8.92852,6.91972 15.625,6.91964 6.24994,8e-5 11.30946,-2.15766 15.17857,-6.47321 3.86898,-4.31539 5.8035,-10.19336 5.80357,-17.63393"
       id="path3934" />
    <path
       d="m 332.24492,136.03235 c -10e-5,11.4584 -0.66975,21.20541 -2.00893,29.24107 -1.19057,8.03575 -3.34831,15.62503 -6.47321,22.76786 -3.72033,8.92858 -8.40783,15.4762 -14.0625,19.64285 -5.50603,4.01786 -12.50007,6.02679 -20.98215,6.02679 -8.92862,0 -16.22028,-2.00893 -21.875,-6.02679 -5.50598,-4.16665 -10.11907,-10.71427 -13.83928,-19.64285 -3.12502,-7.29164 -5.35716,-14.88092 -6.69643,-22.76786 -1.19049,-8.03566 -1.78573,-17.78267 -1.78571,-29.24107 -2e-5,-11.30944 0.59522,-20.98205 1.78571,-29.01786 1.33927,-8.184407 3.57141,-15.848089 6.69643,-22.991066 3.86902,-8.928435 8.55652,-15.327238 14.0625,-19.196428 5.65472,-4.017707 12.87197,-6.026634 21.65178,-6.026786 8.63089,1.52e-4 15.69933,2.009079 21.20536,6.026786 5.50587,3.86919 10.11896,10.416802 13.83929,19.642856 1.488,3.720361 2.75288,7.440595 3.79464,11.160714 1.19038,3.72035 2.08323,7.663794 2.67857,11.830354 0.74395,4.01796 1.26478,8.40784 1.5625,13.16965 0.29752,4.61318 0.44633,9.7471 0.44643,15.40178 m -20.53572,0 c -8e-5,-4.16659 -0.14889,-7.96123 -0.44642,-11.38393 -0.14889,-3.42253 -0.44651,-6.54752 -0.89286,-9.375 -0.2977,-2.97609 -0.74413,-5.80347 -1.33929,-8.48214 -0.59531,-2.67846 -1.26495,-5.35703 -2.00893,-8.035714 -1.93459,-6.696309 -4.38995,-11.532614 -7.36607,-14.508928 -2.82744,-2.976061 -6.47327,-4.464154 -10.9375,-4.464286 -9.22623,1.32e-4 -15.55063,6.175721 -18.97321,18.526786 -1.78575,5.654872 -3.05063,11.384032 -3.79464,17.187502 -0.59528,5.65485 -0.89289,12.64889 -0.89286,20.98214 -3e-5,4.01793 0.0744,7.73816 0.22321,11.16071 0.29759,3.27387 0.59521,6.39887 0.89286,9.375 0.44639,2.82744 0.96723,5.65481 1.5625,8.48215 0.5952,2.82742 1.26484,5.7292 2.00893,8.70535 3.42258,12.35122 9.74698,18.52681 18.97321,18.52679 4.46423,2e-5 8.11006,-1.48808 10.9375,-4.46429 2.97612,-2.97616 5.43148,-7.66366 7.36607,-14.0625 0.89278,-2.97615 1.63683,-5.80353 2.23215,-8.48214 0.59516,-2.82733 1.04158,-5.72912 1.33928,-8.70536 0.44635,-2.97613 0.74397,-6.10113 0.89286,-9.375 0.14873,-3.42255 0.22313,-7.29159 0.22321,-11.60714"
       id="path3936" />
  </g>
</svg>
