<?xml version="1.0" encoding="utf-8"?>
<!-- Generator: Adobe Illustrator 21.1.0, SVG Export Plug-In . SVG Version: 6.00 Build 0)  -->
<svg version="1.1"
	 id="svg13355" xmlns:cc="http://creativecommons.org/ns#" xmlns:dc="http://purl.org/dc/elements/1.1/" xmlns:rdf="http://www.w3.org/1999/02/22-rdf-syntax-ns#" xmlns:svg="http://www.w3.org/2000/svg"
	 xmlns="http://www.w3.org/2000/svg" xmlns:xlink="http://www.w3.org/1999/xlink" x="0px" y="0px" viewBox="0 0 460 360"
	 style="enable-background:new 0 0 460 360;" xml:space="preserve">
<style type="text/css">
	.st0{fill:#FFA709;}
	.st1{fill:#21432D;}
</style>
<path id="path4463" class="st0" d="M40,0l-6.1,0.5L28.3,2l-5.1,2l-5.1,2.5l-4.6,3.5l-4,4l-3.5,4.5l-2.5,5l-2,5l-1,5.5l-0.5,6v212.5
	l0.5,7l1,6.5l1.5,7l2.5,6l3.5,6.5l4,5.5l4,5.5l5.1,4.5l5.6,4.5l6.1,3.5l6.1,3L229.7,360l190.3-47.3l6.1-3l6.1-3.5l5.1-4.5l5.1-4.5
	l4.6-5.5l4-5.5l3-6.5l2.5-6l2-7l1-6.5l0.5-7V40.3l-0.5-6l-1.5-5.5l-1.5-5l-3-5l-3-4.5l-4-4l-4.6-3.5L436.7,4l-5.6-2l-5.6-1.5
	L420.1,0H40z"/>
<path id="path4413" class="st1" d="M420.1,24.2H40l-3.5,0.5l-3.5,1l-3,2l-2.5,2.5l-2,3l-1,3.5l-0.5,3.5v212.5l0.5,6l1.5,5.5l2,6l3,5
	l3.5,4.5l4.6,4.5l4.6,3.5l5.6,2.5l180.7,43.8l180.7-43.8l5.6-2.5l4.6-3.5l4.6-4.5l4-4.5l3-5l2-6l1-5.5l1-6V40.3l-0.5-3.5l-1.5-3.5
	l-2-3l-2.5-2.5l-3-2l-3-1L420.1,24.2"/>
<g id="text3050" transform="translate(-25,0)">
	<path id="path3823" class="st0" d="M146.2,87l-16-28.5V87h-6.6V45h6.6l15.3,26.8V45h6.6v42H146.2z"/>
	<path id="path3825" class="st0" d="M186.8,87l-4.1-11.8h-13.1L165.5,87h-7.1l14.5-42h6.6l14.5,42H186.8z M176.2,56.7l-4.3,11.8h8.4
		L176.2,56.7z"/>
	<path id="path3827" class="st0" d="M212.8,50.9V87h-6.6V50.9h-9.6V45h26v5.9H212.8z"/>
	<path id="path3829" class="st0" d="M228.7,87V45h6.8v42H228.7z"/>
	<path id="path3831" class="st0" d="M274.4,66.1c0,3.3-0.4,6.5-1.2,9.6c-0.8,3.1-1.9,5.5-3.4,7.4c-2.3,3.1-5.7,4.7-10.2,4.7
		c-3,0-5.4-0.6-7.3-1.8c-1.9-1.2-3.5-3.1-4.8-5.7c-0.9-1.8-1.6-4-2.1-6.6c-0.5-2.6-0.8-5.1-0.8-7.6c0-3.5,0.4-6.7,1.2-9.7
		c0.8-3,1.9-5.5,3.4-7.5c1.3-1.6,2.7-2.8,4.5-3.5c1.7-0.8,3.8-1.2,6.2-1.2c2.7,0,5,0.6,6.8,1.8c1.9,1.2,3.5,3.1,4.8,5.7
		c0.9,1.9,1.6,4.1,2.1,6.6C274.1,60.9,274.3,63.4,274.4,66.1z M267.7,66.1c0-2.4-0.2-4.6-0.6-6.6c-0.4-2-1-3.8-1.9-5.2
		c-0.7-1.1-1.4-1.9-2.3-2.4c-0.9-0.5-1.9-0.8-3.2-0.9c-1.6-0.1-3,0.3-4.1,1.1c-1.1,0.8-2,2.2-2.7,4.1c-0.5,1.3-1,2.8-1.2,4.5
		c-0.3,1.8-0.4,3.5-0.4,5.3c0,2.3,0.2,4.4,0.6,6.5c0.4,2.1,1,3.8,1.9,5.1c0.7,1.1,1.5,1.9,2.4,2.4c0.9,0.5,2,0.8,3.4,0.8
		c1.5,0,2.8-0.4,3.9-1.3c1-0.8,1.9-2.2,2.6-4.1c0.2-0.5,0.4-1.2,0.6-2c0.2-0.8,0.4-1.6,0.5-2.4c0.1-0.9,0.3-1.7,0.3-2.6
		C267.7,67.8,267.7,66.9,267.7,66.1L267.7,66.1z"/>
	<path id="path3833" class="st0" d="M306.3,87l-16-28.5V87h-6.6V45h6.6l15.3,26.8V45h6.6v42H306.3z"/>
	<path id="path3835" class="st0" d="M347,87l-4.1-11.8h-13.1L325.6,87h-7.1L333,45h6.6l14.5,42H347z M336.4,56.7l-4.3,11.8h8.4
		L336.4,56.7z"/>
	<path id="path3837" class="st0" d="M360.4,87V45h6.6v35.8h19.4V87L360.4,87z"/>
</g>
</svg>
