<?xml version="1.0" encoding="UTF-8" standalone="no"?>
<!-- Created with Inkscape (http://www.inkscape.org/) -->
<svg xmlns:dc="http://purl.org/dc/elements/1.1/" xmlns:cc="http://creativecommons.org/ns#" xmlns:rdf="http://www.w3.org/1999/02/22-rdf-syntax-ns#" xmlns:svg="http://www.w3.org/2000/svg" xmlns="http://www.w3.org/2000/svg" version="1.1" width="1061" height="641" id="svg2">
  <defs id="defs4"/>
  <metadata id="metadata7">
    <rdf:RDF>
      <cc:Work rdf:about="">
        <dc:format>image/svg+xml</dc:format>
        <dc:type rdf:resource="http://purl.org/dc/dcmitype/StillImage"/>
        <dc:title/>
      </cc:Work>
    </rdf:RDF>
  </metadata>
  <g transform="translate(-27.5625,-32.375)" id="layer1">
    <rect width="1060" height="640" rx="75" ry="75" x="28.0625" y="32.875" id="rect3755" style="color:#000000;fill:#ffffff;fill-opacity:1;fill-rule:nonzero;stroke:#000000;stroke-width:1;stroke-opacity:1;marker:none;visibility:visible;display:inline;overflow:visible;enable-background:accumulate"/>
    <rect width="960" height="541" rx="27" ry="27" x="78.0625" y="81.875" id="rect2985" style="color:#000000;fill:#195f35;fill-opacity:1;fill-rule:nonzero;stroke:none;stroke-width:1;marker:none;visibility:visible;display:inline;overflow:visible;enable-background:accumulate"/>
    <g id="text3757" style="font-size:477.61193848px;font-style:normal;font-variant:normal;font-weight:normal;font-stretch:normal;text-align:center;line-height:100%;letter-spacing:0px;word-spacing:0px;writing-mode:lr-tb;text-anchor:middle;fill:#ffa709;fill-opacity:1;stroke:none;font-family:Roadgeek 2005 Series C;-inkscape-font-specification:Roadgeek 2005 Series C">
      <path d="m 364.80503,512.875 -31.52239,-89.79104 -99.82089,0 -31.52239,89.79104 -53.97015,0 110.32836,-320 50.14925,0 110.32836,320 -53.97015,0 m -80.71642,-231.16418 -32.95522,89.79105 64,0 -31.04478,-89.79105" id="path6595" style="text-align:start;text-anchor:start;fill:#ffa709;font-family:Roadgeek 2005 Series D;-inkscape-font-specification:Roadgeek 2005 Series D"/>
      <path d="m 460.50652,512.875 c 0.63678,-18.78605 3.02484,-35.98006 7.16418,-51.58209 4.13926,-15.60192 10.66662,-31.04469 19.58209,-46.32836 6.6865,-12.09939 14.9651,-23.24366 24.83582,-33.43283 9.87055,-10.50732 20.378,-19.90035 31.52239,-28.17911 2.86555,-1.59188 5.41281,-3.18391 7.64179,-4.77612 2.22873,-1.91028 4.45758,-3.66152 6.68656,-5.25373 l 17.19403,-9.07462 15.7612,-9.07463 15.28358,-8.59702 c 6.36798,-4.1391 11.4625,-9.23362 15.28358,-15.28358 4.13911,-6.36794 6.20876,-12.8953 6.20896,-19.58209 -2e-4,-6.04951 -1.59224,-11.62165 -4.77612,-16.71642 -3.18427,-5.41268 -7.48278,-10.02959 -12.89552,-13.85074 -5.09471,-3.82063 -11.14445,-6.8455 -18.14926,-9.07463 -7.00513,-2.22858 -14.48771,-3.34301 -22.44776,-3.34328 -16.23893,2.7e-4 -29.45285,3.82116 -39.64179,11.46268 -9.87074,7.64205 -16.07969,18.78632 -18.62687,33.43284 l -50.62686,-10.98508 c 5.4129,-26.746 17.8308,-47.6017 37.25373,-62.56716 19.4228,-15.28326 43.30337,-22.92505 71.64179,-22.92537 15.28343,3.2e-4 29.45257,2.54758 42.50746,7.64179 13.37294,5.09484 24.83562,11.9406 34.38806,20.53731 9.87042,8.59731 17.67141,18.78635 23.40299,30.56717 5.73109,11.46294 8.59676,23.72163 8.59701,36.77612 -2.5e-4,12.41812 -2.86592,24.67682 -8.59701,36.77611 -5.41317,11.78128 -13.37336,22.28873 -23.8806,31.52239 -2.54748,1.91061 -4.93553,3.66185 -7.16418,5.25373 -1.91065,1.5922 -3.9803,2.86583 -6.20895,3.8209 l -15.7612,10.02985 -17.19403,9.07463 -15.76119,9.07462 c -7.64194,4.45784 -14.4877,9.23395 -20.53731,14.32836 -5.73148,4.77623 -11.14441,10.02995 -16.23881,15.7612 -4.77623,5.73143 -9.39314,12.09958 -13.85075,19.10447 -4.1394,7.00505 -8.1195,14.96524 -11.9403,23.8806 l 157.13433,0 0,51.58209 -217.79104,0" id="path6597" style="text-align:start;text-anchor:start;fill:#ffa709;font-family:Roadgeek 2005 Series D;-inkscape-font-specification:Roadgeek 2005 Series D"/>
      <path d="m 968.15579,353.35261 c -2.6e-4,25.47277 -3.02513,49.83096 -9.07463,73.07463 -6.04999,23.24384 -14.647,42.02989 -25.79104,56.35821 -17.83105,23.8806 -43.62207,35.82089 -77.37314,35.82089 -22.60708,0 -41.23393,-4.61691 -55.88059,-13.85074 -14.64684,-9.23382 -26.74633,-23.72136 -36.29851,-43.46269 -6.68661,-13.69148 -12.09954,-30.24867 -16.23881,-49.67164 -4.13933,-19.74117 -6.20898,-39.16404 -6.20895,-58.26866 -3e-5,-26.42767 3.02484,-50.94506 9.07463,-73.55224 6.36811,-22.60671 14.96511,-41.55196 25.79104,-56.83582 9.55216,-12.0992 20.85563,-21.01461 33.91045,-26.74627 13.37302,-6.04942 29.2934,-9.0743 47.76119,-9.07462 20.37794,3.2e-4 37.73116,4.61723 52.0597,13.85074 14.32815,9.23414 26.58684,23.72169 36.77612,43.46269 6.68633,14.32861 11.94005,31.04501 15.7612,50.14925 3.82064,19.10468 5.73108,38.68675 5.73134,58.74627 m -50.62687,0 c -2e-4,-18.14907 -1.59224,-34.86547 -4.77612,-50.14925 -3.18427,-15.60177 -7.96039,-28.81568 -14.32835,-39.64179 -5.09471,-8.27835 -10.98526,-14.3281 -17.67165,-18.14926 -6.36832,-3.82062 -14.32851,-6.04947 -23.88059,-6.68656 -12.41805,-0.63654 -22.7663,2.22912 -31.04478,8.59701 -8.27871,6.36842 -15.12448,16.71667 -20.53731,31.04478 -4.1394,9.55246 -7.32347,21.17434 -9.55224,34.86567 -1.91053,13.37332 -2.86576,26.74644 -2.86567,40.1194 -9e-5,17.19417 1.59195,33.75137 4.77612,49.67164 3.18399,15.9205 7.9601,28.97521 14.32836,39.16418 5.09442,8.27867 11.14416,14.48762 18.14925,18.62687 7.00485,4.13935 15.60185,6.209 25.79104,6.20895 11.78094,5e-5 21.49237,-3.18403 29.13433,-9.55223 7.96002,-6.3681 14.64658,-16.71635 20.0597,-31.04478 1.59185,-4.13921 3.18388,-9.07453 4.77612,-14.80597 1.59184,-6.04964 2.86547,-12.25859 3.8209,-18.62687 1.27343,-6.68644 2.22865,-13.373 2.86567,-20.0597 0.63661,-6.68642 0.95502,-13.21378 0.95522,-19.58209" id="path6599" style="text-align:start;text-anchor:start;fill:#ffa709;font-family:Roadgeek 2005 Series D;-inkscape-font-specification:Roadgeek 2005 Series D"/>
    </g>
  </g>
</svg>