<?xml version="1.0" encoding="UTF-8" standalone="no"?>
<svg
   xmlns:dc="http://purl.org/dc/elements/1.1/"
   xmlns:cc="http://creativecommons.org/ns#"
   xmlns:rdf="http://www.w3.org/1999/02/22-rdf-syntax-ns#"
   xmlns:svg="http://www.w3.org/2000/svg"
   xmlns="http://www.w3.org/2000/svg"
   viewBox="0 0 6.2937498 10.325"
   height="10.325"
   width="6.2937498"
   xml:space="preserve"
   version="1.1"
   id="svg3523"><metadata
     id="metadata3529"><rdf:RDF><cc:Work
         rdf:about=""><dc:format>image/svg+xml</dc:format><dc:type
           rdf:resource="http://purl.org/dc/dcmitype/StillImage" /><dc:title></dc:title></cc:Work></rdf:RDF></metadata><defs
     id="defs3527"><clipPath
       id="clipPath3537"
       clipPathUnits="userSpaceOnUse"><path
         id="path3539"
         d="m 0,1224 792,0 L 792,0 0,0 0,1224 Z" /></clipPath></defs><g
     transform="matrix(1.25,0,0,-1.25,-420.2004,775.39001)"
     id="g3531"><g
       id="g3535"
       clip-path="url(#clipPath3537)"><path
         d="m 336.96432,612.53901 -0.107,-0.487 -0.697,0.003 1.194,5.387 -0.689,0.007 0,1.961 2.013,0.902 2.014,-0.902 0,-1.961 -0.688,-0.007 1.191,-5.387 -0.694,-0.003 -0.108,0.485 -1.715,2.09 -1.714,-2.088 z m 0.281,1.268 1.054,1.285 -0.608,0.737 -0.446,-2.022 z m 2.258,2.753 -0.194,0.884 -1.261,0 -0.193,-0.882 0.823,-1.009 0.825,1.007 z m 0.162,-0.731 -0.609,-0.737 1.055,-1.285 -0.446,2.022 z m -2.244,2.316 2.515,0 0,0.99 -2.515,0 0,-0.99 z"
         style="fill:#231f20;fill-opacity:1;fill-rule:nonzero;stroke:none"
         id="path9761" /></g></g></svg>