<?xml version="1.0" encoding="UTF-8" standalone="no"?>
<svg
   xmlns:dc="http://purl.org/dc/elements/1.1/"
   xmlns:cc="http://creativecommons.org/ns#"
   xmlns:rdf="http://www.w3.org/1999/02/22-rdf-syntax-ns#"
   xmlns:svg="http://www.w3.org/2000/svg"
   xmlns="http://www.w3.org/2000/svg"
   viewBox="0 0 3.5487499 9.3512497"
   height="9.3512497"
   width="3.5487499"
   xml:space="preserve"
   version="1.1"
   id="svg3523"><metadata
     id="metadata3529"><rdf:RDF><cc:Work
         rdf:about=""><dc:format>image/svg+xml</dc:format><dc:type
           rdf:resource="http://purl.org/dc/dcmitype/StillImage" /><dc:title></dc:title></cc:Work></rdf:RDF></metadata><defs
     id="defs3527"><clipPath
       id="clipPath3537"
       clipPathUnits="userSpaceOnUse"><path
         id="path3539"
         d="m 0,1224 792,0 L 792,0 0,0 0,1224 Z" /></clipPath></defs><g
     transform="matrix(1.25,0,0,-1.25,-610.47625,772.915)"
     id="g3531"><g
       id="g3535"
       clip-path="url(#clipPath3537)"><path
         d="m 490.788,610.851 0.394,0 -0.363,5.351 0.297,0 c 0.104,0 0.104,0.071 0.104,0.071 l 0,0.44 -0.143,0 0,-0.071 -0.333,0 0,0.96 0.199,0 0,0.198 -1.141,0.532 -1.146,-0.528 0,-0.198 0.2,0 0,-0.96 -0.333,0 0,0.072 -0.142,0 0,-0.44 c 0,0 0,-0.072 0.104,-0.072 l 0.296,0 -0.362,-5.352 1.383,-0.001 0.181,0 0,1.362 0.805,0 0,-1.364 z"
         style="fill:#231f20;fill-opacity:1;fill-rule:nonzero;stroke:none"
         id="path3655" /></g></g></svg>