<?xml version="1.0" encoding="UTF-8" standalone="no"?>
<svg
   xmlns:dc="http://purl.org/dc/elements/1.1/"
   xmlns:cc="http://creativecommons.org/ns#"
   xmlns:rdf="http://www.w3.org/1999/02/22-rdf-syntax-ns#"
   xmlns:svg="http://www.w3.org/2000/svg"
   xmlns="http://www.w3.org/2000/svg"
   viewBox="0 0 7.4270525 8.0432377"
   height="8.0432377"
   width="7.4270525"
   xml:space="preserve"
   version="1.1"
   id="svg3523"><metadata
     id="metadata3529"><rdf:RDF><cc:Work
         rdf:about=""><dc:format>image/svg+xml</dc:format><dc:type
           rdf:resource="http://purl.org/dc/dcmitype/StillImage" /><dc:title></dc:title></cc:Work></rdf:RDF></metadata><defs
     id="defs3527"><clipPath
       id="clipPath3537"
       clipPathUnits="userSpaceOnUse"><path
         id="path3539"
         d="m 0,1224 792,0 L 792,0 0,0 0,1224 Z" /></clipPath></defs><g
     transform="matrix(1.25,0,0,-1.25,-608.2625,596.97949)"
     id="g3531"><g
       id="g3535"
       clip-path="url(#clipPath3537)"><g
         id="g13862"><path
           id="path4587"
           style="fill:#e3097e;fill-opacity:1;fill-rule:nonzero;stroke:none"
           d="m 491.966,477.083 c -0.547,0.5 -1.394,0.462 -1.894,-0.084 -0.114,-0.127 -0.279,-0.236 -0.338,-0.385 l -1.916,-3.96 c 0.097,-0.055 0.181,-0.133 0.247,-0.221 l 3.566,2.383 c 0.19,0.072 0.272,0.214 0.421,0.374 0.499,0.547 0.461,1.394 -0.086,1.893" /><path
           id="path4589"
           style="fill:none;stroke:#e3097e;stroke-width:0.30000001;stroke-linecap:butt;stroke-linejoin:miter;stroke-miterlimit:4;stroke-dasharray:none;stroke-opacity:1"
           d="m 491.966,477.083 c -0.547,0.5 -1.394,0.462 -1.894,-0.084 -0.114,-0.127 -0.279,-0.236 -0.338,-0.385 l -1.916,-3.96 c 0.097,-0.055 0.181,-0.133 0.247,-0.221 l 3.566,2.383 c 0.19,0.072 0.272,0.214 0.421,0.374 0.499,0.547 0.461,1.394 -0.086,1.893 z" /><path
           id="path4591"
           style="fill:#1b0a0e;fill-opacity:1;fill-rule:nonzero;stroke:none"
           d="m 488.065,472.433 c -0.066,0.088 -0.15,0.166 -0.247,0.221 -0.118,0.068 -0.255,0.108 -0.401,0.108 -0.444,0 -0.807,-0.362 -0.807,-0.806 0,-0.445 0.363,-0.807 0.807,-0.807 0.445,0 0.806,0.362 0.806,0.807 0,0.178 -0.059,0.343 -0.158,0.477" /></g></g></g></svg>