<?xml version="1.0" encoding="UTF-8" standalone="no"?>
<svg
   xmlns:dc="http://purl.org/dc/elements/1.1/"
   xmlns:cc="http://creativecommons.org/ns#"
   xmlns:rdf="http://www.w3.org/1999/02/22-rdf-syntax-ns#"
   xmlns:svg="http://www.w3.org/2000/svg"
   xmlns="http://www.w3.org/2000/svg"
   viewBox="0 0 8.7299871 8.7275"
   height="8.7275"
   width="8.7299871"
   xml:space="preserve"
   version="1.1"
   id="svg3355"><metadata
     id="metadata3361"><rdf:RDF><cc:Work
         rdf:about=""><dc:format>image/svg+xml</dc:format><dc:type
           rdf:resource="http://purl.org/dc/dcmitype/StillImage" /><dc:title></dc:title></cc:Work></rdf:RDF></metadata><defs
     id="defs3359"><clipPath
       id="clipPath3369"
       clipPathUnits="userSpaceOnUse"><path
         id="path3371"
         d="m 0,1224 792,0 L 792,0 0,0 0,1224 Z" /></clipPath></defs><g
     transform="matrix(1.25,0,0,-1.25,-640.60241,542.28548)"
     id="g3363"><g
       id="g15850"><path
         d="m 515.97092,433.56538 c -1.78099,0 -3.22399,-1.445 -3.22399,-3.225 0,-1.781 1.443,-3.224 3.22399,-3.224 1.78101,0 3.224,1.443 3.224,3.224 0,1.78 -1.44299,3.225 -3.224,3.225"
         style="fill:#dcddde;fill-opacity:1;fill-rule:nonzero;stroke:none"
         id="path4513" /><path
         d="m 514.87693,432.26038 2.23199,-3.866"
         style="fill:none;stroke:#231f20;stroke-width:0.40000001;stroke-linecap:butt;stroke-linejoin:miter;stroke-miterlimit:4;stroke-dasharray:none;stroke-opacity:1"
         id="path4515" /><path
         d="m 513.76092,430.32838 4.463,0"
         style="fill:none;stroke:#231f20;stroke-width:0.40000001;stroke-linecap:butt;stroke-linejoin:miter;stroke-miterlimit:4;stroke-dasharray:none;stroke-opacity:1"
         id="path4517" /><path
         d="m 514.87693,428.39438 2.23199,3.866"
         style="fill:none;stroke:#231f20;stroke-width:0.40000001;stroke-linecap:butt;stroke-linejoin:miter;stroke-miterlimit:4;stroke-dasharray:none;stroke-opacity:1"
         id="path4519" /><path
         d="m 515.97092,433.82838 c -0.145,0 -0.264,-0.118 -0.264,-0.263 0,-0.146 0.119,-0.264 0.264,-0.264 0.14601,0 0.264,0.118 0.264,0.264 0,0.145 -0.11799,0.263 -0.264,0.263"
         style="fill:#231f20;fill-opacity:1;fill-rule:nonzero;stroke:none"
         id="path4521" /><path
         d="m 514.73592,433.57438 c -0.145,0 -0.264,-0.119 -0.264,-0.265 0,-0.147 0.119,-0.264 0.264,-0.264 0.14601,0 0.264,0.117 0.264,0.264 0,0.146 -0.11799,0.265 -0.264,0.265"
         style="fill:#231f20;fill-opacity:1;fill-rule:nonzero;stroke:none"
         id="path4523" /><path
         d="m 513.69092,432.86138 c -0.144,0 -0.263,-0.118 -0.263,-0.265 0,-0.144 0.119,-0.264 0.263,-0.264 0.147,0 0.265,0.12 0.265,0.264 0,0.147 -0.118,0.265 -0.265,0.265"
         style="fill:#231f20;fill-opacity:1;fill-rule:nonzero;stroke:none"
         id="path4525" /><path
         d="m 512.97793,431.81638 c -0.144,0 -0.26201,-0.118 -0.26201,-0.264 0,-0.145 0.11801,-0.265 0.26201,-0.265 0.14699,0 0.26599,0.12 0.26599,0.265 0,0.146 -0.119,0.264 -0.26599,0.264"
         style="fill:#231f20;fill-opacity:1;fill-rule:nonzero;stroke:none"
         id="path4527" /><path
         d="m 512.74693,430.60438 c -0.14601,0 -0.265,-0.117 -0.265,-0.264 0,-0.145 0.119,-0.263 0.265,-0.263 0.145,0 0.264,0.118 0.264,0.263 0,0.147 -0.119,0.264 -0.264,0.264"
         style="fill:#231f20;fill-opacity:1;fill-rule:nonzero;stroke:none"
         id="path4529" /><path
         d="m 513.00292,429.34538 c -0.146,0 -0.263,-0.117 -0.263,-0.263 0,-0.146 0.11701,-0.263 0.263,-0.263 0.145,0 0.26401,0.117 0.26401,0.263 0,0.146 -0.11901,0.263 -0.26401,0.263"
         style="fill:#231f20;fill-opacity:1;fill-rule:nonzero;stroke:none"
         id="path4531" /><path
         d="m 513.71592,428.30138 c -0.14699,0 -0.264,-0.119 -0.264,-0.264 0,-0.146 0.11701,-0.264 0.264,-0.264 0.145,0 0.264,0.118 0.264,0.264 0,0.145 -0.119,0.264 -0.264,0.264"
         style="fill:#231f20;fill-opacity:1;fill-rule:nonzero;stroke:none"
         id="path4533" /><path
         d="m 514.76092,427.61238 c -0.146,0 -0.263,-0.117 -0.263,-0.264 0,-0.145 0.117,-0.264 0.263,-0.264 0.145,0 0.264,0.119 0.264,0.264 0,0.147 -0.119,0.264 -0.264,0.264"
         style="fill:#231f20;fill-opacity:1;fill-rule:nonzero;stroke:none"
         id="path4535" /><path
         d="m 516.01892,427.37338 c -0.145,0 -0.26299,-0.117 -0.26299,-0.262 0,-0.146 0.11799,-0.265 0.26299,-0.265 0.14601,0 0.264,0.119 0.264,0.265 0,0.145 -0.11799,0.262 -0.264,0.262"
         style="fill:#231f20;fill-opacity:1;fill-rule:nonzero;stroke:none"
         id="path4537" /><path
         d="m 517.25392,427.63638 c -0.145,0 -0.264,-0.118 -0.264,-0.265 0,-0.146 0.119,-0.263 0.264,-0.263 0.14601,0 0.264,0.117 0.264,0.263 0,0.147 -0.11799,0.265 -0.264,0.265"
         style="fill:#231f20;fill-opacity:1;fill-rule:nonzero;stroke:none"
         id="path4539" /><path
         d="m 518.29892,428.37138 c -0.146,0 -0.264,-0.118 -0.264,-0.263 0,-0.147 0.118,-0.264 0.264,-0.264 0.145,0 0.263,0.117 0.263,0.264 0,0.145 -0.118,0.263 -0.263,0.263"
         style="fill:#231f20;fill-opacity:1;fill-rule:nonzero;stroke:none"
         id="path4541" /><path
         d="m 518.98793,429.44138 c -0.145,0 -0.265,-0.118 -0.265,-0.264 0,-0.145 0.12,-0.265 0.265,-0.265 0.14499,0 0.264,0.12 0.264,0.265 0,0.146 -0.11901,0.264 -0.264,0.264"
         style="fill:#231f20;fill-opacity:1;fill-rule:nonzero;stroke:none"
         id="path4543" /><path
         d="m 519.20192,430.70038 c -0.146,0 -0.265,-0.119 -0.265,-0.264 0,-0.146 0.119,-0.264 0.265,-0.264 0.145,0 0.264,0.118 0.264,0.264 0,0.145 -0.119,0.264 -0.264,0.264"
         style="fill:#231f20;fill-opacity:1;fill-rule:nonzero;stroke:none"
         id="path4545" /><path
         d="m 518.91593,431.91138 c -0.145,0 -0.26401,-0.12 -0.26401,-0.263 0,-0.148 0.11901,-0.266 0.26401,-0.266 0.14599,0 0.26499,0.118 0.26499,0.266 0,0.143 -0.119,0.263 -0.26499,0.263"
         style="fill:#231f20;fill-opacity:1;fill-rule:nonzero;stroke:none"
         id="path4547" /><path
         d="m 518.20492,432.93238 c -0.148,0 -0.26499,-0.117 -0.26499,-0.264 0,-0.145 0.11699,-0.264 0.26499,-0.264 0.144,0 0.26401,0.119 0.26401,0.264 0,0.147 -0.12001,0.264 -0.26401,0.264"
         style="fill:#231f20;fill-opacity:1;fill-rule:nonzero;stroke:none"
         id="path4549" /><path
         d="m 517.11092,433.62038 c -0.145,0 -0.264,-0.118 -0.264,-0.263 0,-0.146 0.119,-0.265 0.264,-0.265 0.14601,0 0.264,0.119 0.264,0.265 0,0.145 -0.11799,0.263 -0.264,0.263"
         style="fill:#231f20;fill-opacity:1;fill-rule:nonzero;stroke:none"
         id="path4551" /></g></g></svg>