<svg xmlns="http://www.w3.org/2000/svg" width="7.802" height="7.086" viewBox="0 0 7.802 7.086">
  <title>shelter</title>
  <circle cx="2.772" cy="4.639" r="0.545" style="fill: #231f20"/>
  <path d="M679.2,883.323a.433.433,0,0,1,.434.43l0,1.144h-3.382v-1.574Z" transform="translate(-671.836 -878.917)" style="fill: #231f20"/>
  <polygon points="0.783 7.086 7.802 7.086 7.802 6.357 1.512 6.357 1.512 3.598 7.802 0.756 7.802 0 0 3.521 0 4.279 0.783 3.928 0.783 7.086" style="fill: #231f20"/>
  <path d="M675.42,884.36h-.977a.269.269,0,1,0,0,.537h1.244a.269.269,0,0,0,.269-.269v-1.077a.268.268,0,1,0-.536,0Z" transform="translate(-671.836 -878.917)" style="fill: #231f20"/>
</svg>
