<svg xmlns="http://www.w3.org/2000/svg" width="8.275" height="6.596" viewBox="0 0 8.275 6.596">
  <title>toilet</title>
  <rect x="4.04" width="0.524" height="6.596" style="fill: #231f20"/>
  <path d="M674.158,880.605a.8.8,0,0,1,.7.476l.459,1.512c.092.324-.321.459-.42.143l-.413-1.387h-.238l.692,2.465h-.66v1.924a.247.247,0,0,1-.493,0V883.8h-.251v1.932a.248.248,0,1,1-.5,0v-1.92h-.662l.685-2.465h-.227l-.414,1.391a.224.224,0,1,1-.42-.147l.46-1.512a.692.692,0,0,1,.644-.476Z" transform="translate(-671.987 -879.398)" style="fill: #231f20"/>
  <circle cx="1.672" cy="0.558" r="0.536" style="fill: #231f20"/>
  <circle cx="6.877" cy="0.549" r="0.535" style="fill: #231f20"/>
  <path d="M678.139,885.677a.3.3,0,1,0,.6,0v-2.52h.252v2.52a.3.3,0,1,0,.6,0l0-4.344h.25v1.6a.212.212,0,1,0,.419,0V881.3a.7.7,0,0,0-.692-.7l-1.421,0a.688.688,0,0,0-.684.7v1.647a.213.213,0,1,0,.422,0v-1.6h.254Z" transform="translate(-671.987 -879.398)" style="fill: #231f20"/>
</svg>
