<?xml version="1.0" encoding="UTF-8" standalone="no"?>
<svg
   xmlns:dc="http://purl.org/dc/elements/1.1/"
   xmlns:cc="http://creativecommons.org/ns#"
   xmlns:rdf="http://www.w3.org/1999/02/22-rdf-syntax-ns#"
   xmlns:svg="http://www.w3.org/2000/svg"
   xmlns="http://www.w3.org/2000/svg"
   viewBox="0 0 11.71375 7.6712499"
   height="7.6712499"
   width="11.71375"
   xml:space="preserve"
   version="1.1"
   id="svg3523"><metadata
     id="metadata3529"><rdf:RDF><cc:Work
         rdf:about=""><dc:format>image/svg+xml</dc:format><dc:type
           rdf:resource="http://purl.org/dc/dcmitype/StillImage" /><dc:title></dc:title></cc:Work></rdf:RDF></metadata><defs
     id="defs3527"><clipPath
       id="clipPath3537"
       clipPathUnits="userSpaceOnUse"><path
         id="path3539"
         d="m 0,1224 792,0 L 792,0 0,0 0,1224 Z" /></clipPath></defs><g
     transform="matrix(1.25,0,0,-1.25,-536.89081,503.62883)"
     id="g3531"><g
       id="g3535"
       clip-path="url(#clipPath3537)"><g
         transform="translate(-52.839351,-14.763936)"
         id="g13821"><path
           id="path4641"
           style="fill:none;stroke:#231f20;stroke-width:0.34200001;stroke-linecap:butt;stroke-linejoin:miter;stroke-miterlimit:4;stroke-dasharray:none;stroke-opacity:1"
           d="m 483.619,414.542 7.031,0" /><path
           id="path4643"
           style="fill:none;stroke:#231f20;stroke-width:0.34200001;stroke-linecap:butt;stroke-linejoin:miter;stroke-miterlimit:4;stroke-dasharray:none;stroke-opacity:1"
           d="m 485.14,415.491 0,-1.899" /><path
           id="path4645"
           style="fill:none;stroke:#231f20;stroke-width:0.34200001;stroke-linecap:butt;stroke-linejoin:miter;stroke-miterlimit:4;stroke-dasharray:none;stroke-opacity:1"
           d="m 487.04,415.896 0,-2.708" /><path
           id="path4647"
           style="fill:none;stroke:#231f20;stroke-width:0.34200001;stroke-linecap:butt;stroke-linejoin:miter;stroke-miterlimit:4;stroke-dasharray:none;stroke-opacity:1"
           d="m 488.939,415.491 0,-1.899" /><path
           id="path4649"
           style="fill:#231f20;fill-opacity:1;fill-rule:nonzero;stroke:none"
           d="m 487.04,417.667 c -0.143,0 -0.258,-0.113 -0.258,-0.256 0,-0.142 0.115,-0.257 0.258,-0.257 0.142,0 0.257,0.115 0.257,0.257 0,0.143 -0.115,0.256 -0.257,0.256" /><path
           id="path4651"
           style="fill:#231f20;fill-opacity:1;fill-rule:nonzero;stroke:none"
           d="m 485.601,417.53 c -0.143,0 -0.258,-0.114 -0.258,-0.256 0,-0.142 0.115,-0.257 0.258,-0.257 0.141,0 0.255,0.115 0.255,0.257 0,0.142 -0.114,0.256 -0.255,0.256" /><path
           id="path4653"
           style="fill:#231f20;fill-opacity:1;fill-rule:nonzero;stroke:none"
           d="m 484.271,417.056 c -0.144,0 -0.257,-0.116 -0.257,-0.257 0,-0.142 0.113,-0.258 0.257,-0.258 0.14,0 0.255,0.116 0.255,0.258 0,0.141 -0.115,0.257 -0.255,0.257" /><path
           id="path4655"
           style="fill:#231f20;fill-opacity:1;fill-rule:nonzero;stroke:none"
           d="m 483.106,416.2 c -0.142,0 -0.257,-0.115 -0.257,-0.258 0,-0.14 0.115,-0.255 0.257,-0.255 0.142,0 0.258,0.115 0.258,0.255 0,0.143 -0.116,0.258 -0.258,0.258" /><path
           id="path4657"
           style="fill:#231f20;fill-opacity:1;fill-rule:nonzero;stroke:none"
           d="m 482.606,414.917 c -0.141,0 -0.254,-0.113 -0.254,-0.256 0,-0.142 0.113,-0.257 0.254,-0.257 0.143,0 0.258,0.115 0.258,0.257 0,0.143 -0.115,0.256 -0.258,0.256" /><path
           id="path4659"
           style="fill:#231f20;fill-opacity:1;fill-rule:nonzero;stroke:none"
           d="m 483.083,413.587 c -0.144,0 -0.257,-0.113 -0.257,-0.256 0,-0.143 0.113,-0.257 0.257,-0.257 0.141,0 0.256,0.114 0.256,0.257 0,0.143 -0.115,0.256 -0.256,0.256" /><path
           id="path4661"
           style="fill:#231f20;fill-opacity:1;fill-rule:nonzero;stroke:none"
           d="m 484.198,412.687 c -0.141,0 -0.256,-0.117 -0.256,-0.258 0,-0.142 0.115,-0.258 0.256,-0.258 0.142,0 0.258,0.116 0.258,0.258 0,0.141 -0.116,0.258 -0.258,0.258" /><path
           id="path4663"
           style="fill:#231f20;fill-opacity:1;fill-rule:nonzero;stroke:none"
           d="m 485.528,412.188 c -0.142,0 -0.256,-0.117 -0.256,-0.259 0,-0.141 0.114,-0.255 0.256,-0.255 0.143,0 0.257,0.114 0.257,0.255 0,0.142 -0.114,0.259 -0.257,0.259" /><path
           id="path4665"
           style="fill:#231f20;fill-opacity:1;fill-rule:nonzero;stroke:none"
           d="m 486.931,412.045 c -0.143,0 -0.258,-0.116 -0.258,-0.258 0,-0.141 0.115,-0.257 0.258,-0.257 0.141,0 0.256,0.116 0.256,0.257 0,0.142 -0.115,0.258 -0.256,0.258" /><path
           id="path4667"
           style="fill:#231f20;fill-opacity:1;fill-rule:nonzero;stroke:none"
           d="m 488.378,412.14 c -0.141,0 -0.256,-0.116 -0.256,-0.257 0,-0.142 0.115,-0.258 0.256,-0.258 0.143,0 0.258,0.116 0.258,0.258 0,0.141 -0.115,0.257 -0.258,0.257" /><path
           id="path4669"
           style="fill:#231f20;fill-opacity:1;fill-rule:nonzero;stroke:none"
           d="m 489.731,412.591 c -0.141,0 -0.255,-0.115 -0.255,-0.258 0,-0.142 0.114,-0.256 0.255,-0.256 0.143,0 0.258,0.114 0.258,0.256 0,0.143 -0.115,0.258 -0.258,0.258" /><path
           id="path4671"
           style="fill:#231f20;fill-opacity:1;fill-rule:nonzero;stroke:none"
           d="m 490.896,413.421 c -0.141,0 -0.257,-0.113 -0.257,-0.256 0,-0.143 0.116,-0.257 0.257,-0.257 0.142,0 0.256,0.114 0.256,0.257 0,0.143 -0.114,0.256 -0.256,0.256" /><path
           id="path4673"
           style="fill:#231f20;fill-opacity:1;fill-rule:nonzero;stroke:none"
           d="m 491.466,414.729 c -0.143,0 -0.256,-0.117 -0.256,-0.258 0,-0.142 0.113,-0.257 0.256,-0.257 0.142,0 0.257,0.115 0.257,0.257 0,0.141 -0.115,0.258 -0.257,0.258" /><path
           id="path4675"
           style="fill:#231f20;fill-opacity:1;fill-rule:nonzero;stroke:none"
           d="m 491.062,416.058 c -0.141,0 -0.256,-0.116 -0.256,-0.258 0,-0.141 0.115,-0.255 0.256,-0.255 0.143,0 0.256,0.114 0.256,0.255 0,0.142 -0.113,0.258 -0.256,0.258" /><path
           id="path4677"
           style="fill:#231f20;fill-opacity:1;fill-rule:nonzero;stroke:none"
           d="m 489.969,416.96 c -0.142,0 -0.255,-0.114 -0.255,-0.256 0,-0.142 0.113,-0.258 0.255,-0.258 0.143,0 0.258,0.116 0.258,0.258 0,0.142 -0.115,0.256 -0.258,0.256" /><path
           id="path4679"
           style="fill:#231f20;fill-opacity:1;fill-rule:nonzero;stroke:none"
           d="m 488.64,417.483 c -0.142,0 -0.258,-0.116 -0.258,-0.257 0,-0.143 0.116,-0.256 0.258,-0.256 0.141,0 0.257,0.113 0.257,0.256 0,0.141 -0.116,0.257 -0.257,0.257" /></g></g></g></svg>