<svg xmlns="http://www.w3.org/2000/svg" width="69.413" height="16.394" viewBox="0 0 69.413 16.394">
  <title>plantation</title>
  <path d="M612.253,870.478l1.127-1.994,1.087,1.994Z" transform="translate(-612.253 -855.765)" fill="param(fill) #FFF" stroke="param(outline) #000" stroke-width="param(outline-width) 1"/>
  <path d="M613.226,872.158v-3.092h.409v3.092Z" transform="translate(-612.253 -855.765)" fill="param(fill) #FFF" stroke="param(outline) #000" stroke-width="param(outline-width) 1"/>
  <path d="M615.613,870.478l1.127-1.994,1.087,1.994Z" transform="translate(-612.253 -855.765)" fill="param(fill) #FFF" stroke="param(outline) #000" stroke-width="param(outline-width) 1"/>
  <path d="M616.585,872.158v-3.092h.409v3.092Z" transform="translate(-612.253 -855.765)" fill="param(fill) #FFF" stroke="param(outline) #000" stroke-width="param(outline-width) 1"/>
  <path d="M619.214,870.478l1.127-1.994,1.087,1.994Z" transform="translate(-612.253 -855.765)" fill="param(fill) #FFF" stroke="param(outline) #000" stroke-width="param(outline-width) 1"/>
  <path d="M620.186,872.158v-3.092h.409v3.092Z" transform="translate(-612.253 -855.765)" fill="param(fill) #FFF" stroke="param(outline) #000" stroke-width="param(outline-width) 1"/>
  <path d="M622.813,870.478l1.127-1.994,1.087,1.994Z" transform="translate(-612.253 -855.765)" fill="param(fill) #FFF" stroke="param(outline) #000" stroke-width="param(outline-width) 1"/>
  <path d="M623.785,872.158v-3.092h.409v3.092Z" transform="translate(-612.253 -855.765)" fill="param(fill) #FFF" stroke="param(outline) #000" stroke-width="param(outline-width) 1"/>
  <path d="M626.413,870.478l1.127-1.994,1.087,1.994Z" transform="translate(-612.253 -855.765)" fill="param(fill) #FFF" stroke="param(outline) #000" stroke-width="param(outline-width) 1"/>
  <path d="M627.385,872.158v-3.092h.409v3.092Z" transform="translate(-612.253 -855.765)" fill="param(fill) #FFF" stroke="param(outline) #000" stroke-width="param(outline-width) 1"/>
  <path d="M630.013,870.478l1.127-1.994,1.087,1.994Z" transform="translate(-612.253 -855.765)" fill="param(fill) #FFF" stroke="param(outline) #000" stroke-width="param(outline-width) 1"/>
  <path d="M630.985,872.158v-3.092h.409v3.092Z" transform="translate(-612.253 -855.765)" fill="param(fill) #FFF" stroke="param(outline) #000" stroke-width="param(outline-width) 1"/>
  <path d="M633.373,870.478l1.127-1.994,1.087,1.994Z" transform="translate(-612.253 -855.765)" fill="param(fill) #FFF" stroke="param(outline) #000" stroke-width="param(outline-width) 1"/>
  <path d="M634.345,872.158v-3.092h.409v3.092Z" transform="translate(-612.253 -855.765)" fill="param(fill) #FFF" stroke="param(outline) #000" stroke-width="param(outline-width) 1"/>
  <path d="M636.973,870.478l1.127-1.994,1.087,1.994Z" transform="translate(-612.253 -855.765)" fill="param(fill) #FFF" stroke="param(outline) #000" stroke-width="param(outline-width) 1"/>
  <path d="M637.944,872.158v-3.092h.409v3.092Z" transform="translate(-612.253 -855.765)" fill="param(fill) #FFF" stroke="param(outline) #000" stroke-width="param(outline-width) 1"/>
  <path d="M640.573,870.478l1.127-1.994,1.087,1.994Z" transform="translate(-612.253 -855.765)" fill="param(fill) #FFF" stroke="param(outline) #000" stroke-width="param(outline-width) 1"/>
  <path d="M641.545,872.158v-3.092h.409v3.092Z" transform="translate(-612.253 -855.765)" fill="param(fill) #FFF" stroke="param(outline) #000" stroke-width="param(outline-width) 1"/>
  <path d="M644.173,870.478l1.127-1.994,1.087,1.994Z" transform="translate(-612.253 -855.765)" fill="param(fill) #FFF" stroke="param(outline) #000" stroke-width="param(outline-width) 1"/>
  <path d="M645.145,872.158v-3.092h.409v3.092Z" transform="translate(-612.253 -855.765)" fill="param(fill) #FFF" stroke="param(outline) #000" stroke-width="param(outline-width) 1"/>
  <path d="M647.532,870.478l1.127-1.994,1.087,1.994Z" transform="translate(-612.253 -855.765)" fill="param(fill) #FFF" stroke="param(outline) #000" stroke-width="param(outline-width) 1"/>
  <path d="M648.5,872.158v-3.092h.409v3.092Z" transform="translate(-612.253 -855.765)" fill="param(fill) #FFF" stroke="param(outline) #000" stroke-width="param(outline-width) 1"/>
  <path d="M651.133,870.478l1.127-1.994,1.087,1.994Z" transform="translate(-612.253 -855.765)" fill="param(fill) #FFF" stroke="param(outline) #000" stroke-width="param(outline-width) 1"/>
  <path d="M652.1,872.158v-3.092h.409v3.092Z" transform="translate(-612.253 -855.765)" fill="param(fill) #FFF" stroke="param(outline) #000" stroke-width="param(outline-width) 1"/>
  <path d="M654.732,870.478l1.127-1.994,1.087,1.994Z" transform="translate(-612.253 -855.765)" fill="param(fill) #FFF" stroke="param(outline) #000" stroke-width="param(outline-width) 1"/>
  <path d="M655.7,872.158v-3.092h.409v3.092Z" transform="translate(-612.253 -855.765)" fill="param(fill) #FFF" stroke="param(outline) #000" stroke-width="param(outline-width) 1"/>
  <path d="M658.333,870.478l1.127-1.994,1.087,1.994Z" transform="translate(-612.253 -855.765)" fill="param(fill) #FFF" stroke="param(outline) #000" stroke-width="param(outline-width) 1"/>
  <path d="M659.3,872.158v-3.092h.409v3.092Z" transform="translate(-612.253 -855.765)" fill="param(fill) #FFF" stroke="param(outline) #000" stroke-width="param(outline-width) 1"/>
  <path d="M661.692,870.478l1.127-1.994,1.087,1.994Z" transform="translate(-612.253 -855.765)" fill="param(fill) #FFF" stroke="param(outline) #000" stroke-width="param(outline-width) 1"/>
  <path d="M662.664,872.158v-3.092h.409v3.092Z" transform="translate(-612.253 -855.765)" fill="param(fill) #FFF" stroke="param(outline) #000" stroke-width="param(outline-width) 1"/>
  <path d="M665.292,870.478l1.127-1.994,1.087,1.994Z" transform="translate(-612.253 -855.765)" fill="param(fill) #FFF" stroke="param(outline) #000" stroke-width="param(outline-width) 1"/>
  <path d="M666.265,872.158v-3.092h.409v3.092Z" transform="translate(-612.253 -855.765)" fill="param(fill) #FFF" stroke="param(outline) #000" stroke-width="param(outline-width) 1"/>
  <path d="M668.892,870.478l1.127-1.994,1.087,1.994Z" transform="translate(-612.253 -855.765)" fill="param(fill) #FFF" stroke="param(outline) #000" stroke-width="param(outline-width) 1"/>
  <path d="M669.864,872.158v-3.092h.409v3.092Z" transform="translate(-612.253 -855.765)" fill="param(fill) #FFF" stroke="param(outline) #000" stroke-width="param(outline-width) 1"/>
  <path d="M672.492,870.478l1.127-1.994,1.087,1.994Z" transform="translate(-612.253 -855.765)" fill="param(fill) #FFF" stroke="param(outline) #000" stroke-width="param(outline-width) 1"/>
  <path d="M673.464,872.158v-3.092h.409v3.092Z" transform="translate(-612.253 -855.765)" fill="param(fill) #FFF" stroke="param(outline) #000" stroke-width="param(outline-width) 1"/>
  <path d="M675.853,870.478l1.127-1.994,1.087,1.994Z" transform="translate(-612.253 -855.765)" fill="param(fill) #FFF" stroke="param(outline) #000" stroke-width="param(outline-width) 1"/>
  <path d="M676.824,872.158v-3.092h.409v3.092Z" transform="translate(-612.253 -855.765)" fill="param(fill) #FFF" stroke="param(outline) #000" stroke-width="param(outline-width) 1"/>
  <path d="M679.452,870.478l1.127-1.994,1.087,1.994Z" transform="translate(-612.253 -855.765)" fill="param(fill) #FFF" stroke="param(outline) #000" stroke-width="param(outline-width) 1"/>
  <path d="M680.424,872.158v-3.092h.409v3.092Z" transform="translate(-612.253 -855.765)" fill="param(fill) #FFF" stroke="param(outline) #000" stroke-width="param(outline-width) 1"/>
  <path d="M612.253,866.158l1.127-1.994,1.087,1.994Z" transform="translate(-612.253 -855.765)" fill="param(fill) #FFF" stroke="param(outline) #000" stroke-width="param(outline-width) 1"/>
  <path d="M613.226,867.838v-3.092h.409v3.092Z" transform="translate(-612.253 -855.765)" fill="param(fill) #FFF" stroke="param(outline) #000" stroke-width="param(outline-width) 1"/>
  <path d="M615.613,866.158l1.127-1.994,1.087,1.994Z" transform="translate(-612.253 -855.765)" fill="param(fill) #FFF" stroke="param(outline) #000" stroke-width="param(outline-width) 1"/>
  <path d="M616.585,867.838v-3.092h.409v3.092Z" transform="translate(-612.253 -855.765)" fill="param(fill) #FFF" stroke="param(outline) #000" stroke-width="param(outline-width) 1"/>
  <path d="M619.214,866.158l1.127-1.994,1.087,1.994Z" transform="translate(-612.253 -855.765)" fill="param(fill) #FFF" stroke="param(outline) #000" stroke-width="param(outline-width) 1"/>
  <path d="M620.186,867.838v-3.092h.409v3.092Z" transform="translate(-612.253 -855.765)" fill="param(fill) #FFF" stroke="param(outline) #000" stroke-width="param(outline-width) 1"/>
  <path d="M622.813,866.158l1.127-1.994,1.087,1.994Z" transform="translate(-612.253 -855.765)" fill="param(fill) #FFF" stroke="param(outline) #000" stroke-width="param(outline-width) 1"/>
  <path d="M623.785,867.838v-3.092h.409v3.092Z" transform="translate(-612.253 -855.765)" fill="param(fill) #FFF" stroke="param(outline) #000" stroke-width="param(outline-width) 1"/>
  <path d="M626.413,866.158l1.127-1.994,1.087,1.994Z" transform="translate(-612.253 -855.765)" fill="param(fill) #FFF" stroke="param(outline) #000" stroke-width="param(outline-width) 1"/>
  <path d="M627.385,867.838v-3.092h.409v3.092Z" transform="translate(-612.253 -855.765)" fill="param(fill) #FFF" stroke="param(outline) #000" stroke-width="param(outline-width) 1"/>
  <path d="M630.013,866.158l1.127-1.994,1.087,1.994Z" transform="translate(-612.253 -855.765)" fill="param(fill) #FFF" stroke="param(outline) #000" stroke-width="param(outline-width) 1"/>
  <path d="M630.985,867.838v-3.092h.409v3.092Z" transform="translate(-612.253 -855.765)" fill="param(fill) #FFF" stroke="param(outline) #000" stroke-width="param(outline-width) 1"/>
  <path d="M633.373,866.158l1.127-1.994,1.087,1.994Z" transform="translate(-612.253 -855.765)" fill="param(fill) #FFF" stroke="param(outline) #000" stroke-width="param(outline-width) 1"/>
  <path d="M634.345,867.838v-3.092h.409v3.092Z" transform="translate(-612.253 -855.765)" fill="param(fill) #FFF" stroke="param(outline) #000" stroke-width="param(outline-width) 1"/>
  <path d="M636.973,866.158l1.127-1.994,1.087,1.994Z" transform="translate(-612.253 -855.765)" fill="param(fill) #FFF" stroke="param(outline) #000" stroke-width="param(outline-width) 1"/>
  <path d="M637.944,867.838v-3.092h.409v3.092Z" transform="translate(-612.253 -855.765)" fill="param(fill) #FFF" stroke="param(outline) #000" stroke-width="param(outline-width) 1"/>
  <path d="M640.573,866.158l1.127-1.994,1.087,1.994Z" transform="translate(-612.253 -855.765)" fill="param(fill) #FFF" stroke="param(outline) #000" stroke-width="param(outline-width) 1"/>
  <path d="M641.545,867.838v-3.092h.409v3.092Z" transform="translate(-612.253 -855.765)" fill="param(fill) #FFF" stroke="param(outline) #000" stroke-width="param(outline-width) 1"/>
  <path d="M644.173,866.158l1.127-1.994,1.087,1.994Z" transform="translate(-612.253 -855.765)" fill="param(fill) #FFF" stroke="param(outline) #000" stroke-width="param(outline-width) 1"/>
  <path d="M645.145,867.838v-3.092h.409v3.092Z" transform="translate(-612.253 -855.765)" fill="param(fill) #FFF" stroke="param(outline) #000" stroke-width="param(outline-width) 1"/>
  <path d="M647.532,866.158l1.127-1.994,1.087,1.994Z" transform="translate(-612.253 -855.765)" fill="param(fill) #FFF" stroke="param(outline) #000" stroke-width="param(outline-width) 1"/>
  <path d="M648.5,867.838v-3.092h.409v3.092Z" transform="translate(-612.253 -855.765)" fill="param(fill) #FFF" stroke="param(outline) #000" stroke-width="param(outline-width) 1"/>
  <path d="M651.133,866.158l1.127-1.994,1.087,1.994Z" transform="translate(-612.253 -855.765)" fill="param(fill) #FFF" stroke="param(outline) #000" stroke-width="param(outline-width) 1"/>
  <path d="M652.1,867.838v-3.092h.409v3.092Z" transform="translate(-612.253 -855.765)" fill="param(fill) #FFF" stroke="param(outline) #000" stroke-width="param(outline-width) 1"/>
  <path d="M654.732,866.158l1.127-1.994,1.087,1.994Z" transform="translate(-612.253 -855.765)" fill="param(fill) #FFF" stroke="param(outline) #000" stroke-width="param(outline-width) 1"/>
  <path d="M655.7,867.838v-3.092h.409v3.092Z" transform="translate(-612.253 -855.765)" fill="param(fill) #FFF" stroke="param(outline) #000" stroke-width="param(outline-width) 1"/>
  <path d="M658.333,866.158l1.127-1.994,1.087,1.994Z" transform="translate(-612.253 -855.765)" fill="param(fill) #FFF" stroke="param(outline) #000" stroke-width="param(outline-width) 1"/>
  <path d="M659.3,867.838v-3.092h.409v3.092Z" transform="translate(-612.253 -855.765)" fill="param(fill) #FFF" stroke="param(outline) #000" stroke-width="param(outline-width) 1"/>
  <path d="M661.692,866.158l1.127-1.994,1.087,1.994Z" transform="translate(-612.253 -855.765)" fill="param(fill) #FFF" stroke="param(outline) #000" stroke-width="param(outline-width) 1"/>
  <path d="M662.664,867.838v-3.092h.409v3.092Z" transform="translate(-612.253 -855.765)" fill="param(fill) #FFF" stroke="param(outline) #000" stroke-width="param(outline-width) 1"/>
  <path d="M665.292,866.158l1.127-1.994,1.087,1.994Z" transform="translate(-612.253 -855.765)" fill="param(fill) #FFF" stroke="param(outline) #000" stroke-width="param(outline-width) 1"/>
  <path d="M666.265,867.838v-3.092h.409v3.092Z" transform="translate(-612.253 -855.765)" fill="param(fill) #FFF" stroke="param(outline) #000" stroke-width="param(outline-width) 1"/>
  <path d="M668.892,866.158l1.127-1.994,1.087,1.994Z" transform="translate(-612.253 -855.765)" fill="param(fill) #FFF" stroke="param(outline) #000" stroke-width="param(outline-width) 1"/>
  <path d="M669.864,867.838v-3.092h.409v3.092Z" transform="translate(-612.253 -855.765)" fill="param(fill) #FFF" stroke="param(outline) #000" stroke-width="param(outline-width) 1"/>
  <path d="M672.492,866.158l1.127-1.994,1.087,1.994Z" transform="translate(-612.253 -855.765)" fill="param(fill) #FFF" stroke="param(outline) #000" stroke-width="param(outline-width) 1"/>
  <path d="M673.464,867.838v-3.092h.409v3.092Z" transform="translate(-612.253 -855.765)" fill="param(fill) #FFF" stroke="param(outline) #000" stroke-width="param(outline-width) 1"/>
  <path d="M675.853,866.158l1.127-1.994,1.087,1.994Z" transform="translate(-612.253 -855.765)" fill="param(fill) #FFF" stroke="param(outline) #000" stroke-width="param(outline-width) 1"/>
  <path d="M676.824,867.838v-3.092h.409v3.092Z" transform="translate(-612.253 -855.765)" fill="param(fill) #FFF" stroke="param(outline) #000" stroke-width="param(outline-width) 1"/>
  <path d="M679.452,866.158l1.127-1.994,1.087,1.994Z" transform="translate(-612.253 -855.765)" fill="param(fill) #FFF" stroke="param(outline) #000" stroke-width="param(outline-width) 1"/>
  <path d="M680.424,867.838v-3.092h.409v3.092Z" transform="translate(-612.253 -855.765)" fill="param(fill) #FFF" stroke="param(outline) #000" stroke-width="param(outline-width) 1"/>
  <path d="M612.253,861.839l1.127-1.994,1.087,1.994Z" transform="translate(-612.253 -855.765)" fill="param(fill) #FFF" stroke="param(outline) #000" stroke-width="param(outline-width) 1"/>
  <path d="M613.226,863.519v-3.092h.409v3.092Z" transform="translate(-612.253 -855.765)" fill="param(fill) #FFF" stroke="param(outline) #000" stroke-width="param(outline-width) 1"/>
  <path d="M615.613,861.839l1.127-1.994,1.087,1.994Z" transform="translate(-612.253 -855.765)" fill="param(fill) #FFF" stroke="param(outline) #000" stroke-width="param(outline-width) 1"/>
  <path d="M616.585,863.519v-3.092h.409v3.092Z" transform="translate(-612.253 -855.765)" fill="param(fill) #FFF" stroke="param(outline) #000" stroke-width="param(outline-width) 1"/>
  <path d="M619.214,861.839l1.127-1.994,1.087,1.994Z" transform="translate(-612.253 -855.765)" fill="param(fill) #FFF" stroke="param(outline) #000" stroke-width="param(outline-width) 1"/>
  <path d="M620.186,863.519v-3.092h.409v3.092Z" transform="translate(-612.253 -855.765)" fill="param(fill) #FFF" stroke="param(outline) #000" stroke-width="param(outline-width) 1"/>
  <path d="M622.813,861.839l1.127-1.994,1.087,1.994Z" transform="translate(-612.253 -855.765)" fill="param(fill) #FFF" stroke="param(outline) #000" stroke-width="param(outline-width) 1"/>
  <path d="M623.785,863.519v-3.092h.409v3.092Z" transform="translate(-612.253 -855.765)" fill="param(fill) #FFF" stroke="param(outline) #000" stroke-width="param(outline-width) 1"/>
  <path d="M626.413,861.839l1.127-1.994,1.087,1.994Z" transform="translate(-612.253 -855.765)" fill="param(fill) #FFF" stroke="param(outline) #000" stroke-width="param(outline-width) 1"/>
  <path d="M627.385,863.519v-3.092h.409v3.092Z" transform="translate(-612.253 -855.765)" fill="param(fill) #FFF" stroke="param(outline) #000" stroke-width="param(outline-width) 1"/>
  <path d="M630.013,861.839l1.127-1.994,1.087,1.994Z" transform="translate(-612.253 -855.765)" fill="param(fill) #FFF" stroke="param(outline) #000" stroke-width="param(outline-width) 1"/>
  <path d="M630.985,863.519v-3.092h.409v3.092Z" transform="translate(-612.253 -855.765)" fill="param(fill) #FFF" stroke="param(outline) #000" stroke-width="param(outline-width) 1"/>
  <path d="M633.373,861.839l1.127-1.994,1.087,1.994Z" transform="translate(-612.253 -855.765)" fill="param(fill) #FFF" stroke="param(outline) #000" stroke-width="param(outline-width) 1"/>
  <path d="M634.345,863.519v-3.092h.409v3.092Z" transform="translate(-612.253 -855.765)" fill="param(fill) #FFF" stroke="param(outline) #000" stroke-width="param(outline-width) 1"/>
  <path d="M636.973,861.839l1.127-1.994,1.087,1.994Z" transform="translate(-612.253 -855.765)" fill="param(fill) #FFF" stroke="param(outline) #000" stroke-width="param(outline-width) 1"/>
  <path d="M637.944,863.519v-3.092h.409v3.092Z" transform="translate(-612.253 -855.765)" fill="param(fill) #FFF" stroke="param(outline) #000" stroke-width="param(outline-width) 1"/>
  <path d="M640.573,861.839l1.127-1.994,1.087,1.994Z" transform="translate(-612.253 -855.765)" fill="param(fill) #FFF" stroke="param(outline) #000" stroke-width="param(outline-width) 1"/>
  <path d="M641.545,863.519v-3.092h.409v3.092Z" transform="translate(-612.253 -855.765)" fill="param(fill) #FFF" stroke="param(outline) #000" stroke-width="param(outline-width) 1"/>
  <path d="M644.173,861.839l1.127-1.994,1.087,1.994Z" transform="translate(-612.253 -855.765)" fill="param(fill) #FFF" stroke="param(outline) #000" stroke-width="param(outline-width) 1"/>
  <path d="M645.145,863.519v-3.092h.409v3.092Z" transform="translate(-612.253 -855.765)" fill="param(fill) #FFF" stroke="param(outline) #000" stroke-width="param(outline-width) 1"/>
  <path d="M647.532,861.839l1.127-1.994,1.087,1.994Z" transform="translate(-612.253 -855.765)" fill="param(fill) #FFF" stroke="param(outline) #000" stroke-width="param(outline-width) 1"/>
  <path d="M648.5,863.519v-3.092h.409v3.092Z" transform="translate(-612.253 -855.765)" fill="param(fill) #FFF" stroke="param(outline) #000" stroke-width="param(outline-width) 1"/>
  <path d="M651.133,861.839l1.127-1.994,1.087,1.994Z" transform="translate(-612.253 -855.765)" fill="param(fill) #FFF" stroke="param(outline) #000" stroke-width="param(outline-width) 1"/>
  <path d="M652.1,863.519v-3.092h.409v3.092Z" transform="translate(-612.253 -855.765)" fill="param(fill) #FFF" stroke="param(outline) #000" stroke-width="param(outline-width) 1"/>
  <path d="M654.732,861.839l1.127-1.994,1.087,1.994Z" transform="translate(-612.253 -855.765)" fill="param(fill) #FFF" stroke="param(outline) #000" stroke-width="param(outline-width) 1"/>
  <path d="M655.7,863.519v-3.092h.409v3.092Z" transform="translate(-612.253 -855.765)" fill="param(fill) #FFF" stroke="param(outline) #000" stroke-width="param(outline-width) 1"/>
  <path d="M658.333,861.839l1.127-1.994,1.087,1.994Z" transform="translate(-612.253 -855.765)" fill="param(fill) #FFF" stroke="param(outline) #000" stroke-width="param(outline-width) 1"/>
  <path d="M659.3,863.519v-3.092h.409v3.092Z" transform="translate(-612.253 -855.765)" fill="param(fill) #FFF" stroke="param(outline) #000" stroke-width="param(outline-width) 1"/>
  <path d="M661.692,861.839l1.127-1.994,1.087,1.994Z" transform="translate(-612.253 -855.765)" fill="param(fill) #FFF" stroke="param(outline) #000" stroke-width="param(outline-width) 1"/>
  <path d="M662.664,863.519v-3.092h.409v3.092Z" transform="translate(-612.253 -855.765)" fill="param(fill) #FFF" stroke="param(outline) #000" stroke-width="param(outline-width) 1"/>
  <path d="M665.292,861.839l1.127-1.994,1.087,1.994Z" transform="translate(-612.253 -855.765)" fill="param(fill) #FFF" stroke="param(outline) #000" stroke-width="param(outline-width) 1"/>
  <path d="M666.265,863.519v-3.092h.409v3.092Z" transform="translate(-612.253 -855.765)" fill="param(fill) #FFF" stroke="param(outline) #000" stroke-width="param(outline-width) 1"/>
  <path d="M668.892,861.839l1.127-1.994,1.087,1.994Z" transform="translate(-612.253 -855.765)" fill="param(fill) #FFF" stroke="param(outline) #000" stroke-width="param(outline-width) 1"/>
  <path d="M669.864,863.519v-3.092h.409v3.092Z" transform="translate(-612.253 -855.765)" fill="param(fill) #FFF" stroke="param(outline) #000" stroke-width="param(outline-width) 1"/>
  <path d="M672.492,861.839l1.127-1.994,1.087,1.994Z" transform="translate(-612.253 -855.765)" fill="param(fill) #FFF" stroke="param(outline) #000" stroke-width="param(outline-width) 1"/>
  <path d="M673.464,863.519v-3.092h.409v3.092Z" transform="translate(-612.253 -855.765)" fill="param(fill) #FFF" stroke="param(outline) #000" stroke-width="param(outline-width) 1"/>
  <path d="M675.853,861.839l1.127-1.994,1.087,1.994Z" transform="translate(-612.253 -855.765)" fill="param(fill) #FFF" stroke="param(outline) #000" stroke-width="param(outline-width) 1"/>
  <path d="M676.824,863.519v-3.092h.409v3.092Z" transform="translate(-612.253 -855.765)" fill="param(fill) #FFF" stroke="param(outline) #000" stroke-width="param(outline-width) 1"/>
  <path d="M679.452,861.839l1.127-1.994,1.087,1.994Z" transform="translate(-612.253 -855.765)" fill="param(fill) #FFF" stroke="param(outline) #000" stroke-width="param(outline-width) 1"/>
  <path d="M680.424,863.519v-3.092h.409v3.092Z" transform="translate(-612.253 -855.765)" fill="param(fill) #FFF" stroke="param(outline) #000" stroke-width="param(outline-width) 1"/>
  <path d="M612.253,857.759l1.127-1.994,1.087,1.994Z" transform="translate(-612.253 -855.765)" fill="param(fill) #FFF" stroke="param(outline) #000" stroke-width="param(outline-width) 1"/>
  <path d="M613.226,859.438v-3.092h.409v3.092Z" transform="translate(-612.253 -855.765)" fill="param(fill) #FFF" stroke="param(outline) #000" stroke-width="param(outline-width) 1"/>
  <path d="M615.613,857.759l1.127-1.994,1.087,1.994Z" transform="translate(-612.253 -855.765)" fill="param(fill) #FFF" stroke="param(outline) #000" stroke-width="param(outline-width) 1"/>
  <path d="M616.585,859.438v-3.092h.409v3.092Z" transform="translate(-612.253 -855.765)" fill="param(fill) #FFF" stroke="param(outline) #000" stroke-width="param(outline-width) 1"/>
  <path d="M619.214,857.759l1.127-1.994,1.087,1.994Z" transform="translate(-612.253 -855.765)" fill="param(fill) #FFF" stroke="param(outline) #000" stroke-width="param(outline-width) 1"/>
  <path d="M620.186,859.438v-3.092h.409v3.092Z" transform="translate(-612.253 -855.765)" fill="param(fill) #FFF" stroke="param(outline) #000" stroke-width="param(outline-width) 1"/>
  <path d="M622.813,857.759l1.127-1.994,1.087,1.994Z" transform="translate(-612.253 -855.765)" fill="param(fill) #FFF" stroke="param(outline) #000" stroke-width="param(outline-width) 1"/>
  <path d="M623.785,859.438v-3.092h.409v3.092Z" transform="translate(-612.253 -855.765)" fill="param(fill) #FFF" stroke="param(outline) #000" stroke-width="param(outline-width) 1"/>
  <path d="M626.413,857.759l1.127-1.994,1.087,1.994Z" transform="translate(-612.253 -855.765)" fill="param(fill) #FFF" stroke="param(outline) #000" stroke-width="param(outline-width) 1"/>
  <path d="M627.385,859.438v-3.092h.409v3.092Z" transform="translate(-612.253 -855.765)" fill="param(fill) #FFF" stroke="param(outline) #000" stroke-width="param(outline-width) 1"/>
  <path d="M630.013,857.759l1.127-1.994,1.087,1.994Z" transform="translate(-612.253 -855.765)" fill="param(fill) #FFF" stroke="param(outline) #000" stroke-width="param(outline-width) 1"/>
  <path d="M630.985,859.438v-3.092h.409v3.092Z" transform="translate(-612.253 -855.765)" fill="param(fill) #FFF" stroke="param(outline) #000" stroke-width="param(outline-width) 1"/>
  <path d="M633.373,857.759l1.127-1.994,1.087,1.994Z" transform="translate(-612.253 -855.765)" fill="param(fill) #FFF" stroke="param(outline) #000" stroke-width="param(outline-width) 1"/>
  <path d="M634.345,859.438v-3.092h.409v3.092Z" transform="translate(-612.253 -855.765)" fill="param(fill) #FFF" stroke="param(outline) #000" stroke-width="param(outline-width) 1"/>
  <path d="M636.973,857.759l1.127-1.994,1.087,1.994Z" transform="translate(-612.253 -855.765)" fill="param(fill) #FFF" stroke="param(outline) #000" stroke-width="param(outline-width) 1"/>
  <path d="M637.944,859.438v-3.092h.409v3.092Z" transform="translate(-612.253 -855.765)" fill="param(fill) #FFF" stroke="param(outline) #000" stroke-width="param(outline-width) 1"/>
  <path d="M640.573,857.759l1.127-1.994,1.087,1.994Z" transform="translate(-612.253 -855.765)" fill="param(fill) #FFF" stroke="param(outline) #000" stroke-width="param(outline-width) 1"/>
  <path d="M641.545,859.438v-3.092h.409v3.092Z" transform="translate(-612.253 -855.765)" fill="param(fill) #FFF" stroke="param(outline) #000" stroke-width="param(outline-width) 1"/>
  <path d="M644.173,857.759l1.127-1.994,1.087,1.994Z" transform="translate(-612.253 -855.765)" fill="param(fill) #FFF" stroke="param(outline) #000" stroke-width="param(outline-width) 1"/>
  <path d="M645.145,859.438v-3.092h.409v3.092Z" transform="translate(-612.253 -855.765)" fill="param(fill) #FFF" stroke="param(outline) #000" stroke-width="param(outline-width) 1"/>
  <path d="M647.532,857.759l1.127-1.994,1.087,1.994Z" transform="translate(-612.253 -855.765)" fill="param(fill) #FFF" stroke="param(outline) #000" stroke-width="param(outline-width) 1"/>
  <path d="M648.5,859.438v-3.092h.409v3.092Z" transform="translate(-612.253 -855.765)" fill="param(fill) #FFF" stroke="param(outline) #000" stroke-width="param(outline-width) 1"/>
  <path d="M651.133,857.759l1.127-1.994,1.087,1.994Z" transform="translate(-612.253 -855.765)" fill="param(fill) #FFF" stroke="param(outline) #000" stroke-width="param(outline-width) 1"/>
  <path d="M652.1,859.438v-3.092h.409v3.092Z" transform="translate(-612.253 -855.765)" fill="param(fill) #FFF" stroke="param(outline) #000" stroke-width="param(outline-width) 1"/>
  <path d="M654.732,857.759l1.127-1.994,1.087,1.994Z" transform="translate(-612.253 -855.765)" fill="param(fill) #FFF" stroke="param(outline) #000" stroke-width="param(outline-width) 1"/>
  <path d="M655.7,859.438v-3.092h.409v3.092Z" transform="translate(-612.253 -855.765)" fill="param(fill) #FFF" stroke="param(outline) #000" stroke-width="param(outline-width) 1"/>
  <path d="M658.333,857.759l1.127-1.994,1.087,1.994Z" transform="translate(-612.253 -855.765)" fill="param(fill) #FFF" stroke="param(outline) #000" stroke-width="param(outline-width) 1"/>
  <path d="M659.3,859.438v-3.092h.409v3.092Z" transform="translate(-612.253 -855.765)" fill="param(fill) #FFF" stroke="param(outline) #000" stroke-width="param(outline-width) 1"/>
  <path d="M661.692,857.759l1.127-1.994,1.087,1.994Z" transform="translate(-612.253 -855.765)" fill="param(fill) #FFF" stroke="param(outline) #000" stroke-width="param(outline-width) 1"/>
  <path d="M662.664,859.438v-3.092h.409v3.092Z" transform="translate(-612.253 -855.765)" fill="param(fill) #FFF" stroke="param(outline) #000" stroke-width="param(outline-width) 1"/>
  <path d="M665.292,857.759l1.127-1.994,1.087,1.994Z" transform="translate(-612.253 -855.765)" fill="param(fill) #FFF" stroke="param(outline) #000" stroke-width="param(outline-width) 1"/>
  <path d="M666.265,859.438v-3.092h.409v3.092Z" transform="translate(-612.253 -855.765)" fill="param(fill) #FFF" stroke="param(outline) #000" stroke-width="param(outline-width) 1"/>
  <path d="M668.892,857.759l1.127-1.994,1.087,1.994Z" transform="translate(-612.253 -855.765)" fill="param(fill) #FFF" stroke="param(outline) #000" stroke-width="param(outline-width) 1"/>
  <path d="M669.864,859.438v-3.092h.409v3.092Z" transform="translate(-612.253 -855.765)" fill="param(fill) #FFF" stroke="param(outline) #000" stroke-width="param(outline-width) 1"/>
  <path d="M672.492,857.759l1.127-1.994,1.087,1.994Z" transform="translate(-612.253 -855.765)" fill="param(fill) #FFF" stroke="param(outline) #000" stroke-width="param(outline-width) 1"/>
  <path d="M673.464,859.438v-3.092h.409v3.092Z" transform="translate(-612.253 -855.765)" fill="param(fill) #FFF" stroke="param(outline) #000" stroke-width="param(outline-width) 1"/>
  <path d="M675.853,857.759l1.127-1.994,1.087,1.994Z" transform="translate(-612.253 -855.765)" fill="param(fill) #FFF" stroke="param(outline) #000" stroke-width="param(outline-width) 1"/>
  <path d="M676.824,859.438v-3.092h.409v3.092Z" transform="translate(-612.253 -855.765)" fill="param(fill) #FFF" stroke="param(outline) #000" stroke-width="param(outline-width) 1"/>
  <path d="M679.452,857.759l1.127-1.994,1.087,1.994Z" transform="translate(-612.253 -855.765)" fill="param(fill) #FFF" stroke="param(outline) #000" stroke-width="param(outline-width) 1"/>
  <path d="M680.424,859.438v-3.092h.409v3.092Z" transform="translate(-612.253 -855.765)" fill="param(fill) #FFF" stroke="param(outline) #000" stroke-width="param(outline-width) 1"/>
  <rect x="2.489" y="3.914" width="64.078" height="10.32" style="fill: none"/>
</svg>
