<svg xmlns="http://www.w3.org/2000/svg" width="7.92" height="8.159" viewBox="0 0 7.92 8.159">
  <title>safer_place</title>
  <rect width="7.92" height="8.159" style="fill: #448672"/>
  <rect x="0.503" y="0.532" width="6.915" height="7.108" style="fill: #fff"/>
  <rect x="1.006" y="1.05" width="5.909" height="6.072" style="fill: #448672"/>
  <path d="M649.752,862.751a.816.816,0,0,0-.167-.259.863.863,0,0,0-.238-.158.711.711,0,0,0-.293-.058.631.631,0,0,0-.293.058.694.694,0,0,0-.238.158.816.816,0,0,0-.167.259.684.684,0,0,0-.056.3.77.77,0,0,0,.056.3.942.942,0,0,0,.167.245.537.537,0,0,0,.238.158.634.634,0,0,0,.293.072.732.732,0,0,0,.293-.072.63.63,0,0,0,.238-.158.942.942,0,0,0,.167-.245,1.145,1.145,0,0,0,.056-.3A.961.961,0,0,0,649.752,862.751Zm-1.439,1.684a.639.639,0,0,1-.307.245h.95v1.684h.587v-1.439h.293v1.439h.405v-2.331h-1.788v.014A.767.767,0,0,1,648.313,864.435Zm.014-.849a.718.718,0,0,0-.154-.245.916.916,0,0,0-.238-.173.732.732,0,0,0-.307-.058.712.712,0,0,0-.293.058.92.92,0,0,0-.238.173.556.556,0,0,0-.154.245.67.67,0,0,0-.07.288.684.684,0,0,0,.07.3.6.6,0,0,0,.154.259.864.864,0,0,0,.238.158.711.711,0,0,0,.293.058.732.732,0,0,0,.307-.058.86.86,0,0,0,.238-.158.785.785,0,0,0,.154-.259.684.684,0,0,0,.07-.3A.67.67,0,0,0,648.327,863.586Zm0-1.727a.89.89,0,0,0-.154-.245.628.628,0,0,0-.238-.158.742.742,0,0,0-.307-.072.733.733,0,0,0-.293.072.63.63,0,0,0-.238.158.651.651,0,0,0-.154.245.791.791,0,0,0-.07.3.684.684,0,0,0,.07.3.6.6,0,0,0,.154.259,1.382,1.382,0,0,0,.238.158.711.711,0,0,0,.293.058.731.731,0,0,0,.307-.058,1.373,1.373,0,0,0,.238-.158.785.785,0,0,0,.154-.259.684.684,0,0,0,.07-.3A.791.791,0,0,0,648.327,861.859Zm.5,2.964h-2.389v2.331h.405V865.7h.293v1.453h.992V865.7h.307v1.453h.391v-2.331h0Zm-1.914-2.072a.607.607,0,0,0-.154-.259.862.862,0,0,0-.237-.158.711.711,0,0,0-.293-.058.631.631,0,0,0-.293.058.694.694,0,0,0-.238.158.82.82,0,0,0-.168.259.687.687,0,0,0-.056.3.774.774,0,0,0,.056.3.949.949,0,0,0,.168.245.537.537,0,0,0,.238.158.633.633,0,0,0,.293.072.733.733,0,0,0,.293-.072.629.629,0,0,0,.237-.158.655.655,0,0,0,.154-.245.8.8,0,0,0,.07-.3A.687.687,0,0,0,646.917,862.751Zm.042,1.684a.64.64,0,0,0,.307.245h-.95v1.684h-.587v-1.439h-.293v1.439h-.405v-2.331h1.788v.014A.767.767,0,0,0,646.958,864.435Z" transform="translate(-643.676 -860.19)" style="fill: #fff"/>
</svg>
