<svg xmlns="http://www.w3.org/2000/svg" width="68.398" height="12.599" viewBox="0 0 68.398 12.599">
  <title>subject_to_inundation</title>
  <line y1="12.479" x2="6" y2="12.479" fill="param(fill) #FFF" stroke="param(outline) #000" stroke-width="param(outline-width) 1"/>
  <line x1="8.88" y1="12.479" x2="14.88" y2="12.479" fill="param(fill) #FFF" stroke="param(outline) #000" stroke-width="param(outline-width) 1"/>
  <line x1="18" y1="12.479" x2="24" y2="12.479" fill="param(fill) #FFF" stroke="param(outline) #000" stroke-width="param(outline-width) 1"/>
  <line x1="26.879" y1="12.479" x2="32.879" y2="12.479" fill="param(fill) #FFF" stroke="param(outline) #000" stroke-width="param(outline-width) 1"/>
  <line x1="35.999" y1="12.479" x2="41.999" y2="12.479" fill="param(fill) #FFF" stroke="param(outline) #000" stroke-width="param(outline-width) 1"/>
  <line x1="44.879" y1="12.479" x2="50.879" y2="12.479" fill="param(fill) #FFF" stroke="param(outline) #000" stroke-width="param(outline-width) 1"/>
  <line x1="53.999" y1="12.479" x2="59.999" y2="12.479" fill="param(fill) #FFF" stroke="param(outline) #000" stroke-width="param(outline-width) 1"/>
  <line x1="62.878" y1="12.479" x2="68.398" y2="12.479" fill="param(fill) #FFF" stroke="param(outline) #000" stroke-width="param(outline-width) 1"/>
  <line y1="9.6" x2="0.48" y2="9.6" fill="param(fill) #FFF" stroke="param(outline) #000" stroke-width="param(outline-width) 1"/>
  <line x1="3.36" y1="9.6" x2="9.36" y2="9.6" fill="param(fill) #FFF" stroke="param(outline) #000" stroke-width="param(outline-width) 1"/>
  <line x1="12.48" y1="9.6" x2="18.479" y2="9.6" fill="param(fill) #FFF" stroke="param(outline) #000" stroke-width="param(outline-width) 1"/>
  <line x1="21.36" y1="9.6" x2="27.359" y2="9.6" fill="param(fill) #FFF" stroke="param(outline) #000" stroke-width="param(outline-width) 1"/>
  <line x1="30.479" y1="9.6" x2="36.479" y2="9.6" fill="param(fill) #FFF" stroke="param(outline) #000" stroke-width="param(outline-width) 1"/>
  <line x1="39.359" y1="9.6" x2="45.359" y2="9.6" fill="param(fill) #FFF" stroke="param(outline) #000" stroke-width="param(outline-width) 1"/>
  <line x1="48.479" y1="9.6" x2="54.479" y2="9.6" fill="param(fill) #FFF" stroke="param(outline) #000" stroke-width="param(outline-width) 1"/>
  <line x1="57.359" y1="9.6" x2="63.359" y2="9.6" fill="param(fill) #FFF" stroke="param(outline) #000" stroke-width="param(outline-width) 1"/>
  <line x1="66.479" y1="9.6" x2="68.398" y2="9.6" fill="param(fill) #FFF" stroke="param(outline) #000" stroke-width="param(outline-width) 1"/>
  <line y1="6.72" x2="3.84" y2="6.72" fill="param(fill) #FFF" stroke="param(outline) #000" stroke-width="param(outline-width) 1"/>
  <line x1="6.96" y1="6.72" x2="12.96" y2="6.72" fill="param(fill) #FFF" stroke="param(outline) #000" stroke-width="param(outline-width) 1"/>
  <line x1="15.84" y1="6.72" x2="21.84" y2="6.72" fill="param(fill) #FFF" stroke="param(outline) #000" stroke-width="param(outline-width) 1"/>
  <line x1="24.959" y1="6.72" x2="30.959" y2="6.72" fill="param(fill) #FFF" stroke="param(outline) #000" stroke-width="param(outline-width) 1"/>
  <line x1="33.839" y1="6.72" x2="39.839" y2="6.72" fill="param(fill) #FFF" stroke="param(outline) #000" stroke-width="param(outline-width) 1"/>
  <line x1="42.959" y1="6.72" x2="48.959" y2="6.72" fill="param(fill) #FFF" stroke="param(outline) #000" stroke-width="param(outline-width) 1"/>
  <line x1="51.839" y1="6.72" x2="57.839" y2="6.72" fill="param(fill) #FFF" stroke="param(outline) #000" stroke-width="param(outline-width) 1"/>
  <line x1="60.958" y1="6.72" x2="66.958" y2="6.72" fill="param(fill) #FFF" stroke="param(outline) #000" stroke-width="param(outline-width) 1"/>
  <line x1="1.44" y1="3.84" x2="7.44" y2="3.84" fill="param(fill) #FFF" stroke="param(outline) #000" stroke-width="param(outline-width) 1"/>
  <line x1="10.32" y1="3.84" x2="16.32" y2="3.84" fill="param(fill) #FFF" stroke="param(outline) #000" stroke-width="param(outline-width) 1"/>
  <line x1="19.44" y1="3.84" x2="25.439" y2="3.84" fill="param(fill) #FFF" stroke="param(outline) #000" stroke-width="param(outline-width) 1"/>
  <line x1="28.319" y1="3.84" x2="34.319" y2="3.84" fill="param(fill) #FFF" stroke="param(outline) #000" stroke-width="param(outline-width) 1"/>
  <line x1="37.439" y1="3.84" x2="43.439" y2="3.84" fill="param(fill) #FFF" stroke="param(outline) #000" stroke-width="param(outline-width) 1"/>
  <line x1="46.319" y1="3.84" x2="52.319" y2="3.84" fill="param(fill) #FFF" stroke="param(outline) #000" stroke-width="param(outline-width) 1"/>
  <line x1="55.439" y1="3.84" x2="61.438" y2="3.84" fill="param(fill) #FFF" stroke="param(outline) #000" stroke-width="param(outline-width) 1"/>
  <line x1="64.319" y1="3.84" x2="68.398" y2="3.84" fill="param(fill) #FFF" stroke="param(outline) #000" stroke-width="param(outline-width) 1"/>
  <line y1="0.96" x2="1.92" y2="0.96" fill="param(fill) #FFF" stroke="param(outline) #000" stroke-width="param(outline-width) 1"/>
  <line x1="5.04" y1="0.96" x2="11.04" y2="0.96" fill="param(fill) #FFF" stroke="param(outline) #000" stroke-width="param(outline-width) 1"/>
  <line x1="13.92" y1="0.96" x2="19.92" y2="0.96" fill="param(fill) #FFF" stroke="param(outline) #000" stroke-width="param(outline-width) 1"/>
  <line x1="23.04" y1="0.96" x2="29.039" y2="0.96" fill="param(fill) #FFF" stroke="param(outline) #000" stroke-width="param(outline-width) 1"/>
  <line x1="31.919" y1="0.96" x2="37.919" y2="0.96" fill="param(fill) #FFF" stroke="param(outline) #000" stroke-width="param(outline-width) 1"/>
  <line x1="41.039" y1="0.96" x2="47.039" y2="0.96" fill="param(fill) #FFF" stroke="param(outline) #000" stroke-width="param(outline-width) 1"/>
  <line x1="49.919" y1="0.96" x2="55.919" y2="0.96" fill="param(fill) #FFF" stroke="param(outline) #000" stroke-width="param(outline-width) 1"/>
  <line x1="59.039" y1="0.96" x2="65.039" y2="0.96" fill="param(fill) #FFF" stroke="param(outline) #000" stroke-width="param(outline-width) 1"/>
  <line x1="67.918" y1="0.96" x2="68.398" y2="0.96" fill="param(fill) #FFF" stroke="param(outline) #000" stroke-width="param(outline-width) 1"/>
  <rect width="64.799" height="10.56" style="fill: none"/>
</svg>
