<svg xmlns="http://www.w3.org/2000/svg" width="76.187" height="30.31" viewBox="0 0 76.187 30.31">
  <title>swamp</title>
  <path d="M605.815,877.267l.269.778-.212.071-.269-.779Zm.58-.283.241.878-.213.057-.24-.878Zm.68-.185.113.978-.212.028-.113-.978Zm.651-2.364.142.778-.227.043-.127-.793Zm.1,2.279.127.978-.212.028-.128-.978Zm.382-2.562.128.878-.227.028-.128-.878Zm.5,2.492-.113,1.161-.213-.028.113-1.161Zm.085-2.775.113,1.076-.227.014-.113-1.076Zm.58,2.959-.113.978-.227-.028.128-.978Zm.17-3.157.113,1.175-.227.028-.113-1.175Zm.51,3.37-.255.878-.212-.057.255-.878Zm.028-2.28V873.5h.227v1.26Zm.439,2.549-.128.793-.227-.042.128-.779Zm.651-3.809-.113,1.274-.213-.028.1-1.261Zm.765.1-.113,1.274-.227-.028.113-1.26Zm.665.383-.127.977-.213-.014.113-.991Zm.566.2-.127.977-.227-.028.127-.977Zm.468.283-.128.793-.212-.043.127-.778Z" transform="translate(-605.604 -847.807)" fill="param(fill) #FFF" stroke="param(outline) #000" stroke-width="param(outline-width) 1"/>
  <path d="M614.455,877.267l.269.778-.212.071-.269-.779Zm.58-.283.241.878-.213.057-.24-.878Zm.68-.185.113.978-.212.028-.113-.978Zm.651-2.364.142.778-.227.043-.127-.793Zm.1,2.279.127.978-.212.028-.128-.978Zm.382-2.562.128.878-.227.028-.128-.878Zm.5,2.492-.113,1.161-.213-.028.113-1.161Zm.085-2.775.113,1.076-.227.014-.113-1.076Zm.58,2.959-.113.978-.227-.028.128-.978Zm.17-3.157.113,1.175-.227.028-.113-1.175Zm.51,3.37-.255.878-.212-.057.255-.878Zm.028-2.28V873.5h.227v1.26Zm.439,2.549-.128.793-.227-.042.128-.779Zm.651-3.809-.113,1.274-.213-.028.1-1.261Zm.765.1-.113,1.274-.227-.028.113-1.26Zm.665.383-.127.977-.213-.014.113-.991Zm.566.2-.127.977-.227-.028.127-.977Zm.468.283-.128.793-.212-.043.127-.778Z" transform="translate(-605.604 -847.807)" fill="param(fill) #FFF" stroke="param(outline) #000" stroke-width="param(outline-width) 1"/>
  <path d="M622.854,877.267l.269.778-.212.071-.269-.779Zm.58-.283.241.878-.213.057-.24-.878Zm.68-.185.113.978-.212.028-.113-.978Zm.651-2.364.142.778-.227.043-.127-.793Zm.1,2.279.127.978-.212.028-.128-.978Zm.382-2.562.128.878-.227.028-.128-.878Zm.5,2.492-.113,1.161-.213-.028.113-1.161Zm.085-2.775.113,1.076-.227.014-.113-1.076Zm.58,2.959-.113.978-.227-.028.128-.978Zm.17-3.157.113,1.175-.227.028-.113-1.175Zm.51,3.37-.255.878-.212-.057.255-.878Zm.028-2.28V873.5h.227v1.26Zm.439,2.549-.128.793-.227-.042.128-.779Zm.651-3.809-.113,1.274-.213-.028.1-1.261Zm.765.1-.113,1.274-.227-.028.113-1.26Zm.665.383-.127.977-.213-.014.113-.991Zm.566.2-.127.977-.227-.028.127-.977Zm.468.283-.128.793-.212-.043.127-.778Z" transform="translate(-605.604 -847.807)" fill="param(fill) #FFF" stroke="param(outline) #000" stroke-width="param(outline-width) 1"/>
  <path d="M631.5,877.267l.269.778-.212.071-.269-.779Zm.58-.283.241.878-.213.057-.24-.878Zm.68-.185.113.978-.212.028-.113-.978Zm.651-2.364.142.778-.227.043-.127-.793Zm.1,2.279.127.978-.212.028-.128-.978Zm.382-2.562.128.878-.227.028-.128-.878Zm.5,2.492-.113,1.161-.213-.028.113-1.161Zm.085-2.775.113,1.076-.227.014-.113-1.076Zm.58,2.959-.113.978-.227-.028.128-.978Zm.17-3.157.113,1.175-.227.028-.113-1.175Zm.51,3.37-.255.878-.212-.057.255-.878Zm.028-2.28V873.5h.227v1.26Zm.439,2.549-.128.793-.227-.042.128-.779Zm.651-3.809-.113,1.274-.213-.028.1-1.261Zm.765.1-.113,1.274-.227-.028.113-1.26Zm.665.383-.127.977-.213-.014.113-.991Zm.566.2-.127.977-.227-.028.127-.977Zm.468.283-.128.793-.212-.043.127-.778Z" transform="translate(-605.604 -847.807)" fill="param(fill) #FFF" stroke="param(outline) #000" stroke-width="param(outline-width) 1"/>
  <path d="M639.895,877.267l.269.778-.212.071-.269-.779Zm.58-.283.241.878-.213.057-.24-.878Zm.68-.185.113.978-.212.028-.113-.978Zm.651-2.364.142.778-.227.043-.127-.793Zm.1,2.279.127.978-.212.028-.128-.978Zm.382-2.562.128.878-.227.028-.128-.878Zm.5,2.492-.113,1.161-.213-.028.113-1.161Zm.085-2.775.113,1.076-.227.014-.113-1.076Zm.58,2.959-.113.978-.227-.028.128-.978Zm.17-3.157.113,1.175-.227.028-.113-1.175Zm.51,3.37-.255.878-.212-.057.255-.878Zm.028-2.28V873.5h.227v1.26Zm.439,2.549-.128.793-.227-.042.128-.779Zm.651-3.809-.113,1.274-.213-.028.1-1.261Zm.765.1-.113,1.274-.227-.028.113-1.26Zm.665.383-.127.977-.213-.014.113-.991Zm.566.2-.127.977-.227-.028.127-.977Zm.468.283-.128.793-.212-.043.127-.778Z" transform="translate(-605.604 -847.807)" fill="param(fill) #FFF" stroke="param(outline) #000" stroke-width="param(outline-width) 1"/>
  <path d="M648.294,877.267l.269.778-.212.071-.269-.779Zm.58-.283.241.878-.213.057-.24-.878Zm.68-.185.113.978-.212.028-.113-.978Zm.651-2.364.142.778-.227.043-.127-.793Zm.1,2.279.127.978-.212.028-.128-.978Zm.382-2.562.128.878-.227.028-.128-.878Zm.5,2.492-.113,1.161-.213-.028.113-1.161Zm.085-2.775.113,1.076-.227.014-.113-1.076Zm.58,2.959-.113.978-.227-.028.128-.978Zm.17-3.157.113,1.175-.227.028-.113-1.175Zm.51,3.37-.255.878-.212-.057.255-.878Zm.028-2.28V873.5h.227v1.26Zm.439,2.549-.128.793-.227-.042.128-.779Zm.651-3.809-.113,1.274-.213-.028.1-1.261Zm.765.1-.113,1.274-.227-.028.113-1.26Zm.665.383-.127.977-.213-.014.113-.991Zm.566.2-.127.977-.227-.028.127-.977Zm.468.283-.128.793-.212-.043.127-.778Z" transform="translate(-605.604 -847.807)" fill="param(fill) #FFF" stroke="param(outline) #000" stroke-width="param(outline-width) 1"/>
  <path d="M656.935,877.267l.269.778-.212.071-.269-.779Zm.58-.283.241.878-.213.057-.24-.878Zm.68-.185.113.978-.212.028-.113-.978Zm.651-2.364.142.778-.227.043-.127-.793Zm.1,2.279.127.978-.212.028-.128-.978Zm.382-2.562.128.878-.227.028-.128-.878Zm.5,2.492-.113,1.161-.213-.028.113-1.161Zm.085-2.775.113,1.076-.227.014-.113-1.076Zm.58,2.959-.113.978-.227-.028.128-.978Zm.17-3.157.113,1.175-.227.028-.113-1.175Zm.51,3.37-.255.878-.212-.057.255-.878Zm.028-2.28V873.5h.227v1.26Zm.439,2.549-.128.793-.227-.042.128-.779Zm.651-3.809-.113,1.274-.213-.028.1-1.261Zm.765.1-.113,1.274-.227-.028.113-1.26Zm.665.383-.127.977-.213-.014.113-.991Zm.566.2-.127.977-.227-.028.127-.977Zm.468.283-.128.793-.212-.043.127-.778Z" transform="translate(-605.604 -847.807)" fill="param(fill) #FFF" stroke="param(outline) #000" stroke-width="param(outline-width) 1"/>
  <path d="M665.334,877.267l.269.778-.212.071-.269-.779Zm.58-.283.241.878-.213.057-.24-.878Zm.68-.185.113.978-.212.028-.113-.978Zm.651-2.364.142.778-.227.043-.127-.793Zm.1,2.279.127.978-.212.028-.128-.978Zm.382-2.562.128.878-.227.028-.128-.878Zm.5,2.492-.113,1.161-.213-.028.113-1.161Zm.085-2.775.113,1.076-.227.014-.113-1.076Zm.58,2.959-.113.978-.227-.028.128-.978Zm.17-3.157.113,1.175-.227.028-.113-1.175Zm.51,3.37-.255.878-.212-.057.255-.878Zm.028-2.28V873.5h.227v1.26Zm.439,2.549-.128.793-.227-.042.128-.779Zm.651-3.809-.113,1.274-.213-.028.1-1.261Zm.765.1-.113,1.274-.227-.028.113-1.26Zm.665.383-.127.977-.213-.014.113-.991Zm.566.2-.127.977-.227-.028.127-.977Zm.468.283-.128.793-.212-.043.127-.778Z" transform="translate(-605.604 -847.807)" fill="param(fill) #FFF" stroke="param(outline) #000" stroke-width="param(outline-width) 1"/>
  <path d="M673.974,877.267l.269.778-.212.071-.269-.779Zm.58-.283.241.878-.213.057-.24-.878Zm.68-.185.113.978-.212.028-.113-.978Zm.651-2.364.142.778-.227.043-.127-.793Zm.1,2.279.127.978-.212.028-.128-.978Zm.382-2.562.128.878-.227.028-.128-.878Zm.5,2.492-.113,1.161-.213-.028.113-1.161Zm.085-2.775.113,1.076-.227.014-.113-1.076Zm.58,2.959-.113.978-.227-.028.128-.978Zm.17-3.157.113,1.175-.227.028-.113-1.175Zm.51,3.37-.255.878-.212-.057.255-.878Zm.028-2.28V873.5h.227v1.26Zm.439,2.549-.128.793-.227-.042.128-.779Zm.651-3.809-.113,1.274-.213-.028.1-1.261Zm.765.1-.113,1.274-.227-.028.113-1.26Zm.665.383-.127.977-.213-.014.113-.991Zm.566.2-.127.977-.227-.028.127-.977Zm.468.283-.128.793-.212-.043.127-.778Z" transform="translate(-605.604 -847.807)" fill="param(fill) #FFF" stroke="param(outline) #000" stroke-width="param(outline-width) 1"/>
  <path d="M605.815,868.627l.269.778-.212.071-.269-.779Zm.58-.283.241.878-.213.057-.24-.878Zm.68-.185.113.978-.212.028-.113-.978Zm.651-2.364.142.778-.227.043-.127-.793Zm.1,2.279.127.978-.212.028-.128-.978Zm.382-2.562.128.878-.227.028-.128-.878Zm.5,2.492-.113,1.161-.213-.028.113-1.161Zm.085-2.775.113,1.076-.227.014-.113-1.076Zm.58,2.959-.113.978-.227-.028.128-.978Zm.17-3.157.113,1.175-.227.028-.113-1.175Zm.51,3.37-.255.878-.212-.057.255-.878Zm.028-2.28v-1.26h.227v1.26Zm.439,2.549-.128.793-.227-.042.128-.779Zm.651-3.809-.113,1.274-.213-.028.1-1.261Zm.765.1-.113,1.274-.227-.028.113-1.26Zm.665.383-.127.977-.213-.014.113-.991Zm.566.2-.127.977-.227-.028.127-.977Zm.468.283-.128.793-.212-.043.127-.778Z" transform="translate(-605.604 -847.807)" fill="param(fill) #FFF" stroke="param(outline) #000" stroke-width="param(outline-width) 1"/>
  <path d="M614.455,868.627l.269.778-.212.071-.269-.779Zm.58-.283.241.878-.213.057-.24-.878Zm.68-.185.113.978-.212.028-.113-.978Zm.651-2.364.142.778-.227.043-.127-.793Zm.1,2.279.127.978-.212.028-.128-.978Zm.382-2.562.128.878-.227.028-.128-.878Zm.5,2.492-.113,1.161-.213-.028.113-1.161Zm.085-2.775.113,1.076-.227.014-.113-1.076Zm.58,2.959-.113.978-.227-.028.128-.978Zm.17-3.157.113,1.175-.227.028-.113-1.175Zm.51,3.37-.255.878-.212-.057.255-.878Zm.028-2.28v-1.26h.227v1.26Zm.439,2.549-.128.793-.227-.042.128-.779Zm.651-3.809-.113,1.274-.213-.028.1-1.261Zm.765.1-.113,1.274-.227-.028.113-1.26Zm.665.383-.127.977-.213-.014.113-.991Zm.566.2-.127.977-.227-.028.127-.977Zm.468.283-.128.793-.212-.043.127-.778Z" transform="translate(-605.604 -847.807)" fill="param(fill) #FFF" stroke="param(outline) #000" stroke-width="param(outline-width) 1"/>
  <path d="M622.854,868.627l.269.778-.212.071-.269-.779Zm.58-.283.241.878-.213.057-.24-.878Zm.68-.185.113.978-.212.028-.113-.978Zm.651-2.364.142.778-.227.043-.127-.793Zm.1,2.279.127.978-.212.028-.128-.978Zm.382-2.562.128.878-.227.028-.128-.878Zm.5,2.492-.113,1.161-.213-.028.113-1.161Zm.085-2.775.113,1.076-.227.014-.113-1.076Zm.58,2.959-.113.978-.227-.028.128-.978Zm.17-3.157.113,1.175-.227.028-.113-1.175Zm.51,3.37-.255.878-.212-.057.255-.878Zm.028-2.28v-1.26h.227v1.26Zm.439,2.549-.128.793-.227-.042.128-.779Zm.651-3.809-.113,1.274-.213-.028.1-1.261Zm.765.1-.113,1.274-.227-.028.113-1.26Zm.665.383-.127.977-.213-.014.113-.991Zm.566.2-.127.977-.227-.028.127-.977Zm.468.283-.128.793-.212-.043.127-.778Z" transform="translate(-605.604 -847.807)" fill="param(fill) #FFF" stroke="param(outline) #000" stroke-width="param(outline-width) 1"/>
  <path d="M631.5,868.627l.269.778-.212.071-.269-.779Zm.58-.283.241.878-.213.057-.24-.878Zm.68-.185.113.978-.212.028-.113-.978Zm.651-2.364.142.778-.227.043-.127-.793Zm.1,2.279.127.978-.212.028-.128-.978Zm.382-2.562.128.878-.227.028-.128-.878Zm.5,2.492-.113,1.161-.213-.028.113-1.161Zm.085-2.775.113,1.076-.227.014-.113-1.076Zm.58,2.959-.113.978-.227-.028.128-.978Zm.17-3.157.113,1.175-.227.028-.113-1.175Zm.51,3.37-.255.878-.212-.057.255-.878Zm.028-2.28v-1.26h.227v1.26Zm.439,2.549-.128.793-.227-.042.128-.779Zm.651-3.809-.113,1.274-.213-.028.1-1.261Zm.765.1-.113,1.274-.227-.028.113-1.26Zm.665.383-.127.977-.213-.014.113-.991Zm.566.2-.127.977-.227-.028.127-.977Zm.468.283-.128.793-.212-.043.127-.778Z" transform="translate(-605.604 -847.807)" fill="param(fill) #FFF" stroke="param(outline) #000" stroke-width="param(outline-width) 1"/>
  <path d="M639.895,868.627l.269.778-.212.071-.269-.779Zm.58-.283.241.878-.213.057-.24-.878Zm.68-.185.113.978-.212.028-.113-.978Zm.651-2.364.142.778-.227.043-.127-.793Zm.1,2.279.127.978-.212.028-.128-.978Zm.382-2.562.128.878-.227.028-.128-.878Zm.5,2.492-.113,1.161-.213-.028.113-1.161Zm.085-2.775.113,1.076-.227.014-.113-1.076Zm.58,2.959-.113.978-.227-.028.128-.978Zm.17-3.157.113,1.175-.227.028-.113-1.175Zm.51,3.37-.255.878-.212-.057.255-.878Zm.028-2.28v-1.26h.227v1.26Zm.439,2.549-.128.793-.227-.042.128-.779Zm.651-3.809-.113,1.274-.213-.028.1-1.261Zm.765.1-.113,1.274-.227-.028.113-1.26Zm.665.383-.127.977-.213-.014.113-.991Zm.566.2-.127.977-.227-.028.127-.977Zm.468.283-.128.793-.212-.043.127-.778Z" transform="translate(-605.604 -847.807)" fill="param(fill) #FFF" stroke="param(outline) #000" stroke-width="param(outline-width) 1"/>
  <path d="M648.294,868.627l.269.778-.212.071-.269-.779Zm.58-.283.241.878-.213.057-.24-.878Zm.68-.185.113.978-.212.028-.113-.978Zm.651-2.364.142.778-.227.043-.127-.793Zm.1,2.279.127.978-.212.028-.128-.978Zm.382-2.562.128.878-.227.028-.128-.878Zm.5,2.492-.113,1.161-.213-.028.113-1.161Zm.085-2.775.113,1.076-.227.014-.113-1.076Zm.58,2.959-.113.978-.227-.028.128-.978Zm.17-3.157.113,1.175-.227.028-.113-1.175Zm.51,3.37-.255.878-.212-.057.255-.878Zm.028-2.28v-1.26h.227v1.26Zm.439,2.549-.128.793-.227-.042.128-.779Zm.651-3.809-.113,1.274-.213-.028.1-1.261Zm.765.1-.113,1.274-.227-.028.113-1.26Zm.665.383-.127.977-.213-.014.113-.991Zm.566.2-.127.977-.227-.028.127-.977Zm.468.283-.128.793-.212-.043.127-.778Z" transform="translate(-605.604 -847.807)" fill="param(fill) #FFF" stroke="param(outline) #000" stroke-width="param(outline-width) 1"/>
  <path d="M656.935,868.627l.269.778-.212.071-.269-.779Zm.58-.283.241.878-.213.057-.24-.878Zm.68-.185.113.978-.212.028-.113-.978Zm.651-2.364.142.778-.227.043-.127-.793Zm.1,2.279.127.978-.212.028-.128-.978Zm.382-2.562.128.878-.227.028-.128-.878Zm.5,2.492-.113,1.161-.213-.028.113-1.161Zm.085-2.775.113,1.076-.227.014-.113-1.076Zm.58,2.959-.113.978-.227-.028.128-.978Zm.17-3.157.113,1.175-.227.028-.113-1.175Zm.51,3.37-.255.878-.212-.057.255-.878Zm.028-2.28v-1.26h.227v1.26Zm.439,2.549-.128.793-.227-.042.128-.779Zm.651-3.809-.113,1.274-.213-.028.1-1.261Zm.765.1-.113,1.274-.227-.028.113-1.26Zm.665.383-.127.977-.213-.014.113-.991Zm.566.2-.127.977-.227-.028.127-.977Zm.468.283-.128.793-.212-.043.127-.778Z" transform="translate(-605.604 -847.807)" fill="param(fill) #FFF" stroke="param(outline) #000" stroke-width="param(outline-width) 1"/>
  <path d="M665.334,868.627l.269.778-.212.071-.269-.779Zm.58-.283.241.878-.213.057-.24-.878Zm.68-.185.113.978-.212.028-.113-.978Zm.651-2.364.142.778-.227.043-.127-.793Zm.1,2.279.127.978-.212.028-.128-.978Zm.382-2.562.128.878-.227.028-.128-.878Zm.5,2.492-.113,1.161-.213-.028.113-1.161Zm.085-2.775.113,1.076-.227.014-.113-1.076Zm.58,2.959-.113.978-.227-.028.128-.978Zm.17-3.157.113,1.175-.227.028-.113-1.175Zm.51,3.37-.255.878-.212-.057.255-.878Zm.028-2.28v-1.26h.227v1.26Zm.439,2.549-.128.793-.227-.042.128-.779Zm.651-3.809-.113,1.274-.213-.028.1-1.261Zm.765.1-.113,1.274-.227-.028.113-1.26Zm.665.383-.127.977-.213-.014.113-.991Zm.566.2-.127.977-.227-.028.127-.977Zm.468.283-.128.793-.212-.043.127-.778Z" transform="translate(-605.604 -847.807)" fill="param(fill) #FFF" stroke="param(outline) #000" stroke-width="param(outline-width) 1"/>
  <path d="M673.974,868.627l.269.778-.212.071-.269-.779Zm.58-.283.241.878-.213.057-.24-.878Zm.68-.185.113.978-.212.028-.113-.978Zm.651-2.364.142.778-.227.043-.127-.793Zm.1,2.279.127.978-.212.028-.128-.978Zm.382-2.562.128.878-.227.028-.128-.878Zm.5,2.492-.113,1.161-.213-.028.113-1.161Zm.085-2.775.113,1.076-.227.014-.113-1.076Zm.58,2.959-.113.978-.227-.028.128-.978Zm.17-3.157.113,1.175-.227.028-.113-1.175Zm.51,3.37-.255.878-.212-.057.255-.878Zm.028-2.28v-1.26h.227v1.26Zm.439,2.549-.128.793-.227-.042.128-.779Zm.651-3.809-.113,1.274-.213-.028.1-1.261Zm.765.1-.113,1.274-.227-.028.113-1.26Zm.665.383-.127.977-.213-.014.113-.991Zm.566.2-.127.977-.227-.028.127-.977Zm.468.283-.128.793-.212-.043.127-.778Z" transform="translate(-605.604 -847.807)" fill="param(fill) #FFF" stroke="param(outline) #000" stroke-width="param(outline-width) 1"/>
  <path d="M605.815,860.228l.269.778-.212.071-.269-.779Zm.58-.283.241.878-.213.057-.24-.878Zm.68-.185.113.978-.212.028-.113-.978Zm.651-2.364.142.778-.227.043-.127-.793Zm.1,2.279.127.978-.212.028-.128-.978Zm.382-2.562.128.878-.227.028-.128-.878Zm.5,2.492-.113,1.161-.213-.028.113-1.161Zm.085-2.775.113,1.076-.227.014-.113-1.076Zm.58,2.959-.113.978-.227-.028.128-.978Zm.17-3.157.113,1.175-.227.028-.113-1.175Zm.51,3.37-.255.878-.212-.057.255-.878Zm.028-2.28v-1.26h.227v1.26Zm.439,2.549-.128.793-.227-.042.128-.779Zm.651-3.809-.113,1.274-.213-.028.1-1.261Zm.765.1-.113,1.274-.227-.028.113-1.26Zm.665.383-.127.977-.213-.014.113-.991Zm.566.2-.127.977-.227-.028.127-.977Zm.468.283-.128.793-.212-.043.127-.778Z" transform="translate(-605.604 -847.807)" fill="param(fill) #FFF" stroke="param(outline) #000" stroke-width="param(outline-width) 1"/>
  <path d="M614.455,860.228l.269.778-.212.071-.269-.779Zm.58-.283.241.878-.213.057-.24-.878Zm.68-.185.113.978-.212.028-.113-.978Zm.651-2.364.142.778-.227.043-.127-.793Zm.1,2.279.127.978-.212.028-.128-.978Zm.382-2.562.128.878-.227.028-.128-.878Zm.5,2.492-.113,1.161-.213-.028.113-1.161Zm.085-2.775.113,1.076-.227.014-.113-1.076Zm.58,2.959-.113.978-.227-.028.128-.978Zm.17-3.157.113,1.175-.227.028-.113-1.175Zm.51,3.37-.255.878-.212-.057.255-.878Zm.028-2.28v-1.26h.227v1.26Zm.439,2.549-.128.793-.227-.042.128-.779Zm.651-3.809-.113,1.274-.213-.028.1-1.261Zm.765.1-.113,1.274-.227-.028.113-1.26Zm.665.383-.127.977-.213-.014.113-.991Zm.566.2-.127.977-.227-.028.127-.977Zm.468.283-.128.793-.212-.043.127-.778Z" transform="translate(-605.604 -847.807)" fill="param(fill) #FFF" stroke="param(outline) #000" stroke-width="param(outline-width) 1"/>
  <path d="M622.854,860.228l.269.778-.212.071-.269-.779Zm.58-.283.241.878-.213.057-.24-.878Zm.68-.185.113.978-.212.028-.113-.978Zm.651-2.364.142.778-.227.043-.127-.793Zm.1,2.279.127.978-.212.028-.128-.978Zm.382-2.562.128.878-.227.028-.128-.878Zm.5,2.492-.113,1.161-.213-.028.113-1.161Zm.085-2.775.113,1.076-.227.014-.113-1.076Zm.58,2.959-.113.978-.227-.028.128-.978Zm.17-3.157.113,1.175-.227.028-.113-1.175Zm.51,3.37-.255.878-.212-.057.255-.878Zm.028-2.28v-1.26h.227v1.26Zm.439,2.549-.128.793-.227-.042.128-.779Zm.651-3.809-.113,1.274-.213-.028.1-1.261Zm.765.1-.113,1.274-.227-.028.113-1.26Zm.665.383-.127.977-.213-.014.113-.991Zm.566.2-.127.977-.227-.028.127-.977Zm.468.283-.128.793-.212-.043.127-.778Z" transform="translate(-605.604 -847.807)" fill="param(fill) #FFF" stroke="param(outline) #000" stroke-width="param(outline-width) 1"/>
  <path d="M631.5,860.228l.269.778-.212.071-.269-.779Zm.58-.283.241.878-.213.057-.24-.878Zm.68-.185.113.978-.212.028-.113-.978Zm.651-2.364.142.778-.227.043-.127-.793Zm.1,2.279.127.978-.212.028-.128-.978Zm.382-2.562.128.878-.227.028-.128-.878Zm.5,2.492-.113,1.161-.213-.028.113-1.161Zm.085-2.775.113,1.076-.227.014-.113-1.076Zm.58,2.959-.113.978-.227-.028.128-.978Zm.17-3.157.113,1.175-.227.028-.113-1.175Zm.51,3.37-.255.878-.212-.057.255-.878Zm.028-2.28v-1.26h.227v1.26Zm.439,2.549-.128.793-.227-.042.128-.779Zm.651-3.809-.113,1.274-.213-.028.1-1.261Zm.765.1-.113,1.274-.227-.028.113-1.26Zm.665.383-.127.977-.213-.014.113-.991Zm.566.2-.127.977-.227-.028.127-.977Zm.468.283-.128.793-.212-.043.127-.778Z" transform="translate(-605.604 -847.807)" fill="param(fill) #FFF" stroke="param(outline) #000" stroke-width="param(outline-width) 1"/>
  <path d="M639.895,860.228l.269.778-.212.071-.269-.779Zm.58-.283.241.878-.213.057-.24-.878Zm.68-.185.113.978-.212.028-.113-.978Zm.651-2.364.142.778-.227.043-.127-.793Zm.1,2.279.127.978-.212.028-.128-.978Zm.382-2.562.128.878-.227.028-.128-.878Zm.5,2.492-.113,1.161-.213-.028.113-1.161Zm.085-2.775.113,1.076-.227.014-.113-1.076Zm.58,2.959-.113.978-.227-.028.128-.978Zm.17-3.157.113,1.175-.227.028-.113-1.175Zm.51,3.37-.255.878-.212-.057.255-.878Zm.028-2.28v-1.26h.227v1.26Zm.439,2.549-.128.793-.227-.042.128-.779Zm.651-3.809-.113,1.274-.213-.028.1-1.261Zm.765.1-.113,1.274-.227-.028.113-1.26Zm.665.383-.127.977-.213-.014.113-.991Zm.566.2-.127.977-.227-.028.127-.977Zm.468.283-.128.793-.212-.043.127-.778Z" transform="translate(-605.604 -847.807)" fill="param(fill) #FFF" stroke="param(outline) #000" stroke-width="param(outline-width) 1"/>
  <path d="M648.294,860.228l.269.778-.212.071-.269-.779Zm.58-.283.241.878-.213.057-.24-.878Zm.68-.185.113.978-.212.028-.113-.978Zm.651-2.364.142.778-.227.043-.127-.793Zm.1,2.279.127.978-.212.028-.128-.978Zm.382-2.562.128.878-.227.028-.128-.878Zm.5,2.492-.113,1.161-.213-.028.113-1.161Zm.085-2.775.113,1.076-.227.014-.113-1.076Zm.58,2.959-.113.978-.227-.028.128-.978Zm.17-3.157.113,1.175-.227.028-.113-1.175Zm.51,3.37-.255.878-.212-.057.255-.878Zm.028-2.28v-1.26h.227v1.26ZM653,860.27l-.128.793-.227-.042.128-.779Zm.651-3.809-.113,1.274-.213-.028.1-1.261Zm.765.1-.113,1.274-.227-.028.113-1.26Zm.665.383-.127.977-.213-.014.113-.991Zm.566.2-.127.977-.227-.028.127-.977Zm.468.283-.128.793-.212-.043.127-.778Z" transform="translate(-605.604 -847.807)" fill="param(fill) #FFF" stroke="param(outline) #000" stroke-width="param(outline-width) 1"/>
  <path d="M656.935,860.228l.269.778-.212.071-.269-.779Zm.58-.283.241.878-.213.057L657.3,860Zm.68-.185.113.978-.212.028-.113-.978Zm.651-2.364.142.778-.227.043-.127-.793Zm.1,2.279.127.978-.212.028-.128-.978Zm.382-2.562.128.878-.227.028-.128-.878Zm.5,2.492-.113,1.161-.213-.028.113-1.161Zm.085-2.775.113,1.076-.227.014-.113-1.076Zm.58,2.959-.113.978-.227-.028.128-.978Zm.17-3.157.113,1.175-.227.028-.113-1.175Zm.51,3.37-.255.878-.212-.057.255-.878Zm.028-2.28v-1.26h.227v1.26Zm.439,2.549-.128.793-.227-.042.128-.779Zm.651-3.809-.113,1.274-.213-.028.1-1.261Zm.765.1-.113,1.274-.227-.028.113-1.26Zm.665.383-.127.977-.213-.014.113-.991Zm.566.2-.127.977-.227-.028.127-.977Zm.468.283-.128.793-.212-.043.127-.778Z" transform="translate(-605.604 -847.807)" fill="param(fill) #FFF" stroke="param(outline) #000" stroke-width="param(outline-width) 1"/>
  <path d="M665.334,860.228l.269.778-.212.071-.269-.779Zm.58-.283.241.878-.213.057L665.7,860Zm.68-.185.113.978-.212.028-.113-.978Zm.651-2.364.142.778-.227.043-.127-.793Zm.1,2.279.127.978-.212.028-.128-.978Zm.382-2.562.128.878-.227.028-.128-.878Zm.5,2.492-.113,1.161-.213-.028.113-1.161Zm.085-2.775.113,1.076-.227.014-.113-1.076Zm.58,2.959-.113.978-.227-.028.128-.978Zm.17-3.157.113,1.175-.227.028-.113-1.175Zm.51,3.37-.255.878-.212-.057.255-.878Zm.028-2.28v-1.26h.227v1.26Zm.439,2.549-.128.793-.227-.042.128-.779Zm.651-3.809-.113,1.274-.213-.028.1-1.261Zm.765.1-.113,1.274-.227-.028.113-1.26Zm.665.383-.127.977-.213-.014.113-.991Zm.566.2-.127.977-.227-.028.127-.977Zm.468.283-.128.793-.212-.043.127-.778Z" transform="translate(-605.604 -847.807)" fill="param(fill) #FFF" stroke="param(outline) #000" stroke-width="param(outline-width) 1"/>
  <path d="M673.974,860.228l.269.778-.212.071-.269-.779Zm.58-.283.241.878-.213.057-.24-.878Zm.68-.185.113.978-.212.028-.113-.978Zm.651-2.364.142.778-.227.043-.127-.793Zm.1,2.279.127.978-.212.028-.128-.978Zm.382-2.562.128.878-.227.028-.128-.878Zm.5,2.492-.113,1.161-.213-.028.113-1.161Zm.085-2.775.113,1.076-.227.014-.113-1.076Zm.58,2.959-.113.978-.227-.028.128-.978Zm.17-3.157.113,1.175-.227.028-.113-1.175Zm.51,3.37-.255.878-.212-.057.255-.878Zm.028-2.28v-1.26h.227v1.26Zm.439,2.549-.128.793-.227-.042.128-.779Zm.651-3.809-.113,1.274-.213-.028.1-1.261Zm.765.1-.113,1.274-.227-.028.113-1.26Zm.665.383-.127.977-.213-.014.113-.991Zm.566.2-.127.977-.227-.028.127-.977Zm.468.283-.128.793-.212-.043.127-.778Z" transform="translate(-605.604 -847.807)" fill="param(fill) #FFF" stroke="param(outline) #000" stroke-width="param(outline-width) 1"/>
  <path d="M605.815,851.588l.269.778-.212.071-.269-.779Zm.58-.283.241.878-.213.057-.24-.878Zm.68-.185.113.978-.212.028-.113-.978Zm.651-2.364.142.778-.227.043-.127-.793Zm.1,2.279.127.978-.212.028-.128-.978Zm.382-2.562.128.878-.227.028-.128-.878Zm.5,2.492-.113,1.161-.213-.028.113-1.161Zm.085-2.775.113,1.076-.227.014-.113-1.076Zm.58,2.959-.113.978-.227-.028.128-.978Zm.17-3.157.113,1.175-.227.028-.113-1.175Zm.51,3.37-.255.878-.212-.057.255-.878Zm.028-2.28v-1.26h.227v1.26Zm.439,2.549-.128.793-.227-.042.128-.779Zm.651-3.809-.113,1.274-.213-.028.1-1.261Zm.765.1-.113,1.274-.227-.028.113-1.26Zm.665.383-.127.977-.213-.014.113-.991Zm.566.2-.127.977-.227-.028.127-.977Zm.468.283-.128.793-.212-.043.127-.778Z" transform="translate(-605.604 -847.807)" fill="param(fill) #FFF" stroke="param(outline) #000" stroke-width="param(outline-width) 1"/>
  <path d="M614.455,851.588l.269.778-.212.071-.269-.779Zm.58-.283.241.878-.213.057-.24-.878Zm.68-.185.113.978-.212.028-.113-.978Zm.651-2.364.142.778-.227.043-.127-.793Zm.1,2.279.127.978-.212.028-.128-.978Zm.382-2.562.128.878-.227.028-.128-.878Zm.5,2.492-.113,1.161-.213-.028.113-1.161Zm.085-2.775.113,1.076-.227.014L617.2,848.2Zm.58,2.959-.113.978-.227-.028.128-.978Zm.17-3.157.113,1.175-.227.028-.113-1.175Zm.51,3.37-.255.878-.212-.057.255-.878Zm.028-2.28v-1.26h.227v1.26Zm.439,2.549-.128.793-.227-.042.128-.779Zm.651-3.809-.113,1.274-.213-.028.1-1.261Zm.765.1-.113,1.274-.227-.028.113-1.26Zm.665.383-.127.977-.213-.014.113-.991Zm.566.2-.127.977-.227-.028.127-.977Zm.468.283-.128.793-.212-.043.127-.778Z" transform="translate(-605.604 -847.807)" fill="param(fill) #FFF" stroke="param(outline) #000" stroke-width="param(outline-width) 1"/>
  <path d="M622.854,851.588l.269.778-.212.071-.269-.779Zm.58-.283.241.878-.213.057-.24-.878Zm.68-.185.113.978-.212.028-.113-.978Zm.651-2.364.142.778-.227.043-.127-.793Zm.1,2.279.127.978-.212.028-.128-.978Zm.382-2.562.128.878-.227.028-.128-.878Zm.5,2.492-.113,1.161-.213-.028.113-1.161Zm.085-2.775.113,1.076-.227.014L625.6,848.2Zm.58,2.959-.113.978-.227-.028.128-.978Zm.17-3.157.113,1.175-.227.028-.113-1.175Zm.51,3.37-.255.878-.212-.057.255-.878Zm.028-2.28v-1.26h.227v1.26Zm.439,2.549-.128.793-.227-.042.128-.779Zm.651-3.809-.113,1.274-.213-.028.1-1.261Zm.765.1-.113,1.274-.227-.028.113-1.26Zm.665.383-.127.977-.213-.014.113-.991Zm.566.2-.127.977-.227-.028.127-.977Zm.468.283-.128.793-.212-.043.127-.778Z" transform="translate(-605.604 -847.807)" fill="param(fill) #FFF" stroke="param(outline) #000" stroke-width="param(outline-width) 1"/>
  <path d="M631.5,851.588l.269.778-.212.071-.269-.779Zm.58-.283.241.878-.213.057-.24-.878Zm.68-.185.113.978-.212.028-.113-.978Zm.651-2.364.142.778-.227.043-.127-.793Zm.1,2.279.127.978-.212.028-.128-.978Zm.382-2.562.128.878-.227.028-.128-.878Zm.5,2.492-.113,1.161-.213-.028.113-1.161Zm.085-2.775.113,1.076-.227.014-.113-1.076Zm.58,2.959-.113.978-.227-.028.128-.978Zm.17-3.157.113,1.175-.227.028-.113-1.175Zm.51,3.37-.255.878-.212-.057.255-.878Zm.028-2.28v-1.26h.227v1.26Zm.439,2.549-.128.793-.227-.042.128-.779Zm.651-3.809-.113,1.274-.213-.028.1-1.261Zm.765.1-.113,1.274-.227-.028.113-1.26Zm.665.383-.127.977-.213-.014.113-.991Zm.566.2-.127.977-.227-.028.127-.977Zm.468.283-.128.793-.212-.043.127-.778Z" transform="translate(-605.604 -847.807)" fill="param(fill) #FFF" stroke="param(outline) #000" stroke-width="param(outline-width) 1"/>
  <path d="M639.895,851.588l.269.778-.212.071-.269-.779Zm.58-.283.241.878-.213.057-.24-.878Zm.68-.185.113.978-.212.028-.113-.978Zm.651-2.364.142.778-.227.043-.127-.793Zm.1,2.279.127.978-.212.028-.128-.978Zm.382-2.562.128.878-.227.028-.128-.878Zm.5,2.492-.113,1.161-.213-.028.113-1.161Zm.085-2.775.113,1.076-.227.014-.113-1.076Zm.58,2.959-.113.978-.227-.028.128-.978Zm.17-3.157.113,1.175-.227.028-.113-1.175Zm.51,3.37-.255.878-.212-.057.255-.878Zm.028-2.28v-1.26h.227v1.26Zm.439,2.549-.128.793-.227-.042.128-.779Zm.651-3.809-.113,1.274-.213-.028.1-1.261Zm.765.1-.113,1.274-.227-.028.113-1.26Zm.665.383-.127.977-.213-.014.113-.991Zm.566.2-.127.977-.227-.028.127-.977Zm.468.283-.128.793-.212-.043.127-.778Z" transform="translate(-605.604 -847.807)" fill="param(fill) #FFF" stroke="param(outline) #000" stroke-width="param(outline-width) 1"/>
  <path d="M648.294,851.588l.269.778-.212.071-.269-.779Zm.58-.283.241.878-.213.057-.24-.878Zm.68-.185.113.978-.212.028-.113-.978Zm.651-2.364.142.778-.227.043-.127-.793Zm.1,2.279.127.978-.212.028-.128-.978Zm.382-2.562.128.878-.227.028-.128-.878Zm.5,2.492-.113,1.161-.213-.028.113-1.161Zm.085-2.775.113,1.076-.227.014-.113-1.076Zm.58,2.959-.113.978-.227-.028.128-.978Zm.17-3.157.113,1.175-.227.028-.113-1.175Zm.51,3.37-.255.878-.212-.057.255-.878Zm.028-2.28v-1.26h.227v1.26ZM653,851.63l-.128.793-.227-.042.128-.779Zm.651-3.809-.113,1.274-.213-.028.1-1.261Zm.765.1-.113,1.274-.227-.028.113-1.26Zm.665.383-.127.977-.213-.014.113-.991Zm.566.2-.127.977-.227-.028.127-.977Zm.468.283-.128.793-.212-.043.127-.778Z" transform="translate(-605.604 -847.807)" fill="param(fill) #FFF" stroke="param(outline) #000" stroke-width="param(outline-width) 1"/>
  <path d="M656.935,851.588l.269.778-.212.071-.269-.779Zm.58-.283.241.878-.213.057-.24-.878Zm.68-.185.113.978-.212.028-.113-.978Zm.651-2.364.142.778-.227.043-.127-.793Zm.1,2.279.127.978-.212.028-.128-.978Zm.382-2.562.128.878-.227.028-.128-.878Zm.5,2.492-.113,1.161-.213-.028.113-1.161Zm.085-2.775.113,1.076-.227.014-.113-1.076Zm.58,2.959-.113.978-.227-.028.128-.978Zm.17-3.157.113,1.175-.227.028-.113-1.175Zm.51,3.37-.255.878-.212-.057.255-.878Zm.028-2.28v-1.26h.227v1.26Zm.439,2.549-.128.793-.227-.042.128-.779Zm.651-3.809-.113,1.274-.213-.028.1-1.261Zm.765.1-.113,1.274-.227-.028.113-1.26Zm.665.383-.127.977-.213-.014.113-.991Zm.566.2-.127.977-.227-.028.127-.977Zm.468.283-.128.793-.212-.043.127-.778Z" transform="translate(-605.604 -847.807)" fill="param(fill) #FFF" stroke="param(outline) #000" stroke-width="param(outline-width) 1"/>
  <path d="M665.334,851.588l.269.778-.212.071-.269-.779Zm.58-.283.241.878-.213.057-.24-.878Zm.68-.185.113.978-.212.028-.113-.978Zm.651-2.364.142.778-.227.043-.127-.793Zm.1,2.279.127.978-.212.028-.128-.978Zm.382-2.562.128.878-.227.028-.128-.878Zm.5,2.492-.113,1.161-.213-.028.113-1.161Zm.085-2.775.113,1.076-.227.014-.113-1.076Zm.58,2.959-.113.978-.227-.028.128-.978Zm.17-3.157.113,1.175-.227.028-.113-1.175Zm.51,3.37-.255.878-.212-.057.255-.878Zm.028-2.28v-1.26h.227v1.26Zm.439,2.549-.128.793-.227-.042.128-.779Zm.651-3.809-.113,1.274-.213-.028.1-1.261Zm.765.1-.113,1.274-.227-.028.113-1.26Zm.665.383-.127.977-.213-.014.113-.991Zm.566.2-.127.977-.227-.028.127-.977Zm.468.283-.128.793-.212-.043.127-.778Z" transform="translate(-605.604 -847.807)" fill="param(fill) #FFF" stroke="param(outline) #000" stroke-width="param(outline-width) 1"/>
  <path d="M673.974,851.588l.269.778-.212.071-.269-.779Zm.58-.283.241.878-.213.057-.24-.878Zm.68-.185.113.978-.212.028-.113-.978Zm.651-2.364.142.778-.227.043-.127-.793Zm.1,2.279.127.978-.212.028-.128-.978Zm.382-2.562.128.878-.227.028-.128-.878Zm.5,2.492-.113,1.161-.213-.028.113-1.161Zm.085-2.775.113,1.076-.227.014-.113-1.076Zm.58,2.959-.113.978-.227-.028.128-.978Zm.17-3.157.113,1.175-.227.028-.113-1.175Zm.51,3.37-.255.878-.212-.057L678,851.3Zm.028-2.28v-1.26h.227v1.26Zm.439,2.549-.128.793-.227-.042.128-.779Zm.651-3.809-.113,1.274-.213-.028.1-1.261Zm.765.1-.113,1.274-.227-.028.113-1.26Zm.665.383-.127.977-.213-.014.113-.991Zm.566.2-.127.977-.227-.028.127-.977Zm.468.283-.128.793-.212-.043.127-.778Z" transform="translate(-605.604 -847.807)" fill="param(fill) #FFF" stroke="param(outline) #000" stroke-width="param(outline-width) 1"/>
  <polygon points="4.453 7.553 4.453 23.392 11.653 23.872 16.693 25.072 22.693 25.072 26.773 25.552 30.853 24.352 34.213 23.392 37.573 22.912 40.213 22.432 42.373 21.952 48.132 20.273 54.612 18.833 59.892 18.593 69.012 18.353 69.012 7.553 35.413 7.553 4.453 7.553" style="fill: none;fill-rule: evenodd"/>
</svg>
