<svg xmlns="http://www.w3.org/2000/svg" viewBox="0 0 36 36"><title>intermittent_water</title><rect width="36" height="36" style="fill:none"/><path d="M696.437,640.94a.252.252,0,1,0-.252.252.251.251,0,0,0,.252-.252" transform="translate(-694.976 -607.805)" style="fill:#00b4c8"/><path d="M697.5,642.53a.252.252,0,1,0-.252.252.253.253,0,0,0,.252-.252" transform="translate(-694.976 -607.805)" style="fill:#00b4c8"/><path d="M696.9,639.076a.252.252,0,1,0-.252.252.253.253,0,0,0,.252-.252" transform="translate(-694.976 -607.805)" style="fill:#00b4c8"/><path d="M698.388,637.946a.252.252,0,1,0-.252.252.252.252,0,0,0,.252-.252" transform="translate(-694.976 -607.805)" style="fill:#00b4c8"/><path d="M699.816,637.35a.252.252,0,1,0-.252.252.252.252,0,0,0,.252-.252" transform="translate(-694.976 -607.805)" style="fill:#00b4c8"/><path d="M699.7,639.315a.252.252,0,1,0-.252.252.252.252,0,0,0,.252-.252" transform="translate(-694.976 -607.805)" style="fill:#00b4c8"/><path d="M698.269,640.448a.252.252,0,1,0-.252.252.252.252,0,0,0,.252-.252" transform="translate(-694.976 -607.805)" style="fill:#00b4c8"/><path d="M701.185,637.887a.252.252,0,1,0-.5,0,.252.252,0,0,0,.5,0" transform="translate(-694.976 -607.805)" style="fill:#00b4c8"/><path d="M700.769,640.506a.252.252,0,1,0-.252.252.25.25,0,0,0,.252-.252" transform="translate(-694.976 -607.805)" style="fill:#00b4c8"/><path d="M701.958,639.614a.252.252,0,1,0-.5,0,.252.252,0,1,0,.5,0" transform="translate(-694.976 -607.805)" style="fill:#00b4c8"/><path d="M702.138,641.221a.252.252,0,1,0-.252.252.251.251,0,0,0,.252-.252" transform="translate(-694.976 -607.805)" style="fill:#00b4c8"/><path d="M701.007,642.53a.252.252,0,1,0-.252.252.251.251,0,0,0,.252-.252" transform="translate(-694.976 -607.805)" style="fill:#00b4c8"/><path d="M699.7,641.817a.252.252,0,1,0-.5,0,.252.252,0,0,0,.5,0" transform="translate(-694.976 -607.805)" style="fill:#00b4c8"/><path d="M699.1,643.364a.252.252,0,1,0-.252.252.251.251,0,0,0,.252-.252" transform="translate(-694.976 -607.805)" style="fill:#00b4c8"/><path d="M697.074,637.053a.252.252,0,1,0-.252.252.252.252,0,0,0,.252-.252" transform="translate(-694.976 -607.805)" style="fill:#00b4c8"/><path d="M695.572,637.946a.252.252,0,1,0-.252.252.252.252,0,0,0,.252-.252" transform="translate(-694.976 -607.805)" style="fill:#00b4c8"/><path d="M695.525,643.065a.252.252,0,1,0-.252.252.251.251,0,0,0,.252-.252" transform="translate(-694.976 -607.805)" style="fill:#00b4c8"/><path d="M703.64,640.94a.252.252,0,1,0-.252.252.251.251,0,0,0,.252-.252" transform="translate(-694.976 -607.805)" style="fill:#00b4c8"/><path d="M704.7,642.53a.252.252,0,1,0-.252.252.253.253,0,0,0,.252-.252" transform="translate(-694.976 -607.805)" style="fill:#00b4c8"/><path d="M704.1,639.076a.252.252,0,1,0-.252.252.253.253,0,0,0,.252-.252" transform="translate(-694.976 -607.805)" style="fill:#00b4c8"/><path d="M705.591,637.946a.252.252,0,1,0-.252.252.252.252,0,0,0,.252-.252" transform="translate(-694.976 -607.805)" style="fill:#00b4c8"/><path d="M707.019,637.35a.252.252,0,1,0-.252.252.251.251,0,0,0,.252-.252" transform="translate(-694.976 -607.805)" style="fill:#00b4c8"/><path d="M706.9,639.315a.252.252,0,1,0-.252.252.251.251,0,0,0,.252-.252" transform="translate(-694.976 -607.805)" style="fill:#00b4c8"/><path d="M705.472,640.448a.252.252,0,1,0-.252.252.252.252,0,0,0,.252-.252" transform="translate(-694.976 -607.805)" style="fill:#00b4c8"/><path d="M708.388,637.887a.252.252,0,1,0-.5,0,.252.252,0,0,0,.5,0" transform="translate(-694.976 -607.805)" style="fill:#00b4c8"/><path d="M707.972,640.506a.252.252,0,0,0-.5,0,.252.252,0,0,0,.5,0" transform="translate(-694.976 -607.805)" style="fill:#00b4c8"/><path d="M709.162,639.614a.252.252,0,1,0-.5,0,.252.252,0,1,0,.5,0" transform="translate(-694.976 -607.805)" style="fill:#00b4c8"/><path d="M709.341,641.221a.252.252,0,1,0-.252.252.251.251,0,0,0,.252-.252" transform="translate(-694.976 -607.805)" style="fill:#00b4c8"/><path d="M708.21,642.53a.252.252,0,1,0-.252.252.251.251,0,0,0,.252-.252" transform="translate(-694.976 -607.805)" style="fill:#00b4c8"/><path d="M706.9,641.817a.252.252,0,1,0-.5,0,.252.252,0,0,0,.5,0" transform="translate(-694.976 -607.805)" style="fill:#00b4c8"/><path d="M706.3,643.364a.252.252,0,0,0-.5,0,.252.252,0,1,0,.5,0" transform="translate(-694.976 -607.805)" style="fill:#00b4c8"/><path d="M704.279,637.053a.252.252,0,1,0-.252.252.252.252,0,0,0,.252-.252" transform="translate(-694.976 -607.805)" style="fill:#00b4c8"/><path d="M702.777,637.946a.252.252,0,1,0-.252.252.252.252,0,0,0,.252-.252" transform="translate(-694.976 -607.805)" style="fill:#00b4c8"/><path d="M702.728,643.065a.252.252,0,1,0-.252.252.251.251,0,0,0,.252-.252" transform="translate(-694.976 -607.805)" style="fill:#00b4c8"/><path d="M710.841,640.94a.252.252,0,1,0-.252.252.251.251,0,0,0,.252-.252" transform="translate(-694.976 -607.805)" style="fill:#00b4c8"/><path d="M711.9,642.53a.252.252,0,1,0-.252.252.253.253,0,0,0,.252-.252" transform="translate(-694.976 -607.805)" style="fill:#00b4c8"/><path d="M711.3,639.076a.252.252,0,1,0-.252.252.253.253,0,0,0,.252-.252" transform="translate(-694.976 -607.805)" style="fill:#00b4c8"/><path d="M712.792,637.946a.252.252,0,1,0-.251.252.252.252,0,0,0,.251-.252" transform="translate(-694.976 -607.805)" style="fill:#00b4c8"/><path d="M714.22,637.35a.252.252,0,1,0-.252.252.251.251,0,0,0,.252-.252" transform="translate(-694.976 -607.805)" style="fill:#00b4c8"/><path d="M714.1,639.315a.252.252,0,1,0-.252.252.251.251,0,0,0,.252-.252" transform="translate(-694.976 -607.805)" style="fill:#00b4c8"/><path d="M712.673,640.448a.252.252,0,1,0-.252.252.252.252,0,0,0,.252-.252" transform="translate(-694.976 -607.805)" style="fill:#00b4c8"/><path d="M715.589,637.887a.252.252,0,1,0-.5,0,.252.252,0,0,0,.5,0" transform="translate(-694.976 -607.805)" style="fill:#00b4c8"/><path d="M715.173,640.506a.252.252,0,0,0-.5,0,.252.252,0,0,0,.5,0" transform="translate(-694.976 -607.805)" style="fill:#00b4c8"/><path d="M716.363,639.614a.252.252,0,1,0-.5,0,.252.252,0,1,0,.5,0" transform="translate(-694.976 -607.805)" style="fill:#00b4c8"/><path d="M716.542,641.221a.252.252,0,1,0-.251.252.251.251,0,0,0,.251-.252" transform="translate(-694.976 -607.805)" style="fill:#00b4c8"/><path d="M715.411,642.53a.252.252,0,1,0-.251.252.251.251,0,0,0,.251-.252" transform="translate(-694.976 -607.805)" style="fill:#00b4c8"/><path d="M714.1,641.817a.252.252,0,1,0-.5,0,.252.252,0,0,0,.5,0" transform="translate(-694.976 -607.805)" style="fill:#00b4c8"/><path d="M713.5,643.364a.252.252,0,0,0-.5,0,.252.252,0,1,0,.5,0" transform="translate(-694.976 -607.805)" style="fill:#00b4c8"/><path d="M711.48,637.053a.252.252,0,1,0-.252.252.251.251,0,0,0,.252-.252" transform="translate(-694.976 -607.805)" style="fill:#00b4c8"/><path d="M709.978,637.946a.252.252,0,1,0-.252.252.251.251,0,0,0,.252-.252" transform="translate(-694.976 -607.805)" style="fill:#00b4c8"/><path d="M709.929,643.065a.252.252,0,1,0-.252.252.251.251,0,0,0,.252-.252" transform="translate(-694.976 -607.805)" style="fill:#00b4c8"/><path d="M718.044,640.94a.252.252,0,1,0-.252.252.251.251,0,0,0,.252-.252" transform="translate(-694.976 -607.805)" style="fill:#00b4c8"/><path d="M719.1,642.53a.252.252,0,1,0-.252.252.252.252,0,0,0,.252-.252" transform="translate(-694.976 -607.805)" style="fill:#00b4c8"/><path d="M718.507,639.076a.252.252,0,1,0-.252.252.253.253,0,0,0,.252-.252" transform="translate(-694.976 -607.805)" style="fill:#00b4c8"/><path d="M720,637.946a.252.252,0,1,0-.252.252.253.253,0,0,0,.252-.252" transform="translate(-694.976 -607.805)" style="fill:#00b4c8"/><path d="M721.423,637.35a.252.252,0,1,0-.252.252.251.251,0,0,0,.252-.252" transform="translate(-694.976 -607.805)" style="fill:#00b4c8"/><path d="M721.3,639.315a.252.252,0,1,0-.5,0,.252.252,0,0,0,.5,0" transform="translate(-694.976 -607.805)" style="fill:#00b4c8"/><path d="M719.876,640.448a.252.252,0,1,0-.252.252.252.252,0,0,0,.252-.252" transform="translate(-694.976 -607.805)" style="fill:#00b4c8"/><path d="M722.792,637.887a.252.252,0,1,0-.5,0,.252.252,0,1,0,.5,0" transform="translate(-694.976 -607.805)" style="fill:#00b4c8"/><path d="M722.376,640.506a.252.252,0,0,0-.5,0,.252.252,0,0,0,.5,0" transform="translate(-694.976 -607.805)" style="fill:#00b4c8"/><path d="M723.566,639.614a.252.252,0,1,0-.5,0,.252.252,0,1,0,.5,0" transform="translate(-694.976 -607.805)" style="fill:#00b4c8"/><path d="M723.746,641.221a.252.252,0,1,0-.252.252.252.252,0,0,0,.252-.252" transform="translate(-694.976 -607.805)" style="fill:#00b4c8"/><path d="M722.615,642.53a.252.252,0,1,0-.252.252.252.252,0,0,0,.252-.252" transform="translate(-694.976 -607.805)" style="fill:#00b4c8"/><path d="M721.3,641.817a.252.252,0,1,0-.5,0,.252.252,0,0,0,.5,0" transform="translate(-694.976 -607.805)" style="fill:#00b4c8"/><path d="M720.708,643.364a.252.252,0,1,0-.252.252.251.251,0,0,0,.252-.252" transform="translate(-694.976 -607.805)" style="fill:#00b4c8"/><path d="M718.681,637.053a.252.252,0,1,0-.252.252.251.251,0,0,0,.252-.252" transform="translate(-694.976 -607.805)" style="fill:#00b4c8"/><path d="M717.179,637.946a.252.252,0,1,0-.252.252.251.251,0,0,0,.252-.252" transform="translate(-694.976 -607.805)" style="fill:#00b4c8"/><path d="M717.132,643.065a.252.252,0,1,0-.252.252.251.251,0,0,0,.252-.252" transform="translate(-694.976 -607.805)" style="fill:#00b4c8"/><path d="M725.232,640.94a.252.252,0,1,0-.252.252.251.251,0,0,0,.252-.252" transform="translate(-694.976 -607.805)" style="fill:#00b4c8"/><path d="M726.291,642.53a.252.252,0,1,0-.252.252.253.253,0,0,0,.252-.252" transform="translate(-694.976 -607.805)" style="fill:#00b4c8"/><path d="M725.695,639.076a.252.252,0,1,0-.252.252.254.254,0,0,0,.252-.252" transform="translate(-694.976 -607.805)" style="fill:#00b4c8"/><path d="M727.183,637.946a.252.252,0,1,0-.252.252.252.252,0,0,0,.252-.252" transform="translate(-694.976 -607.805)" style="fill:#00b4c8"/><path d="M728.611,637.35a.252.252,0,1,0-.252.252.252.252,0,0,0,.252-.252" transform="translate(-694.976 -607.805)" style="fill:#00b4c8"/><path d="M728.492,639.315a.252.252,0,1,0-.252.252.252.252,0,0,0,.252-.252" transform="translate(-694.976 -607.805)" style="fill:#00b4c8"/><path d="M727.064,640.448a.252.252,0,1,0-.252.252.252.252,0,0,0,.252-.252" transform="translate(-694.976 -607.805)" style="fill:#00b4c8"/><path d="M729.98,637.887a.252.252,0,1,0-.5,0,.252.252,0,0,0,.5,0" transform="translate(-694.976 -607.805)" style="fill:#00b4c8"/><path d="M729.564,640.506a.252.252,0,1,0-.252.252.25.25,0,0,0,.252-.252" transform="translate(-694.976 -607.805)" style="fill:#00b4c8"/><path d="M730.753,639.614a.252.252,0,0,0-.5,0,.252.252,0,0,0,.5,0" transform="translate(-694.976 -607.805)" style="fill:#00b4c8"/><path d="M730.933,641.221a.252.252,0,1,0-.252.252.251.251,0,0,0,.252-.252" transform="translate(-694.976 -607.805)" style="fill:#00b4c8"/><path d="M729.8,642.53a.252.252,0,1,0-.252.252.251.251,0,0,0,.252-.252" transform="translate(-694.976 -607.805)" style="fill:#00b4c8"/><path d="M728.492,641.817a.252.252,0,1,0-.5,0,.252.252,0,0,0,.5,0" transform="translate(-694.976 -607.805)" style="fill:#00b4c8"/><path d="M727.9,643.364a.252.252,0,1,0-.252.252.251.251,0,0,0,.252-.252" transform="translate(-694.976 -607.805)" style="fill:#00b4c8"/><path d="M725.869,637.053a.252.252,0,1,0-.252.252.252.252,0,0,0,.252-.252" transform="translate(-694.976 -607.805)" style="fill:#00b4c8"/><path d="M724.367,637.946a.252.252,0,1,0-.252.252.252.252,0,0,0,.252-.252" transform="translate(-694.976 -607.805)" style="fill:#00b4c8"/><path d="M724.32,643.065a.252.252,0,1,0-.252.252.252.252,0,0,0,.252-.252" transform="translate(-694.976 -607.805)" style="fill:#00b4c8"/><path d="M696.437,633.735a.252.252,0,1,0-.252.252.251.251,0,0,0,.252-.252" transform="translate(-694.976 -607.805)" style="fill:#00b4c8"/><path d="M697.5,635.325a.252.252,0,1,0-.252.251.253.253,0,0,0,.252-.251" transform="translate(-694.976 -607.805)" style="fill:#00b4c8"/><path d="M696.9,631.871a.252.252,0,1,0-.252.252.252.252,0,0,0,.252-.252" transform="translate(-694.976 -607.805)" style="fill:#00b4c8"/><path d="M698.388,630.74a.252.252,0,1,0-.252.253.252.252,0,0,0,.252-.253" transform="translate(-694.976 -607.805)" style="fill:#00b4c8"/><path d="M699.816,630.145a.252.252,0,1,0-.252.252.252.252,0,0,0,.252-.252" transform="translate(-694.976 -607.805)" style="fill:#00b4c8"/><path d="M699.7,632.11a.252.252,0,1,0-.252.252.252.252,0,0,0,.252-.252" transform="translate(-694.976 -607.805)" style="fill:#00b4c8"/><path d="M698.269,633.243a.252.252,0,1,0-.252.252.253.253,0,0,0,.252-.252" transform="translate(-694.976 -607.805)" style="fill:#00b4c8"/><path d="M701.185,630.682a.252.252,0,1,0-.5,0,.252.252,0,0,0,.5,0" transform="translate(-694.976 -607.805)" style="fill:#00b4c8"/><path d="M700.769,633.3a.252.252,0,1,0-.5,0,.252.252,0,0,0,.5,0" transform="translate(-694.976 -607.805)" style="fill:#00b4c8"/><path d="M701.958,632.409a.252.252,0,1,0-.5,0,.252.252,0,0,0,.5,0" transform="translate(-694.976 -607.805)" style="fill:#00b4c8"/><path d="M702.138,634.016a.252.252,0,1,0-.252.252.251.251,0,0,0,.252-.252" transform="translate(-694.976 -607.805)" style="fill:#00b4c8"/><path d="M701.007,635.325a.252.252,0,1,0-.252.251.251.251,0,0,0,.252-.251" transform="translate(-694.976 -607.805)" style="fill:#00b4c8"/><path d="M699.7,634.612a.252.252,0,0,0-.5,0,.252.252,0,1,0,.5,0" transform="translate(-694.976 -607.805)" style="fill:#00b4c8"/><path d="M699.1,636.159a.252.252,0,1,0-.252.251.251.251,0,0,0,.252-.251" transform="translate(-694.976 -607.805)" style="fill:#00b4c8"/><path d="M697.074,629.848a.252.252,0,1,0-.252.252.252.252,0,0,0,.252-.252" transform="translate(-694.976 -607.805)" style="fill:#00b4c8"/><path d="M695.572,630.74a.252.252,0,1,0-.252.253.251.251,0,0,0,.252-.253" transform="translate(-694.976 -607.805)" style="fill:#00b4c8"/><path d="M695.525,635.86a.252.252,0,1,0-.252.252.251.251,0,0,0,.252-.252" transform="translate(-694.976 -607.805)" style="fill:#00b4c8"/><path d="M703.64,633.735a.252.252,0,1,0-.252.252.251.251,0,0,0,.252-.252" transform="translate(-694.976 -607.805)" style="fill:#00b4c8"/><path d="M704.7,635.325a.252.252,0,1,0-.252.251.253.253,0,0,0,.252-.251" transform="translate(-694.976 -607.805)" style="fill:#00b4c8"/><path d="M704.1,631.871a.252.252,0,1,0-.252.252.252.252,0,0,0,.252-.252" transform="translate(-694.976 -607.805)" style="fill:#00b4c8"/><path d="M705.591,630.74a.252.252,0,1,0-.252.253.252.252,0,0,0,.252-.253" transform="translate(-694.976 -607.805)" style="fill:#00b4c8"/><path d="M707.019,630.145a.252.252,0,1,0-.252.252.251.251,0,0,0,.252-.252" transform="translate(-694.976 -607.805)" style="fill:#00b4c8"/><path d="M706.9,632.11a.252.252,0,1,0-.252.252.251.251,0,0,0,.252-.252" transform="translate(-694.976 -607.805)" style="fill:#00b4c8"/><path d="M705.472,633.243a.252.252,0,1,0-.252.252.253.253,0,0,0,.252-.252" transform="translate(-694.976 -607.805)" style="fill:#00b4c8"/><path d="M708.388,630.682a.252.252,0,1,0-.5,0,.252.252,0,0,0,.5,0" transform="translate(-694.976 -607.805)" style="fill:#00b4c8"/><path d="M707.972,633.3a.252.252,0,1,0-.5,0,.252.252,0,0,0,.5,0" transform="translate(-694.976 -607.805)" style="fill:#00b4c8"/><path d="M709.162,632.409a.252.252,0,1,0-.252.251.25.25,0,0,0,.252-.251" transform="translate(-694.976 -607.805)" style="fill:#00b4c8"/><path d="M709.341,634.016a.252.252,0,1,0-.252.252.251.251,0,0,0,.252-.252" transform="translate(-694.976 -607.805)" style="fill:#00b4c8"/><path d="M708.21,635.325a.252.252,0,1,0-.252.251.251.251,0,0,0,.252-.251" transform="translate(-694.976 -607.805)" style="fill:#00b4c8"/><path d="M706.9,634.612a.252.252,0,0,0-.5,0,.252.252,0,1,0,.5,0" transform="translate(-694.976 -607.805)" style="fill:#00b4c8"/><path d="M706.3,636.159a.252.252,0,1,0-.252.251.251.251,0,0,0,.252-.251" transform="translate(-694.976 -607.805)" style="fill:#00b4c8"/><path d="M704.279,629.848a.252.252,0,1,0-.252.252.252.252,0,0,0,.252-.252" transform="translate(-694.976 -607.805)" style="fill:#00b4c8"/><path d="M702.777,630.74a.252.252,0,1,0-.252.253.251.251,0,0,0,.252-.253" transform="translate(-694.976 -607.805)" style="fill:#00b4c8"/><path d="M702.728,635.86a.252.252,0,1,0-.252.252.251.251,0,0,0,.252-.252" transform="translate(-694.976 -607.805)" style="fill:#00b4c8"/><path d="M710.841,633.735a.252.252,0,1,0-.252.252.251.251,0,0,0,.252-.252" transform="translate(-694.976 -607.805)" style="fill:#00b4c8"/><path d="M711.9,635.325a.252.252,0,1,0-.252.251.253.253,0,0,0,.252-.251" transform="translate(-694.976 -607.805)" style="fill:#00b4c8"/><path d="M711.3,631.871a.252.252,0,1,0-.252.252.252.252,0,0,0,.252-.252" transform="translate(-694.976 -607.805)" style="fill:#00b4c8"/><path d="M712.792,630.74a.252.252,0,1,0-.251.253.252.252,0,0,0,.251-.253" transform="translate(-694.976 -607.805)" style="fill:#00b4c8"/><path d="M714.22,630.145a.252.252,0,1,0-.252.252.251.251,0,0,0,.252-.252" transform="translate(-694.976 -607.805)" style="fill:#00b4c8"/><path d="M714.1,632.11a.252.252,0,1,0-.252.252.251.251,0,0,0,.252-.252" transform="translate(-694.976 -607.805)" style="fill:#00b4c8"/><path d="M712.673,633.243a.252.252,0,1,0-.252.252.253.253,0,0,0,.252-.252" transform="translate(-694.976 -607.805)" style="fill:#00b4c8"/><path d="M715.589,630.682a.252.252,0,1,0-.5,0,.252.252,0,0,0,.5,0" transform="translate(-694.976 -607.805)" style="fill:#00b4c8"/><path d="M715.173,633.3a.252.252,0,1,0-.5,0,.252.252,0,0,0,.5,0" transform="translate(-694.976 -607.805)" style="fill:#00b4c8"/><path d="M716.363,632.409a.252.252,0,1,0-.252.251.25.25,0,0,0,.252-.251" transform="translate(-694.976 -607.805)" style="fill:#00b4c8"/><path d="M716.542,634.016a.252.252,0,1,0-.251.252.251.251,0,0,0,.251-.252" transform="translate(-694.976 -607.805)" style="fill:#00b4c8"/><path d="M715.411,635.325a.252.252,0,1,0-.251.251.251.251,0,0,0,.251-.251" transform="translate(-694.976 -607.805)" style="fill:#00b4c8"/><path d="M714.1,634.612a.252.252,0,0,0-.5,0,.252.252,0,1,0,.5,0" transform="translate(-694.976 -607.805)" style="fill:#00b4c8"/><path d="M713.5,636.159a.252.252,0,1,0-.252.251.251.251,0,0,0,.252-.251" transform="translate(-694.976 -607.805)" style="fill:#00b4c8"/><path d="M711.48,629.848a.252.252,0,1,0-.252.252.251.251,0,0,0,.252-.252" transform="translate(-694.976 -607.805)" style="fill:#00b4c8"/><path d="M709.978,630.74a.252.252,0,1,0-.252.253.251.251,0,0,0,.252-.253" transform="translate(-694.976 -607.805)" style="fill:#00b4c8"/><path d="M709.929,635.86a.252.252,0,1,0-.252.252.251.251,0,0,0,.252-.252" transform="translate(-694.976 -607.805)" style="fill:#00b4c8"/><path d="M718.044,633.735a.252.252,0,1,0-.252.252.251.251,0,0,0,.252-.252" transform="translate(-694.976 -607.805)" style="fill:#00b4c8"/><path d="M719.1,635.325a.252.252,0,1,0-.252.251.252.252,0,0,0,.252-.251" transform="translate(-694.976 -607.805)" style="fill:#00b4c8"/><path d="M718.507,631.871a.252.252,0,1,0-.252.252.252.252,0,0,0,.252-.252" transform="translate(-694.976 -607.805)" style="fill:#00b4c8"/><path d="M720,630.74a.252.252,0,1,0-.252.253.253.253,0,0,0,.252-.253" transform="translate(-694.976 -607.805)" style="fill:#00b4c8"/><path d="M721.423,630.145a.252.252,0,1,0-.252.252.251.251,0,0,0,.252-.252" transform="translate(-694.976 -607.805)" style="fill:#00b4c8"/><path d="M721.3,632.11a.252.252,0,1,0-.5,0,.252.252,0,0,0,.5,0" transform="translate(-694.976 -607.805)" style="fill:#00b4c8"/><path d="M719.876,633.243a.252.252,0,1,0-.252.252.253.253,0,0,0,.252-.252" transform="translate(-694.976 -607.805)" style="fill:#00b4c8"/><path d="M722.792,630.682a.252.252,0,1,0-.5,0,.252.252,0,1,0,.5,0" transform="translate(-694.976 -607.805)" style="fill:#00b4c8"/><path d="M722.376,633.3a.252.252,0,1,0-.5,0,.252.252,0,0,0,.5,0" transform="translate(-694.976 -607.805)" style="fill:#00b4c8"/><path d="M723.566,632.409a.252.252,0,1,0-.252.251.25.25,0,0,0,.252-.251" transform="translate(-694.976 -607.805)" style="fill:#00b4c8"/><path d="M723.746,634.016a.252.252,0,1,0-.252.252.252.252,0,0,0,.252-.252" transform="translate(-694.976 -607.805)" style="fill:#00b4c8"/><path d="M722.615,635.325a.252.252,0,1,0-.252.251.252.252,0,0,0,.252-.251" transform="translate(-694.976 -607.805)" style="fill:#00b4c8"/><path d="M721.3,634.612a.252.252,0,0,0-.5,0,.252.252,0,1,0,.5,0" transform="translate(-694.976 -607.805)" style="fill:#00b4c8"/><path d="M720.708,636.159a.252.252,0,1,0-.252.251.251.251,0,0,0,.252-.251" transform="translate(-694.976 -607.805)" style="fill:#00b4c8"/><path d="M718.681,629.848a.252.252,0,1,0-.252.252.251.251,0,0,0,.252-.252" transform="translate(-694.976 -607.805)" style="fill:#00b4c8"/><path d="M717.179,630.74a.252.252,0,1,0-.252.253.251.251,0,0,0,.252-.253" transform="translate(-694.976 -607.805)" style="fill:#00b4c8"/><path d="M717.132,635.86a.252.252,0,1,0-.252.252.251.251,0,0,0,.252-.252" transform="translate(-694.976 -607.805)" style="fill:#00b4c8"/><path d="M725.232,633.735a.252.252,0,1,0-.252.252.251.251,0,0,0,.252-.252" transform="translate(-694.976 -607.805)" style="fill:#00b4c8"/><path d="M726.291,635.325a.252.252,0,1,0-.252.251.253.253,0,0,0,.252-.251" transform="translate(-694.976 -607.805)" style="fill:#00b4c8"/><path d="M725.695,631.871a.252.252,0,1,0-.252.252.253.253,0,0,0,.252-.252" transform="translate(-694.976 -607.805)" style="fill:#00b4c8"/><path d="M727.183,630.74a.252.252,0,1,0-.252.253.252.252,0,0,0,.252-.253" transform="translate(-694.976 -607.805)" style="fill:#00b4c8"/><path d="M728.611,630.145a.252.252,0,1,0-.252.252.252.252,0,0,0,.252-.252" transform="translate(-694.976 -607.805)" style="fill:#00b4c8"/><path d="M728.492,632.11a.252.252,0,1,0-.252.252.252.252,0,0,0,.252-.252" transform="translate(-694.976 -607.805)" style="fill:#00b4c8"/><path d="M727.064,633.243a.252.252,0,1,0-.252.252.253.253,0,0,0,.252-.252" transform="translate(-694.976 -607.805)" style="fill:#00b4c8"/><path d="M729.98,630.682a.252.252,0,1,0-.5,0,.252.252,0,0,0,.5,0" transform="translate(-694.976 -607.805)" style="fill:#00b4c8"/><path d="M729.564,633.3a.252.252,0,1,0-.5,0,.252.252,0,0,0,.5,0" transform="translate(-694.976 -607.805)" style="fill:#00b4c8"/><path d="M730.753,632.409a.252.252,0,0,0-.5,0,.252.252,0,0,0,.5,0" transform="translate(-694.976 -607.805)" style="fill:#00b4c8"/><path d="M730.933,634.016a.252.252,0,1,0-.252.252.251.251,0,0,0,.252-.252" transform="translate(-694.976 -607.805)" style="fill:#00b4c8"/><path d="M729.8,635.325a.252.252,0,1,0-.252.251.251.251,0,0,0,.252-.251" transform="translate(-694.976 -607.805)" style="fill:#00b4c8"/><path d="M728.492,634.612a.252.252,0,0,0-.5,0,.252.252,0,1,0,.5,0" transform="translate(-694.976 -607.805)" style="fill:#00b4c8"/><path d="M727.9,636.159a.252.252,0,1,0-.252.251.251.251,0,0,0,.252-.251" transform="translate(-694.976 -607.805)" style="fill:#00b4c8"/><path d="M725.869,629.848a.252.252,0,1,0-.252.252.252.252,0,0,0,.252-.252" transform="translate(-694.976 -607.805)" style="fill:#00b4c8"/><path d="M724.367,630.74a.252.252,0,1,0-.252.253.251.251,0,0,0,.252-.253" transform="translate(-694.976 -607.805)" style="fill:#00b4c8"/><path d="M724.32,635.86a.252.252,0,1,0-.252.252.252.252,0,0,0,.252-.252" transform="translate(-694.976 -607.805)" style="fill:#00b4c8"/><path d="M696.437,619.328a.252.252,0,1,0-.252.252.252.252,0,0,0,.252-.252" transform="translate(-694.976 -607.805)" style="fill:#00b4c8"/><path d="M697.5,620.918a.252.252,0,0,0-.5,0,.252.252,0,0,0,.5,0" transform="translate(-694.976 -607.805)" style="fill:#00b4c8"/><path d="M696.9,617.465a.252.252,0,1,0-.252.252.252.252,0,0,0,.252-.252" transform="translate(-694.976 -607.805)" style="fill:#00b4c8"/><path d="M698.388,616.334a.252.252,0,1,0-.252.252.253.253,0,0,0,.252-.252" transform="translate(-694.976 -607.805)" style="fill:#00b4c8"/><path d="M699.816,615.739a.252.252,0,1,0-.252.251.252.252,0,0,0,.252-.251" transform="translate(-694.976 -607.805)" style="fill:#00b4c8"/><path d="M699.7,617.7a.252.252,0,1,0-.252.252.252.252,0,0,0,.252-.252" transform="translate(-694.976 -607.805)" style="fill:#00b4c8"/><path d="M698.269,618.836a.252.252,0,1,0-.252.252.253.253,0,0,0,.252-.252" transform="translate(-694.976 -607.805)" style="fill:#00b4c8"/><path d="M701.185,616.276a.252.252,0,0,0-.5,0,.252.252,0,0,0,.5,0" transform="translate(-694.976 -607.805)" style="fill:#00b4c8"/><path d="M700.769,618.895a.252.252,0,0,0-.5,0,.252.252,0,0,0,.5,0" transform="translate(-694.976 -607.805)" style="fill:#00b4c8"/><path d="M701.958,618a.252.252,0,1,0-.5,0,.252.252,0,1,0,.5,0" transform="translate(-694.976 -607.805)" style="fill:#00b4c8"/><path d="M702.138,619.61a.252.252,0,1,0-.252.252.251.251,0,0,0,.252-.252" transform="translate(-694.976 -607.805)" style="fill:#00b4c8"/><path d="M701.007,620.918a.252.252,0,1,0-.252.252.252.252,0,0,0,.252-.252" transform="translate(-694.976 -607.805)" style="fill:#00b4c8"/><path d="M699.7,620.2a.252.252,0,1,0-.252.252.251.251,0,0,0,.252-.252" transform="translate(-694.976 -607.805)" style="fill:#00b4c8"/><path d="M699.1,621.752a.252.252,0,1,0-.252.252.252.252,0,0,0,.252-.252" transform="translate(-694.976 -607.805)" style="fill:#00b4c8"/><path d="M697.076,615.442a.252.252,0,1,0-.252.252.252.252,0,0,0,.252-.252" transform="translate(-694.976 -607.805)" style="fill:#00b4c8"/><path d="M695.574,616.334a.252.252,0,1,0-.252.252.252.252,0,0,0,.252-.252" transform="translate(-694.976 -607.805)" style="fill:#00b4c8"/><path d="M695.525,621.453a.252.252,0,1,0-.252.252.252.252,0,0,0,.252-.252" transform="translate(-694.976 -607.805)" style="fill:#00b4c8"/><path d="M703.64,619.328a.252.252,0,1,0-.252.252.252.252,0,0,0,.252-.252" transform="translate(-694.976 -607.805)" style="fill:#00b4c8"/><path d="M704.7,620.918a.252.252,0,1,0-.5,0,.252.252,0,0,0,.5,0" transform="translate(-694.976 -607.805)" style="fill:#00b4c8"/><path d="M704.1,617.465a.252.252,0,1,0-.252.252.252.252,0,0,0,.252-.252" transform="translate(-694.976 -607.805)" style="fill:#00b4c8"/><path d="M705.591,616.334a.252.252,0,1,0-.252.252.253.253,0,0,0,.252-.252" transform="translate(-694.976 -607.805)" style="fill:#00b4c8"/><path d="M707.019,615.739a.252.252,0,1,0-.252.251.251.251,0,0,0,.252-.251" transform="translate(-694.976 -607.805)" style="fill:#00b4c8"/><path d="M706.9,617.7a.252.252,0,1,0-.252.252.252.252,0,0,0,.252-.252" transform="translate(-694.976 -607.805)" style="fill:#00b4c8"/><path d="M705.472,618.836a.252.252,0,1,0-.252.252.253.253,0,0,0,.252-.252" transform="translate(-694.976 -607.805)" style="fill:#00b4c8"/><path d="M708.388,616.276a.252.252,0,1,0-.5,0,.252.252,0,0,0,.5,0" transform="translate(-694.976 -607.805)" style="fill:#00b4c8"/><path d="M707.972,618.895a.252.252,0,0,0-.5,0,.252.252,0,0,0,.5,0" transform="translate(-694.976 -607.805)" style="fill:#00b4c8"/><path d="M709.162,618a.252.252,0,1,0-.252.252.251.251,0,0,0,.252-.252" transform="translate(-694.976 -607.805)" style="fill:#00b4c8"/><path d="M709.341,619.61a.252.252,0,1,0-.5,0,.252.252,0,0,0,.5,0" transform="translate(-694.976 -607.805)" style="fill:#00b4c8"/><path d="M708.21,620.918a.252.252,0,1,0-.252.252.252.252,0,0,0,.252-.252" transform="translate(-694.976 -607.805)" style="fill:#00b4c8"/><path d="M706.9,620.2a.252.252,0,1,0-.252.252.25.25,0,0,0,.252-.252" transform="translate(-694.976 -607.805)" style="fill:#00b4c8"/><path d="M706.3,621.752a.252.252,0,1,0-.252.252.252.252,0,0,0,.252-.252" transform="translate(-694.976 -607.805)" style="fill:#00b4c8"/><path d="M704.279,615.442a.252.252,0,1,0-.252.252.252.252,0,0,0,.252-.252" transform="translate(-694.976 -607.805)" style="fill:#00b4c8"/><path d="M702.777,616.334a.252.252,0,1,0-.252.252.252.252,0,0,0,.252-.252" transform="translate(-694.976 -607.805)" style="fill:#00b4c8"/><path d="M702.728,621.453a.252.252,0,1,0-.252.252.252.252,0,0,0,.252-.252" transform="translate(-694.976 -607.805)" style="fill:#00b4c8"/><path d="M710.843,619.328a.252.252,0,1,0-.252.252.252.252,0,0,0,.252-.252" transform="translate(-694.976 -607.805)" style="fill:#00b4c8"/><path d="M711.9,620.918a.252.252,0,1,0-.252.252.253.253,0,0,0,.252-.252" transform="translate(-694.976 -607.805)" style="fill:#00b4c8"/><path d="M711.306,617.465a.252.252,0,1,0-.252.252.252.252,0,0,0,.252-.252" transform="translate(-694.976 -607.805)" style="fill:#00b4c8"/><path d="M712.794,616.334a.252.252,0,1,0-.252.252.253.253,0,0,0,.252-.252" transform="translate(-694.976 -607.805)" style="fill:#00b4c8"/><path d="M714.222,615.739a.252.252,0,1,0-.252.251.251.251,0,0,0,.252-.251" transform="translate(-694.976 -607.805)" style="fill:#00b4c8"/><path d="M714.1,617.7a.252.252,0,1,0-.252.252.252.252,0,0,0,.252-.252" transform="translate(-694.976 -607.805)" style="fill:#00b4c8"/><path d="M712.675,618.836a.252.252,0,1,0-.252.252.253.253,0,0,0,.252-.252" transform="translate(-694.976 -607.805)" style="fill:#00b4c8"/><path d="M715.591,616.276a.252.252,0,1,0-.5,0,.252.252,0,0,0,.5,0" transform="translate(-694.976 -607.805)" style="fill:#00b4c8"/><path d="M715.175,618.895a.252.252,0,1,0-.5,0,.252.252,0,1,0,.5,0" transform="translate(-694.976 -607.805)" style="fill:#00b4c8"/><path d="M716.365,618a.252.252,0,1,0-.252.252.251.251,0,0,0,.252-.252" transform="translate(-694.976 -607.805)" style="fill:#00b4c8"/><path d="M716.544,619.61a.252.252,0,1,0-.252.252.251.251,0,0,0,.252-.252" transform="translate(-694.976 -607.805)" style="fill:#00b4c8"/><path d="M715.414,620.918a.252.252,0,1,0-.252.252.252.252,0,0,0,.252-.252" transform="translate(-694.976 -607.805)" style="fill:#00b4c8"/><path d="M714.1,620.2a.252.252,0,1,0-.252.252.25.25,0,0,0,.252-.252" transform="translate(-694.976 -607.805)" style="fill:#00b4c8"/><path d="M713.507,621.752a.252.252,0,1,0-.252.252.252.252,0,0,0,.252-.252" transform="translate(-694.976 -607.805)" style="fill:#00b4c8"/><path d="M711.482,615.442a.252.252,0,1,0-.252.252.251.251,0,0,0,.252-.252" transform="translate(-694.976 -607.805)" style="fill:#00b4c8"/><path d="M709.98,616.334a.252.252,0,1,0-.252.252.252.252,0,0,0,.252-.252" transform="translate(-694.976 -607.805)" style="fill:#00b4c8"/><path d="M709.931,621.453a.252.252,0,1,0-.252.252.252.252,0,0,0,.252-.252" transform="translate(-694.976 -607.805)" style="fill:#00b4c8"/><path d="M718.046,619.328a.252.252,0,1,0-.252.252.252.252,0,0,0,.252-.252" transform="translate(-694.976 -607.805)" style="fill:#00b4c8"/><path d="M719.1,620.918a.252.252,0,1,0-.252.252.253.253,0,0,0,.252-.252" transform="translate(-694.976 -607.805)" style="fill:#00b4c8"/><path d="M718.509,617.465a.252.252,0,1,0-.252.252.252.252,0,0,0,.252-.252" transform="translate(-694.976 -607.805)" style="fill:#00b4c8"/><path d="M720,616.334a.252.252,0,1,0-.251.252.253.253,0,0,0,.251-.252" transform="translate(-694.976 -607.805)" style="fill:#00b4c8"/><path d="M721.425,615.739a.252.252,0,1,0-.252.251.251.251,0,0,0,.252-.251" transform="translate(-694.976 -607.805)" style="fill:#00b4c8"/><path d="M721.306,617.7a.252.252,0,1,0-.252.252.252.252,0,0,0,.252-.252" transform="translate(-694.976 -607.805)" style="fill:#00b4c8"/><path d="M719.878,618.836a.252.252,0,1,0-.252.252.253.253,0,0,0,.252-.252" transform="translate(-694.976 -607.805)" style="fill:#00b4c8"/><path d="M722.794,616.276a.252.252,0,1,0-.5,0,.252.252,0,1,0,.5,0" transform="translate(-694.976 -607.805)" style="fill:#00b4c8"/><path d="M722.378,618.895a.252.252,0,1,0-.5,0,.252.252,0,1,0,.5,0" transform="translate(-694.976 -607.805)" style="fill:#00b4c8"/><path d="M723.568,618a.252.252,0,1,0-.252.252.251.251,0,0,0,.252-.252" transform="translate(-694.976 -607.805)" style="fill:#00b4c8"/><path d="M723.747,619.61a.252.252,0,1,0-.251.252.251.251,0,0,0,.251-.252" transform="translate(-694.976 -607.805)" style="fill:#00b4c8"/><path d="M722.617,620.918a.252.252,0,1,0-.252.252.252.252,0,0,0,.252-.252" transform="translate(-694.976 -607.805)" style="fill:#00b4c8"/><path d="M721.306,620.2a.252.252,0,1,0-.5,0,.252.252,0,1,0,.5,0" transform="translate(-694.976 -607.805)" style="fill:#00b4c8"/><path d="M720.71,621.752a.252.252,0,1,0-.252.252.252.252,0,0,0,.252-.252" transform="translate(-694.976 -607.805)" style="fill:#00b4c8"/><path d="M718.683,615.442a.252.252,0,1,0-.252.252.251.251,0,0,0,.252-.252" transform="translate(-694.976 -607.805)" style="fill:#00b4c8"/><path d="M717.181,616.334a.252.252,0,1,0-.252.252.252.252,0,0,0,.252-.252" transform="translate(-694.976 -607.805)" style="fill:#00b4c8"/><path d="M717.134,621.453a.252.252,0,1,0-.252.252.252.252,0,0,0,.252-.252" transform="translate(-694.976 -607.805)" style="fill:#00b4c8"/><path d="M725.232,619.328a.252.252,0,1,0-.252.252.252.252,0,0,0,.252-.252" transform="translate(-694.976 -607.805)" style="fill:#00b4c8"/><path d="M726.291,620.918a.252.252,0,1,0-.5,0,.252.252,0,0,0,.5,0" transform="translate(-694.976 -607.805)" style="fill:#00b4c8"/><path d="M725.695,617.465a.252.252,0,1,0-.252.252.253.253,0,0,0,.252-.252" transform="translate(-694.976 -607.805)" style="fill:#00b4c8"/><path d="M727.183,616.334a.252.252,0,1,0-.252.252.253.253,0,0,0,.252-.252" transform="translate(-694.976 -607.805)" style="fill:#00b4c8"/><path d="M728.611,615.739a.252.252,0,1,0-.252.251.252.252,0,0,0,.252-.251" transform="translate(-694.976 -607.805)" style="fill:#00b4c8"/><path d="M728.492,617.7a.252.252,0,1,0-.252.252.252.252,0,0,0,.252-.252" transform="translate(-694.976 -607.805)" style="fill:#00b4c8"/><path d="M727.064,618.836a.252.252,0,1,0-.252.252.253.253,0,0,0,.252-.252" transform="translate(-694.976 -607.805)" style="fill:#00b4c8"/><path d="M729.98,616.276a.252.252,0,0,0-.5,0,.252.252,0,0,0,.5,0" transform="translate(-694.976 -607.805)" style="fill:#00b4c8"/><path d="M729.564,618.895a.252.252,0,0,0-.5,0,.252.252,0,0,0,.5,0" transform="translate(-694.976 -607.805)" style="fill:#00b4c8"/><path d="M730.753,618a.252.252,0,0,0-.5,0,.252.252,0,0,0,.5,0" transform="translate(-694.976 -607.805)" style="fill:#00b4c8"/><path d="M730.933,619.61a.252.252,0,1,0-.252.252.251.251,0,0,0,.252-.252" transform="translate(-694.976 -607.805)" style="fill:#00b4c8"/><path d="M729.8,620.918a.252.252,0,1,0-.252.252.252.252,0,0,0,.252-.252" transform="translate(-694.976 -607.805)" style="fill:#00b4c8"/><path d="M728.492,620.2a.252.252,0,1,0-.252.252.251.251,0,0,0,.252-.252" transform="translate(-694.976 -607.805)" style="fill:#00b4c8"/><path d="M727.9,621.752a.252.252,0,1,0-.252.252.252.252,0,0,0,.252-.252" transform="translate(-694.976 -607.805)" style="fill:#00b4c8"/><path d="M725.869,615.442a.252.252,0,1,0-.252.252.252.252,0,0,0,.252-.252" transform="translate(-694.976 -607.805)" style="fill:#00b4c8"/><path d="M724.367,616.334a.252.252,0,1,0-.252.252.252.252,0,0,0,.252-.252" transform="translate(-694.976 -607.805)" style="fill:#00b4c8"/><path d="M724.32,621.453a.252.252,0,1,0-.252.252.252.252,0,0,0,.252-.252" transform="translate(-694.976 -607.805)" style="fill:#00b4c8"/><path d="M696.437,626.532a.252.252,0,1,0-.252.252.251.251,0,0,0,.252-.252" transform="translate(-694.976 -607.805)" style="fill:#00b4c8"/><path d="M697.5,628.121a.252.252,0,1,0-.5,0,.252.252,0,1,0,.5,0" transform="translate(-694.976 -607.805)" style="fill:#00b4c8"/><path d="M696.9,624.668a.252.252,0,1,0-.252.252.253.253,0,0,0,.252-.252" transform="translate(-694.976 -607.805)" style="fill:#00b4c8"/><path d="M698.388,623.537a.252.252,0,1,0-.252.252.252.252,0,0,0,.252-.252" transform="translate(-694.976 -607.805)" style="fill:#00b4c8"/><path d="M699.816,622.942a.252.252,0,1,0-.252.252.252.252,0,0,0,.252-.252" transform="translate(-694.976 -607.805)" style="fill:#00b4c8"/><path d="M699.7,624.907a.252.252,0,1,0-.252.252.252.252,0,0,0,.252-.252" transform="translate(-694.976 -607.805)" style="fill:#00b4c8"/><path d="M698.269,626.039a.252.252,0,1,0-.252.252.253.253,0,0,0,.252-.252" transform="translate(-694.976 -607.805)" style="fill:#00b4c8"/><path d="M701.185,623.479a.252.252,0,0,0-.5,0,.252.252,0,0,0,.5,0" transform="translate(-694.976 -607.805)" style="fill:#00b4c8"/><path d="M700.769,626.1a.252.252,0,0,0-.5,0,.252.252,0,1,0,.5,0" transform="translate(-694.976 -607.805)" style="fill:#00b4c8"/><path d="M701.958,625.2a.252.252,0,1,0-.5,0,.252.252,0,1,0,.5,0" transform="translate(-694.976 -607.805)" style="fill:#00b4c8"/><path d="M702.138,626.813a.252.252,0,1,0-.252.252.251.251,0,0,0,.252-.252" transform="translate(-694.976 -607.805)" style="fill:#00b4c8"/><path d="M701.007,628.121a.252.252,0,1,0-.252.252.252.252,0,0,0,.252-.252" transform="translate(-694.976 -607.805)" style="fill:#00b4c8"/><path d="M699.7,627.409a.252.252,0,1,0-.252.251.25.25,0,0,0,.252-.251" transform="translate(-694.976 -607.805)" style="fill:#00b4c8"/><path d="M699.1,628.955a.252.252,0,1,0-.252.252.252.252,0,0,0,.252-.252" transform="translate(-694.976 -607.805)" style="fill:#00b4c8"/><path d="M697.076,622.645a.252.252,0,1,0-.252.252.252.252,0,0,0,.252-.252" transform="translate(-694.976 -607.805)" style="fill:#00b4c8"/><path d="M695.574,623.537a.252.252,0,1,0-.252.252.251.251,0,0,0,.252-.252" transform="translate(-694.976 -607.805)" style="fill:#00b4c8"/><path d="M695.525,628.657a.252.252,0,1,0-.252.252.251.251,0,0,0,.252-.252" transform="translate(-694.976 -607.805)" style="fill:#00b4c8"/><path d="M703.64,626.532a.252.252,0,1,0-.252.252.251.251,0,0,0,.252-.252" transform="translate(-694.976 -607.805)" style="fill:#00b4c8"/><path d="M704.7,628.121a.252.252,0,1,0-.5,0,.252.252,0,1,0,.5,0" transform="translate(-694.976 -607.805)" style="fill:#00b4c8"/><path d="M704.1,624.668a.252.252,0,1,0-.252.252.253.253,0,0,0,.252-.252" transform="translate(-694.976 -607.805)" style="fill:#00b4c8"/><path d="M705.591,623.537a.252.252,0,1,0-.252.252.252.252,0,0,0,.252-.252" transform="translate(-694.976 -607.805)" style="fill:#00b4c8"/><path d="M707.019,622.942a.252.252,0,1,0-.252.252.251.251,0,0,0,.252-.252" transform="translate(-694.976 -607.805)" style="fill:#00b4c8"/><path d="M706.9,624.907a.252.252,0,1,0-.252.252.251.251,0,0,0,.252-.252" transform="translate(-694.976 -607.805)" style="fill:#00b4c8"/><path d="M705.472,626.039a.252.252,0,1,0-.252.252.253.253,0,0,0,.252-.252" transform="translate(-694.976 -607.805)" style="fill:#00b4c8"/><path d="M708.388,623.479a.252.252,0,0,0-.5,0,.252.252,0,1,0,.5,0" transform="translate(-694.976 -607.805)" style="fill:#00b4c8"/><path d="M707.972,626.1a.252.252,0,0,0-.5,0,.252.252,0,1,0,.5,0" transform="translate(-694.976 -607.805)" style="fill:#00b4c8"/><path d="M709.162,625.2a.252.252,0,1,0-.252.252.251.251,0,0,0,.252-.252" transform="translate(-694.976 -607.805)" style="fill:#00b4c8"/><path d="M709.341,626.813a.252.252,0,0,0-.5,0,.252.252,0,1,0,.5,0" transform="translate(-694.976 -607.805)" style="fill:#00b4c8"/><path d="M708.21,628.121a.252.252,0,1,0-.252.252.252.252,0,0,0,.252-.252" transform="translate(-694.976 -607.805)" style="fill:#00b4c8"/><path d="M706.9,627.409a.252.252,0,1,0-.252.251.25.25,0,0,0,.252-.251" transform="translate(-694.976 -607.805)" style="fill:#00b4c8"/><path d="M706.3,628.955a.252.252,0,1,0-.252.252.252.252,0,0,0,.252-.252" transform="translate(-694.976 -607.805)" style="fill:#00b4c8"/><path d="M704.279,622.645a.252.252,0,1,0-.252.252.252.252,0,0,0,.252-.252" transform="translate(-694.976 -607.805)" style="fill:#00b4c8"/><path d="M702.777,623.537a.252.252,0,1,0-.252.252.251.251,0,0,0,.252-.252" transform="translate(-694.976 -607.805)" style="fill:#00b4c8"/><path d="M702.728,628.657a.252.252,0,1,0-.252.252.251.251,0,0,0,.252-.252" transform="translate(-694.976 -607.805)" style="fill:#00b4c8"/><path d="M710.843,626.532a.252.252,0,1,0-.252.252.251.251,0,0,0,.252-.252" transform="translate(-694.976 -607.805)" style="fill:#00b4c8"/><path d="M711.9,628.121a.252.252,0,1,0-.252.252.253.253,0,0,0,.252-.252" transform="translate(-694.976 -607.805)" style="fill:#00b4c8"/><path d="M711.306,624.668a.252.252,0,1,0-.252.252.253.253,0,0,0,.252-.252" transform="translate(-694.976 -607.805)" style="fill:#00b4c8"/><path d="M712.794,623.537a.252.252,0,1,0-.252.252.252.252,0,0,0,.252-.252" transform="translate(-694.976 -607.805)" style="fill:#00b4c8"/><path d="M714.222,622.942a.252.252,0,1,0-.252.252.251.251,0,0,0,.252-.252" transform="translate(-694.976 -607.805)" style="fill:#00b4c8"/><path d="M714.1,624.907a.252.252,0,1,0-.252.252.251.251,0,0,0,.252-.252" transform="translate(-694.976 -607.805)" style="fill:#00b4c8"/><path d="M712.675,626.039a.252.252,0,1,0-.252.252.253.253,0,0,0,.252-.252" transform="translate(-694.976 -607.805)" style="fill:#00b4c8"/><path d="M715.591,623.479a.252.252,0,0,0-.5,0,.252.252,0,1,0,.5,0" transform="translate(-694.976 -607.805)" style="fill:#00b4c8"/><path d="M715.175,626.1a.252.252,0,0,0-.5,0,.252.252,0,1,0,.5,0" transform="translate(-694.976 -607.805)" style="fill:#00b4c8"/><path d="M716.365,625.2a.252.252,0,1,0-.252.252.251.251,0,0,0,.252-.252" transform="translate(-694.976 -607.805)" style="fill:#00b4c8"/><path d="M716.544,626.813a.252.252,0,1,0-.252.252.251.251,0,0,0,.252-.252" transform="translate(-694.976 -607.805)" style="fill:#00b4c8"/><path d="M715.414,628.121a.252.252,0,1,0-.252.252.252.252,0,0,0,.252-.252" transform="translate(-694.976 -607.805)" style="fill:#00b4c8"/><path d="M714.1,627.409a.252.252,0,1,0-.252.251.25.25,0,0,0,.252-.251" transform="translate(-694.976 -607.805)" style="fill:#00b4c8"/><path d="M713.507,628.955a.252.252,0,1,0-.252.252.252.252,0,0,0,.252-.252" transform="translate(-694.976 -607.805)" style="fill:#00b4c8"/><path d="M711.482,622.645a.252.252,0,1,0-.252.252.251.251,0,0,0,.252-.252" transform="translate(-694.976 -607.805)" style="fill:#00b4c8"/><path d="M709.98,623.537a.252.252,0,1,0-.252.252.251.251,0,0,0,.252-.252" transform="translate(-694.976 -607.805)" style="fill:#00b4c8"/><path d="M709.931,628.657a.252.252,0,1,0-.252.252.251.251,0,0,0,.252-.252" transform="translate(-694.976 -607.805)" style="fill:#00b4c8"/><path d="M718.046,626.532a.252.252,0,1,0-.252.252.251.251,0,0,0,.252-.252" transform="translate(-694.976 -607.805)" style="fill:#00b4c8"/><path d="M719.1,628.121a.252.252,0,1,0-.252.252.253.253,0,0,0,.252-.252" transform="translate(-694.976 -607.805)" style="fill:#00b4c8"/><path d="M718.509,624.668a.252.252,0,1,0-.252.252.253.253,0,0,0,.252-.252" transform="translate(-694.976 -607.805)" style="fill:#00b4c8"/><path d="M720,623.537a.252.252,0,1,0-.251.252.252.252,0,0,0,.251-.252" transform="translate(-694.976 -607.805)" style="fill:#00b4c8"/><path d="M721.425,622.942a.252.252,0,1,0-.252.252.251.251,0,0,0,.252-.252" transform="translate(-694.976 -607.805)" style="fill:#00b4c8"/><path d="M721.306,624.907a.252.252,0,0,0-.5,0,.252.252,0,1,0,.5,0" transform="translate(-694.976 -607.805)" style="fill:#00b4c8"/><path d="M719.878,626.039a.252.252,0,1,0-.252.252.253.253,0,0,0,.252-.252" transform="translate(-694.976 -607.805)" style="fill:#00b4c8"/><path d="M722.794,623.479a.252.252,0,1,0-.252.252.25.25,0,0,0,.252-.252" transform="translate(-694.976 -607.805)" style="fill:#00b4c8"/><path d="M722.378,626.1a.252.252,0,0,0-.5,0,.252.252,0,1,0,.5,0" transform="translate(-694.976 -607.805)" style="fill:#00b4c8"/><path d="M723.568,625.2a.252.252,0,1,0-.252.252.251.251,0,0,0,.252-.252" transform="translate(-694.976 -607.805)" style="fill:#00b4c8"/><path d="M723.747,626.813a.252.252,0,1,0-.251.252.251.251,0,0,0,.251-.252" transform="translate(-694.976 -607.805)" style="fill:#00b4c8"/><path d="M722.617,628.121a.252.252,0,1,0-.252.252.252.252,0,0,0,.252-.252" transform="translate(-694.976 -607.805)" style="fill:#00b4c8"/><path d="M721.306,627.409a.252.252,0,1,0-.5,0,.252.252,0,0,0,.5,0" transform="translate(-694.976 -607.805)" style="fill:#00b4c8"/><path d="M720.71,628.955a.252.252,0,1,0-.252.252.252.252,0,0,0,.252-.252" transform="translate(-694.976 -607.805)" style="fill:#00b4c8"/><path d="M718.683,622.645a.252.252,0,1,0-.252.252.251.251,0,0,0,.252-.252" transform="translate(-694.976 -607.805)" style="fill:#00b4c8"/><path d="M717.181,623.537a.252.252,0,1,0-.252.252.251.251,0,0,0,.252-.252" transform="translate(-694.976 -607.805)" style="fill:#00b4c8"/><path d="M717.134,628.657a.252.252,0,1,0-.252.252.251.251,0,0,0,.252-.252" transform="translate(-694.976 -607.805)" style="fill:#00b4c8"/><path d="M725.232,626.532a.252.252,0,1,0-.252.252.251.251,0,0,0,.252-.252" transform="translate(-694.976 -607.805)" style="fill:#00b4c8"/><path d="M726.291,628.121a.252.252,0,1,0-.5,0,.252.252,0,1,0,.5,0" transform="translate(-694.976 -607.805)" style="fill:#00b4c8"/><path d="M725.695,624.668a.252.252,0,1,0-.252.252.254.254,0,0,0,.252-.252" transform="translate(-694.976 -607.805)" style="fill:#00b4c8"/><path d="M727.183,623.537a.252.252,0,1,0-.252.252.252.252,0,0,0,.252-.252" transform="translate(-694.976 -607.805)" style="fill:#00b4c8"/><path d="M728.611,622.942a.252.252,0,1,0-.252.252.252.252,0,0,0,.252-.252" transform="translate(-694.976 -607.805)" style="fill:#00b4c8"/><path d="M728.492,624.907a.252.252,0,1,0-.252.252.252.252,0,0,0,.252-.252" transform="translate(-694.976 -607.805)" style="fill:#00b4c8"/><path d="M727.064,626.039a.252.252,0,1,0-.252.252.253.253,0,0,0,.252-.252" transform="translate(-694.976 -607.805)" style="fill:#00b4c8"/><path d="M729.98,623.479a.252.252,0,0,0-.5,0,.252.252,0,0,0,.5,0" transform="translate(-694.976 -607.805)" style="fill:#00b4c8"/><path d="M729.564,626.1a.252.252,0,0,0-.5,0,.252.252,0,1,0,.5,0" transform="translate(-694.976 -607.805)" style="fill:#00b4c8"/><path d="M730.753,625.2a.252.252,0,0,0-.5,0,.252.252,0,0,0,.5,0" transform="translate(-694.976 -607.805)" style="fill:#00b4c8"/><path d="M730.933,626.813a.252.252,0,1,0-.252.252.251.251,0,0,0,.252-.252" transform="translate(-694.976 -607.805)" style="fill:#00b4c8"/><path d="M729.8,628.121a.252.252,0,1,0-.252.252.252.252,0,0,0,.252-.252" transform="translate(-694.976 -607.805)" style="fill:#00b4c8"/><path d="M728.492,627.409a.252.252,0,1,0-.252.251.25.25,0,0,0,.252-.251" transform="translate(-694.976 -607.805)" style="fill:#00b4c8"/><path d="M727.9,628.955a.252.252,0,1,0-.252.252.252.252,0,0,0,.252-.252" transform="translate(-694.976 -607.805)" style="fill:#00b4c8"/><path d="M725.869,622.645a.252.252,0,1,0-.252.252.252.252,0,0,0,.252-.252" transform="translate(-694.976 -607.805)" style="fill:#00b4c8"/><path d="M724.367,623.537a.252.252,0,1,0-.252.252.251.251,0,0,0,.252-.252" transform="translate(-694.976 -607.805)" style="fill:#00b4c8"/><path d="M724.32,628.657a.252.252,0,1,0-.252.252.252.252,0,0,0,.252-.252" transform="translate(-694.976 -607.805)" style="fill:#00b4c8"/><path d="M696.437,612.131a.252.252,0,1,0-.252.252.251.251,0,0,0,.252-.252" transform="translate(-694.976 -607.805)" style="fill:#00b4c8"/><path d="M697.5,613.721a.252.252,0,1,0-.252.252.253.253,0,0,0,.252-.252" transform="translate(-694.976 -607.805)" style="fill:#00b4c8"/><path d="M696.9,610.268a.252.252,0,1,0-.252.252.252.252,0,0,0,.252-.252" transform="translate(-694.976 -607.805)" style="fill:#00b4c8"/><path d="M698.388,609.137a.252.252,0,1,0-.252.252.252.252,0,0,0,.252-.252" transform="translate(-694.976 -607.805)" style="fill:#00b4c8"/><path d="M699.816,608.541a.252.252,0,1,0-.252.252.252.252,0,0,0,.252-.252" transform="translate(-694.976 -607.805)" style="fill:#00b4c8"/><path d="M699.7,610.506a.252.252,0,1,0-.252.252.252.252,0,0,0,.252-.252" transform="translate(-694.976 -607.805)" style="fill:#00b4c8"/><path d="M698.269,611.639a.252.252,0,1,0-.252.252.252.252,0,0,0,.252-.252" transform="translate(-694.976 -607.805)" style="fill:#00b4c8"/><path d="M701.185,609.078a.252.252,0,1,0-.252.252.25.25,0,0,0,.252-.252" transform="translate(-694.976 -607.805)" style="fill:#00b4c8"/><path d="M700.769,611.7a.252.252,0,0,0-.5,0,.252.252,0,1,0,.5,0" transform="translate(-694.976 -607.805)" style="fill:#00b4c8"/><path d="M701.958,610.8a.252.252,0,1,0-.5,0,.252.252,0,1,0,.5,0" transform="translate(-694.976 -607.805)" style="fill:#00b4c8"/><path d="M702.138,612.412a.252.252,0,1,0-.252.252.251.251,0,0,0,.252-.252" transform="translate(-694.976 -607.805)" style="fill:#00b4c8"/><path d="M701.007,613.721a.252.252,0,1,0-.252.252.251.251,0,0,0,.252-.252" transform="translate(-694.976 -607.805)" style="fill:#00b4c8"/><path d="M699.7,613.008a.252.252,0,1,0-.252.252.251.251,0,0,0,.252-.252" transform="translate(-694.976 -607.805)" style="fill:#00b4c8"/><path d="M699.1,614.555a.252.252,0,1,0-.252.252.251.251,0,0,0,.252-.252" transform="translate(-694.976 -607.805)" style="fill:#00b4c8"/><path d="M697.076,608.245a.252.252,0,1,0-.252.251.252.252,0,0,0,.252-.251" transform="translate(-694.976 -607.805)" style="fill:#00b4c8"/><path d="M695.574,609.137a.252.252,0,1,0-.252.252.252.252,0,0,0,.252-.252" transform="translate(-694.976 -607.805)" style="fill:#00b4c8"/><path d="M695.525,614.256a.252.252,0,1,0-.252.252.251.251,0,0,0,.252-.252" transform="translate(-694.976 -607.805)" style="fill:#00b4c8"/><path d="M703.64,612.131a.252.252,0,1,0-.252.252.251.251,0,0,0,.252-.252" transform="translate(-694.976 -607.805)" style="fill:#00b4c8"/><path d="M704.7,613.721a.252.252,0,1,0-.252.252.253.253,0,0,0,.252-.252" transform="translate(-694.976 -607.805)" style="fill:#00b4c8"/><path d="M704.1,610.268a.252.252,0,1,0-.252.252.252.252,0,0,0,.252-.252" transform="translate(-694.976 -607.805)" style="fill:#00b4c8"/><path d="M705.591,609.137a.252.252,0,1,0-.252.252.252.252,0,0,0,.252-.252" transform="translate(-694.976 -607.805)" style="fill:#00b4c8"/><path d="M707.019,608.541a.252.252,0,1,0-.252.252.252.252,0,0,0,.252-.252" transform="translate(-694.976 -607.805)" style="fill:#00b4c8"/><path d="M706.9,610.506a.252.252,0,1,0-.252.252.252.252,0,0,0,.252-.252" transform="translate(-694.976 -607.805)" style="fill:#00b4c8"/><path d="M705.472,611.639a.252.252,0,1,0-.252.252.252.252,0,0,0,.252-.252" transform="translate(-694.976 -607.805)" style="fill:#00b4c8"/><path d="M708.388,609.078a.252.252,0,1,0-.252.252.25.25,0,0,0,.252-.252" transform="translate(-694.976 -607.805)" style="fill:#00b4c8"/><path d="M707.972,611.7a.252.252,0,0,0-.5,0,.252.252,0,0,0,.5,0" transform="translate(-694.976 -607.805)" style="fill:#00b4c8"/><path d="M709.162,610.8a.252.252,0,1,0-.252.252.25.25,0,0,0,.252-.252" transform="translate(-694.976 -607.805)" style="fill:#00b4c8"/><path d="M709.341,612.412a.252.252,0,1,0-.252.252.251.251,0,0,0,.252-.252" transform="translate(-694.976 -607.805)" style="fill:#00b4c8"/><path d="M708.21,613.721a.252.252,0,1,0-.252.252.251.251,0,0,0,.252-.252" transform="translate(-694.976 -607.805)" style="fill:#00b4c8"/><path d="M706.9,613.008a.252.252,0,1,0-.252.252.25.25,0,0,0,.252-.252" transform="translate(-694.976 -607.805)" style="fill:#00b4c8"/><path d="M706.3,614.555a.252.252,0,1,0-.252.252.251.251,0,0,0,.252-.252" transform="translate(-694.976 -607.805)" style="fill:#00b4c8"/><path d="M704.279,608.245a.252.252,0,1,0-.252.251.252.252,0,0,0,.252-.251" transform="translate(-694.976 -607.805)" style="fill:#00b4c8"/><path d="M702.777,609.137a.252.252,0,1,0-.252.252.252.252,0,0,0,.252-.252" transform="translate(-694.976 -607.805)" style="fill:#00b4c8"/><path d="M702.728,614.256a.252.252,0,1,0-.252.252.251.251,0,0,0,.252-.252" transform="translate(-694.976 -607.805)" style="fill:#00b4c8"/><path d="M710.843,612.131a.252.252,0,1,0-.252.252.251.251,0,0,0,.252-.252" transform="translate(-694.976 -607.805)" style="fill:#00b4c8"/><path d="M711.9,613.721a.252.252,0,1,0-.252.252.252.252,0,0,0,.252-.252" transform="translate(-694.976 -607.805)" style="fill:#00b4c8"/><path d="M711.306,610.268a.252.252,0,1,0-.252.252.252.252,0,0,0,.252-.252" transform="translate(-694.976 -607.805)" style="fill:#00b4c8"/><path d="M712.794,609.137a.252.252,0,1,0-.252.252.252.252,0,0,0,.252-.252" transform="translate(-694.976 -607.805)" style="fill:#00b4c8"/><path d="M714.222,608.541a.252.252,0,1,0-.252.252.252.252,0,0,0,.252-.252" transform="translate(-694.976 -607.805)" style="fill:#00b4c8"/><path d="M714.1,610.506a.252.252,0,1,0-.252.252.252.252,0,0,0,.252-.252" transform="translate(-694.976 -607.805)" style="fill:#00b4c8"/><path d="M712.675,611.639a.252.252,0,1,0-.252.252.252.252,0,0,0,.252-.252" transform="translate(-694.976 -607.805)" style="fill:#00b4c8"/><path d="M715.591,609.078a.252.252,0,1,0-.5,0,.252.252,0,1,0,.5,0" transform="translate(-694.976 -607.805)" style="fill:#00b4c8"/><path d="M715.175,611.7a.252.252,0,0,0-.5,0,.252.252,0,1,0,.5,0" transform="translate(-694.976 -607.805)" style="fill:#00b4c8"/><path d="M716.365,610.8a.252.252,0,1,0-.252.252.25.25,0,0,0,.252-.252" transform="translate(-694.976 -607.805)" style="fill:#00b4c8"/><path d="M716.544,612.412a.252.252,0,1,0-.252.252.251.251,0,0,0,.252-.252" transform="translate(-694.976 -607.805)" style="fill:#00b4c8"/><path d="M715.414,613.721a.252.252,0,1,0-.252.252.252.252,0,0,0,.252-.252" transform="translate(-694.976 -607.805)" style="fill:#00b4c8"/><path d="M714.1,613.008a.252.252,0,1,0-.252.252.25.25,0,0,0,.252-.252" transform="translate(-694.976 -607.805)" style="fill:#00b4c8"/><path d="M713.507,614.555a.252.252,0,1,0-.252.252.251.251,0,0,0,.252-.252" transform="translate(-694.976 -607.805)" style="fill:#00b4c8"/><path d="M711.482,608.245a.252.252,0,1,0-.252.251.251.251,0,0,0,.252-.251" transform="translate(-694.976 -607.805)" style="fill:#00b4c8"/><path d="M709.98,609.137a.252.252,0,1,0-.252.252.251.251,0,0,0,.252-.252" transform="translate(-694.976 -607.805)" style="fill:#00b4c8"/><path d="M709.931,614.256a.252.252,0,1,0-.252.252.251.251,0,0,0,.252-.252" transform="translate(-694.976 -607.805)" style="fill:#00b4c8"/><path d="M718.046,612.131a.252.252,0,1,0-.252.252.251.251,0,0,0,.252-.252" transform="translate(-694.976 -607.805)" style="fill:#00b4c8"/><path d="M719.1,613.721a.252.252,0,1,0-.252.252.252.252,0,0,0,.252-.252" transform="translate(-694.976 -607.805)" style="fill:#00b4c8"/><path d="M718.509,610.268a.252.252,0,1,0-.252.252.252.252,0,0,0,.252-.252" transform="translate(-694.976 -607.805)" style="fill:#00b4c8"/><path d="M720,609.137a.252.252,0,1,0-.251.252.252.252,0,0,0,.251-.252" transform="translate(-694.976 -607.805)" style="fill:#00b4c8"/><path d="M721.425,608.541a.252.252,0,1,0-.252.252.252.252,0,0,0,.252-.252" transform="translate(-694.976 -607.805)" style="fill:#00b4c8"/><path d="M721.306,610.506a.252.252,0,1,0-.252.252.252.252,0,0,0,.252-.252" transform="translate(-694.976 -607.805)" style="fill:#00b4c8"/><path d="M719.878,611.639a.252.252,0,1,0-.252.252.252.252,0,0,0,.252-.252" transform="translate(-694.976 -607.805)" style="fill:#00b4c8"/><path d="M722.794,609.078a.252.252,0,1,0-.252.252.25.25,0,0,0,.252-.252" transform="translate(-694.976 -607.805)" style="fill:#00b4c8"/><path d="M722.378,611.7a.252.252,0,0,0-.5,0,.252.252,0,1,0,.5,0" transform="translate(-694.976 -607.805)" style="fill:#00b4c8"/><path d="M723.568,610.8a.252.252,0,1,0-.252.252.25.25,0,0,0,.252-.252" transform="translate(-694.976 -607.805)" style="fill:#00b4c8"/><path d="M723.747,612.412a.252.252,0,1,0-.251.252.251.251,0,0,0,.251-.252" transform="translate(-694.976 -607.805)" style="fill:#00b4c8"/><path d="M722.617,613.721a.252.252,0,1,0-.252.252.252.252,0,0,0,.252-.252" transform="translate(-694.976 -607.805)" style="fill:#00b4c8"/><path d="M721.306,613.008a.252.252,0,0,0-.5,0,.252.252,0,1,0,.5,0" transform="translate(-694.976 -607.805)" style="fill:#00b4c8"/><path d="M720.71,614.555a.252.252,0,1,0-.252.252.251.251,0,0,0,.252-.252" transform="translate(-694.976 -607.805)" style="fill:#00b4c8"/><path d="M718.683,608.245a.252.252,0,1,0-.252.251.251.251,0,0,0,.252-.251" transform="translate(-694.976 -607.805)" style="fill:#00b4c8"/><path d="M717.181,609.137a.252.252,0,1,0-.252.252.251.251,0,0,0,.252-.252" transform="translate(-694.976 -607.805)" style="fill:#00b4c8"/><path d="M717.134,614.256a.252.252,0,1,0-.252.252.251.251,0,0,0,.252-.252" transform="translate(-694.976 -607.805)" style="fill:#00b4c8"/><path d="M725.232,612.131a.252.252,0,1,0-.252.252.251.251,0,0,0,.252-.252" transform="translate(-694.976 -607.805)" style="fill:#00b4c8"/><path d="M726.291,613.721a.252.252,0,1,0-.252.252.253.253,0,0,0,.252-.252" transform="translate(-694.976 -607.805)" style="fill:#00b4c8"/><path d="M725.695,610.268a.252.252,0,1,0-.252.252.253.253,0,0,0,.252-.252" transform="translate(-694.976 -607.805)" style="fill:#00b4c8"/><path d="M727.183,609.137a.252.252,0,1,0-.252.252.252.252,0,0,0,.252-.252" transform="translate(-694.976 -607.805)" style="fill:#00b4c8"/><path d="M728.611,608.541a.252.252,0,1,0-.252.252.252.252,0,0,0,.252-.252" transform="translate(-694.976 -607.805)" style="fill:#00b4c8"/><path d="M728.492,610.506a.252.252,0,1,0-.252.252.252.252,0,0,0,.252-.252" transform="translate(-694.976 -607.805)" style="fill:#00b4c8"/><path d="M727.064,611.639a.252.252,0,1,0-.252.252.252.252,0,0,0,.252-.252" transform="translate(-694.976 -607.805)" style="fill:#00b4c8"/><path d="M729.98,609.078a.252.252,0,1,0-.252.252.25.25,0,0,0,.252-.252" transform="translate(-694.976 -607.805)" style="fill:#00b4c8"/><path d="M729.564,611.7a.252.252,0,0,0-.5,0,.252.252,0,0,0,.5,0" transform="translate(-694.976 -607.805)" style="fill:#00b4c8"/><path d="M730.753,610.8a.252.252,0,0,0-.5,0,.252.252,0,0,0,.5,0" transform="translate(-694.976 -607.805)" style="fill:#00b4c8"/><path d="M730.933,612.412a.252.252,0,1,0-.252.252.251.251,0,0,0,.252-.252" transform="translate(-694.976 -607.805)" style="fill:#00b4c8"/><path d="M729.8,613.721a.252.252,0,1,0-.252.252.251.251,0,0,0,.252-.252" transform="translate(-694.976 -607.805)" style="fill:#00b4c8"/><path d="M728.492,613.008a.252.252,0,1,0-.252.252.251.251,0,0,0,.252-.252" transform="translate(-694.976 -607.805)" style="fill:#00b4c8"/><path d="M727.9,614.555a.252.252,0,1,0-.252.252.251.251,0,0,0,.252-.252" transform="translate(-694.976 -607.805)" style="fill:#00b4c8"/><path d="M725.869,608.245a.252.252,0,1,0-.252.251.252.252,0,0,0,.252-.251" transform="translate(-694.976 -607.805)" style="fill:#00b4c8"/><path d="M724.367,609.137a.252.252,0,1,0-.252.252.252.252,0,0,0,.252-.252" transform="translate(-694.976 -607.805)" style="fill:#00b4c8"/><path d="M724.32,614.256a.252.252,0,1,0-.252.252.252.252,0,0,0,.252-.252" transform="translate(-694.976 -607.805)" style="fill:#00b4c8"/></svg>